<?xml version="1.0" encoding="utf-8"?>
<!-- Generator: Adobe Illustrator 16.0.0, SVG Export Plug-In . SVG Version: 6.00 Build 0)  -->
<!DOCTYPE svg PUBLIC "-//W3C//DTD SVG 1.1//EN" "http://www.w3.org/Graphics/SVG/1.1/DTD/svg11.dtd">
<svg version="1.1" id="Layer_1" xmlns="http://www.w3.org/2000/svg" xmlns:xlink="http://www.w3.org/1999/xlink" x="0px" y="0px"
	 width="2021.797px" height="638.838px" viewBox="0 0 2021.797 638.838" enable-background="new 0 0 2021.797 638.838"
	 xml:space="preserve">
<path id="Path_183801" opacity="0.05" fill="#148569" enable-background="new    " d="M1.484,108.919c0,0,80.7-107.18,454.49-70.043
	c373.791,37.137,649.214,201.381,1040.669,218.59c391.458,17.209,525.154-149.752,525.154-149.752v370.758
	c0,0-179.87,97.824-525.154,102.652c-345.282,4.828-442.846-146.73-823.862-152.166C291.763,423.522,0,622.919,0,622.919
	L1.484,108.919z"/>
<path id="Path_183801_1_" opacity="0.05" fill="#148569" enable-background="new    " d="M1.484,143.919
	c0,0,80.7-107.18,454.49-70.043c373.791,37.137,649.214,201.381,1040.669,218.59c391.458,17.209,525.154-149.752,525.154-149.752
	v370.758c0,0-179.87,97.824-525.154,102.652c-345.282,4.828-442.846-146.73-823.862-152.166C291.763,458.522,0,657.919,0,657.919
	L1.484,143.919z"/>
</svg>
