<svg xmlns="http://www.w3.org/2000/svg" width="17.17" height="21.876" viewBox="0 0 17.17 21.876">
    <path fill="#fff" stroke="#2d2d2d" stroke-miterlimit="10" stroke-width="0.4px" d="M-644.246 2489.605c1.254.086 1.608-.9 2.636-.763a3.821 3.821 0 0 1 2.493 4.66 4.045 4.045 0 0 1-3.6 2.037c-4.205.179-7.272-5.368-7.947-6.588-.719-1.3-3.878-7.018-1.352-10.67.849-1.225 2.756-2.828 4.476-2.194a3.6 3.6 0 0 1 1.838 4.4c-.517 1.148-1.684.875-2.35 2.1-.979 1.8.531 4.251.843 4.724.409.618 1.437 2.189 2.963 2.294z" transform="rotate(-8 -18014.194 -3431.87)"/>
</svg>
