<svg xmlns="http://www.w3.org/2000/svg" width="72.224" height="72.224" viewBox="0 0 72.224 72.224">
    <defs>
        <linearGradient id="cueec5azna" x1=".5" x2=".5" y2="1" gradientUnits="objectBoundingBox">
            <stop offset="0" stop-color="#1778f2"/>
            <stop offset="1" stop-color="#f40009"/>
        </linearGradient>
    </defs>
    <g data-name="Group 188989">
        <path data-name="Rectangle 16364" style="fill:none" d="M0 0h71.824v71.824H0z" transform="translate(.2 .2)"/>
        <g data-name="Group 188830">
            <path data-name="Path 238517" d="M26.241 67.835a85.952 85.952 0 0 1-12.27-10.217 85.773 85.773 0 0 1-9.982-12.035A14.016 14.016 0 0 1 0 35.912a13.636 13.636 0 0 1 3.989-9.671A117.436 117.436 0 0 1 26.241 3.989 14.026 14.026 0 0 1 35.912 0a13.634 13.634 0 0 1 9.671 3.989 133.456 133.456 0 0 1 11.245 9.937 133.742 133.742 0 0 1 11.007 12.315 14.008 14.008 0 0 1 3.989 9.671 13.635 13.635 0 0 1-3.989 9.671 132.987 132.987 0 0 1-11.567 12.879 133.758 133.758 0 0 1-10.686 9.373A14.126 14.126 0 0 1 39.7 71.3a13.458 13.458 0 0 1-3.789.528 14.187 14.187 0 0 1-4.706-.92 15.2 15.2 0 0 1-4.964-3.073z" transform="translate(.2 .2)" style="stroke:#707070;stroke-width:.4px;opacity:.05;fill:url(#cueec5azna)"/>
            <g data-name="Group 188809">
                <path data-name="Path 229167" d="M408.168 81.809c.108-1.845 1.7-3.185 2.923-4.071 11.751-8.507 21.917-8.662 21.917-8.662a37.893 37.893 0 0 1 23.484 9.289c1.843 1.631 2.059 2.95 2.087 3.549a5.416 5.416 0 0 1-1.774 3.757 33.141 33.141 0 0 1-10.436 7.515 33.588 33.588 0 0 1-12.211 2.609 32.833 32.833 0 0 1-13.046-2.609 33.228 33.228 0 0 1-10.646-7.1c-1.287-1.286-2.393-2.644-2.298-4.277z" transform="translate(-396.954 -44.014)" style="stroke-miterlimit:10;stroke:#2d2d2d;fill:#fff"/>
                <g data-name="Group 124171" transform="translate(23.321 25.061)">
                    <circle data-name="Ellipse 51469" cx="13.307" cy="13.307" r="13.307" style="fill:#86bcff"/>
                    <circle data-name="Ellipse 51470" cx="13.307" cy="13.307" r="13.307" style="stroke-miterlimit:10;stroke:#2d2d2d;fill:none"/>
                </g>
                <g data-name="Group 124172" transform="translate(31.497 32.715)">
                    <circle data-name="Ellipse 51471" cx="5.218" cy="5.218" r="5.218" style="fill:#ff8e93"/>
                    <circle data-name="Ellipse 51472" cx="5.218" cy="5.218" r="5.218" style="stroke:#fff;stroke-miterlimit:10;fill:none"/>
                </g>
                <path data-name="Path 229168" d="M410.21 73.739a8.877 8.877 0 0 1-5.137-8.212" transform="translate(-397.743 -44.921)" style="stroke-linecap:round;stroke-miterlimit:10;stroke:#2d2d2d;fill:none"/>
                <path data-name="Path 229169" d="M418.279 69.165a8.914 8.914 0 0 1-3.479-8.071" transform="translate(-395.271 -46.053)" style="stroke-linecap:round;stroke-miterlimit:10;stroke:#2d2d2d;fill:none"/>
                <path data-name="Path 229170" d="M427.648 68.092a25.288 25.288 0 0 0 0-9.88" transform="translate(-391.977 -46.789)" style="stroke-linecap:round;stroke-miterlimit:10;stroke:#2d2d2d;fill:none"/>
                <path data-name="Path 229171" d="M437.514 69.8a9.258 9.258 0 0 0 5.009-7.932" transform="translate(-389.457 -45.855)" style="stroke-linecap:round;stroke-miterlimit:10;stroke:#2d2d2d;fill:none"/>
                <path data-name="Path 229172" d="M446.271 73.649a8 8 0 0 0 5.844-6.68" transform="translate(-387.22 -44.552)" style="stroke-linecap:round;stroke-miterlimit:10;stroke:#2d2d2d;fill:none"/>
            </g>
        </g>
    </g>
</svg>
