<svg xmlns="http://www.w3.org/2000/svg" width="136.832" height="115.769" viewBox="0 0 136.832 115.769">
    <defs>
        <style>
            .cls-2,.cls-3{fill:#ead8b9}.cls-12,.cls-14,.cls-16,.cls-3,.cls-30,.cls-31,.cls-32,.cls-5,.cls-8{stroke:#2d2d2d}.cls-12,.cls-16,.cls-18,.cls-3,.cls-30,.cls-31,.cls-5,.cls-8,.cls-9{stroke-miterlimit:10}.cls-12,.cls-14,.cls-16,.cls-18,.cls-3,.cls-30,.cls-32,.cls-5,.cls-8,.cls-9{stroke-width:.4px}.cls-14,.cls-16,.cls-18,.cls-5{fill:none}.cls-18,.cls-9{stroke:#2d2e2d}.cls-12,.cls-14,.cls-16,.cls-18{stroke-linecap:round}.cls-8{fill:#474747}.cls-11,.cls-31,.cls-9{fill:#fff}.cls-12,.cls-30{fill:#d6ea88}.cls-14{stroke-linejoin:round}.cls-31{stroke-width:.5px}.cls-32{fill:#f4c838}
        </style>
    </defs>
    <g id="Group_88757" data-name="Group 88757" transform="translate(-192.8 -935.815)">
        <g id="Group_88756" data-name="Group 88756">
            <g id="Group_87770" data-name="Group 87770" transform="translate(91.689 820.811)">
                <g id="Group_87769" data-name="Group 87769" transform="translate(101.311 115.19)">
                    <path id="Path_166446" fill="#a3e8e6" d="M1463.478 548.253l21.33-.268a90.322 90.322 0 0 0-5.61-53.555q-7.859 26.913-15.72 53.823z" data-name="Path 166446" transform="translate(-1384.733 -443.321)"/>
                    <path id="Path_166447" d="M1482.443 472.645c.391 2.093.908 4.344 1.593 6.716.436 1.51.9 2.938 1.384 4.286a4.927 4.927 0 0 0-7.2 3.291c-.4-1.539-.864-3.156-1.409-4.834-.536-1.651-1.1-3.208-1.669-4.669z" class="cls-2" data-name="Path 166447" transform="translate(-1387.468 -438.21)"/>
                    <path id="Path_166448" d="M1493.26 554.148a69.179 69.179 0 0 0 4.221-28.257 67.54 67.54 0 0 0-2.113-13.005l-6.73 2.336c.59 2.114 1.113 4.351 1.536 6.71a76.482 76.482 0 0 1-1.207 31.859" class="cls-3" data-name="Path 166448" transform="translate(-1390.635 -447.65)"/>
                    <path id="Path_166449" fill="none" d="M1482.736 476.143l2.315 8.815-7.684 2.132-2.842-9.261z" data-name="Path 166449" transform="translate(-1387.325 -439.03)"/>
                    <path id="Path_166450" d="M1485.4 475.326a33.752 33.752 0 0 0 2.428 8.943" class="cls-5" data-name="Path 166450" transform="translate(-1389.875 -438.839)"/>
                    <path id="Path_166451" d="M1476.643 479.769a8.448 8.448 0 0 0 .191 3.355c.222.815.477 1.225.888 2.455a22.264 22.264 0 0 1 .676 2.5" class="cls-5" data-name="Path 166451" transform="translate(-1387.801 -439.881)"/>
                    <path id="Path_166452" fill="#a3e8e6" stroke="#2d2e2d" stroke-linecap="round" stroke-miterlimit="10" stroke-width="0.4px" d="M1463.478 546.292c4.752-15.418 5.653-26.422 5.5-33.86a50.193 50.193 0 0 1 2.935-16.323c1.712-4.81 3.592-8.79 7.305-9.793a6.222 6.222 0 0 1 3.506.01c1.9.6 2.948 2.067 7.245 11.94a75.931 75.931 0 0 1 2.884 7.781c1.307 4.21 1.255 5.326.8 6.3-.922 2.01-3.182 2.8-4.762 3.354-1.85.643-4.5 1.565-6.4.371-2.034-1.278-1.536-3.932-3.19-11.12-.521-2.265-1.054-4.1-1.43-5.322" data-name="Path 166452" transform="translate(-1384.733 -441.359)"/>
                    <path id="Path_166454" d="M1380.9 427.733c-2.25-.142-6.011.03-8.649 2.671a9.792 9.792 0 0 0-2.383 4.222c-3.4 11.4-2.952 42.863-2.891 50.73 0 .289.054 7.081.513 16.15.255 5.025.507 8.235 1.053 12.017.9 6.231 1.392 9.414 3.351 12.571a18.922 18.922 0 0 0 7.762 6.9" class="cls-8" data-name="Path 166454" transform="translate(-1362.082 -427.665)"/>
                    <path id="Path_166455" d="M1382.03 427.725c6.4-.356 12.266.737 17.032 1.563 4.546.788 10.877 1.816 15.493 4.313a8.494 8.494 0 0 1 3.568 3.327 7.951 7.951 0 0 1 .895 4.42c-.583 6.028-.245 31.981-.254 37.992-.016 10.678 2.826 35.773 2.137 42.64a10.628 10.628 0 0 1-1.416 4.461 15.142 15.142 0 0 1-2.22 2.612c-2.537 2.373-5.511 3.476-16.668 4.78-6.313.738-11.167 1.062-16.456.119a11.084 11.084 0 0 1-6.029-2.719 9.947 9.947 0 0 1-2.827-5.161 361.347 361.347 0 0 1-1.531-91.274 8.281 8.281 0 0 1 3.019-5.352 9.028 9.028 0 0 1 5.257-1.721z" class="cls-9" data-name="Path 166455" transform="translate(-1363.173 -427.656)"/>
                    <path id="Path_166456" d="M1375.149 434.265c7.222.528 14.978 1.367 23.182 2.636 7.578 1.173 14.681 2.579 21.263 4.106" class="cls-9" data-name="Path 166456" transform="translate(-1364.011 -429.206)"/>
                    <path id="Path_166457" d="M1376.615 556.111a151.556 151.556 0 0 0 45.257-4.551" class="cls-9" data-name="Path 166457" transform="translate(-1364.355 -456.723)"/>
                    <path id="Path_166458" d="M1375.826 432.518a7.787 7.787 0 0 1 3.049-3.291 8.408 8.408 0 0 1 2.341-.864 15.279 15.279 0 0 1 3.075-.241c.716-.015 1.568-.031 2.81.007.564.018 2.463.086 5.075.39 1.009.118 1.72.224 3.138.436 1.285.193 2.291.361 4.3.7 1.519.256 2.285.392 2.99.523.5.092 1.081.191 1.847.355 1.726.369 2.589.553 3.165.695.7.171 1.531.377 2.608.706a29.844 29.844 0 0 1 3.04 1.062 15.034 15.034 0 0 1 3.082 1.578 8.193 8.193 0 0 1 1.823 1.64 7.214 7.214 0 0 1 .9 1.484 7.09 7.09 0 0 1 .47 1.454c-6.749-1.562-14.061-3-21.891-4.182-7.709-1.165-15.008-1.948-21.822-2.452z" class="cls-8" data-name="Path 166458" transform="translate(-1364.17 -427.761)"/>
                    <path id="Path_166459" fill="#474747" d="M1377.245 555.974a132.6 132.6 0 0 0 44.527-4.428 11.188 11.188 0 0 1-.875 2.855 12.735 12.735 0 0 1-1.678 2.624 9.835 9.835 0 0 1-1.684 1.837 9.471 9.471 0 0 1-2.143 1.252 17.49 17.49 0 0 1-3.38 1.194c-1.089.256-.831.077-3.355.528-.587.1-1.262.23-2.311.4-.572.09-1.038.153-1.378.2-4.071.57-7.317.824-8.043.879a51.281 51.281 0 0 1-6.524.249 31.017 31.017 0 0 1-4.088-.418 13.648 13.648 0 0 1-3.812-.98 10 10 0 0 1-3.818-3.134 9.486 9.486 0 0 1-1.438-3.058z" data-name="Path 166459" transform="translate(-1364.503 -456.72)"/>
                    <path id="Path_166460" d="M1399.456 432.467a.9.9 0 0 0 .715 1.047h.019l7.761 1.281a.9.9 0 0 0 1.03-.738v-.032l.013-.1a.9.9 0 0 0-.753-1l-7.774-1.179a.9.9 0 0 0-1.011.721z" class="cls-11" data-name="Path 166460" transform="translate(-1369.71 -428.614)"/>
                    <path id="Rectangle_6260" d="M1361.571 564.75h118.542a.973.973 0 0 1 .973.973.973.973 0 0 1-.973.972h-118.542a.973.973 0 0 1-.973-.972.973.973 0 0 1 .973-.973z" class="cls-9" data-name="Rectangle 6260" transform="translate(-1360.598 -459.817)"/>
                    <ellipse id="Ellipse_13522" cx="2.47" cy="2.772" class="cls-11" data-name="Ellipse 13522" rx="2.47" ry="2.772" transform="rotate(-5.783 1003.54 -311.406)"/>
                    <g id="Group_87579" data-name="Group 87579" transform="translate(9.311 22.475)">
                        <path id="Path_166461" d="M1469.881 504.331a1.129 1.129 0 0 1-.008-.168c0-.3.015-.6.042-.905a9.075 9.075 0 0 1 .184-1.212c.4-1.837 1.264-3.138 2.152-3.062 1.072.094 1.76 2.165 1.546 4.617s-1.266 4.363-2.333 4.265c-.511-.045-.93-.536-1.21-1.313" class="cls-12" data-name="Path 166461" transform="translate(-1395.544 -466.864)"/>
                        <path id="Path_166462" d="M1465.791 500.209a14.8 14.8 0 0 0-5.358 1.1 16.558 16.558 0 0 0-3.026 4.14c-.976 1.907-.859 2.633-.813 2.853.4 1.94 3.105 2.716 3.421 2.8a25.669 25.669 0 0 0 5.55-3.027c.883-.636 3.42-2.466 3.086-3.2-.2-.435-1.336-.348-2.288-.2.172-1.064.267-1.953.322-2.628a1.93 1.93 0 0 0-.187-1.194 1.717 1.717 0 0 0-.707-.644z" class="cls-2" data-name="Path 166462" transform="translate(-1392.422 -467.152)"/>
                        <path id="Path_166463" d="M1418.479 488.52a11.923 11.923 0 0 0-5.94 4.19 16.8 16.8 0 0 0-1.9 3.7 23.042 23.042 0 0 0-1.21 4.078 4.735 4.735 0 0 1-3.185.531 5.458 5.458 0 0 1-3.917-5.006l-.071-8.821a9.836 9.836 0 0 1 16.227 1.33z" class="cls-2" data-name="Path 166463" transform="translate(-1379.681 -463.237)"/>
                        <path id="Path_166464" fill="#ead8b9" stroke="#2d2d2d" stroke-linecap="round" stroke-miterlimit="10" stroke-width="0.4px" d="M1413.525 472.412c.11 6.221 4.35 10.816 6.353 11.864l.214.108c.963.479 4.256 2.011 5.447.879a24.285 24.285 0 0 1 1.484-2.081 5.456 5.456 0 0 0 .842-1.078 5.645 5.645 0 0 0 .391-.8c.491-1.251.13-1.646.6-2.292a2.835 2.835 0 0 1 1.03-.808c.229-.1.353-.117.747-.279a2.957 2.957 0 0 0 .879-.432c.545-.752-2.6-3.131-2.025-5 .121-.39.295-.408.466-.995a4.432 4.432 0 0 0-.064-2.351 24.628 24.628 0 0 0-.885-3.385c-1.148-2.61-5.844-6.1-10.015-4.806-5.501 1.711-5.489 10.352-5.464 11.456z" data-name="Path 166464" transform="translate(-1382.324 -457.876)"/>
                        <path id="Path_144089-3" d="M1432.14 474.117a1.906 1.906 0 0 0-1.1-.509 2.47 2.47 0 0 0-2.305 1.791" class="cls-14" data-name="Path 144089-3" transform="translate(-1385.893 -460.911)"/>
                        <circle id="Ellipse_13435" cx=".421" cy=".421" r=".421" fill="#2d2d2d" stroke="#2d2d2d" stroke-linecap="round" stroke-miterlimit="10" stroke-width="0.4px" data-name="Ellipse 13435" transform="translate(44.816 14.399)"/>
                        <path id="Path_166465" d="M1420.608 545.183c-.87-4.407-1.576-8.613-2.157-12.613a8.884 8.884 0 0 1 .576-5.658c.774-1.461 1.675-1.8 2.388-2.755 1.1-1.463 1.653-4.233-.779-9.967" class="cls-16" data-name="Path 166465" transform="translate(-1383.433 -470.431)"/>
                        <path id="Path_166466" d="M1456.184 508.163c.211-.606 2.3-6.477 4.982-7.271.243-.072.892-.221 1.488-.336 1.914-.374 2.876-.561 3.358-.23.79.546.745 2.29.076 4.21" class="cls-16" data-name="Path 166466" transform="translate(-1392.333 -467.139)"/>
                        <path id="Path_166467" d="M1470.084 505.06a1.784 1.784 0 0 0 .229-.956 1.75 1.75 0 0 0-.743-1.364 1.592 1.592 0 0 0-.616-.257 1.624 1.624 0 0 0-1.9 1.771 1.758 1.758 0 0 0 .664 1.3" class="cls-12" data-name="Path 166467" transform="translate(-1394.882 -467.679)"/>
                        <path id="Path_166468" d="M1464.36 507.028a5.821 5.821 0 0 1 2.73-1.077c.5-.057 1.678-.191 1.892.262.3.638-1.477 2.078-2.351 2.781a17.935 17.935 0 0 1-2.515 1.693c-2.239 1.245-2.892 1.06-3.9 1.811a6.28 6.28 0 0 0-2.24 4.3" class="cls-16" data-name="Path 166468" transform="translate(-1392.753 -468.484)"/>
                        <path id="Path_166469" d="M1418.609 478.719q6.319 20.836 7.974 20.472 1.089-.239.153-9.687" class="cls-16" data-name="Path 166469" transform="translate(-1383.518 -462.11)"/>
                        <circle id="Ellipse_13523" cx="1.036" cy="1.036" r="1.036" fill="#c4ea8b" stroke="#2d2d2d" stroke-linecap="round" stroke-miterlimit="10" stroke-width="0.4px" data-name="Ellipse 13523" transform="translate(34.157 15.654)"/>
                        <path id="Path_166470" d="M1431.825 487.379a2.13 2.13 0 0 1-1.225-.13 2.2 2.2 0 0 1-1.148-1.212" class="cls-18" data-name="Path 166470" transform="translate(-1386.062 -463.827)"/>
                        <path id="Path_166471" d="M1410.126 540.962a56.554 56.554 0 0 1-1.809-18.476c.07-.98.234-2.832 1.176-8.567 1.225-7.466 2.473-13.525 3.385-17.659l-1.666-.817c-.485.879-.85 1.661-1.121 2.292-.833 1.936-.935 2.825-1.862 3.98-.542.677-1.082 1.35-1.778 1.336-1.2-.024-2.035-2.089-2.387-2.964a13.6 13.6 0 0 1-.552-7.851l-3.352 1.684c-1 8.162-.011 12.844 1.165 15.652a13.668 13.668 0 0 1 1.17 4.4 14.754 14.754 0 0 1-1.573 7.636c-1.4 3.042-2.724 8.747-2.084 20.48" class="cls-12" data-name="Path 166471" transform="translate(-1378.84 -465.281)"/>
                        <path id="Path_166472" fill="#474747" stroke="#2d2d2d" stroke-linecap="round" stroke-miterlimit="10" stroke-width="0.4px" d="M1421.776 460.4c1.136 2.079.569 5.519-1.17 7.394-2.2 2.373-6.041 1.972-6.976 4.65-.321.918-.243 2.032-.536 2.057-.322.028-.35-1.314-1.342-2.325-.895-.912-2.607-1.59-3.558-.889-.919.673-.746 2.342-.4 3.309.459 1.274 1.341 1.639 1.749 2.259 1.724 2.618-3.593 12.648-12.766 15.348-4.783 1.408-11.671 1.133-12.935-1.83-1.225-2.87 4.031-5.453 9.759-15.478 4.543-7.951 3.7-9.8 6.96-13.213 5.617-5.866 18.59-6.082 21.215-1.282z" data-name="Path 166472" transform="translate(-1375.32 -457.02)"/>
                        <path id="Path_166572" d="M1373.863 542.518a84.632 84.632 0 0 1-.6-22.809c1.171-10.547 3.674-14.29 5.052-16.012a31.416 31.416 0 0 1 2.978-3.077" class="cls-16" data-name="Path 166572" transform="translate(-1372.763 -467.248)"/>
                        <path id="Path_166474" d="M1386.032 518.549a61 61 0 0 0-2.053 28.431" class="cls-16" data-name="Path 166474" transform="translate(-1375.203 -471.454)"/>
                        <path id="Path_166475" d="M1419.221 491.065a11.849 11.849 0 0 0-4.536 4.1 11.4 11.4 0 0 0-1.206 2.544" class="cls-16" data-name="Path 166475" transform="translate(-1382.314 -465.006)"/>
                        <path id="Path_166476" d="M1417.233 497.489a17.516 17.516 0 0 1 7.33 6c1.983 2.936 1.967 5.15 4.133 9.987a45.979 45.979 0 0 0 3.891 7" class="cls-16" data-name="Path 166476" transform="translate(-1383.195 -466.514)"/>
                        <path id="Path_166477" fill="#fff" stroke="#2d2d2d" stroke-linecap="round" stroke-miterlimit="10" stroke-width="0.4px" d="M1421.634 523.643a24.852 24.852 0 0 0 4.235 6.364c2.289 2.495 4.523 4.928 7.353 5.114 2.686.177 3.771-1.81 10.36-7.922 6.919-6.42 10.486-8.649 9.865-11.377a11.215 11.215 0 0 0-2.364-3.793c-1.109-1.358-1.76-2.157-2.7-2.351-1.947-.4-3.962 2.03-4.919 3.161-2.4 2.832-5.868 6.63-11.2 11.807" data-name="Path 166477" transform="translate(-1384.227 -469.363)"/>
                        <path id="Path_166478" d="M1428.7 505.392c.744 24.128 6.676 41.49 12.871 41.957 6.176.466 14.6-15.708 19-39.171" class="cls-16" data-name="Path 166478" transform="translate(-1385.886 -468.367)"/>
                    </g>
                    <path id="Path_166479" fill="#ffabaf" stroke="#2d2e2d" stroke-miterlimit="10" stroke-width="0.4px" d="M1437.595 549.708c-.119 3.974-3.115 7.174-6.777 7.148-3.76-.028-6.783-3.429-6.659-7.6s3.343-7.362 7.1-7.137c3.655.219 6.454 3.609 6.336 7.589z" data-name="Path 166479" transform="translate(-1375.508 -454.506)"/>
                    <path id="Path_166480" d="M1434.129 551.019c.116.341-.243.622-.081 1.01.2.478.954.562 1.407.5.143-.019.984-.145 1.233-.742a2.337 2.337 0 0 0-1.409-2.507 7 7 0 0 0-3.355-.589 4.2 4.2 0 0 0-3.279 1.363c-.427.569-.927 1.654-.529 2.287.549.874 2.549.471 2.751-.215.112-.383-.4-.652-.293-1.032.232-.863 3.257-.953 3.555-.075z" class="cls-9" data-name="Path 166480" transform="translate(-1376.403 -456.047)"/>
                    <path id="Path_166481" fill="#c3e98a" stroke="#2d2d2d" stroke-linecap="round" stroke-miterlimit="10" stroke-width="0.25px" d="M1397.284 521.9l-1.156-.051a.485.485 0 0 1-.435-.519l.039-1.319a.9.9 0 0 0-.578-.9.738.738 0 0 0-.9.525.749.749 0 0 0-.024.21l-.041 1.4a.489.489 0 0 1-.488.491h-.009l-1.309-.057a.864.864 0 0 0-.89.668.847.847 0 0 0 .789 1.041l1.359.021a.487.487 0 0 1 .466.509v.01l-.04 1.353a.8.8 0 0 0 .6.847.821.821 0 0 0 .9-.728.789.789 0 0 0 .005-.093l.041-1.367a.485.485 0 0 1 .465-.492l1.2.019a.769.769 0 0 0 .7-.911.75.75 0 0 0-.694-.657z" data-name="Path 166481" transform="translate(-1367.84 -449.106)"/>
                    <path id="Path_166482" d="M1435.334 524.848l-1.092-1.857.39 4.793c.035.02.211.176.211.176s.485-.544.491-.56a16.9 16.9 0 0 0 0-2.552z" class="cls-11" data-name="Path 166482" transform="translate(-1377.876 -450.01)"/>
                    <path id="Path_166483" d="M1461.084 462.117c.238 1.627 1.26 2.292 1.247 4.592-.015 2.558-1.291 4.126-.5 4.961.607.64 1.518-.107 2.848.646.438.248.167.23 1.968 2.22a12.874 12.874 0 0 0 2.25 1.958c.082.053.157.1.23.14a8.584 8.584 0 0 0 1.75.758c.9.247 3.134-.57 4.9-2.7 1.008-1.212 1.437-2.335 2.463-6 1.23-4.4 1.845-6.6 1.79-7.243-.341-4-4.326-9.737-10.18-9.319-5.727.407-9.287 6.423-8.766 9.987z" class="cls-3" data-name="Path 166483" transform="translate(-1384.16 -433.392)"/>
                    <path id="Path_149861" d="M1467.008 458.387c-3.985-1.3-7.63 1.855-9.023.237-.757-.879-.213-2.505.162-3.625a9.549 9.549 0 0 1 3.995-4.7c.54-.365.988-.587 1.538-.893a18.943 18.943 0 0 1 4.08-1.684 14.038 14.038 0 0 1 9.726 1.636 13.361 13.361 0 0 1 6.047 8.913c.81 5.492-2.382 11.34-4.4 11.169-.8-.067-1.81-1.113-2.771-5.344q.276-.287.532-.594c.216-.261.41-.526.483-.635a2.628 2.628 0 0 0 .042-2.4 2.5 2.5 0 0 0-2.507-1.524c-1.461.429-.936 3.57-2.2 3.98-1.423.454-2.386-3.452-5.704-4.536z" class="cls-8" data-name="Path 149861" transform="translate(-1383.355 -432.302)"/>
                    <path id="Path_144089" d="M1468.379 469.362a2.143 2.143 0 0 1-2.111.947" class="cls-14" data-name="Path 144089" transform="translate(-1385.388 -437.44)"/>
                    <path id="Path_144089-2" d="M1468.174 466.73a2.586 2.586 0 0 0-3.6.643l-.019.028a3.066 3.066 0 0 0-.362.622" class="cls-14" data-name="Path 144089-2" transform="translate(-1384.901 -436.713)"/>
                    <path id="Line_485" d="M0 1.395L1.936 0" class="cls-18" data-name="Line 485" transform="translate(82.489 39.748)"/>
                    <g id="Group_77615-2" data-name="Group 77615-2" transform="translate(15.67 11.738)">
                        <g id="Group_36851" data-name="Group 36851">
                            <path id="Path_77484" fill="#5684eb" d="M1379.77 481.891a.372.372 0 0 1 .375-.335 3.093 3.093 0 0 0 1.165-.132 2.768 2.768 0 0 0 .633-.359l.364-.265a.352.352 0 0 1 .481.057 3.879 3.879 0 0 0 .834.727l.058.032a2.8 2.8 0 0 0 1.019.277.364.364 0 0 1 .3.359 7.469 7.469 0 0 1-.453 3.259 4.7 4.7 0 0 1-2.183 2.013.306.306 0 0 1-.271 0 4.463 4.463 0 0 1-2.109-2.129 7.588 7.588 0 0 1-.213-3.504z" data-name="Path 77484" transform="translate(-1379.209 -480.164)"/>
                            <path id="Path_77484-2" fill="none" stroke="#5684eb" stroke-width="0.4px" d="M1379.2 481.341a.434.434 0 0 1 .437-.391 3.618 3.618 0 0 0 1.363-.15 3.236 3.236 0 0 0 .739-.419l.424-.306a.411.411 0 0 1 .562.067 4.548 4.548 0 0 0 .974.849c.022.014.044.026.067.038a3.266 3.266 0 0 0 1.189.324.425.425 0 0 1 .353.419 8.719 8.719 0 0 1-.528 3.8 5.479 5.479 0 0 1-2.547 2.349.355.355 0 0 1-.317 0 5.21 5.21 0 0 1-2.461-2.483 8.867 8.867 0 0 1-.255-4.097z" data-name="Path 77484-2" transform="translate(-1379.071 -479.991)"/>
                        </g>
                        <path id="Path_159687" fill="none" stroke="#fff" stroke-linecap="round" stroke-linejoin="round" stroke-width="0.5px" d="M1381.848 484.5l.641 1.1 2.009-1.792" data-name="Path 159687" transform="translate(-1379.722 -480.887)"/>
                    </g>
                    <g id="Group_87580" data-name="Group 87580" transform="translate(7.706 89.145)">
                        <path id="Path_166485" fill="#d1ed7a" stroke="#2d2e2d" stroke-miterlimit="10" stroke-width="0.4px" d="M1386.9 552.912a8.432 8.432 0 0 1-7.828 8.353 8.557 8.557 0 1 1 .486-17.105 8.413 8.413 0 0 1 7.342 8.752z" data-name="Path 166485" transform="translate(-1370.667 -544.123)"/>
                        <path id="Path_166486" d="M1384.668 553.219l-1.115.807c0-.347 0-.7-.012-1.038a.636.636 0 0 0-.169-.436.586.586 0 0 0-.41-.184q-1.3-.044-2.659-.06-1.4-.016-2.78 0a.6.6 0 0 0-.433.18.712.712 0 0 0-.18.446q-.035.946-.036 1.958c0 .674.013 1.31.036 1.933a.633.633 0 0 0 .18.445.613.613 0 0 0 .433.179q1.365.03 2.79.01 1.378-.02 2.649-.084a.834.834 0 0 0 .41-.185.656.656 0 0 0 .077-.1.55.55 0 0 0 .051-.106.692.692 0 0 0 .041-.23c.008-.334.009-.682.013-1.024l1.115.787a.267.267 0 0 0 .37-.077.273.273 0 0 0 .044-.163v-2.825a.266.266 0 0 0-.415-.235z" class="cls-9" data-name="Path 166486" transform="translate(-1372.123 -546.041)"/>
                    </g>
                    <g id="Top_Rated" data-name="Top Rated" transform="translate(.039 109.81)" style="isolation:isolate">
                        <text id="Top_Rated-2" data-name="Top Rated" transform="translate(0 4)" style="isolation:isolate" fill="#050a4e" font-family="Nunito-Regular, Nunito" font-size="4px">
                            <tspan x="0" y="0">Top Rated</tspan>
                        </text>
                    </g>
                    <g id="Group_87756" data-name="Group 87756" transform="translate(28.243 109.694)">
                        <g id="Group_87755" data-name="Group 87755">
                            <path id="Path_142941" d="M1407.836 571.213l.459 1.416a.346.346 0 0 0 .33.241h1.489a.347.347 0 0 1 .2.628l-1.2.875a.348.348 0 0 0-.126.388l.459 1.416a.347.347 0 0 1-.536.387l-1.2-.875a.348.348 0 0 0-.408 0l-1.2.872a.347.347 0 0 1-.536-.387l.459-1.416a.346.346 0 0 0-.126-.388l-1.2-.875a.347.347 0 0 1 .2-.628h1.489a.345.345 0 0 0 .33-.241l.459-1.415a.348.348 0 0 1 .661 0z" class="cls-30" data-name="Path 142941" transform="translate(-1404.546 -570.97)"/>
                            <path id="Path_142942" d="M1417.142 571.213l.459 1.416a.346.346 0 0 0 .33.241h1.489a.347.347 0 0 1 .2.628l-1.2.875a.347.347 0 0 0-.126.388l.459 1.416a.347.347 0 0 1-.536.387l-1.2-.875a.348.348 0 0 0-.408 0l-1.2.872a.347.347 0 0 1-.536-.387l.459-1.416a.346.346 0 0 0-.126-.388l-1.2-.875a.347.347 0 0 1 .2-.628h1.489a.345.345 0 0 0 .33-.241l.459-1.415a.348.348 0 0 1 .661 0z" class="cls-30" data-name="Path 142942" transform="translate(-1406.729 -570.97)"/>
                            <path id="Path_142943" d="M1426.605 571.213l.459 1.416a.346.346 0 0 0 .33.241h1.489a.347.347 0 0 1 .2.628l-1.2.875a.347.347 0 0 0-.126.388l.459 1.416a.347.347 0 0 1-.536.387l-1.2-.875a.349.349 0 0 0-.408 0l-1.2.872a.347.347 0 0 1-.536-.387l.459-1.416a.346.346 0 0 0-.126-.388l-1.2-.875a.347.347 0 0 1 .2-.628h1.489a.345.345 0 0 0 .33-.241l.459-1.415a.348.348 0 0 1 .661 0z" class="cls-30" data-name="Path 142943" transform="translate(-1408.95 -570.97)"/>
                            <path id="Path_142944" d="M1436.07 571.213l.459 1.416a.346.346 0 0 0 .33.241h1.489a.347.347 0 0 1 .2.628l-1.2.875a.347.347 0 0 0-.126.388l.459 1.416a.347.347 0 0 1-.536.387l-1.2-.875a.348.348 0 0 0-.408 0l-1.2.872a.347.347 0 0 1-.536-.387l.459-1.416a.346.346 0 0 0-.126-.388l-1.2-.875a.347.347 0 0 1 .2-.628h1.489a.345.345 0 0 0 .33-.241l.459-1.415a.348.348 0 0 1 .661 0z" class="cls-30" data-name="Path 142944" transform="translate(-1411.17 -570.97)"/>
                            <path id="Path_142945" d="M1445.534 571.213l.459 1.416a.346.346 0 0 0 .33.241h1.489a.347.347 0 0 1 .2.628l-1.2.875a.347.347 0 0 0-.126.388l.459 1.416a.347.347 0 0 1-.536.387l-1.2-.875a.348.348 0 0 0-.408 0l-1.2.872a.347.347 0 0 1-.536-.387l.459-1.416a.346.346 0 0 0-.126-.388l-1.2-.875a.347.347 0 0 1 .2-.628h1.489a.345.345 0 0 0 .33-.241l.459-1.415a.348.348 0 0 1 .661 0z" class="cls-30" data-name="Path 142945" transform="translate(-1413.39 -570.97)"/>
                        </g>
                    </g>
                </g>
            </g>
            <g id="Group_88551" data-name="Group 88551" transform="translate(-1589.594 553.336)">
                <circle id="Ellipse_13482" cx="11.691" cy="11.691" r="11.691" class="cls-31" data-name="Ellipse 13482" transform="translate(1895.594 384.961)"/>
                <path id="Path_159850" d="M1910.87 392.469c-.452.057-.908.091-1.363.131a4.246 4.246 0 0 0-.951-1.675c.8.03 1.586.074 2.354.137a.784.784 0 0 0 .121-1.564c-1.431-.118-2.964-.179-4.56-.184-.147 0-.3.008-.444.01a.8.8 0 0 0-.107 0c-1.281.015-2.569.068-3.839.172a.784.784 0 0 0 .065 1.566h.064c1.11-.091 2.231-.14 3.349-.16a1.24 1.24 0 0 1 .577.124 3.718 3.718 0 0 1 1.732 1.678c-.392.015-.785.039-1.176.04a35.4 35.4 0 0 1-4.454-.272.784.784 0 0 0-.191 1.556 36.141 36.141 0 0 0 4.516.285h.135c.367 0 .736-.026 1.1-.039a2.682 2.682 0 0 1-1.082.965 3.7 3.7 0 0 1-2.375.1c-.712-.132-1.522-.285-1.978.414-.636.974.428 2.355 1.671 3.7a17.067 17.067 0 0 0 4.685 3.55.8.8 0 0 0 .364.088.784.784 0 0 0 .362-1.479 15.571 15.571 0 0 1-4.261-3.224 11.841 11.841 0 0 1-1.239-1.526c.044.007.081.014.108.02a5.19 5.19 0 0 0 3.341-.223 4.206 4.206 0 0 0 1.908-1.863 1.218 1.218 0 0 1 .987-.681c.259-.024.517-.05.773-.082a.786.786 0 0 0 .68-.877.8.8 0 0 0-.872-.687zm-4.306 1.426z" class="cls-32" data-name="Path 159850" transform="translate(1.085 .819)"/>
                <path id="Line_388" fill="#fff" stroke="#2d2d2d" stroke-linecap="round" stroke-miterlimit="10" stroke-width="0.5px" d="M0 0L12.446 10.964" data-name="Line 388" transform="translate(1901.49 390.571)"/>
            </g>
            <g id="Group_88755" data-name="Group 88755" transform="translate(144 32)">
                <g id="Group_88754" data-name="Group 88754">
                    <circle id="Ellipse_13482-2" cx="11.691" cy="11.691" r="11.691" class="cls-31" data-name="Ellipse 13482" transform="translate(162 938.297)"/>
                    <path id="Path_38811" d="M1823.711 48.126a3.952 3.952 0 0 1-1.058-.141c-.963-.27-1.633-1.005-2.953-2.47l-.112-.126c-1.149 1.4-2.479 2.717-4.309 2.717h-.048a3.567 3.567 0 0 1-2.341-.888 3.824 3.824 0 0 1-.581-4.525 3.7 3.7 0 0 1 2.906-1.865 5.106 5.106 0 0 1 3.691 1.874 5.605 5.605 0 0 1 .663.713c1.205-1.528 2.494-2.984 4.3-2.881a3.937 3.937 0 0 1 2.619 6.441 3.735 3.735 0 0 1-2.777 1.151zm-3.343-3.724l.252.28c1.168 1.292 1.752 1.937 2.372 2.111a2.621 2.621 0 0 0 2.584-.659 2.7 2.7 0 0 0-1.776-4.366c-1.266-.109-2.326 1.221-3.432 2.633zm-5.121 2.466h.032c1.382 0 2.44-1.121 3.5-2.45l-.055-.071a4.883 4.883 0 0 0-.663-.741c-.9-.831-1.76-1.61-2.765-1.546a2.478 2.478 0 0 0-1.914 1.244 2.572 2.572 0 0 0 .353 3.016 2.307 2.307 0 0 0 1.508.552z" class="cls-32" data-name="Path 38811" transform="translate(-1645.598 906.09)"/>
                </g>
            </g>
        </g>
    </g>
</svg>
