<svg xmlns="http://www.w3.org/2000/svg" width="132.25" height="100.606" viewBox="0 0 132.25 100.606">
    <defs>
        <style>
            .cls-1,.cls-7{fill:#ffd8b7}.cls-1,.cls-10,.cls-11,.cls-13,.cls-14,.cls-15,.cls-18,.cls-2,.cls-21,.cls-23,.cls-26,.cls-27,.cls-31,.cls-32,.cls-4,.cls-5,.cls-7,.cls-8,.cls-9{stroke:#222}.cls-1,.cls-11,.cls-13,.cls-23,.cls-4{stroke-miterlimit:10}.cls-1,.cls-10,.cls-11,.cls-12,.cls-13,.cls-14,.cls-15,.cls-18,.cls-2,.cls-21,.cls-23,.cls-26,.cls-27,.cls-31,.cls-32,.cls-4,.cls-5,.cls-7,.cls-8,.cls-9{stroke-width:.4px}.cls-2{fill:#ef9153}.cls-10,.cls-13,.cls-14,.cls-15,.cls-18,.cls-2,.cls-21,.cls-26,.cls-27,.cls-31,.cls-32,.cls-5,.cls-7,.cls-8,.cls-9{stroke-linecap:round}.cls-10,.cls-14,.cls-15,.cls-18,.cls-2,.cls-21,.cls-26,.cls-27,.cls-31,.cls-32,.cls-5,.cls-7,.cls-8,.cls-9{stroke-linejoin:round}.cls-8{fill:#373738}.cls-13,.cls-4,.cls-9{fill:none}.cls-5{fill:#f8cdd9}.cls-10{fill:#fff}.cls-11{fill:#354a74}.cls-12{fill:#222;stroke:#707070}.cls-14{fill:#a9dce0}.cls-15{fill:#daf0f3}.cls-18{fill:#80a98a}.cls-21{fill:#9b9b9b}.cls-23{fill:#ffd889}.cls-26{fill:#d19236}.cls-27{fill:#ffb83d}.cls-31{fill:#ffe3b4}.cls-32{fill:#9f89bf}
        </style>
    </defs>
    <g id="Group_88562" data-name="Group 88562" transform="translate(-1401.707 -796.344)">
        <g id="Group_77545" data-name="Group 77545" transform="translate(1401.91 798.002)">
            <path id="Path_159699" d="M1472.29 880.656c.69 1.836 1.581 5.086 3.434 5.727 1.87.647 9.924-2.425 11.143-1.449a7.123 7.123 0 0 0 2.486 1.561 6.74 6.74 0 0 0 1.146.134q.611.056 1.224.086a1.077 1.077 0 0 0 .764-.159.875.875 0 0 0 .252-.488 2.953 2.953 0 0 0-1.237-2.826 7.159 7.159 0 0 0-3.9-1.022c-3.721-.187-9.968 1.677-10.63 1.009-.838-.845-1.055-4.477-1.239-5.652" class="cls-1" data-name="Path 159699" transform="translate(-1449.111 -852.346)"/>
            <g id="Group_77544" data-name="Group 77544" transform="translate(6.013 59.746)">
                <path id="Path_159700" d="M1462.83 986.924s-.413 9-1.487 17.322c-.341 2.637.143 7.032 1.073 7.473s5.615 1.332 4.526 2.735a4.084 4.084 0 0 1-5.113.762c-1.926-.947-2.438-.279-3.431-.588s-1.408-1.352-.719-3.01-.25-4.86-.532-7.879-1.13-11.417-.322-15.773-.072-5.587-.072-5.587" class="cls-1" data-name="Path 159700" transform="translate(-1444.525 -982.38)"/>
                <path id="Path_159701" d="M1431.484 986.4a9.8 9.8 0 0 1-.245 4.081c-.616 2.051-5.266 16.809-5.958 20.569-.155.841 1.632 2.662 2.842 3.953s1.3 2.473.248 2.494-1.764.562-3.968-1.1-3.779-1.567-3.6-2.556 1.462-2.462 1.635-3.649-.412-13.733 2.058-18.385 1.365-7.194 1.365-7.194" class="cls-1" data-name="Path 159701" transform="translate(-1420.584 -983.874)"/>
                <path id="Path_159702" d="M1463 1074.831a12.037 12.037 0 0 1-3.1-.915 1.562 1.562 0 0 1-.948-1.071 1.721 1.721 0 0 0 .206 1.736c.647.848 1.2.781 2.039.846a3.133 3.133 0 0 1 1.669.434 6.683 6.683 0 0 0 2.542.532c1.423.045 5.129-1.731 2.423-2.967a17.287 17.287 0 0 0-3.059-1.113s-1.552.459-1.765 3.044" class="cls-2" data-name="Path 159702" transform="translate(-1446.081 -1042.694)"/>
                <path id="Path_159703" d="M1426.959 1072.087s-1.493-.642-2.724 1.848c0 0-3.654-1.461-3.659-2.32 0 0-.774.981-.188 1.462s1.875.849 2.678 1.523 4.076 2.394 5.451 1.313-.644-3.274-1.558-3.826z" class="cls-2" data-name="Path 159703" transform="translate(-1420.169 -1042.226)"/>
            </g>
            <path id="Path_159704" fill="#373738" stroke="#222" stroke-miterlimit="10" stroke-width="0.4px" d="M1425.334 819.787a10.9 10.9 0 0 1-1.627-5.124c-.255-5.134 2.908-11.885 8.534-13.352a7.356 7.356 0 0 1 4.079-.091c3.646 1.079 5.084 5.063 7.673 12.666 2.828 8.3 1.853 9.89 1.252 10.522-.394.414-1.148.966-3.895 1.127-2.607.152-11.996.701-16.016-5.748z" data-name="Path 159704" transform="translate(-1416.519 -800.966)"/>
            <path id="Path_159705" d="M1419.394 847.277a4.152 4.152 0 0 1 1.588-2.793 2.481 2.481 0 0 1 .267-.165 28.722 28.722 0 0 1 3.09-1.071c2.88-.959 3.431-1.236 3.9-1.713.707-.721.543-3.649.146-4.824l4.607 3.124a4.243 4.243 0 0 0 .7 2.2c.821 1.23 4.193 1.5 5.563 3.124" class="cls-1" data-name="Path 159705" transform="translate(-1413.636 -824.938)"/>
            <path id="Path_159708" d="M1430.752 869.2c.265-1.628.664-1.984.961-3.322a4.812 4.812 0 0 0-.413-3.043 8.019 8.019 0 0 1 .5 2.428c.025.509 2.641.592 3.116.019.672-.808-1.113-5.515-1.265-6.893-.177-1.614-3.583-2.93-4.294-3.029a3.753 3.753 0 0 1-3.69 2.274c-3.046.068-5.483-2.747-5.483-2.747-.993.047-5.1.587-6.447 3.043-.279.507-4.24 5.025-3.457 5.607.524.389 3.883 3.937 5.176 2.836a3 3 0 0 0 .678-1.01c-.289 3.983 2.085 1.714-.068 14.818 0 0-3.882 20.481-5.037 24.813s15.01 4.178 23.986 3.994c4.799-.096-4.858-36.123-4.263-39.788z" class="cls-5" data-name="Path 159708" transform="translate(-1407.455 -837.13)"/>
            <path id="Path_159709" fill="#f8cdd9" stroke="#222" stroke-miterlimit="10" stroke-width="0.4px" d="M1427.873 876.988c.008-.495-.561 3.234-1.667 4.178" data-name="Path 159709" transform="translate(-1418.204 -851.921)"/>
            <path id="Path_159710" d="M1405.4 882.953a28.009 28.009 0 0 0-2.733 3.751c-3.62 5.822 6.884 8.132 7.98 9.333a4.47 4.47 0 0 1 .388.5c.089.142.165.278.231.407.423.849.472 1.5 1 1.61.817.17 1.925-1.169 2.276-2.465l.033-.126c.194-.818.271-2.182-.459-2.684-.626-.433-1.268.177-2.249.284-.242.026-5.092-2.435-6.267-5.174a28.154 28.154 0 0 1 2.594-3.315 16.314 16.314 0 0 1-2.794-2.121z" class="cls-1" data-name="Path 159710" transform="translate(-1401.911 -855.949)"/>
            <path id="Path_159711" d="M1447.846 809.317c2.517.465 4.407 3.063 4.575 6.286.191 3.662-1.934 7.177-4.923 7.241-2.3.05-5.208-2.233-5.436-6.648" class="cls-7" data-name="Path 159711" transform="translate(-1428.839 -806.567)"/>
            <path id="Path_159712" d="M1448.315 802.97c.168 2.242-1.38 8.65-7.227 8.955 0 0-.37-.759-1.031-.542" class="cls-8" data-name="Path 159712" transform="translate(-1427.494 -802.31)"/>
            <path id="Path_159713" d="M1464.046 827.6c-.019.634.047 1.034.312 1.225.123.088.3.029.443.071a.49.49 0 0 1 .231.671 1.419 1.419 0 0 1-.576.546" class="cls-9" data-name="Path 159713" transform="translate(-1443.58 -818.83)"/>
            <path id="Path_159714" d="M1466.234 818.182a1.845 1.845 0 0 1 .842.681" class="cls-9" data-name="Path 159714" transform="translate(-1445.05 -812.512)"/>
            <path id="Path_159715" d="M1456.866 818.623a1.3 1.3 0 0 0-.744.743" class="cls-9" data-name="Path 159715" transform="translate(-1438.268 -812.808)"/>
            <path id="Path_159716" d="M1461.353 836.061a2.106 2.106 0 0 1-3.67.263s.441 2.308 2.183 2.066c1.777-.248 1.487-2.329 1.487-2.329z" class="cls-10" data-name="Path 159716" transform="translate(-1439.315 -824.503)"/>
            <path id="Path_159717" d="M1465.873 824.882a.765.765 0 0 1 .361-.4.582.582 0 0 1 .849.3 1.986 1.986 0 0 1 .117.45" class="cls-9" data-name="Path 159717" transform="translate(-1444.808 -816.681)"/>
            <path id="Path_159718" d="M1458.482 825.431a.764.764 0 0 0-.41-.353.581.581 0 0 0-.8.409 2.005 2.005 0 0 0-.059.461" class="cls-9" data-name="Path 159718" transform="translate(-1438.999 -817.107)"/>
            <path id="Path_159719" d="M1439.843 830.978c-1.17.182-2.016-1.33-1.672-2.17a.833.833 0 0 1 1.6.063" class="cls-7" data-name="Path 159719" transform="translate(-1426.177 -819.256)"/>
        </g>
        <g id="Group_77559" data-name="Group 77559" transform="translate(1415.227 796.547)">
            <g id="Group_77551" data-name="Group 77551" transform="translate(6.673)">
                <path id="Path_159720" d="M1537.883 1060.378a2.445 2.445 0 0 1 .21 1.263c-.068.967 0 1.926-.085 2.893a1.533 1.533 0 0 1-.1.5 1.611 1.611 0 0 1-.734.659c-1.418.811-2.393 1.43-3.872 2.123a1.812 1.812 0 0 1-.526.182 1.252 1.252 0 0 1-1.231-.9 2.025 2.025 0 0 1 .429-2.5 5.509 5.509 0 0 1 1.7-.557c1.031-.136 1.312-.715 1.813-1.626.438-.8.7-1.8 1.5-2.221.45-.24.729-.102.896.184z" class="cls-8" data-name="Path 159720" transform="translate(-1508.68 -973.282)"/>
                <path id="Path_159721" d="M1599.649 1058.55a2.44 2.44 0 0 0-.21 1.262c.068.967 0 1.926.085 2.893a1.526 1.526 0 0 0 .1.5 1.613 1.613 0 0 0 .734.66c1.418.811 2.393 1.43 3.872 2.123a1.8 1.8 0 0 0 .526.182 1.253 1.253 0 0 0 1.231-.9 2.026 2.026 0 0 0-.429-2.5 5.515 5.515 0 0 0-1.7-.557c-1.031-.136-1.312-.715-1.813-1.626-.439-.8-.7-1.8-1.5-2.22-.445-.241-.729-.103-.896.183z" class="cls-8" data-name="Path 159721" transform="translate(-1554.37 -972.056)"/>
                <path id="Path_159722" d="M1543.836 935.432s-2.4 30.178-2.777 34.556c-.226 2.618 5.157 2.91 5.157.416s6.325-25.807 6.74-41.538c0 0 3.652 19.977 3.652 22.47s1.675 19.914 3.546 20.122 3.846-.3 4.054-1.132.233-19.856-.183-22.766-3.421-20.553-3.629-23.168a23.213 23.213 0 0 1-7.491.066 19.963 19.963 0 0 0-8.843.225z" class="cls-11" data-name="Path 159722" transform="translate(-1515.217 -882.07)"/>
                <path id="Path_159723" d="M1549.808 926.512a54.26 54.26 0 0 0 16.9-.287c.261-.039-.124-1.117-.124-1.117s-7.463.417-16.9.289c-.277-.005.124 1.115.124 1.115z" class="cls-8" data-name="Path 159723" transform="translate(-1520.94 -882.768)"/>
                <ellipse id="Ellipse_13464" cx="1.895" cy="1.307" class="cls-11" data-name="Ellipse 13464" rx="1.895" ry="1.307" transform="translate(35.376 42.456)"/>
                <g id="Group_77550" data-name="Group 77550">
                    <g id="Group_77548" data-name="Group 77548">
                        <path id="Path_159724" d="M1558.2 835.632a7.241 7.241 0 0 0-.239 4.4c.387 1.445.636 1.4 2.789 2.091-.735 1.94-1.667 5.5-3.662 5.529-1.8.029-8.393-3.463-9.291-5.085 1.011-.094 3.871-1.307 4.176-2.833.463-2.315-.6-3.967-.818-4.795 2.145-.162 4.894.854 7.045.693z" class="cls-1" data-name="Path 159724" transform="translate(-1519.739 -822.283)"/>
                        <path id="Path_159725" d="M1567.7 814.473c0 4.224-2.493 7.649-5.568 7.649-2.462 0-4.55-2.2-5.284-5.242a10.215 10.215 0 0 1-.28-2.29c0-.435-.008-1.275 0-1.326.294-1.789 1.2-4.5 1.98-4.868 1.026-.485 2.415-1.382 3.96-.929 2 .584 3.308 1.046 4.18 1.987 1.337 1.443.834 3.582.931 3.9a.155.155 0 0 0 .026.049 10.555 10.555 0 0 1 .055 1.07z" class="cls-1" data-name="Path 159725" transform="translate(-1525.618 -803.789)"/>
                        <path id="Path_159726" d="M1561.444 806.163a.15.15 0 0 1-.026-.049 6.9 6.9 0 0 0-1.466-3.772c-.873-.941-2.223.568-4.221-.016-1.545-.452-2.138-1.074-2.9-.557-.713.482-.157 1.926-.575 3.128a5.231 5.231 0 0 1-1.7 2.518c-.041.031-.021-.509-.26-.8a4.535 4.535 0 0 0 .324 2.878c.151.591.354 1.109.465 1.486a9.54 9.54 0 0 1-3.025-4.062c-3.223-7.834 5.2-9.877 5.81-10.051a7.3 7.3 0 0 1 4.89.23 5.812 5.812 0 0 1 3.133 3.555c.93 2.63-.165 5.86-.449 5.512z" class="cls-8" data-name="Path 159726" transform="translate(-1519.42 -796.547)"/>
                        <g id="Group_77546" data-name="Group 77546" transform="translate(35.996 8.351)">
                            <circle id="Ellipse_13465" cx=".39" cy=".39" r=".39" class="cls-12" data-name="Ellipse 13465" transform="translate(.233 2.017)"/>
                            <circle id="Ellipse_13466" cx=".39" cy=".39" r=".39" class="cls-12" data-name="Ellipse 13466" transform="translate(3.755 2.017)"/>
                            <path id="Path_159727" d="M1578.815 829.552c-.132.611-.132 1.008.115 1.235.115.105.309.076.456.14a.456.456 0 0 1 .126.686 1.528 1.528 0 0 1-.7.436" class="cls-9" data-name="Path 159727" transform="translate(-1576.48 -827.033)"/>
                            <path id="Path_159728" d="M1572.8 821.9a1.7 1.7 0 0 0-.891.451" class="cls-13" data-name="Path 159728" transform="translate(-1571.905 -821.903)"/>
                            <path id="Path_159729" d="M1583.851 821.9a1.2 1.2 0 0 1 .714.656" class="cls-13" data-name="Path 159729" transform="translate(-1579.917 -821.903)"/>
                            <path id="Path_159730" d="M1576.638 837.967c-.172 1.986-3.523 2.211-4.075.013" class="cls-13" data-name="Path 159730" transform="translate(-1572.346 -832.677)"/>
                        </g>
                        <path id="Path_159731" d="M1553.87 829.4c-1.134.295-2.155-1.756-1.625-2.564a1.375 1.375 0 0 1 .732-.545c.229-.084.782-.154.778 1.046" class="cls-7" data-name="Path 159731" transform="translate(-1522.627 -816.468)"/>
                        <path id="Path_159732" d="M1485.243 872.072s-3.482 4.846-4.389 5.47a5.629 5.629 0 0 1-2.449.336c-1.568.1-7.855.535-9.412.636-1.487.1-2.125-.7-4.969.687-1.71.833-1.832 2.317-.591 2.175 2.009-.23 1.778-.244 3.1.326a2.426 2.426 0 0 0 1.676-.1c.609-.349.362-.657 1.315-.75a17.624 17.624 0 0 1 2.056-.052c1.532.082 7.269.807 8.958.423 2.337-.531 5.663-2.721 8.141-5.965 1.464-1.917-.89-2.915-.89-2.915z" class="cls-7" data-name="Path 159732" transform="translate(-1462.606 -847.199)"/>
                        <path id="Path_159733" d="M1506.272 886.871s-.285-1.068 2.551-1.068c.858 0 2.1 3.4 1.7 4.684-.222.706-3.011.563-3.337.177a10.3 10.3 0 0 1-.914-3.793z" class="cls-14" data-name="Path 159733" transform="translate(-1491.886 -856.408)"/>
                        <path id="Path_159734" d="M1472.163 894.035a16.19 16.19 0 0 1-1.646.149c-.279.017-.568.067-.846.066a1.267 1.267 0 0 0-.656.075.408.408 0 0 0-.222.471.532.532 0 0 0 .483.266c.346.03.7-.027 1.042.026.262.041.51.143.767.207a2.734 2.734 0 0 0 .929.069 1.2 1.2 0 0 0 .8-.335" class="cls-7" data-name="Path 159734" transform="translate(-1466.743 -861.929)"/>
                        <path id="Path_159735" d="M1531.3 851.581a34.536 34.536 0 0 1-2.2 4.621l-2.774-3.045a11.306 11.306 0 0 1-1.7-2.44 4.484 4.484 0 0 0-1.064-.735c-3.366 1.145-4.063 1.526-4.36 1.83-1.235 1.266-7.031 7.773-8.177 8.807-.78.7-4.243 1.456-4.351 2.228s.163 3.687 1.412 3.687a8.62 8.62 0 0 0 6.46-1.843 50.287 50.287 0 0 0 5.154-4.944c-.009.5 1.227 11.415.983 12.416-.3 1.241-1.01 2.315.192 2.972 0 0 5.238-.893 8.077-.188 3.748.931 8.541-.133 8.541-.133 1.054-1.372-.959-1.678-.9-10.212 0 0-.062-3.769 0-6.551" class="cls-15" data-name="Path 159735" transform="translate(-1492.148 -832.385)"/>
                        <g id="Group_77547" data-name="Group 77547" transform="translate(44.912 32.613)">
                            <path id="Path_159736" d="M1604.464 895.611a35.334 35.334 0 0 1-4.25 4.182c-2.279 1.4-.749 2.343-.557 4.328a4 4 0 0 1-.192 1.439c-.1.477-.34 1.205.327 1.384a1.145 1.145 0 0 0 .908-.309c1.532-1.1 1.749-3.3 1.881-4.314a3.891 3.891 0 0 1 1.678-2.584s2.3-2.087 4.252-4.167" class="cls-7" data-name="Path 159736" transform="translate(-1598.977 -895.572)"/>
                        </g>
                        <path id="Path_159737" d="M1586.772 861.832a21.125 21.125 0 0 1 6.1 3.29c1.089.929-1.656 1.827-1.983 3.226 1.025 1.315 3.341 2.689 4.426 2.07 4.526-2.583 5.506-4.294 4.021-6.592-1.457-2.255-6.48-5.677-8.481-6.945 0 0-2.861-3.207-9.359-2.345" class="cls-15" data-name="Path 159737" transform="translate(-1542.343 -835.339)"/>
                        <path id="Path_159738" fill="#a9dce0" stroke="#222" stroke-miterlimit="10" stroke-width="0.4px" d="M1610.678 891.157a4.691 4.691 0 0 1 1.232-.873c.258-.094 3.789 2.294 3.791 3.438a4.841 4.841 0 0 1-2.605 1.084c-1.01-.232-3.13-1.621-3.077-2.427a2.189 2.189 0 0 1 .659-1.222z" data-name="Path 159738" transform="translate(-1561.469 -859.411)"/>
                    </g>
                    <path id="Path_159739" d="M1580.571 844.665a1.01 1.01 0 0 1-.241.8.236.236 0 0 1-.286.083.631.631 0 0 1-.438-.371c-.054-.134-.138-.438-.049-.57.128-.188.956-.211 1.01.042z" class="cls-8" data-name="Path 159739" transform="translate(-1541.015 -828.682)"/>
                    <g id="Group_77549" data-name="Group 77549" transform="translate(30.541 16.745)">
                        <path id="Path_159740" d="M1557.121 847.392s-1.374.1-1.576 1.042-.725 3.854 1.431 5.606a14.127 14.127 0 0 1 1.786-2.507 17.663 17.663 0 0 1 .952 1.529 1.844 1.844 0 0 0 .644.651 8.79 8.79 0 0 0 1.393.751s-2.466-3.028-3.2-4.144c-.424-.651-1.43-2.928-1.43-2.928z" class="cls-14" data-name="Path 159740" transform="translate(-1555.34 -847.392)"/>
                        <path id="Path_159741" d="M1578.213 852.108c-.3-.464-.791-1.439-2.053-.886.67 1.113-1.354 5.7-1.354 5.7l.612-.4a1.852 1.852 0 0 0 .809-1.2 4.508 4.508 0 0 1 .29-1.128c.656-.076 2.26 1.567 2.26 1.567s.423-2.329-.564-3.653z" class="cls-14" data-name="Path 159741" transform="translate(-1568.395 -849.85)"/>
                    </g>
                </g>
            </g>
            <g id="Group_77552" data-name="Group 77552" transform="translate(6.138 34.351)">
                <path id="Path_159742" d="M1461.486 1050.955s-.619 10.235-.487 10.434 3.178.662 3.244.4 4.308-9.864 4.308-9.864l-6.558-1.633z" class="cls-8" data-name="Path 159742" transform="translate(-1460.981 -1001.074)"/>
                <path id="Path_159743" d="M1551.844 1052.446s-.195 11.855-.344 12.042-3.223.386-3.266.116-3.443-10.2-3.443-10.2l6.6-2.668z" class="cls-8" data-name="Path 159743" transform="translate(-1517.189 -1002.046)"/>
                <path id="Path_159744" d="M1599.24 1036.325s1.079 10.749.97 10.931-2.79.719-2.86.487-4.052-10.412-4.052-10.412l5.475-1.006z" class="cls-8" data-name="Path 159744" transform="translate(-1549.721 -991.709)"/>
                <path id="Path_159745" fill="#628f6c" stroke="#222" stroke-linecap="round" stroke-linejoin="round" stroke-width="0.4px" d="M1462.2 900.852s.444 29.4 4.118 31.783 23.737 1.787 24.877 2.681 2.59 16.078 2.59 16.078l15.035-5.615-1.888-16.917s-.268-5.612-14.9-5.612c-1.069 0-1.163-15.042-4.454-18.021s-25.378-4.377-25.378-4.377z" data-name="Path 159745" transform="translate(-1461.8 -900.852)"/>
                <path id="Path_159746" d="M1505.3 929.322l2.41 19.171 4.273-2c.248-7.249-2.265-21.69-2.265-21.69-1.336-3.458-10.175-4-14.685-4.458a3.555 3.555 0 0 1-3.114-2.777c-1.84-8.418-3.272-13.17-3.272-13.17-1.418-3.39-3.222-3.115-6.118-3.232-2.449-.1-20.124-.041-20.124-.041l1.627 4.439c12.981-1.559 20.15-1.374 21.557-.415 2.184 1.49 3.82 17.806 6.653 18.374 5.983 1.195 12.815 1.189 13.058 5.799z" class="cls-18" data-name="Path 159746" transform="translate(-1461.934 -901.02)"/>
            </g>
            <g id="Group_77558" data-name="Group 77558" transform="translate(13.677 22.946)">
                <g id="Group_77557" data-name="Group 77557">
                    <g id="Group_77553" data-name="Group 77553" transform="translate(23.756 30.378)">
                        <path id="Path_159748" d="M1556.007 962.36c3.059.149 5.413.3 8.472.447a3.449 3.449 0 0 1 1.686.351 5.828 5.828 0 0 1 1.136 1.316 1.676 1.676 0 0 0 .564.516.574.574 0 0 0 .7-.129.676.676 0 0 0 .076-.492c-.069-.448-.4-.688-.543-1.064a1.429 1.429 0 0 1 1.768.817c.12.335.02 1.388.887 1.388a1.4 1.4 0 0 0 1.325-.949 2.808 2.808 0 0 0-.442-2.909c-.944-1.4-2.533-1.565-4.42-1.54-1.347.018-6.282-1.311-7.688-1.651" class="cls-7" data-name="Path 159748" transform="translate(-1556.007 -958.461)"/>
                    </g>
                    <path id="Path_159749" d="M1502.378 907.256s-.969 1.295.093 1.948a3.589 3.589 0 0 0 2.089.667c.658-.05.232 5.781.232 5.781s-5.561-.419-6.819-1.082-3.677-4.273-3.677-4.273a6.743 6.743 0 0 0 2.385-2.5 8.434 8.434 0 0 0-.067-4.47z" class="cls-1" data-name="Path 159749" transform="translate(-1490.864 -891.11)"/>
                    <path id="Path_159750" fill="#ccc1e0" stroke="#222" stroke-linecap="round" stroke-linejoin="round" stroke-width="0.4px" d="M1483.93 925.8c-.685 8.542 4.984 19.87 6.87 19.86 4.637-.024 17.621-1.994 16.385-3.5a16.373 16.373 0 0 1-2.8-5.191c.524 1.064 11.286 1.428 11.977.928a3.255 3.255 0 0 0 1.124-2.732 1.227 1.227 0 0 0-.808-.981c-1.816-.446-4.789-.779-8.324-1.308s-3.371-2.939-4.628-5.786-2.185-4.774-8.242-5.929c0 0 1.99 1.027.864 2.369s-4.651.933-7.448-1.967c-.447-.464-.43-.315-.695-.216-.005.003-4.134 2.702-4.275 4.453z" data-name="Path 159750" transform="translate(-1483.873 -903.069)"/>
                    <path id="Path_159752" d="M1537.194 946.417s-1.815-7.529-4.4-11.169" class="cls-9" data-name="Path 159752" transform="translate(-1516.684 -912.515)"/>
                    <path id="Path_159753" d="M1510.411 875.058c-.046 4.4-2.813 7.931-6.182 7.9s-6.062-3.627-6.016-8.023 3.031-8.744 6.4-8.709a3.946 3.946 0 0 1 1.508.32 5.857 5.857 0 0 1 2.443 2.115 11.313 11.313 0 0 1 1.847 6.397z" class="cls-1" data-name="Path 159753" transform="translate(-1493.49 -866.221)"/>
                    <path id="Path_159754" d="M1497.206 868.764a5.113 5.113 0 0 0-1.182 1.126 5.486 5.486 0 0 0-.9 2.066c-.321 1.507.766 3.565 1.313 3.627.443.05 1.045-.972 1.2-1.9.166-.977-.237-1.383.018-2.2a2.94 2.94 0 0 1 1.156-1.417 5.552 5.552 0 0 0 .58-.486.826.826 0 0 0 .275-.468.594.594 0 0 0-.312-.543 1.315 1.315 0 0 0-.638-.148 2.12 2.12 0 0 0-1.51.343z" class="cls-21" data-name="Path 159754" transform="translate(-1491.376 -867.695)"/>
                    <path id="Path_159755" d="M1525.344 869.211a5.932 5.932 0 0 0-2.107-1.957.356.356 0 0 1 .012-.043c.12-.35 1.01-.055 1.278.151a5.977 5.977 0 0 1 2.449 3.432c.184.584.751 1.291.706 1.9a2.286 2.286 0 0 1-.239.953c-.1.18-.291.582-.373.124a11.5 11.5 0 0 0-1.019-3.351c-.077-.167-.472-.874-.584-1.033z" class="cls-21" data-name="Path 159755" transform="translate(-1510.272 -866.775)"/>
                    <path id="Path_159756" d="M1495.607 889.717c-.336-.388-1.349-.224-1.722.439-.392.7.23 2.067 1.923 2.8" class="cls-7" data-name="Path 159756" transform="translate(-1490.511 -881.84)"/>
                    <g id="Group_77556" data-name="Group 77556" transform="translate(5.028 5.212)">
                        <g id="Group_77554" data-name="Group 77554" transform="translate(5.15)">
                            <circle id="Ellipse_13467" cx=".425" cy=".425" r=".425" class="cls-12" data-name="Ellipse 13467" transform="translate(.692 2.716)"/>
                            <circle id="Ellipse_13468" cx=".425" cy=".425" r=".425" class="cls-12" data-name="Ellipse 13468" transform="translate(4.881 2.591)"/>
                            <path id="Path_159757" d="M1522.538 890.244c-.124.67-.112 1.1.163 1.342.128.111.34.074.5.139a.5.5 0 0 1 .158.744 1.667 1.667 0 0 1-.754.5" class="cls-9" data-name="Path 159757" transform="translate(-1519.932 -887.544)"/>
                            <path id="Path_159758" d="M1515.735 882.046a1.853 1.853 0 0 0-.956.518" class="cls-13" data-name="Path 159758" transform="translate(-1514.779 -882.046)"/>
                            <path id="Path_159759" d="M1527.49 882.183a1.309 1.309 0 0 1 .97.418" class="cls-13" data-name="Path 159759" transform="translate(-1523.304 -882.138)"/>
                            <path id="Path_159760" d="M1520.54 900.654c-.066-.106-.439-.072-.72.113-1.754 1.159-2.981.18-3.4.232a.543.543 0 0 0-.466.353.59.59 0 0 0 .015.32 2.081 2.081 0 0 0 .972 1.1 2.81 2.81 0 0 0 2.863-.277c.526-.429 1.014-1.395.736-1.841z" class="cls-10" data-name="Path 159760" transform="translate(-1515.554 -894.486)"/>
                        </g>
                        <g id="Group_77555" data-name="Group 77555" transform="translate(0 .987)">
                            <path id="Path_159761" d="M1512.262 885.183a2.21 2.21 0 0 0-2.23 1.013 1.883 1.883 0 0 0 .16 2.042 1.751 1.751 0 0 0 1.235.683 1.979 1.979 0 0 0 1.9-1.022c.439-1.058.31-2.458-1.065-2.716z" class="cls-4" data-name="Path 159761" transform="translate(-1506.292 -885.115)"/>
                            <path id="Path_159762" d="M1525.391 885.073a2.054 2.054 0 0 0-2.079.945 1.755 1.755 0 0 0 .149 1.9 1.632 1.632 0 0 0 1.151.637 1.875 1.875 0 0 0 1.769-.953 1.659 1.659 0 0 0-.99-2.529z" class="cls-4" data-name="Path 159762" transform="translate(-1515.208 -885.042)"/>
                            <path id="Path_159763" d="M1521.818 890.083a.6.6 0 0 0-.619.031" class="cls-13" data-name="Path 159763" transform="translate(-1513.934 -888.372)"/>
                            <path id="Line_385" d="M3.513 0.512L0 0" class="cls-7" data-name="Line 385" transform="translate(0 1.512)"/>
                            <path id="Line_386" d="M0 0.396L0.364 0" class="cls-13" data-name="Line 386" transform="translate(11.403 .798)"/>
                        </g>
                    </g>
                </g>
                <path id="Path_159764" d="M1607.508 1062.137a3.772 3.772 0 0 0 .812 1.345 1.2 1.2 0 0 0 .37.182c1.313.438 2.612-.022 3.925-.1a3.311 3.311 0 0 1 1.607.218 2.011 2.011 0 0 1 1.054 1.8 2.434 2.434 0 0 1-.411 2.043 1.746 1.746 0 0 1-1.218.314l-5.944.02a3.13 3.13 0 0 1-1.863-.387c-.77-.553-.87-1.633-1.02-2.57a16.942 16.942 0 0 0-.822-2.831 2.656 2.656 0 0 0 1.069-.483c.507-.278 1.436-.785 1.937-.323a2.392 2.392 0 0 1 .504.772z" class="cls-21" data-name="Path 159764" transform="translate(-1564.436 -996.97)"/>
                <path id="Path_159765" d="M1590.368 1070.382a3.641 3.641 0 0 0 .762 1.4 1.315 1.315 0 0 0 .383.208c1.381.531 2.823.166 4.246.184a3.819 3.819 0 0 1 1.716.333 1.952 1.952 0 0 1 .984 1.866 2.322 2.322 0 0 1-.618 2.009 2.2 2.2 0 0 1-1.344.473c-2.14-.135-4.277-.517-6.417-.653a3.571 3.571 0 0 1-1.978-.519c-.784-.606-.8-1.691-.881-2.637a15.768 15.768 0 0 0-.645-2.883 3.044 3.044 0 0 0 1.2-.406c.571-.241 1.618-.68 2.119-.183a2.323 2.323 0 0 1 .473.808z" class="cls-21" data-name="Path 159765" transform="translate(-1552.752 -1002.449)"/>
                <path id="Path_159766" d="M1521.159 990.716s6.152.493 8.23 2.648c1.023 1.06 6.05 17.978 6.664 19.434s-5.472 1.737-6.183 1.869-2.585-6.385-2.585-6.385l-3.27-8.917a1.744 1.744 0 0 0-1.88-1.176c-3.363.437-11.585.951-14.662-.818-3.885-2.234-5.279-5.428-4.719-8.109.074-.356-.275-1.292-.119-1.54a13.28 13.28 0 0 1 3.1-1.174c3.186-.96 6.21-1.06 9.74-1.622a29.174 29.174 0 0 1 3.787-.469 10.17 10.17 0 0 0 3.76 2.107c4.132.944 10.491 1.732 11.263 4.75 1.232 4.819 6.106 17.929 6.768 18.629s-4.931 2.677-5.42 1.472" class="cls-8" data-name="Path 159766" transform="translate(-1496.429 -945.518)"/>
            </g>
            <path id="Path_159767" d="M1442.344 899.5s5.759-3.948 7.249.707 6.027 20.2 8.109 24.879c.621 1.395 12.713.321 20.016 1.345 3.348.47 5.032 2.329 5.308 4.234.476 3.283 1.746 19.79 1.746 19.79s-4.388 1.724-5.522 2.092c-.89.288-4.04-.318-6.356-.6-5.324-.638-24.714-1.754-26.34-4.477-4.072-6.807-4.21-47.97-4.21-47.97z" class="cls-18" data-name="Path 159767" transform="translate(-1442.344 -864.548)"/>
            <path id="Path_159768" d="M1478.926 957.312c-.139-3.186-1.575-17.06-1.863-19.84q-.011-.1-.026-.2a3.338 3.338 0 0 0-3.279-2.8c-3.557-.046-15.519-.287-17.144-1.431-2.582-1.818-7.027-19.895-8.794-25.98a2.922 2.922 0 0 0-3.22-2.095 6.994 6.994 0 0 0-2.151.717" class="cls-9" data-name="Path 159768" transform="translate(-1442.415 -869.234)"/>
            <path id="Path_159769" d="M1542.419 981.158l.694.113c.87.142 1.209.9 1.512 1.641a3.808 3.808 0 0 1 .372 2.8 1.943 1.943 0 0 1-1.07 1.153 1.221 1.221 0 0 1-1.359-.8 2.147 2.147 0 0 0-1.374-1.072 3.075 3.075 0 0 1-1.519-.782c-.268-.287-.3-.643-.541-.928a2.59 2.59 0 0 0-1.171-.614 2.989 2.989 0 0 1-1.473-.8c-.355-.442-.315-1.24.214-1.443a1.285 1.285 0 0 1 .563-.044c.772.06 1.538.184 2.3.309z" class="cls-7" data-name="Path 159769" transform="translate(-1505.33 -919.833)"/>
            <path id="Path_159770" fill="#ccc1e0" stroke="#222" stroke-miterlimit="10" stroke-width="0.4px" d="M1493.421 940.989s.5 6.079 1.268 7.648 11.386 2.509 13.341 3.544c.341.18-1.552 3.817-3.025 3.206s-8.433-.3-12.874-1.565-5.009-15.159-4.89-15.659" data-name="Path 159770" transform="translate(-1472.445 -891.524)"/>
        </g>
        <g id="Group_77563" data-name="Group 77563" transform="translate(1461.128 853.711)">
            <path id="Path_159771" d="M1614.471 1018.55a14.607 14.607 0 0 1 4.592 5.677c.521 1.162-1.071 1.258-1.826 3.906a.647.647 0 0 1-.358-.211" class="cls-23" data-name="Path 159771" transform="translate(-1603.684 -1002.601)"/>
            <path id="Path_159772" d="M1592.728 1017.67s2.16 1.97 2.275 8.192c.071 3.78.166 3.31.166 3.31l-.132 3.475a11.11 11.11 0 0 1-12.909 3.807c.713-1.8-2.435-17.215 4.976-19.216a26.867 26.867 0 0 0 5.625.432" class="cls-23" data-name="Path 159772" transform="translate(-1581.942 -1001.721)"/>
            <path id="Path_159773" d="M1628.025 1034.952c1.477-.323 1.97.331 2.459 1.629s5.12 12.386 5.524 12.852-2.109.933-2.583.532-.237-.49-.7-1.129-4.591-3.208-5.38-7.337a27.867 27.867 0 0 1-3.549 4.384c-1.715 1.568-5.292-2.59-4.9-3.691s7.652-6.917 9.129-7.24z" class="cls-7" data-name="Path 159773" transform="translate(-1606.635 -1013.546)"/>
            <path id="Path_159774" d="M1663.835 1074.593c1 .828 2.256.177 3.713.177.806 0 1.092 1.831-.066 2.4-.617.305-3.385 1.4-4.307 1.254-.86-.132-1.115-1.406-1.677-2.594-.498-1.041 2.337-1.237 2.337-1.237z" class="cls-21" data-name="Path 159774" transform="translate(-1635.185 -1040.187)"/>
            <path id="Path_159775" d="M1624.032 1038a20.508 20.508 0 0 0 3.046 3.84c1.456 1.258 6.137 1.959 7.67 2.436a2.024 2.024 0 0 1 1.185 2.562 1.419 1.419 0 0 1-2.366-.1c-.214-.3-.386-.86-.861-1.043-1.25-.48-3.85-.354-5.1-.546-1.721-.265-5.826-4.183-5.826-4.183z" class="cls-7" data-name="Path 159775" transform="translate(-1608.587 -1015.642)"/>
            <path id="Path_159776" fill="#fffac6" stroke="#222" stroke-miterlimit="10" stroke-width="0.4px" d="M1661.142 1059.585s-1.638 1.256-.019 2.285" data-name="Path 159776" transform="translate(-1634.493 -1030.121)"/>
            <path id="Path_159777" d="M1604.967 1052.453s5.643-3.952 7.1-4.349 1.986.212 2.548 1.446 5.826 11.76 6.256 12.191-2.273 1.328-2.649.84c-2.461-3.194-5.063-4.357-6.089-8.328 0 0-4.37 5.072-5.991 6.694s-3.078-5.2-2.747-6.289a6.179 6.179 0 0 1 1.572-2.205z" class="cls-7" data-name="Path 159777" transform="translate(-1596.224 -1022.34)"/>
            <path id="Path_159778" fill="#335897" stroke="#222" stroke-linecap="round" stroke-linejoin="round" stroke-width="0.4px" d="M1581.984 1063.676a5.96 5.96 0 0 0 4.587.216 24.447 24.447 0 0 0 3.889-2.337l3.275 6.324c-.291 1.085-4.417 4.751-7.065 4.651a5.169 5.169 0 0 1-4.469-3.542 9.7 9.7 0 0 1-.217-5.312z" data-name="Path 159778" transform="translate(-1581.718 -1031.443)"/>
            <g id="Group_77562" data-name="Group 77562" transform="translate(14.404 28.682)">
                <g id="Group_77560" data-name="Group 77560" transform="translate(2.104)">
                    <path id="Path_159779" d="M1639.527 1064.154a24.079 24.079 0 0 0-2.555-.859c-.745-.149-1.977-.11-1.457.429a5.386 5.386 0 0 0 1.5.976" class="cls-26" data-name="Path 159779" transform="translate(-1634.222 -1061.241)"/>
                    <path id="Path_159780" d="M1631.862 1062.808s.116-1.721 4.138-2.466 4.965-1.043 5.064-1.291.05-1.886.6-1.837.844.6.7 1.986c0 0 2.433 0 2.333.447s-1.291.7-2.681.6c0 0-1.738.943-1.936 1.042s4.425 1.887 4.62 3.078-3.115.281-4.554-.612c-.913-.567-2.5-1.423-2.5-1.423-1.961 1.121-6.115 2.445-5.784.476z" class="cls-27" data-name="Path 159780" transform="translate(-1631.843 -1057.213)"/>
                </g>
                <g id="Group_77561" data-name="Group 77561" transform="translate(0 3.648)">
                    <ellipse id="Ellipse_13469" cx="1.085" cy=".451" class="cls-26" data-name="Ellipse 13469" rx="1.085" ry=".451" transform="rotate(-1.342 78.554 .92)"/>
                    <ellipse id="Ellipse_13470" cx=".451" cy="1.085" class="cls-26" data-name="Ellipse 13470" rx=".451" ry="1.085" transform="rotate(-37 4.564 -1.483)"/>
                    <ellipse id="Ellipse_13471" cx="1.085" cy=".451" class="cls-26" data-name="Ellipse 13471" rx="1.085" ry=".451" transform="rotate(-55.445 2.663 -.936)"/>
                    <ellipse id="Ellipse_13472" cx=".402" cy=".499" fill="#b4741e" stroke="#222" stroke-linecap="round" stroke-linejoin="round" stroke-width="0.4px" data-name="Ellipse 13472" rx=".402" ry=".499" transform="rotate(-10.445 10.936 -8.846)"/>
                </g>
            </g>
            <path id="Path_159781" d="M1659.471 1057.7a5.616 5.616 0 0 0 1.01.4c.43.1.54.448.212.564s-1.006-.282-1.222-.2" class="cls-7" data-name="Path 159781" transform="translate(-1633.864 -1028.854)"/>
            <path id="Path_159782" d="M1602.5 1042.343a21.366 21.366 0 0 0 1.563 2.88c2.892 2.867 6.206 4.421 7.3 4.4 1.129-.025 2.646-.428 2.653-.06s-.148.551-1.125.709c0 0 1.283.109.851 1.022s-1.766 2.448-2.821 1.142c0 0-.62-1.417-1.58-1.616-4.13-.858-7.466-2.926-8.443-4.157a28.961 28.961 0 0 1-2.067-2.709z" class="cls-7" data-name="Path 159782" transform="translate(-1593.198 -1018.558)"/>
            <path id="Path_159783" d="M1650.893 1089.092a1.1 1.1 0 0 0 1.067.408c.7-.118 2.045-.755 2.683-.035s.655 2.269-1.156 2.675-4.877 1.229-4.945.55c-.079-.783-.553-2.451-.119-2.5a3.707 3.707 0 0 0 2.47-1.098z" class="cls-21" data-name="Path 159783" transform="translate(-1626.334 -1049.911)"/>
            <path id="Path_159784" d="M1603.017 1010.293a2.775 2.775 0 0 1 .554-2.1l-4.218-1.953s.613 2.02-.569 3.145a1.592 1.592 0 0 1-1.392.478c.475 1.3 1.814 4.461 4.482 3.355 1.664-.691 1.156-2.918 1.143-2.925z" class="cls-7" data-name="Path 159784" transform="translate(-1592.23 -994.343)"/>
            <path id="Path_159785" fill="#ffd889" stroke="#222" stroke-linecap="round" stroke-linejoin="round" stroke-width="0.4px" d="M1595.753 1031.364a24.411 24.411 0 0 1 2.119 3.575c.5 1.439-1.419 2.532-3.724 3.426-1.145.444-3.376-2.979-3.276-3.625" data-name="Path 159785" transform="translate(-1587.855 -1011.195)"/>
            <ellipse id="Ellipse_13473" cx="4.716" cy="6.838" class="cls-7" data-name="Ellipse 13473" rx="4.716" ry="6.838" transform="rotate(-26.215 10.28 -3.637)"/>
            <path id="Path_159786" d="M1595.193 972.522c.209-.014 3.073-.178 3.5 1 .263.728-.526 1.656-.655 1.808-1.01 1.19-2.165.792-2.573 1.677-.4.857.526 1.534.053 2.809a1.439 1.439 0 0 1-.721.922c-.657.245-1.223-.517-1.848-.224a1.064 1.064 0 0 0-.546.8 1.2 1.2 0 0 0 .307.929c.421.464.948.284 1.422.518 1.019.5 1.435 2.74.795 3.233-.906.7-4.894-1.355-6.009-4.859a6.561 6.561 0 0 1 6.277-8.614z" class="cls-8" data-name="Path 159786" transform="translate(-1586.344 -971.721)"/>
            <path id="Path_159787" d="M1617.147 984.363a1.757 1.757 0 0 0-.435.935" class="cls-9" data-name="Path 159787" transform="translate(-1605.187 -979.673)"/>
            <path id="Path_159788" d="M1620.587 989.352c-.493-.587-1.121-.03-.96.528" class="cls-9" data-name="Path 159788" transform="translate(-1607.125 -982.851)"/>
            <path id="Path_159789" d="M1616.958 996.941c.571.412 3.14 1.241 3.43-.1 0 0 .282 2.134-.681 2.512-.815.324-2.178-.153-2.749-2.412z" class="cls-10" data-name="Path 159789" transform="translate(-1605.352 -988.044)"/>
            <path id="Path_159790" d="M1625.3 991.177a.416.416 0 0 0 .362.24c.062.009.125 0 .188 0a.583.583 0 0 1 .594.508c-.01.239-.434.6-.717.712" class="cls-7" data-name="Path 159790" transform="translate(-1610.946 -984.243)"/>
        </g>
        <g id="Group_77572" data-name="Group 77572" transform="translate(1473.605 799.656)">
            <g id="Group_77567" data-name="Group 77567" transform="translate(21.079)">
                <path id="Path_159791" d="M1753.5 948.979a3.133 3.133 0 0 0-.006 1.423 8.016 8.016 0 0 0 .3 1.048 3.2 3.2 0 0 1 .184 1.88 6.935 6.935 0 0 1-.323 1.165c-.056.155-.471 1.462-1.66 1.071-.39-.128-.523-.805-.528-.976a6.876 6.876 0 0 1 .075-1.038 40.924 40.924 0 0 0 .289-4.113" class="cls-7" data-name="Path 159791" transform="translate(-1729.122 -901.886)"/>
                <path id="Path_159792" d="M1751.429 951.14a8.818 8.818 0 0 1-.048 2.585 3.952 3.952 0 0 0-.106 1.134 1.4 1.4 0 0 0 .1.371.568.568 0 0 0 .775.276c.233-.13.277-.442.294-.709.052-.822.022-.467.074-1.289a6.514 6.514 0 0 0-.13-.951" class="cls-7" data-name="Path 159792" transform="translate(-1728.98 -903.336)"/>
                <path id="Path_159793" d="M1688.182 1060.845a4.728 4.728 0 0 1-1.32 2.414c-.364.325-.8.217-1.269.271a3.185 3.185 0 0 0-1.449.481 1.055 1.055 0 0 0-.53.941 1.4 1.4 0 0 0 .415 1.121 2.047 2.047 0 0 0 1.369.33h2.422a4.289 4.289 0 0 0 1.176-.109 1.446 1.446 0 0 0 .919-.693 2.158 2.158 0 0 0 .14-1.032l-.062-2.184a1.68 1.68 0 0 1 .223-1.1" class="cls-10" data-name="Path 159793" transform="translate(-1683.612 -976.911)"/>
                <path id="Path_159794" d="M1748.26 1066.267a1.551 1.551 0 0 1 .106 1.012c-.2.575-.957.718-1.561.638a2.563 2.563 0 0 1-1.44-.612 2.857 2.857 0 0 1-.744-1.852 20.368 20.368 0 0 0-.146-2.035c-.071-.365-.192-.721-.232-1.091-.175-1.625 1.435-1.55 2.036-.4a33.483 33.483 0 0 1 1.981 4.34z" class="cls-10" data-name="Path 159794" transform="translate(-1724.265 -977.07)"/>
                <path id="Path_159795" d="M1709.651 942.612s2.183 26.982 2.528 30.967c.206 2.383-4.694 2.648-4.694.378s-5.3-17.028-5.675-31.346c0 0-3.784 12.205-3.784 14.476s-.556 17.641-2.259 17.83-3.5-.273-3.69-1.03-1.051-13.584-.672-16.233 1.291-12.493 2.348-15.043a54.98 54.98 0 0 0 2.381-11.332c.189-2.38 12.107-1.245 12.107-1.245z" class="cls-11" data-name="Path 159795" transform="translate(-1688.775 -889)"/>
                <path id="Path_159796" d="M1697.564 862.975l.121-.056c1.037-.2 2.073-.985 3.123-.946 1.478.055 1.657.984 3.2 1.348a17.85 17.85 0 0 1 4.208 1.545 6.211 6.211 0 0 1 2.684 2.684c1.65 6.552 1.831 18.991 1.046 23.467a1.274 1.274 0 0 1-1.5 1.034c-1.177-.24-2.151-.691-2.248-1.631l-.958-17.279c-.171 2.221.148 11.905.358 15.189a37.642 37.642 0 0 0 1.915 10.537c.687 2.012-22.084 2.1-21.461-.227a207.762 207.762 0 0 0 5.026-24.051c.408-3.424.754-4.929.754-4.929" class="cls-5" data-name="Path 159796" transform="translate(-1686.577 -843.534)"/>
                <path id="Path_159797" d="M1718.825 855.892a2.529 2.529 0 0 1-.276 1.728 2.942 2.942 0 0 1-1.374 1.051c.954 2.083 2.593 4.37 2.989 4.4s2.291-2.119 3.7-4.025a4.485 4.485 0 0 1-.815-.715 3.214 3.214 0 0 1-.556-2.286c.575-.42-4.212-.671-3.668-.153z" class="cls-7" data-name="Path 159797" transform="translate(-1706.122 -839.261)"/>
                <g id="Group_77566" data-name="Group 77566" transform="translate(8.809)">
                    <g id="Group_77564" data-name="Group 77564">
                        <path id="Path_159798" d="M1743 839.8c1.447-.443 2.134-1.57 1.906-2.28-.183-.572-.94-.806-1.117-.856a9.32 9.32 0 0 1-.789 3.136z" class="cls-1" data-name="Path 159798" transform="translate(-1732.252 -826.56)"/>
                        <path id="Path_159799" d="M1730.818 807.24a2.58 2.58 0 0 1 3.354-.923c1.938 1.064 1.672 2.535 1.109 3.076a3.285 3.285 0 0 1-4.463-2.153z" class="cls-21" data-name="Path 159799" transform="translate(-1724.08 -805.987)"/>
                        <ellipse id="Ellipse_13474" cx="7.113" cy="5.279" class="cls-1" data-name="Ellipse 13474" rx="7.113" ry="5.279" transform="rotate(-81.745 9.45 8.178)"/>
                        <path id="Path_159800" d="M1723.6 818.711a5.473 5.473 0 0 1-.658.1 6.8 6.8 0 0 1-3.62-1.724c-1.543-1.549-2.412-4.33-2.564-4.416-1.246-.7-3.9 2.939-4.06 3.832-.221-.322-.005-1.028-.2-1.429 0 0-2.032-1.834 1.88-4.333 4.064-2.6 7.779-.942 9.463 2.957 1.583 3.678.195 4.868-.241 5.013z" class="cls-21" data-name="Path 159800" transform="translate(-1711.437 -808.335)"/>
                    </g>
                    <circle id="Ellipse_13475" cx=".384" cy=".384" r=".384" class="cls-12" data-name="Ellipse 13475" transform="translate(5.745 10.211)"/>
                    <circle id="Ellipse_13476" cx=".384" cy=".384" r=".384" class="cls-12" data-name="Ellipse 13476" transform="translate(2.545 9.768)"/>
                    <path id="Path_159801" d="M1722.21 835.271c.03.575-.022.939-.259 1.117-.11.082-.349.046-.48.086a.444.444 0 0 0-.2.613c.106.219.4.344.612.471" class="cls-9" data-name="Path 159801" transform="translate(-1717.647 -825.627)"/>
                    <path id="Path_159802" d="M1728.556 830.9a1.671 1.671 0 0 1 .845.5" class="cls-9" data-name="Path 159802" transform="translate(-1722.563 -822.697)"/>
                    <path id="Path_159803" d="M1718.716 830.261a1.185 1.185 0 0 0-.745.6" class="cls-9" data-name="Path 159803" transform="translate(-1715.464 -822.267)"/>
                    <g id="Group_77565" data-name="Group 77565" transform="translate(1.042 9.129)">
                        <path id="Path_159804" d="M1728.106 835.413a2.14 2.14 0 0 0-1.659.162.574.574 0 0 0-.143.112.515.515 0 0 0-.1.227 1.084 1.084 0 0 0 .515 1.155 1.838 1.838 0 0 0 1.865-.122c.68-.601.275-1.324-.478-1.534z" class="cls-9" data-name="Path 159804" transform="translate(-1722.009 -834.788)"/>
                        <path id="Path_159805" d="M1715.453 833.8a2.137 2.137 0 0 0-1.659.162.563.563 0 0 0-.143.112.514.514 0 0 0-.1.227 1.084 1.084 0 0 0 .515 1.156 1.839 1.839 0 0 0 1.865-.122c.68-.6.275-1.323-.478-1.535z" class="cls-9" data-name="Path 159805" transform="translate(-1713.523 -833.707)"/>
                        <path id="Path_159806" d="M1721.9 835.751s.918-.948 1.434.208" class="cls-9" data-name="Path 159806" transform="translate(-1719.138 -834.832)"/>
                        <path id="Line_387" d="M0 0.371L4.205 0" class="cls-9" data-name="Line 387" transform="translate(6.918 1.205)"/>
                    </g>
                    <path id="Path_159807" d="M1722.273 844.3c-.611.223-2.785.865-3.715-.468 0 0 .2 2.154 1.475 2.322s2.132-1.184 2.24-1.854z" class="cls-10" data-name="Path 159807" transform="translate(-1715.858 -831.369)"/>
                </g>
                <path id="Path_159808" d="M1717.175 864.923c.954 2.083 1.546 4.4 2.989 4.4 1.353 0 2.291-2.119 3.7-4.025" class="cls-7" data-name="Path 159808" transform="translate(-1706.122 -845.513)"/>
                <path id="Path_159809" d="M1690.623 873.361a3.935 3.935 0 0 0-1.857 3.773 17.344 17.344 0 0 0 .625 5.185 1.4 1.4 0 0 1-.657 1.9c-.838.526-2.664.905-2.967.528-2.507-3.111-2.062-5.807-1.7-8.476a27.645 27.645 0 0 1 1.717-5.272 8.508 8.508 0 0 1 3.326-4.382 9.059 9.059 0 0 1 2.775-.886 14.511 14.511 0 0 0 2.832-.717" class="cls-5" data-name="Path 159809" transform="translate(-1683.727 -845.577)"/>
                <path id="Path_159810" d="M1703.332 888.623c.408-3.424.643-5.727.643-5.727" class="cls-9" data-name="Path 159810" transform="translate(-1696.837 -857.567)"/>
            </g>
            <g id="Group_77571" data-name="Group 77571" transform="translate(0 23.377)">
                <path id="Path_159811" d="M1639.423 940.352s-1.156.884-2.58 1.823a3.335 3.335 0 0 1-.865.406c-1.862.568-8.839 2.666-10.2 2.611-1.572-.063-2.081-.954-3.593-.814-.756.07-2.406.966-2.576 1.872-.116.615 1.495.649 2.976.822a7.332 7.332 0 0 0 2.733.11c3.425-.9 7.777-.223 11.154-.79a28.727 28.727 0 0 0 4.46-2.375" class="cls-1" data-name="Path 159811" transform="translate(-1619.606 -919.478)"/>
                <g id="Group_77570" data-name="Group 77570" transform="translate(19.667)">
                    <path id="Path_159812" d="M1688.812 896.85s-1.4 3.606-2.722 4.111c-3.084 1.443-3.689-1.605-3.212-1.854 1.25-.654 1.32-2.362 1.945-4.678.956-3.541 4.383-1.727 4.383-1.727" class="cls-8" data-name="Path 159812" transform="translate(-1681.61 -887.209)"/>
                    <path id="Path_159813" d="M1699.215 883.752c.1-.262 1.178-3.007 2.568-2.952.764.029.7 1.608 2.17 3.237a6.285 6.285 0 0 0 3.848 2.312 2.161 2.161 0 0 0 .264.019.03.03 0 0 1 .013 0h.055a.189.189 0 0 1 .033 0 .023.023 0 0 1 .01 0h.057v.008c.222.02-1.092 1.565-1.44 2.351-.753 1.7-1.027 2.268-.884 3.257.576-1.034 2.063-.656 2.918-4.4.016.259-1.525 4.949 1.026 6.441 2.8 1.827 4.421-1.028 4.056-1.418-.956-1.024-.837-1.941-.638-4.33.3-3.651-3.545-3.056-3.545-3.056s2.627-6.439-5.815-7.7a5.224 5.224 0 0 0-4.492 1.46c-2.181 2.527-.779 4-.74 4.458.032.333.41.637.536.313z" class="cls-8" data-name="Path 159813" transform="translate(-1691.985 -877.297)"/>
                    <path id="Path_159814" d="M1708.256 893.754a2.1 2.1 0 0 0 1.7-2.017c-.084-.848-1.523.062-1.522.052.347-3.464-1.2-7.194-3.832-7.446s-5.041 2.352-5.388 5.816c-.323 3.223 1.255 6.054 3.593 6.636a2.4 2.4 0 0 1-.407 1.3 3.142 3.142 0 0 1-2.185 1.2c-.439 1.677 1.358 2.5 1.667 3.546a4.961 4.961 0 0 0 2.145 1.825c.418.053 2.449-.275 2.806-.862.56-.922 3.18-2.231 2.67-3.946-1.146-.2-2-.363-2.312-.8a5.3 5.3 0 0 1-.606-3.048 4.653 4.653 0 0 0 1.671-2.256z" class="cls-7" data-name="Path 159814" transform="translate(-1692.638 -881.904)"/>
                    <path id="Path_159815" d="M1709.542 884.892s2.684-6.607-5.759-7.873a5.6 5.6 0 0 0-4.548 1.629c-2.5 2.537-.682 5.368-.556 5.044.1-.262 1.526-3.274 2.916-3.219.38.015 1.275 2.643 2.776 4.151a11.115 11.115 0 0 0 3.226 2.232" class="cls-8" data-name="Path 159815" transform="translate(-1691.797 -876.97)"/>
                    <ellipse id="Ellipse_13477" cx=".351" cy=".344" class="cls-12" data-name="Ellipse 13477" rx=".351" ry=".344" transform="translate(8.309 8.512)"/>
                    <ellipse id="Ellipse_13478" cx=".351" cy=".344" class="cls-12" data-name="Ellipse 13478" rx=".351" ry=".344" transform="translate(10.919 8.86)"/>
                    <ellipse id="Ellipse_13479" cx=".432" cy=".423" class="cls-27" data-name="Ellipse 13479" rx=".432" ry=".423" transform="translate(15.168 11.258)"/>
                    <path id="Path_159816" d="M1707.7 907.062a2.621 2.621 0 0 0-.4.1.392.392 0 0 0-.109.566 1.176 1.176 0 0 0 .538.372" class="cls-9" data-name="Path 159816" transform="translate(-1697.964 -897.152)"/>
                    <path id="Path_159817" d="M1704.692 895.935a1.546 1.546 0 0 0-.821.36" class="cls-9" data-name="Path 159817" transform="translate(-1695.786 -889.689)"/>
                    <path id="Path_159818" d="M1715.027 896.355a1.08 1.08 0 0 1 .678.54" class="cls-9" data-name="Path 159818" transform="translate(-1703.268 -889.971)"/>
                    <path id="Path_159819" d="M1704.321 912.848c.834 1.427 3.244 2.27 3.346-.651a2.463 2.463 0 0 1-3.346.651z" class="cls-10" data-name="Path 159819" transform="translate(-1696.088 -900.596)"/>
                    <path id="Path_159820" d="M1741.5 908.3s4.012-1.434 4.9-2.3 4.172-4.571 4.206-4.972-1.538-1.538-1.2-2.408 1.538.769 1.709.836.469-.4.469-.4 1.13-1.6 2.54-1.569 2.144 2.48-.821 4.281a3.507 3.507 0 0 0-1.744 1.706c-.513 1-2.392 5.122-3.384 5.82a23.3 23.3 0 0 1-6.68 3.007c-1.931.299.005-4.001.005-4.001z" class="cls-1" data-name="Path 159820" transform="translate(-1720.446 -890.727)"/>
                    <g id="Group_77569" data-name="Group 77569" transform="translate(23.779 2.749)">
                        <g id="Group_77568" data-name="Group 77568">
                            <path id="Path_159821" d="M1786.988 895.705s2.151.865 2.322 1.267c.1.292-.806 1.323-3.821.711a7.23 7.23 0 0 1-2.5-1.179z" class="cls-5" data-name="Path 159821" transform="translate(-1772.623 -892.284)"/>
                            <path id="Path_159822" fill="#f08798" stroke="#222" stroke-linecap="round" stroke-linejoin="round" stroke-width="0.4px" d="M1759.118 889.639s6.273-4.321 12.308-4.321c1.436 0-1.3 3.2-1.983 3.646a93.623 93.623 0 0 1-11.419 2.916c-.957 0-.911-4.506-.547-4.7.444-.236.684-.251.958.619s.683 1.84.683 1.84z" data-name="Path 159822" transform="translate(-1755.355 -885.317)"/>
                            <path id="Path_159823" d="M1762.056 888.358s-2.695-1.912-9.983-2.007c-2.086-.027 2.154 2.308 6.325 3.3a28.589 28.589 0 0 0 3.658-1.293z" class="cls-5" data-name="Path 159823" transform="translate(-1751.525 -886.011)"/>
                        </g>
                    </g>
                    <path id="Path_159824" d="M1768.369 902.83c.034-.4-1.538-1.538-1.2-2.408s1.538.769 1.709.836.47-.4.47-.4" class="cls-1" data-name="Path 159824" transform="translate(-1738.208 -892.528)"/>
                    <path id="Path_159825" d="M1696.718 991.79c-3.072 5.75-4.528 9.509-5.025 13.378-1.348 10.5-.63 11.173-.63 11.173.471 2.117 1.535 2.738.825 3.365-.455.4-2.02.708-2.707 1.68a3.213 3.213 0 0 1-2.2 1.708c-1.076.161-1.644-1.915-.8-2.594 2.988-2.419 2.235-4.2 2.235-4.2a51.241 51.241 0 0 1-1.419-7.9 22.8 22.8 0 0 1 .12-8.015c.373-1.576.823-8.945 1.894-11.233" class="cls-1" data-name="Path 159825" transform="translate(-1683.649 -952.208)"/>
                    <path id="Path_159826" d="M1711.178 993.767a116.743 116.743 0 0 0 2.312 11.741 23.161 23.161 0 0 0 4.11 6.935 60.429 60.429 0 0 0 5.794 6.46c1.783 2.76-.1 5.271 1.115 5.615 4-.71 2.776-2.008 2.7-4.069a7.334 7.334 0 0 0 .019-2.082c-.634-1.484-.968.528-3.34-2.745-.7-.969-3.408-7.261-3.962-8.318-1.82-3.469-2.335-7.524-2.722-14" class="cls-1" data-name="Path 159826" transform="translate(-1700.687 -954.99)"/>
                    <path id="Path_159827" d="M1694.934 929.046a29.082 29.082 0 0 0 4.772-.8c1.128-.452 1.026 4.566.513 4.967s-3.641.552-3.744 1.053-1.333 4.415.205 6.974a111.445 111.445 0 0 1 6.051 13.045c.958 2.681-24.1 6.622-23.334 0s4.13-8.036 5.231-12.493a7.312 7.312 0 0 0-.474-5.732c-.109-.219-1.231-.527-3.167.063-.438.133-1.983-3.713-1.607-4.315s2.734-1.918 3.812-2.509c1.282-.7 3.54-.43 4-.63.008.004 3.947 5.544 7.742.377z" class="cls-27" data-name="Path 159827" transform="translate(-1679.322 -911.342)"/>
                </g>
                <path id="Path_159828" d="M1712.736 990.492c-.172.192.128.46-.091.678-.033.033-.071.061-.1.1a.349.349 0 0 0 .139.547c.21.066.265-.149.41-.239.222-.137.721.233.776-.176.045-.337-.394-.37-.515-.591-.044-.08-.049-.176-.088-.259a.359.359 0 0 0-.531-.06z" class="cls-31" data-name="Path 159828" transform="translate(-1681.882 -953.045)"/>
                <path id="Path_159829" d="M1712.736 1005.681c-.172.192.128.46-.091.678-.033.033-.071.061-.1.1a.349.349 0 0 0 .139.547c.21.066.265-.149.41-.239.222-.137.721.233.776-.176.045-.337-.394-.37-.515-.591-.044-.08-.049-.176-.088-.259a.359.359 0 0 0-.531-.06z" class="cls-31" data-name="Path 159829" transform="translate(-1681.882 -963.231)"/>
                <path id="Path_159830" d="M1691.509 1012.231c-.172.192.128.459-.091.678-.033.033-.071.061-.1.1a.349.349 0 0 0 .139.547c.21.066.266-.149.41-.238.222-.137.721.233.776-.177.045-.337-.394-.37-.515-.59-.044-.08-.049-.177-.088-.259a.359.359 0 0 0-.531-.061z" class="cls-31" data-name="Path 159830" transform="translate(-1667.646 -967.624)"/>
                <path id="Path_159831" d="M1735.808 998.176c-.172.192.128.46-.091.678-.033.033-.071.061-.1.1a.349.349 0 0 0 .139.547c.21.066.266-.149.41-.239.222-.137.721.233.776-.176.045-.337-.394-.37-.515-.591-.044-.08-.049-.176-.088-.26a.359.359 0 0 0-.531-.059z" class="cls-31" data-name="Path 159831" transform="translate(-1697.355 -958.198)"/>
                <path id="Path_159832" d="M1702.832 973.4c-.172.192.128.46-.091.678-.033.033-.072.061-.1.1a.349.349 0 0 0 .139.547c.21.066.265-.149.41-.238.222-.137.721.233.776-.176.045-.337-.395-.37-.515-.59-.044-.08-.05-.176-.088-.26a.359.359 0 0 0-.531-.061z" class="cls-31" data-name="Path 159832" transform="translate(-1675.239 -941.584)"/>
                <path id="Path_159833" d="M1722.444 944.032c-.172.192.128.46-.091.678-.033.033-.071.061-.1.1a.349.349 0 0 0 .14.547c.209.066.265-.149.41-.238.222-.137.721.233.776-.176.045-.337-.394-.37-.515-.591-.044-.08-.05-.176-.088-.259a.359.359 0 0 0-.532-.061z" class="cls-31" data-name="Path 159833" transform="translate(-1688.393 -921.885)"/>
                <path id="Path_159834" d="M1735.808 932.927c-.172.192.128.46-.091.678-.033.033-.071.061-.1.1a.349.349 0 0 0 .139.547c.21.066.266-.149.41-.238.222-.137.721.233.776-.176.045-.337-.394-.37-.515-.59-.044-.08-.049-.176-.088-.26a.359.359 0 0 0-.531-.061z" class="cls-31" data-name="Path 159834" transform="translate(-1697.355 -914.438)"/>
                <path id="Path_159835" d="M1718.17 964.937c-.172.192.128.46-.091.678-.033.033-.071.06-.1.1a.35.35 0 0 0 .14.547c.209.066.265-.149.41-.238.222-.137.721.233.776-.176.045-.337-.394-.37-.515-.591-.044-.08-.05-.176-.088-.26a.359.359 0 0 0-.532-.06z" class="cls-31" data-name="Path 159835" transform="translate(-1685.526 -935.905)"/>
                <path id="Path_159836" d="M1702.832 952.079c-.172.192.128.46-.091.678-.033.033-.072.061-.1.1a.349.349 0 0 0 .139.547c.21.067.265-.149.41-.238.222-.137.721.233.776-.177.045-.337-.395-.37-.515-.59-.044-.08-.05-.177-.088-.26a.359.359 0 0 0-.531-.06z" class="cls-31" data-name="Path 159836" transform="translate(-1675.239 -927.282)"/>
                <path id="Path_159837" d="M1691.509 938.282c-.172.192.128.46-.091.678-.033.033-.071.061-.1.1a.349.349 0 0 0 .139.547c.21.066.266-.149.41-.238.222-.137.721.233.776-.177.045-.337-.394-.37-.515-.59-.044-.08-.049-.177-.088-.26a.359.359 0 0 0-.531-.06z" class="cls-31" data-name="Path 159837" transform="translate(-1667.646 -918.029)"/>
                <path id="Path_159838" d="M1730.071 981.091c-.172.192.128.46-.091.678-.033.033-.071.061-.1.1a.349.349 0 0 0 .139.547c.209.066.265-.149.41-.238.222-.137.721.233.776-.176.045-.337-.394-.37-.515-.59-.044-.08-.049-.176-.088-.26a.359.359 0 0 0-.531-.061z" class="cls-31" data-name="Path 159838" transform="translate(-1693.508 -946.74)"/>
                <path id="Path_159839" d="M1691.509 996.016c-.172.192.128.46-.091.678-.033.033-.071.061-.1.1a.349.349 0 0 0 .139.547c.21.066.266-.149.41-.238.222-.137.721.233.776-.176.045-.337-.394-.37-.515-.59-.044-.08-.049-.176-.088-.26a.359.359 0 0 0-.531-.061z" class="cls-31" data-name="Path 159839" transform="translate(-1667.646 -956.749)"/>
            </g>
            <path id="Path_159840" d="M1693.547 923.321c.53.592.377 2.425.468 3.172a4.429 4.429 0 0 0 .907 2.217 1.9 1.9 0 0 0 1.3.761 2.267 2.267 0 0 0 .793-.115 1.1 1.1 0 0 0 .792-.578 1.208 1.208 0 0 0-.158-.878c-.325-.7-.713-1.405-.974-2.134-.149-.415-.358-1.073.359-1a1.663 1.663 0 0 1 .492.153.727.727 0 0 0 .235.075.233.233 0 0 0 .217-.093c.557-.886-2.435-1.5-2.273-2.5a4.321 4.321 0 0 1-1.021.626 3.059 3.059 0 0 1-1.137.294z" class="cls-7" data-name="Path 159840" transform="translate(-1669.196 -884.063)"/>
        </g>
        <circle id="Ellipse_13480" cx=".58" cy=".58" r=".58" class="cls-32" data-name="Ellipse 13480" transform="translate(1414.996 809.159)"/>
        <circle id="Ellipse_13481" cx=".58" cy=".58" r=".58" class="cls-32" data-name="Ellipse 13481" transform="translate(1419.184 818.605)"/>
        <path id="Path_159841" d="M1432.316 919.46a6.018 6.018 0 0 0 2.662-5.862.565.565 0 0 1 .39.175 5.8 5.8 0 0 1-2.908 6.138c-.046-.188-.099-.295-.144-.451z" class="cls-32" data-name="Path 159841" transform="translate(-20.392 -78.502)"/>
    </g>
</svg>
