<svg xmlns="http://www.w3.org/2000/svg" width="95.407" height="95.312" viewBox="0 0 95.407 95.312">
    <defs>
        <style>
            .cls-1{fill:#474747}.cls-1,.cls-10,.cls-12,.cls-3,.cls-5,.cls-6,.cls-7,.cls-9{stroke:#2d2d2d;stroke-width:.4px}.cls-1,.cls-3,.cls-5,.cls-6,.cls-7{stroke-linecap:round}.cls-1,.cls-10,.cls-3,.cls-5,.cls-6,.cls-7,.cls-9{stroke-miterlimit:10}.cls-10,.cls-2,.cls-5{fill:#fff}.cls-3{fill:none}.cls-4,.cls-6{fill:#d6ea88}.cls-7{fill:#81b0ff}.cls-12,.cls-9{fill:#ead8b9}.cls-11{fill:#2d2d2d}
        </style>
    </defs>
    <g id="Group_88580" data-name="Group 88580" transform="translate(-208.297 -4045.802)">
        <g id="Group_88579" data-name="Group 88579">
            <g id="Group_88578" data-name="Group 88578">
                <g id="Group_88573" data-name="Group 88573">
                    <g id="Group_88572" data-name="Group 88572">
                        <g id="Group_88568" data-name="Group 88568" transform="translate(116.297 4030.717)">
                            <path id="Path_180538" d="M177.1 59.462c5.282-.892 7.922-1.339 9.886-3.018 6.911-5.909 3.27-19.428 2.42-22.583-1.188-4.413-3.823-14.194-10.771-15.767-4.148-.939-8.231 1.41-9.444 2.108-3 1.724-4.669 3.944-6.869 7.207-7.027 10.423-10.54 15.635-10.094 19.669a16.281 16.281 0 0 0 8.117 11.968c4.509 2.485 9.032 1.721 16.755.416z" class="cls-1" data-name="Path 180538" transform="translate(-18.824 -.81)"/>
                            <path id="Path_180539" d="M164.028 99.74a45.951 45.951 0 0 1-.313 12.28l-6.036 11.6a7.7 7.7 0 0 0 2.476 2.025c1.785.9 3.357.744 3.809 1.828.21.5-.974 3.779-.505 4.265.312.324 8.267 1.111 9.244.916 2.034-.4 19.965-2.473 22.282-3.793.3-.171-1.647-2.9-.61-4.971.924-1.839 4.768-3.154 3.881-4.535-1.673-2.6-3.112-3.751-2.442-4.754-.932-1.942-3.9-6.87-4.676-9.3a51.737 51.737 0 0 1-2.289-18.746 94.837 94.837 0 0 0-25.159 11.338z" class="cls-2" data-name="Path 180539" transform="translate(-20.54 -22.292)"/>
                            <path id="Path_180540" d="M178.408 98.809c-.442 10.549-1.175 19.027-1.821 25.159-.21 2-.548 4.607-2.524 6.349-4.272 3.766-14.2 1.087-15.376-3.018-.772-2.693 2.475-4.42 4.579-9.574 2.416-5.92 1.464-11.874.339-15.878" class="cls-3" data-name="Path 180540" transform="translate(-20.819 -26.122)"/>
                            <path id="Path_180541" d="M136.42 86.164l4.449 2.029a151.411 151.411 0 0 0-.508 23.612q.165 2.889.43 5.659a25.541 25.541 0 0 0 8.066 13l-10.5-.124c-1.419.278-14.078 2.55-22.554-5.936a21.778 21.778 0 0 1-5.3-8.891l-2.42-7.728z" class="cls-2" data-name="Path 180541" transform="translate(-5.03 -22.167)"/>
                            <path id="Path_180542" d="M186.23 113.312c-.088 1.463-.176 2.719-.25 3.708-.145 1.937-.279 3.414-.4 4.743-.141 1.552-.219 2.4-.343 3.561-.157 1.465-.348 3.046-.583 4.728a14.383 14.383 0 0 0 8.572-.712 14 14 0 0 0 4.628-3.15l-4.446-15.153z" class="cls-4" data-name="Path 180542" transform="translate(-28.976 -29.946)"/>
                            <path id="Path_180543" d="M161.1 139.138a26.182 26.182 0 0 1-5.62-11.552 25.489 25.489 0 0 1-.437-6.891" class="cls-3" data-name="Path 180543" transform="translate(-19.695 -32.966)"/>
                            <path id="Path_180544" d="M162.55 87.356c-5.165-8.757-4.772-12.982-3.33-15.221 2.676-4.154 9.952-3 12.684-8.234a9.721 9.721 0 0 0 .663-6.362l8.508-.26c-1.053 4.489.229 6.391.833 7.077.268.3.676.68 4.241 2.238.181.079 1.962.849 5.5 2.458 0 0 .624.3 1.311.636a78.224 78.224 0 0 1 8.33 4.763c3.876 2.577 5.82 3.858 6.27 4.813 2.74 5.816-13.06 18.423-15.129 20.053-.315-.738-.625-1.539-.917-2.4-.36-1.062-.643-2.069-.865-3.005a62.453 62.453 0 0 0 7.285-6.973c2.2-2.476 2.735-3.5 2.5-4.475-.37-1.528-2.5-2.163-5.515-3.33a24.316 24.316 0 0 0-5.816-1.457" class="cls-5" data-name="Path 180544" transform="translate(-20.727 -13.134)"/>
                            <path id="Path_180545" d="M134.33 80.61a50.987 50.987 0 0 1-1.4 9.054c-.667 2.673-1.05 3.277-1.405 3.695-2.192 2.577-6.686 2-10.9 1.509-4.115-.483-10.229-1.158-18.395-1.9.034.275.077.561.13.858.041.225.084.442.13.651a38.662 38.662 0 0 0 7.429 4.31 36.68 36.68 0 0 0 5.724 1.993 75.326 75.326 0 0 0 7.559 1.278c6.862.983 10.319 1.5 11.967.755 3.271-1.489 4.641-5.071 6.3-9.406a43.118 43.118 0 0 0 1.684-5.859c.432-2.01.682-3.91.773-4.629.026-.2.133-1.058.189-1.705.223-2.6.489-5.7-1.137-8.514a10.265 10.265 0 0 0-3.642-3.59 16.819 16.819 0 0 0-4.319-1.613c-4.8-1.391-5.517-1.1-6.521-1.959-1.032-.878-2.04-2.688-1.606-6.851l-10.59-.348a7.093 7.093 0 0 1-.535 5.109c-1.384 2.423-7.176 3.616-10.33 4.993-6.9 3.012-9.509 11.2-11.431 17.217-1.558 4.879-3.318 10.393-.536 13.9 1.762 2.224 4.605 2.709 8 3.078a111.907 111.907 0 0 0 24.689-.175" class="cls-5" data-name="Path 180545" transform="translate(0 -13.465)"/>
                            <path id="Path_180546" d="M106.727 123.151l-1.821 16.34" class="cls-3" data-name="Path 180546" transform="translate(-4.036 -33.734)"/>
                            <path id="Path_180547" d="M107.006 105.785a17.326 17.326 0 0 1 .332-7.981 16.693 16.693 0 0 1 1.249-3.122" class="cls-3" data-name="Path 180547" transform="translate(-4.594 -24.831)"/>
                            <path id="Path_180548" d="M122.954 69.047a56.656 56.656 0 0 1 4.653 12.353c.425 1.746.9 4.091 1.833 4.17.964.08 1.852-2.282 2.535-3.92a61 61 0 0 1 6.82-12.068" class="cls-3" data-name="Path 180548" transform="translate(-9.68 -16.814)"/>
                            <path id="Path_180549" d="M125.766 75.172l11.543-.238c-.6 1.3-4.614 10-5.877 11.8-.181.258-.6.843-1.093.8-.187-.017-.522-.137-.9-.9-.939-1.908-3.325-10.24-3.673-11.462z" class="cls-6" data-name="Path 180549" transform="translate(-10.559 -18.655)"/>
                            <path id="Path_180550" d="M203.03 86.956c0 .225.009.451.009.667.047 3.314.225 6.234.507 8.807" class="cls-3" data-name="Path 180550" transform="translate(-34.723 -22.415)"/>
                            <path id="Path_180551" d="M200.468 100.135c.682 8.389 3.177 13.51 5.425 16.681 1.141 1.612 4.188 5.513 3.014 7.99a5.715 5.715 0 0 1-2.179 2.291 4.383 4.383 0 0 1-2.291.723c-1.845-.173-3-3.274-3.952-6.084-2.987-8.765-4.062-14.477-6.9-21.933-.162-.425-.3-.77-.377-.975" class="cls-3" data-name="Path 180551" transform="translate(-31.651 -26.128)"/>
                            <path id="Path_180552" d="M177.062 68.563a32.656 32.656 0 0 1 7.129 18.237 28.239 28.239 0 0 1-.012 2.869c.689-.056 1.426-.091 2.2-.1.634-.006 1.24.01 1.815.039a26.385 26.385 0 0 1-.833-2.55 30.632 30.632 0 0 1 1.249-18.577" class="cls-3" data-name="Path 180552" transform="translate(-26.602 -16.638)"/>
                            <path id="Path_180553" d="M180.773 73.714a5.673 5.673 0 0 0 4.423 1.613 5.519 5.519 0 0 0 3.46-1.769 27.86 27.86 0 0 0 .761 17.621c-.592-.037-1.217-.058-1.873-.058-.779 0-1.515.028-2.2.078a33.048 33.048 0 0 0-4.566-17.484z" class="cls-6" data-name="Path 180553" transform="translate(-27.762 -18.225)"/>
                            <path id="Path_180554" d="M184.407 137.048a15.106 15.106 0 0 0 13.529-3.9" class="cls-3" data-name="Path 180554" transform="translate(-28.899 -36.86)"/>
                            <path id="Path_180555" d="M187.515 98.426l-.571 11.1 7.025-2.2q-.753-2.538-1.693-5.245-.721-2.061-1.473-3.976-.8.055-1.647.136t-1.641.185z" class="cls-4" data-name="Path 180555" transform="translate(-29.692 -25.902)"/>
                            <path id="Path_180556" d="M203.035 86.461q-.012-.562-.017-1.135-.008-1.062.01-2.086" class="cls-5" data-name="Path 180556" transform="translate(-34.718 -21.253)"/>
                            <path id="Path_180557" d="M166.718 98.28l.839-3.4 8.762-3.922-.215 7.61-4.586 2.849z" class="cls-2" data-name="Path 180557" transform="translate(-23.367 -23.668)"/>
                            <g id="Group_88563" data-name="Group 88563" transform="translate(148.018 48.956)">
                                <path id="Path_180558" d="M176.992 64.828c-1.249-.313-2.7-.5-3.252.208-1.1 1.413 1.966 5.647 4.137 8 3.3 3.581 8.7 7.337 10.459 5.971 1.063-.825-.467-2.607.156-6.947.616-4.291 2.475-6.591 1.561-7.493-.419-.413-1.438-.553-4.124.755" class="cls-3" data-name="Path 180558" transform="translate(-173.508 -64.278)"/>
                                <path id="Path_180559" d="M193.95 85.71a17.543 17.543 0 0 1 2.81 10.849c-.474 4.418-2.592 6.475-4.058 10.615-1.219 3.438-2.106 8.8.156 16.626" class="cls-3" data-name="Path 180559" transform="translate(-179.122 -70.981)"/>
                                <ellipse id="Ellipse_13879" cx="2.389" cy="2.343" class="cls-7" data-name="Ellipse 13879" rx="2.389" ry="2.343" transform="translate(12.104 52.484)"/>
                            </g>
                            <g id="Group_88564" data-name="Group 88564" transform="translate(124.607 52.627)">
                                <path id="Path_180560" d="M148.065 69.62a23.115 23.115 0 0 1-4.9 15.529" class="cls-3" data-name="Path 180560" transform="translate(-140.607 -69.62)"/>
                                <ellipse id="Ellipse_13880" cx="2.389" cy="2.343" class="cls-7" data-name="Ellipse 13880" rx="2.389" ry="2.343" transform="translate(0 14.234)"/>
                            </g>
                            <g id="Group_88565" data-name="Group 88565" transform="translate(105.293 52.887)">
                                <path id="Path_180561" d="M118.016 79.23a13.449 13.449 0 0 1-.827-9.23" class="cls-3" data-name="Path 180561" transform="translate(-113.026 -69.999)"/>
                                <path id="Path_180562" d="M122.92 98.287c1.622.2 2.546-.068 3.021-.586 2.454-2.683-4.837-14.654-9.38-13.923-4.6.739-7 14.611-3.656 16.342.7.364 1.769.248 3.339-.586" class="cls-3" data-name="Path 180562" transform="translate(-111.341 -74.298)"/>
                                <circle id="Ellipse_13881" cx="1.5" cy="1.5" r="1.5" class="cls-7" data-name="Ellipse 13881" transform="translate(3.848 23.879)"/>
                                <circle id="Ellipse_13882" cx="1.5" cy="1.5" r="1.5" class="cls-7" data-name="Ellipse 13882" transform="translate(9.77 22.926)"/>
                            </g>
                            <g id="Group_88566" data-name="Group 88566" transform="translate(144.325 22.779)">
                                <path id="Path_180563" fill="#ead8b9" stroke="#2d2d2d" stroke-linecap="round" stroke-miterlimit="10" stroke-width="0.4px" d="M170.98 39.194c-.864-.751-1.859-.957-2.394-.572-.695.5-.4 1.821-.31 2.244a5.553 5.553 0 0 0 2.535 3.276" data-name="Path 180563" transform="translate(-168.135 -30.018)"/>
                                <path id="Path_180564" d="M178.848 26.243c-1.121.2-1.834.937-3.045 2.212a17.284 17.284 0 0 0-3.61 5.785 13.079 13.079 0 0 0-.474 5.013 13.506 13.506 0 0 0 2.352 6.253 9.181 9.181 0 0 0 4.2 3.816 8.146 8.146 0 0 0 5.073.208 10.15 10.15 0 0 0 6.348-7.337 10.4 10.4 0 0 0-.078-4.839 21.211 21.211 0 0 0-4.007-6.843c-1.714-1.957-4.161-4.742-6.759-4.268z" class="cls-9" data-name="Path 180564" transform="translate(-169.236 -26.189)"/>
                            </g>
                            <g id="Group_88567" data-name="Group 88567" transform="translate(106.633 15.283)">
                                <path id="Path_180565" d="M116.256 43.455a2.1 2.1 0 0 0-2.394-.572c-.7.5-.4 1.84-.312 2.238.551 2.46 3.289 3.715 4.111 4.058" class="cls-9" data-name="Path 180565" transform="translate(-113.328 -23.856)"/>
                                <path id="Path_180566" d="M148.627 42.622a2.1 2.1 0 0 1 2.394-.572c.7.5.4 1.818.312 2.238-.525 2.381-3.034 3.637-3.851 4.007" class="cls-9" data-name="Path 180566" transform="translate(-123.984 -23.595)"/>
                                <path id="Path_180567" d="M139.535 37.262a15.494 15.494 0 0 1-2.508 9.328c-.768 1.128-3.54 5.206-7.311 5.438-5.767.355-12.423-8.374-11.642-16.6.632-6.647 6.209-13.907 11.952-13.384 5.907.54 9.366 9.243 9.509 15.218z" class="cls-9" data-name="Path 180567" transform="translate(-114.767 -17.39)"/>
                                <path id="Path_180568" d="M116.426 35.091c.2-.042.365-1.112.7-3.253.355-2.253.3-2.487.624-2.966.687-1.006 1.88-1.349 3.434-1.8a16.221 16.221 0 0 1 2.563-.48 35.023 35.023 0 0 0 4.28-.561 13.815 13.815 0 0 0 2.143-.689c2.355-.988 2.4-1.087 2.957-1.028 1.876.2 3.087 2.994 3.357 3.616a14.483 14.483 0 0 1 .624 2.029c.755 2.838.693 3.885.937 3.9.452.032 1.572-3.5 1.171-7.415a12.55 12.55 0 0 0-1.327-4.917 12.2 12.2 0 0 0-10.069-6.244c-3.9-.148-6.671 1.787-8.586 3.122-2.1 1.467-4.705 3.282-5.62 6.635-1.379 5.075 2.032 10.216 2.812 10.051z" class="cls-1" data-name="Path 180568" transform="translate(-113.291 -15.283)"/>
                                <path id="Path_180569" d="M120.189 43.091c.486-.794 1.608-.85 3.853-.964 2.175-.109 3.262-.164 3.766.526.749 1.027-.079 3.227-1.576 4.291a4.063 4.063 0 0 1-4.641.088c-1.291-.939-2.068-2.853-1.402-3.941z" class="cls-9" data-name="Path 180569" transform="translate(-115.372 -23.658)"/>
                                <path id="Path_180570" d="M135.1 42.326c.486-.793 1.608-.85 3.853-.963 2.174-.11 3.262-.165 3.766.525.749 1.027-.08 3.227-1.577 4.291a4.065 4.065 0 0 1-4.641.087c-1.292-.937-2.071-2.851-1.401-3.94z" class="cls-9" data-name="Path 180570" transform="translate(-120.034 -23.419)"/>
                                <path id="Line_569" d="M0 0.088L2.627 0" class="cls-10" data-name="Line 569" transform="translate(12.436 18.907)"/>
                                <path id="Path_180571" d="M119.256 43.975l-1.426.067" class="cls-5" data-name="Path 180571" transform="translate(-114.71 -24.256)"/>
                                <path id="Path_180572" d="M146.538 42.323h1.907" class="cls-10" data-name="Path 180572" transform="translate(-123.688 -23.74)"/>
                            </g>
                            <circle id="Ellipse_13883" cx="1.063" cy="1.063" r="1.063" data-name="Ellipse 13883" transform="translate(114.279 33.782)"/>
                            <path id="Path_180573" d="M166.423 146.419l-.468 3.842" class="cls-5" data-name="Path 180573" transform="translate(-23.128 -41.011)"/>
                            <path id="Path_180574" d="M211.294 140.9a19.94 19.94 0 0 1 .281 5.3" class="cls-5" data-name="Path 180574" transform="translate(-37.307 -39.284)"/>
                            <path id="Path_180575" d="M131.773 51.382a1.56 1.56 0 0 0 .6.486 1.274 1.274 0 0 0 1.278-.077 1.465 1.465 0 0 0 .511-.549" class="cls-3" data-name="Path 180575" transform="translate(-12.438 -11.246)"/>
                            <path id="Path_180576" d="M129.378 56.132a4.692 4.692 0 0 0 6.578-.351" class="cls-3" data-name="Path 180576" transform="translate(-11.689 -12.665)"/>
                            <circle id="Ellipse_13884" cx="1.063" cy="1.063" r="1.063" data-name="Ellipse 13884" transform="translate(124.449 33.096)"/>
                            <path id="Path_180577" d="M138.621 38.811a5.964 5.964 0 0 1 3.33.916" class="cls-5" data-name="Path 180577" transform="translate(-14.58 -7.357)"/>
                            <path id="Path_180578" d="M126.871 39.479a5.964 5.964 0 0 0-3.33.916" class="cls-5" data-name="Path 180578" transform="translate(-9.864 -7.566)"/>
                            <path id="Path_180579" d="M181.487 51.368a4.691 4.691 0 0 0 6.578-.352" class="cls-3" data-name="Path 180579" transform="translate(-27.986 -11.175)"/>
                            <path id="Path_180580" d="M184.536 46.554a2.3 2.3 0 0 0 .636.578 1.327 1.327 0 0 0 .682.253 1.31 1.31 0 0 0 .748-.261 2.05 2.05 0 0 0 .6-.583" class="cls-3" data-name="Path 180580" transform="translate(-28.939 -9.775)"/>
                            <circle id="Ellipse_13885" cx="1.063" cy="1.063" r="1.063" class="cls-11" data-name="Ellipse 13885" transform="translate(151.291 31.036)"/>
                            <circle id="Ellipse_13886" cx="1.063" cy="1.063" r="1.063" class="cls-11" data-name="Ellipse 13886" transform="translate(160.205 31.036)"/>
                            <path id="Path_180581" d="M180.041 34.727a5.961 5.961 0 0 0-3.342.87" class="cls-5" data-name="Path 180581" transform="translate(-26.488 -6.079)"/>
                            <path id="Path_180582" d="M190.521 34.026a5.971 5.971 0 0 1 3.248 1.173" class="cls-5" data-name="Path 180582" transform="translate(-30.811 -5.862)"/>
                        </g>
                        <path id="Path_180584" d="M7971.25 24045.984a11.5 11.5 0 0 1 0 3.641 7.883 7.883 0 0 1-1.609 3.094s.656.813 1.406 1.828 1.594 2.234 1.594 2.234a9.4 9.4 0 0 0 4.156 1.094 5.88 5.88 0 0 0 3.3-1.783l1.161-3.508a9.524 9.524 0 0 1-1.759-2.959 7.379 7.379 0 0 1 0-3.578 8.744 8.744 0 0 1-4.172 1.031 12.177 12.177 0 0 1-4.077-1.094z" class="cls-12" data-name="Path 180584" transform="translate(-7703 -19970)"/>
                    </g>
                </g>
                <path id="Path_180586" d="M7935.766 24048.859a6.371 6.371 0 0 1-1.108 2.393 6.467 6.467 0 0 1-2.158 1.545s.668 1.258 1.172 2.361.891 2.107.891 2.107l11.376-.229 1.292-1.879 1.3-1.893a5.693 5.693 0 0 1-1.969-2.145 8.143 8.143 0 0 1-.492-3.283s-2.586 2.541-5.125 2.807-5.179-1.784-5.179-1.784z" class="cls-12" data-name="Path 180586" transform="translate(-7703 -19970)"/>
            </g>
        </g>
    </g>
</svg>
