<svg xmlns="http://www.w3.org/2000/svg" width="99.585" height="93.031" viewBox="0 0 99.585 93.031">
    <g id="Group_88596" data-name="Group 88596" transform="translate(-214.975 -4496.644)">
        <g id="Group_88595" data-name="Group 88595">
            <g id="Group_88592" stroke="#2d2d2d" stroke-miterlimit="10" stroke-width="0.4px" data-name="Group 88592" transform="translate(-1876.736 3908.596)">
                <circle id="Ellipse_13887" cx="31.189" cy="31.189" r="31.189" fill="#fff" data-name="Ellipse 13887" transform="translate(2112.995 603.662)"/>
                <path id="Path_180592" fill="#ffabaf" d="M2147.413 618.914c-1.2.153-2.419.244-3.635.349a11.365 11.365 0 0 0-2.534-4.47c2.129.081 4.23.2 6.278.363a2.092 2.092 0 0 0 .325-4.171c-3.816-.313-7.909-.479-12.165-.491-.394 0-.792.022-1.189.026a1.882 1.882 0 0 0-.282.006c-3.418.04-6.855.18-10.241.458a2.092 2.092 0 0 0 .174 4.178l.17-.008c2.96-.242 5.954-.374 8.938-.426a3.327 3.327 0 0 1 1.541.327 9.932 9.932 0 0 1 4.621 4.476c-1.048.04-2.1.1-3.139.109a94.427 94.427 0 0 1-11.884-.727 2.091 2.091 0 0 0-.511 4.151 96.249 96.249 0 0 0 12.048.761h.361c.981 0 1.964-.069 2.948-.1a7.183 7.183 0 0 1-2.887 2.572c-2.175 1.038-4.384.622-6.338.256-1.9-.354-4.06-.763-5.278 1.1-1.7 2.6 1.141 6.281 4.456 9.871a45.557 45.557 0 0 0 12.5 9.47 2.093 2.093 0 1 0 1.939-3.711 41.534 41.534 0 0 1-11.368-8.6 31.536 31.536 0 0 1-3.305-4.072c.115.02.214.038.289.054 2.2.41 5.506 1.03 8.91-.6a11.233 11.233 0 0 0 5.095-4.969 3.246 3.246 0 0 1 2.633-1.817c.688-.063 1.377-.133 2.061-.22a2.094 2.094 0 0 0 1.813-2.338 2.127 2.127 0 0 0-2.344-1.807zm-11.486 3.8z" data-name="Path 180592" transform="translate(9.227 6.962)"/>
            </g>
            <g id="Group_88594" data-name="Group 88594" transform="translate(-914.95 3996.176)">
                <g id="Group_88593" data-name="Group 88593" transform="translate(1136.043 500.771)">
                    <path id="Path_180593" fill="#c7dcff" stroke="#221f20" stroke-miterlimit="10" stroke-width="0.5px" d="M1180.624 593.248a50.044 50.044 0 0 1-35.9-15.451 2.3 2.3 0 0 1 3.315-3.183c11.844 12.34 29.623 17.081 45.287 12.08.936-.3 22.957-7.561 28.407-30.043 5.223-21.549-9.525-37.647-10.154-38.322-16.093-17.219-39.257-12.432-40.232-12.217a44.028 44.028 0 0 0-32.6 30.542 2.3 2.3 0 0 1-4.4-1.322 48.624 48.624 0 0 1 36.026-33.712c1.081-.236 26.71-5.534 44.566 13.57.7.751 17.064 18.614 11.263 42.544-6.052 24.965-30.441 33.009-31.477 33.336a46.351 46.351 0 0 1-14.101 2.178z" data-name="Path 180593" transform="translate(-1134.249 -500.771)"/>
                </g>
                <path id="Path_180594" fill="#d6ea88" stroke="#2d2d2d" stroke-miterlimit="10" stroke-width="0.5px" d="M1144.959 522.818a35.955 35.955 0 0 0-12.956 0 1.126 1.126 0 0 0-1.04.694 1.111 1.111 0 0 0 .244 1.227l6.478 6.478a1.116 1.116 0 0 0 1.584.008l6.495-6.495a1.121 1.121 0 0 0-.805-1.912z" data-name="Path 180594" transform="rotate(9 1065.987 532.593)"/>
            </g>
        </g>
    </g>
</svg>
