<svg xmlns="http://www.w3.org/2000/svg" width="72.224" height="79.136" viewBox="0 0 72.224 79.136">
    <defs>
        <linearGradient id="pjl1luki5a" x1=".5" x2=".5" y2="1" gradientUnits="objectBoundingBox">
            <stop offset="0" stop-color="#1778f2"/>
            <stop offset="1" stop-color="#f40009"/>
        </linearGradient>
    </defs>
    <g data-name="Group 189136">
        <g data-name="Group 189103">
            <path data-name="Rectangle 16364" style="fill:none" d="M0 0h71.824v71.824H0z" transform="translate(.2 .2)"/>
            <g data-name="Group 188830">
                <path data-name="Path 238517" d="M26.241 67.835a85.952 85.952 0 0 1-12.27-10.217 85.773 85.773 0 0 1-9.982-12.035A14.016 14.016 0 0 1 0 35.912a13.636 13.636 0 0 1 3.989-9.671A117.436 117.436 0 0 1 26.241 3.989 14.026 14.026 0 0 1 35.912 0a13.634 13.634 0 0 1 9.671 3.989 133.456 133.456 0 0 1 11.245 9.937 133.742 133.742 0 0 1 11.007 12.315 14.008 14.008 0 0 1 3.989 9.671 13.635 13.635 0 0 1-3.989 9.671 132.987 132.987 0 0 1-11.567 12.879 133.758 133.758 0 0 1-10.686 9.373A14.126 14.126 0 0 1 39.7 71.3a13.458 13.458 0 0 1-3.789.528 14.187 14.187 0 0 1-4.706-.92 15.2 15.2 0 0 1-4.964-3.073z" transform="translate(.2 .2)" style="stroke:#707070;stroke-width:.4px;opacity:.05;fill:url(#pjl1luki5a)"/>
            </g>
        </g>
        <path data-name="Path 239245" d="M30.9.354a4.858 4.858 0 0 0-.719 2.117 2.737 2.737 0 0 0 .772 2.552.251.251 0 0 1 .019.341 2.226 2.226 0 0 0-.472 1.061A2.914 2.914 0 0 0 31.142 9a.251.251 0 0 1-.1.4 1.4 1.4 0 0 0-.871.89.251.251 0 0 1-.36.139 3.309 3.309 0 0 0-1.945-.329 4.044 4.044 0 0 0-2.332 1.3.25.25 0 0 1-.389-.029 2.994 2.994 0 0 0-2.032-1.235 2.767 2.767 0 0 0-2.468.848.251.251 0 0 1-.349.018 2.14 2.14 0 0 0-1.754-.662 3.74 3.74 0 0 0-2.916.924.257.257 0 0 1-.393-.02 2.917 2.917 0 0 0-2.384-1.1 3.488 3.488 0 0 0-2.77 1.153.253.253 0 0 1-.387-.007c-.294-.38-1.076-.942-3.033-.467a3.25 3.25 0 0 0-2.633 3.069.249.249 0 0 1-.244.235A3.093 3.093 0 0 0 .985 16.17a3.8 3.8 0 0 0 .668 3.957.241.241 0 0 1-.06.361c-.473.273-1.369 1.067-1.014 3.07a2.987 2.987 0 0 0 2.8 2.586.252.252 0 0 1 .234.241 3.95 3.95 0 0 0 1.3 2.545.241.241 0 0 0 .05.035 3.83 3.83 0 0 0 4.126-.156.253.253 0 0 1 .358.081 2.544 2.544 0 0 0 2.318.978 3.575 3.575 0 0 0 2.79-1.122.251.251 0 0 1 .408.052 3.343 3.343 0 0 0 2.657 1.337 3.959 3.959 0 0 0 2.976-1.29.249.249 0 0 1 .372.009A3.862 3.862 0 0 0 23.707 30h.018a3.979 3.979 0 0 0 2.925-1.3.25.25 0 0 1 .385 0 3.2 3.2 0 0 0 2.586 1.181 3.994 3.994 0 0 0 2.627-.967.25.25 0 0 1 .351.018 2.959 2.959 0 0 0 2.262.923.251.251 0 0 1 .251.187 2.8 2.8 0 0 0 1.116 1.449.25.25 0 0 1 .009.406 1.708 1.708 0 0 0-.693 1.462.235.235 0 0 1-.211.243 2.518 2.518 0 0 0-1.635.754.255.255 0 0 1-.38-.018 3.107 3.107 0 0 0-2.245-.767 2.812 2.812 0 0 0-2.191.869.251.251 0 0 1-.35.011 3.288 3.288 0 0 0-2.142-.879 3.685 3.685 0 0 0-2.361 1.125.25.25 0 0 1-.35 0 3.555 3.555 0 0 0-2.35-1.097 3.617 3.617 0 0 0-2.488.961.25.25 0 0 1-.344-.012A3.444 3.444 0 0 0 16 33.432a3.566 3.566 0 0 0-2.229.947.242.242 0 0 1-.343-.026 2.933 2.933 0 0 0-2.316-.92 3.394 3.394 0 0 0-2.715 1.351.253.253 0 0 1-.359.04 3.044 3.044 0 0 0-3.933.181 4.3 4.3 0 0 0-1.355 4.713.252.252 0 0 1-.185.316c-.594.131-1.958.712-1.985 3.278a4.745 4.745 0 0 0 3.09 4.313.254.254 0 0 1 .148.275 3.381 3.381 0 0 0 1.529 3.16.249.249 0 0 0 .057.028 4.7 4.7 0 0 0 4.225-.527.251.251 0 0 1 .352.071 2.613 2.613 0 0 0 2.206 1A2.781 2.781 0 0 0 14.433 51a.248.248 0 0 1 .36-.009 2.739 2.739 0 0 0 2.084.605 2.811 2.811 0 0 0 2.392-.887.252.252 0 0 1 .4 0 3.28 3.28 0 0 0 2.4 1.07h.014a3.136 3.136 0 0 0 2.244-.892.244.244 0 0 1 .352 0 2.975 2.975 0 0 0 2.237.836 2.308 2.308 0 0 0 1.968-.712.231.231 0 0 1 .348-.011 3 3 0 0 0 1.981.681 2.846 2.846 0 0 0 2.169-.949.243.243 0 0 1 .4.033 2.64 2.64 0 0 0 1.541 1.116.255.255 0 0 1 .175.3 1.5 1.5 0 0 0-.03.441.233.233 0 0 1-.265.258 2.193 2.193 0 0 0-1.548.382 3.753 3.753 0 0 0-1.33 1.3.263.263 0 0 1-.439.021 3.5 3.5 0 0 0-3.078-1.32 3.963 3.963 0 0 0-3 1.617.256.256 0 0 1-.355.041 3.237 3.237 0 0 0-3.956.168c-2.2 1.481-1.6 4.364-1.413 5.054A.254.254 0 0 1 20 60.4c-3.243 2.835-.945 7.179-.945 7.179s1.275 2.68 3.992 2 3.829-4.261 3.52-5.867a18.623 18.623 0 0 0-.421-1.822.248.248 0 0 1 .138-.3 1.987 1.987 0 0 0 .847-.641.254.254 0 0 1 .381-.068 2.737 2.737 0 0 0 2.7.484 3.144 3.144 0 0 0 1.971-1.611.251.251 0 0 1 .4-.076 3.969 3.969 0 0 0 4.974.761c2.225-1.373 2.2-2.964 2.067-3.631a.252.252 0 0 1 .252-.3 3.274 3.274 0 0 0 3.609-3.526v-.027c-.019-.233-.311-3.374-2.382-3.952a.257.257 0 0 1-.2-.257c.043-.925.008-4.624-3.287-4.732a4.543 4.543 0 0 0-3.133.865.251.251 0 0 1-.362-.054c-.4-.557-1.52-1.884-2.989-1.737a2.762 2.762 0 0 0-2.109 1.1.25.25 0 0 1-.4.018 2.453 2.453 0 0 0-2-.81 2.973 2.973 0 0 0-2.173 1.063.251.251 0 0 1-.372.01A2.817 2.817 0 0 0 22 43.457a4.17 4.17 0 0 0-2.339 1.013.249.249 0 0 1-.382-.035 2.585 2.585 0 0 0-2.4-1.164 3.251 3.251 0 0 0-2.136.956.266.266 0 0 1-.405-.02 2.282 2.282 0 0 0-2.028-.936 2.009 2.009 0 0 0-1.6.722.245.245 0 0 1-.361.051 2.671 2.671 0 0 0-.961-.537.252.252 0 0 1-.154-.386 1.59 1.59 0 0 0 .283-1.216.254.254 0 0 1 .339-.287 2.768 2.768 0 0 0 1.466.17 4.581 4.581 0 0 0 1.842-.835.256.256 0 0 1 .341.034 3.274 3.274 0 0 0 2.386.862 2.879 2.879 0 0 0 2.42-.923.252.252 0 0 1 .375-.019 3.482 3.482 0 0 0 2.516 1 3.079 3.079 0 0 0 2.4-1.036.236.236 0 0 1 .367.01 2.935 2.935 0 0 0 2.544.963 2.827 2.827 0 0 0 2.223-.784.249.249 0 0 1 .378-.009 2.805 2.805 0 0 0 2.34.608c1.5-.081 1.935-.667 2.057-1.06a.25.25 0 0 1 .367-.148 4.653 4.653 0 0 0 5.263-.126.261.261 0 0 0 .055-.055 5.465 5.465 0 0 0 1.011-2.17.249.249 0 0 1 .227-.214 3.192 3.192 0 0 0 3.058-2.864 3.69 3.69 0 0 0-1.71-3.71.25.25 0 0 1-.06-.375c.543-.646 1.9-2.555.844-4.463a3.675 3.675 0 0 0-3.4-2.223c-.247 0-.988-2.285-3.273-2.47a3.727 3.727 0 0 0-3.159 1.2.251.251 0 0 1-.369.01 4.239 4.239 0 0 0-2.9-1.332 3.621 3.621 0 0 0-2.64 1.179.262.262 0 0 1-.391-.006 3.4 3.4 0 0 0-2.712-1.173c-1.5.047-2.15.6-2.4 1.072a.252.252 0 0 1-.409.065 3.682 3.682 0 0 0-2.613-1.077 3.365 3.365 0 0 0-2.651.937.252.252 0 0 1-.372 0 3.89 3.89 0 0 0-2.786-1.056 4.894 4.894 0 0 0-2.289.249.249.249 0 0 1-.358-.168 4.516 4.516 0 0 0-.868-1.823.251.251 0 0 1 .079-.371 3.245 3.245 0 0 0 1.437-1.387.251.251 0 0 1 .377-.1 3.368 3.368 0 0 0 2.178.571 3.072 3.072 0 0 0 2.111-1.122.245.245 0 0 1 .367-.012 3.937 3.937 0 0 0 2.586 1.2 2.1 2.1 0 0 0 2.022-.717.253.253 0 0 1 .369-.058 3.056 3.056 0 0 0 2.3.713 3.424 3.424 0 0 0 2.598-1.549 4.224 4.224 0 0 0 4.2 1.358c2.318-.35 2.56-1.35 2.5-1.9a.266.266 0 0 1 .307-.3c1.055.186 3.875.467 4.723-1.627a4.184 4.184 0 0 0-.166-3.941.251.251 0 0 1 .054-.338 4.1 4.1 0 0 0 1.719-3.318 2.91 2.91 0 0 0-.851-2.26.248.248 0 0 1-.025-.365 3.057 3.057 0 0 0 .691-3.053l-.186-.928" transform="translate(11.69 1.066)" style="fill:#fff;stroke:#212121;stroke-linecap:round;stroke-miterlimit:10"/>
        <path data-name="Path 239246" d="M33.55 88.919a4.787 4.787 0 1 0-4.787 4.787 4.787 4.787 0 0 0 4.787-4.787" transform="translate(4.937 -20.295)" style="fill:#ff8e93"/>
        <g data-name="Group 189104" style="opacity:.703;mix-blend-mode:multiply;isolation:isolate">
            <path data-name="Path 178" d="M574.055 120.178c.219.985.808 3.633-.745 5.773-2.136 2.942-6.507 2.42-7.091 2.342-3.243-.437-8.03-2.986-8.114-7.838a7.977 7.977 0 0 1 7.837-8.114c4.994-.086 7.493 5.059 8.113 7.837z" transform="rotate(-59 253.728 564.819)" style="fill:#ff8e93"/>
        </g>
    </g>
</svg>
