<?xml version="1.0" encoding="utf-8"?>
<!-- Generator: Adobe Illustrator 16.0.0, SVG Export Plug-In . SVG Version: 6.00 Build 0)  -->
<!DOCTYPE svg PUBLIC "-//W3C//DTD SVG 1.1//EN" "http://www.w3.org/Graphics/SVG/1.1/DTD/svg11.dtd">
<svg version="1.1" id="Layer_1" xmlns="http://www.w3.org/2000/svg" xmlns:xlink="http://www.w3.org/1999/xlink" x="0px" y="0px"
	 width="1024.006px" height="449.621px" viewBox="0 287.189 1024.006 449.621" enable-background="new 0 287.189 1024.006 449.621"
	 xml:space="preserve">
<g>
	<g id="Group_88822" transform="translate(-130.431 3200.492)" opacity="0.2">
		<path id="Path_184266" fill="none" d="M530.534-2812.906c53.323,1.934,107.362,3.893,161.645,4.995
			c-54.491-4.613-108.176-10.423-161.094-16.154c-95.902-10.385-186.485-20.194-276.693-22.676
			c-50.997-1.406-92.47-1.317-123.901,0.252v34.904c31.09-3,71.754-5.086,121.512-6.225
			C339.891-2819.819,432.493-2816.465,530.534-2812.906L530.534-2812.906z"/>
		<path id="Path_184267" fill="none" d="M1078.099-2843.684c-36.335,18.091-81.955,29.084-135.594,32.673
			c-71.593,4.791-144.03,5.681-216.211,4.741c62.362,4.618,125.776,7.342,190.307,6.272c120.864-2.005,188.954-19.1,224.791-33.089
			c4.767-1.861,9.101-3.716,13.041-5.54v-72.591c-2.184,3.612-4.602,7.256-7.253,10.932
			C1130.434-2877.214,1107.192-2858.17,1078.099-2843.684z"/>
		<path id="Path_184268" fill="none" d="M1141.778-2832.094c-22.865,8.926-50.938,16.199-83.441,21.62
			c-40.608,6.772-88.29,10.656-141.72,11.542c-9.457,0.157-18.894,0.234-28.311,0.232c-60.749,0-120.5-3.146-179.313-7.828
			c-59.949-1.013-119.661-3.178-178.501-5.312c-98.022-3.556-190.607-6.915-278.469-4.903c-49.792,1.138-90.461,3.227-121.533,6.229
			v26.87h1023.941v-53.8C1150.593-2835.684,1146.389-2833.894,1141.778-2832.094z"/>
		<path id="Path_184269" fill="#4285F4" d="M916.599-2799.999c-64.531,1.07-127.944-1.653-190.307-6.272
			c-5.768-0.075-11.533-0.16-17.299-0.257c58.813,4.684,118.563,7.828,179.313,7.828c9.407,0,18.844-0.077,28.311-0.232
			c53.43-0.886,101.111-4.769,141.72-11.542c32.503-5.421,60.576-12.692,83.441-21.62c4.611-1.8,8.815-3.59,12.653-5.349v-1.184
			c-3.94,1.823-8.274,3.68-13.041,5.54C1105.553-2819.099,1037.464-2802.004,916.599-2799.999L916.599-2799.999z"/>
		<path id="Path_184270" fill="#4285F4" d="M254.389-2846.74c90.208,2.482,180.791,12.291,276.693,22.676
			c52.918,5.731,106.602,11.541,161.093,16.154c5.611,0.114,11.225,0.22,16.84,0.317c-60.24-4.8-119.495-11.215-177.817-17.531
			c-95.925-10.388-186.529-20.199-276.78-22.682c-50.994-1.405-92.475-1.317-123.93,0.251v1.067
			C161.916-2848.058,203.392-2848.146,254.389-2846.74L254.389-2846.74z"/>
		<path id="Path_184271" fill="#DB4437" d="M942.434-2812.076c-77.275,5.173-155.545,5.798-233.414,4.482
			c5.749,0.458,11.509,0.899,17.278,1.323c72.181,0.94,144.619,0.05,216.211-4.741c53.639-3.589,99.26-14.582,135.595-32.673
			c29.095-14.485,52.337-33.529,69.08-56.602c2.661-3.666,5.078-7.31,7.253-10.932v-2.085c-2.416,4.103-5.12,8.266-8.159,12.446
			C1120.104-2864.827,1063.496-2820.177,942.434-2812.076z"/>
		<path id="Path_184272" fill="#DB4437" d="M530.493-2811.84c58.84,2.133,118.552,4.299,178.501,5.312
			c-5.614-0.447-11.221-0.908-16.818-1.383c-54.281-1.104-108.321-3.061-161.644-4.995c-98.039-3.557-190.641-6.914-278.532-4.904
			c-49.758,1.138-90.419,3.225-121.512,6.225v1.072c31.074-3.003,71.743-5.091,121.533-6.229
			C339.885-2818.755,432.47-2815.398,530.493-2811.84L530.493-2811.84z"/>
		<path id="Path_184273" fill="#DB4437" d="M709.015-2807.594c-5.617-0.095-11.23-0.201-16.84-0.317
			c5.598,0.474,11.204,0.935,16.818,1.383c5.765,0.098,11.531,0.184,17.299,0.257
			C720.525-2806.697,714.766-2807.138,709.015-2807.594z"/>
	</g>
	
		<linearGradient id="Path_179669_1_" gradientUnits="userSpaceOnUse" x1="1.1738" y1="1023.6914" x2="0.227" y2="1024.9681" gradientTransform="matrix(1023.9429 0 0 -420.512 -305.4715 431247.3125)">
		<stop  offset="0" style="stop-color:#07D1B5"/>
		<stop  offset="1" style="stop-color:#4285F4"/>
	</linearGradient>
	<path id="Path_179669" fill="url(#Path_179669_1_)" d="M0,344.384c0,0,20.424-39.303,211.816-25.011
		c191.393,14.292,357.568,82.551,524.099,98.341c161.081,15.272,288.028-34.371,288.028-34.371v353.396L0.04,736.756L0,344.384z"/>
	<path id="Path_184250" opacity="0.31" fill="#0E80D2" enable-background="new    " d="M177.091,699.035
		c61.7,20.881,116.792,23.365,172.053,21.222c-23.251-1.39-46.412-4.005-69.387-7.836C146.247,690.257,70.329,635.75,29.203,591.635
		C53.85,629.613,98.028,672.278,177.091,699.035L177.091,699.035z"/>
	<path id="Path_184251" opacity="0.31" fill="#FF8075" enable-background="new    " d="M503.723,712.634
		c-1.451,0.2-2.903,0.397-4.356,0.594c0.363,0,0.728,0.005,1.092,0.008C501.544,713.033,502.632,712.832,503.723,712.634z"/>
	<path id="Path_184252" opacity="0.31" fill="#FF8075" enable-background="new    " d="M551.008,705.414
		c50.238-5.965,106.121-6.612,173.191,5.726c37.448,6.888,68.057,15.651,93.954,25.658l205.828-0.004v-35.331
		c-22.854-5.265-48.102-10.025-76.267-14.155C778.349,662.467,663.217,687.051,551.008,705.414z"/>
	<path id="Path_184253" opacity="0.58" fill="#FF8075" enable-background="new    " d="M503.723,712.634
		c15.799-2.182,31.513-4.64,47.285-7.22C534.716,707.348,519.016,709.842,503.723,712.634z"/>
	<path id="Path_184254" opacity="0.31" fill="#FF8075" enable-background="new    " d="M551.008,705.414
		c-15.772,2.581-31.486,5.038-47.285,7.22c-1.091,0.199-2.18,0.399-3.265,0.602c49.697,0.332,103.497,5.687,165.088,23.565h152.607
		c-25.897-10.007-56.506-18.771-93.954-25.659C657.13,698.802,601.246,699.449,551.008,705.414z"/>
	<path id="Path_184255" opacity="0.58" fill="#0E80D2" enable-background="new    " d="M551.008,705.414
		c-15.772,2.581-31.486,5.038-47.285,7.22c-1.091,0.199-2.18,0.399-3.265,0.602c49.697,0.332,103.497,5.687,165.088,23.565h152.607
		c-25.897-10.007-56.506-18.771-93.954-25.659C657.13,698.802,601.246,699.449,551.008,705.414z"/>
	<path id="Path_184256" opacity="0.14" fill="#FF8075" enable-background="new    " d="M0.056,521.83l0.003,32.662
		c8.599,13.217,18.353,25.646,29.145,37.143C10.309,562.518,2.896,536.156,0.056,521.83L0.056,521.83z"/>
	<path id="Path_184257" opacity="0.14" fill="#FF8075" enable-background="new    " d="M499.366,713.228
		c-53.241-0.278-101.797,5.151-150.223,7.029C402.746,723.438,451.505,719.669,499.366,713.228z"/>
	<path id="Path_184258" opacity="0.31" fill="#FF8075" enable-background="new    " d="M499.366,713.228
		c-47.861,6.441-96.62,10.211-150.223,7.029c-55.262,2.144-110.355-0.341-172.053-21.222
		c-79.063-26.76-123.24-69.422-147.887-107.401c-10.792-11.496-20.546-23.926-29.145-37.143v12.545
		c11.199,29.23,62.317,136.543,218.718,169.155c1.019,0.213,2.031,0.414,3.044,0.617h162.057
		c38.455-6.568,76.139-16.051,116.577-23.57C500.094,713.234,499.729,713.229,499.366,713.228L499.366,713.228z"/>
	<path id="Path_184259" opacity="0.14" fill="#0E80D2" enable-background="new    " d="M499.366,713.228
		c-47.861,6.441-96.62,10.211-150.223,7.029c-55.262,2.144-110.355-0.341-172.053-21.222
		c-79.063-26.76-123.24-69.422-147.887-107.401c-10.792-11.496-20.546-23.926-29.145-37.143v12.545
		c11.199,29.23,62.317,136.543,218.718,169.155c1.019,0.213,2.031,0.414,3.044,0.617h162.057
		c38.455-6.568,76.139-16.051,116.577-23.57C500.094,713.234,499.729,713.229,499.366,713.228L499.366,713.228z"/>
	<path id="Path_184260" opacity="0.31" fill="#FF8075" enable-background="new    " d="M0.061,567.037l0.018,169.773l221.745-0.006
		c-1.013-0.203-2.026-0.406-3.044-0.618C62.378,703.582,11.258,596.268,0.061,567.037L0.061,567.037z"/>
	<path id="Path_184261" opacity="0.58" fill="#05BFA6" enable-background="new    " d="M0.061,567.037l0.018,169.773l221.745-0.006
		c-1.013-0.203-2.026-0.406-3.044-0.618C62.378,703.582,11.258,596.268,0.061,567.037L0.061,567.037z"/>
	<path id="Path_184262" opacity="0.14" fill="#0F7ED0" enable-background="new    " d="M0,567.037l0.018,169.773l221.745-0.006
		c-1.013-0.203-2.026-0.406-3.044-0.618C62.317,703.582,11.198,596.268,0,567.037L0,567.037z"/>
	<path id="Path_184263" opacity="0.31" fill="#FF8075" enable-background="new    " d="M383.88,736.805l281.666-0.004
		c-61.593-17.879-115.391-23.233-165.088-23.565C460.019,720.753,422.335,730.236,383.88,736.805L383.88,736.805z"/>
	<path id="Path_184264" opacity="0.58" fill="#06CDB2" enable-background="new    " d="M383.88,736.805l281.666-0.004
		c-61.593-17.879-115.391-23.233-165.088-23.565C460.019,720.753,422.335,730.236,383.88,736.805L383.88,736.805z"/>
	<path id="Path_184265" opacity="0.14" fill="#06CDB2" enable-background="new    " d="M383.88,736.805l281.666-0.004
		c-61.593-17.879-115.391-23.233-165.088-23.565C460.019,720.753,422.335,730.236,383.88,736.805L383.88,736.805z"/>
</g>
</svg>
