<svg xmlns="http://www.w3.org/2000/svg" width="72.224" height="72.224" viewBox="0 0 72.224 72.224">
    <defs>
        <linearGradient id="vn57st765a" x1=".5" x2=".5" y2="1" gradientUnits="objectBoundingBox">
            <stop offset="0" stop-color="#1778f2"/>
            <stop offset="1" stop-color="#f40009"/>
        </linearGradient>
    </defs>
    <g data-name="Group 189088">
        <g data-name="Group 189084">
            <path data-name="Rectangle 16364" style="fill:none" d="M0 0h71.824v71.824H0z" transform="translate(.2 .2)"/>
            <g data-name="Group 188830">
                <path data-name="Path 238517" d="M26.241 67.835a85.952 85.952 0 0 1-12.27-10.217 85.773 85.773 0 0 1-9.982-12.035A14.016 14.016 0 0 1 0 35.912a13.636 13.636 0 0 1 3.989-9.671A117.436 117.436 0 0 1 26.241 3.989 14.026 14.026 0 0 1 35.912 0a13.634 13.634 0 0 1 9.671 3.989 133.456 133.456 0 0 1 11.245 9.937 133.742 133.742 0 0 1 11.007 12.315 14.008 14.008 0 0 1 3.989 9.671 13.635 13.635 0 0 1-3.989 9.671 132.987 132.987 0 0 1-11.567 12.879 133.758 133.758 0 0 1-10.686 9.373A14.126 14.126 0 0 1 39.7 71.3a13.458 13.458 0 0 1-3.789.528 14.187 14.187 0 0 1-4.706-.92 15.2 15.2 0 0 1-4.964-3.073z" transform="translate(.2 .2)" style="stroke:#707070;stroke-width:.4px;opacity:.05;fill:url(#vn57st765a)"/>
            </g>
        </g>
        <g data-name="Group 189087">
            <g data-name="Group 189086">
                <path data-name="Path 239190" d="M19.281 21.629a6.094 6.094 0 0 0-7.181 1.235c-3.262 3.38-17.06 18.735-9.226 38.9a10.339 10.339 0 0 0 10.283 4.468c7.091-.973 9.315-8.272 8.412-11.957s-6.048-7.786-1.182-19.534c0 0 5.091-8.025 1.373-10.961 0 0 4.144-3.582 9.1.3s5.954 15.72 1.306 37.211c0 0-.468 1.96 1.241 2.14s2.025-2.789 2.025-2.789 5.651-20.892 1.035-34.023a4.842 4.842 0 0 1 2.546-5.661s1.931-.962 1.1-2.576-2.706-.312-2.706-.312-2.758 1.821-3.539 4.267c-.001 0-7.107-6.777-14.587-.708z" transform="translate(13.789 -2.663)" style="fill:#fff"/>
                <path data-name="Path 239189" d="M21.359 13.018s-3.228-1.665-2.239-2.456 1.465-2.211 6.411-2.388a10.684 10.684 0 0 1 7.894 3.115s3.477-5.41 5.39-4.57.494 2.687.494 2.687-3.35 2.394-3.355 4.044a28.34 28.34 0 0 0 1.393 7.111c.768 2.4.838 8.477.364 12.9a94.34 94.34 0 0 1-2.488 15.293c-1.42 4.951-3.05 3.746-3.384 3.171S35 32.833 34.871 30.552 34.35 16.633 32.2 14.735s-4.917-5-7.814-3.446-2.559 1.357-2.559 1.357" transform="translate(14.295 8.35)" style="fill:#86bcff"/>
            </g>
            <g data-name="Group 189085">
                <g data-name="Group 189078" style="opacity:.703;mix-blend-mode:multiply;isolation:isolate">
                    <path data-name="Path 178" d="M563.328 114.908a2.33 2.33 0 0 1-.244 1.891 2.57 2.57 0 0 1-2.323.767A2.912 2.912 0 0 1 558.1 115a2.613 2.613 0 0 1 2.567-2.658c1.639-.029 2.458 1.658 2.661 2.566z" transform="translate(-541.647 -62.156)" style="fill:#ff8e93"/>
                </g>
                <g data-name="Group 189079" style="opacity:.703;mix-blend-mode:multiply;isolation:isolate">
                    <path data-name="Path 178" d="M563.328 114.908a2.33 2.33 0 0 1-.244 1.891 2.57 2.57 0 0 1-2.323.767A2.912 2.912 0 0 1 558.1 115a2.613 2.613 0 0 1 2.567-2.658c1.639-.029 2.458 1.658 2.661 2.566z" transform="rotate(24 435.142 -1171.887)" style="fill:#ff8e93"/>
                </g>
                <g data-name="Group 189080" style="opacity:.703;mix-blend-mode:multiply;isolation:isolate">
                    <path data-name="Path 178" d="M563.328 114.908a2.33 2.33 0 0 1-.244 1.891 2.57 2.57 0 0 1-2.323.767A2.912 2.912 0 0 1 558.1 115a2.613 2.613 0 0 1 2.567-2.658c1.639-.029 2.458 1.658 2.661 2.566z" transform="translate(-536.987 -66.264)" style="fill:#ff8e93"/>
                </g>
                <g data-name="Group 189081" style="opacity:.703;mix-blend-mode:multiply;isolation:isolate">
                    <path data-name="Path 178" d="M562.334 114.42a1.887 1.887 0 0 1-.2 1.531 2.081 2.081 0 0 1-1.881.621 2.358 2.358 0 0 1-2.152-2.079 2.116 2.116 0 0 1 2.079-2.152c1.327-.023 1.989 1.341 2.154 2.079z" transform="rotate(20 463.237 -1414.563)" style="fill:#ff8e93"/>
                </g>
                <g data-name="Group 189083" style="opacity:.703;mix-blend-mode:multiply;isolation:isolate">
                    <path data-name="Path 178" d="M563.173 114.832a2.261 2.261 0 0 1-.237 1.835 2.494 2.494 0 0 1-2.254.744 2.826 2.826 0 0 1-2.579-2.491 2.536 2.536 0 0 1 2.491-2.579c1.588-.028 2.382 1.607 2.579 2.491z" transform="rotate(20 480.453 -1422.043)" style="fill:#ff8e93"/>
                </g>
                <g data-name="Group 189077" style="opacity:.703;mix-blend-mode:multiply;isolation:isolate">
                    <path data-name="Path 178" d="M561.086 113.807a1.331 1.331 0 0 1-.139 1.08 1.468 1.468 0 0 1-1.326.438 1.663 1.663 0 0 1-1.518-1.466 1.492 1.492 0 0 1 1.466-1.518c.931-.016 1.402.946 1.517 1.466z" transform="rotate(-73 256.762 447.54)" style="fill:#ff8e93"/>
                </g>
                <g data-name="Group 189082" style="opacity:.703;mix-blend-mode:multiply;isolation:isolate">
                    <path data-name="Path 178" d="M561.086 113.807a1.331 1.331 0 0 1-.139 1.08 1.468 1.468 0 0 1-1.326.438 1.663 1.663 0 0 1-1.518-1.466 1.492 1.492 0 0 1 1.466-1.518c.931-.016 1.402.946 1.517 1.466z" transform="rotate(-73 257.496 444.553)" style="fill:#ff8e93"/>
                </g>
                <g data-name="Group 189076" style="opacity:.703;mix-blend-mode:multiply;isolation:isolate">
                    <path data-name="Path 178" d="M562.867 114.682a2.125 2.125 0 0 1-.223 1.724 2.343 2.343 0 0 1-2.118.7 2.655 2.655 0 0 1-2.423-2.341 2.382 2.382 0 0 1 2.34-2.423c1.492-.027 2.239 1.509 2.424 2.34z" transform="rotate(-73 253.125 450.638)" style="fill:#ff8e93"/>
                </g>
            </g>
            <path data-name="Path 239183" d="M19.281 21.629a6.094 6.094 0 0 0-7.181 1.235c-3.262 3.38-17.06 18.735-9.226 38.9a10.339 10.339 0 0 0 10.283 4.468c7.091-.973 9.315-8.272 8.412-11.957s-6.048-7.786-1.182-19.534c0 0 5.091-8.025 1.373-10.961 0 0 4.144-3.582 9.1.3s5.954 15.72 1.306 37.211c0 0-.468 1.96 1.241 2.14s2.025-2.789 2.025-2.789 5.651-20.892 1.035-34.023a4.842 4.842 0 0 1 2.546-5.661s1.931-.962 1.1-2.576-2.706-.312-2.706-.312-2.758 1.821-3.539 4.267c-.001 0-7.107-6.777-14.587-.708z" transform="translate(13.789 -2.663)" style="stroke-linejoin:round;stroke:#2d2d2d;stroke-linecap:round;stroke-miterlimit:10;fill:none"/>
            <path data-name="Path 239184" d="M106.169 13.667s1.025-3.395 3.911-3.187" transform="translate(-52.432 1.788)" style="stroke:#2d2d2d;stroke-linecap:round;stroke-miterlimit:10;fill:none"/>
            <path data-name="Path 239185" d="M78.421 5.738s4.879-2.413 8.792 4.213" transform="translate(-35.043 5.023)" style="stroke:#2d2d2d;stroke-linecap:round;stroke-miterlimit:10;fill:none"/>
            <path data-name="Path 239186" d="M100 .33s1.8 2.042 0 5.37" transform="translate(-48.569 8.143)" style="stroke:#2d2d2d;stroke-linecap:round;stroke-miterlimit:10;fill:none"/>
            <path data-name="Path 239187" d="M106.73 23.674a5.848 5.848 0 0 1 3.991 3.174 8.473 8.473 0 0 1 .724 4.2" transform="translate(-52.784 -6.486)" style="stroke:#2d2d2d;stroke-linecap:round;stroke-miterlimit:10;fill:none"/>
            <path data-name="Path 239188" d="M121.486 33.8s-1.882-2.865-4.541-2.563" transform="translate(-59.185 -11.209)" style="stroke:#2d2d2d;stroke-linecap:round;stroke-miterlimit:10;fill:none"/>
            <path data-name="Rectangle 16402" transform="translate(11.102 6.35)" style="fill:none" d="M0 0h53.355v59.524H0z"/>
        </g>
    </g>
</svg>
