<svg xmlns="http://www.w3.org/2000/svg" width="26.107" height="26.107" viewBox="0 0 26.107 26.107">
    <g id="prefix__Group_14992" data-name="Group 14992" transform="translate(-227.895 -650)">
        <path id="prefix__Path_70839" d="M9.9 23.053A13.053 13.053 0 1022.948 10 13.068 13.068 0 009.9 23.053zm5.278 9.653a7.719 7.719 0 0115.438 0 .3.3 0 00.016.077 12.366 12.366 0 01-15.453-.076zm7.775-22.055a12.4 12.4 0 018.3 21.607 8.386 8.386 0 00-6.353-7.677 5.206 5.206 0 10-4.023 0 8.386 8.386 0 00-6.339 7.58 12.4 12.4 0 018.406-21.511zm-.056 13.685a4.556 4.556 0 114.556-4.556 4.561 4.561 0 01-4.561 4.555z" data-name="Path 70839" transform="translate(218 640)" style="fill:#565a63"/>
    </g>
</svg>
