<svg width="60" height="60" viewBox="0 0 60 60" fill="none" xmlns="http://www.w3.org/2000/svg">
<rect width="60" height="60" rx="30" fill="white"/>
<path d="M20.7763 45.619C21.8238 41.9395 22.0579 40.5691 21.6237 38.2326C21.5357 37.7523 21.4187 37.231 21.2742 36.641C21.1435 36.1051 20.9538 35.5877 20.719 35.0914C20.4841 34.5934 20.2016 34.1172 19.8868 33.6612C19.5277 33.1399 19.2033 32.562 18.9175 31.9502C17.9248 29.8316 17.3809 27.2998 17.3809 25.2458C17.3809 20.1144 20.3582 15.8159 26.1014 14.6779C27.0763 14.4834 28.1312 14.3809 29.2643 14.3809C35.7589 14.3809 41.1389 18.7859 41.1389 24.7244C41.1389 25.0545 41.1188 25.228 40.9953 25.6275C40.6967 26.5977 40.8896 27.843 41.5594 28.7356C42.4117 29.8728 42.8726 30.7122 43.465 31.5031C43.6732 31.7815 43.5804 32.1794 43.2696 32.3352L41.561 33.1891C41.3334 33.3037 41.2406 33.5805 41.3552 33.8081L41.7313 35.0995C41.787 35.2915 41.6974 35.4974 41.5175 35.5878L40.5716 36.0615C40.5159 36.0898 40.4925 36.1584 40.5207 36.214L41.0058 37.1842C41.0905 37.3553 41.0574 37.5619 40.9218 37.6967L40.557 38.0631C40.4997 38.1204 40.4594 38.193 40.4392 38.2713L40.2729 40.1082C40.1616 40.5537 39.7613 40.8661 39.3028 40.8661L35.2093 40.8193" stroke="#92AE70" stroke-width="2" stroke-linecap="round" stroke-linejoin="round"/>
<path d="M35.209 40.8176V45.619" stroke="#92AE70" stroke-width="2" stroke-linecap="round" stroke-linejoin="round"/>
<path d="M29.2608 26.0005C29.0598 26.722 29.4803 27.4686 30.2019 27.6695C30.9234 27.8705 31.6691 27.45 31.8701 26.7285C32.272 25.2862 31.4302 23.7931 29.9872 23.3904C28.5449 22.9885 27.0518 23.8303 26.6499 25.2725C26.0462 27.4363 27.3093 29.676 29.4739 30.2796C31.6385 30.8833 33.8765 29.6203 34.4802 27.4565C35.2849 24.5712 33.6005 21.585 30.7152 20.7803C27.8298 19.9756 24.8445 21.6592 24.0398 24.5445C23.0342 28.1514 25.139 31.8833 28.7459 32.8889C32.3527 33.8946 36.0847 31.7897 37.0903 28.1837C38.2969 23.8561 35.7715 19.3768 31.4432 18.1702C27.1156 16.9636 22.6371 19.489 21.4297 23.8165" stroke="#92AE70" stroke-width="1.5" stroke-linecap="round" stroke-linejoin="round"/>
</svg>
