<svg width="60" height="60" viewBox="0 0 60 60" fill="none" xmlns="http://www.w3.org/2000/svg">
<rect width="60" height="60" rx="30" fill="#F7F7F7"/>
<path d="M35.1177 19.1552L35.1177 24.9978C35.1177 27.3221 34.199 29.5513 32.5636 31.1948C30.9282 32.8384 28.7101 33.7617 26.3972 33.7617C24.0844 33.7617 21.8663 32.8384 20.2309 31.1948C18.5955 29.5513 17.6767 27.3221 17.6767 24.9978L17.6767 19.1552" stroke="#92AE70" stroke-width="2.5" stroke-linecap="round" stroke-linejoin="round"/>
<path d="M36.4587 41.4234C35.427 42.4693 34.0277 43.0569 32.5687 43.0569C31.1097 43.0569 29.7104 42.4693 28.6787 41.4234C27.647 40.3775 27.0674 38.959 27.0674 37.4798L27.0674 33.7618" stroke="#92AE70" stroke-width="2.5" stroke-linecap="round" stroke-linejoin="round"/>
<path d="M16.5022 18.0179C16.5022 17.6154 16.7328 17.2294 17.1434 16.9448C17.554 16.6602 18.1109 16.5003 18.6915 16.5003L19.7862 16.5003C20.3668 16.5003 20.9237 16.6602 21.3343 16.9448C21.7448 17.2294 21.9755 17.6154 21.9755 18.0179L21.9755 21.6221C21.9755 22.0246 21.7448 22.4106 21.3343 22.6952C20.9237 22.9798 20.3668 23.1396 19.7862 23.1396L16.5022 23.1396L16.5022 18.0179ZM36.4587 18.0179C36.4587 17.6154 36.2281 17.2294 35.8175 16.9448C35.4069 16.6602 34.85 16.5003 34.2694 16.5003L33.1747 16.5003C32.5941 16.5003 32.0372 16.6602 31.6266 16.9448C31.2161 17.2294 30.9854 17.6154 30.9854 18.0179L30.9854 21.6221C30.9854 22.0246 31.2161 22.4106 31.6266 22.6952C32.0372 22.9798 32.5941 23.1396 33.1747 23.1396L36.4587 23.1396L36.4587 18.0179Z" fill="white" stroke="#92AE70" stroke-width="2.5" stroke-linecap="round" stroke-linejoin="round"/>
<path d="M42.2496 38.8526C42.2496 40.7169 40.7191 42.2501 38.8039 42.2501C36.8888 42.2501 35.3583 40.7169 35.3583 38.8526C35.3583 36.9883 36.8888 35.4551 38.8039 35.4551C40.7191 35.4551 42.2496 36.9883 42.2496 38.8526Z" fill="white" stroke="#92AE70" stroke-width="2.5"/>
</svg>
