<svg width="60" height="60" viewBox="0 0 60 60" fill="none" xmlns="http://www.w3.org/2000/svg">
<rect width="60" height="60" rx="30" fill="#F7F7F7"/>
<circle cx="30.0033" cy="30.0007" r="15" stroke="#92AE70" stroke-width="2.33333"/>
<path d="M35.339 29.7888H34.1786C34.2998 30.1414 34.3617 30.514 34.3614 30.8893V35.5407C34.3614 35.6973 34.3362 35.8527 34.2869 36.0002H36.2042C36.5487 35.9997 36.8789 35.8544 37.1225 35.5959C37.3661 35.3375 37.5031 34.9871 37.5034 34.6217V32.0862C37.5045 30.8194 36.533 29.7888 35.339 29.7888Z" fill="#92AE70"/>
<path d="M25.8273 29.7888H24.6668C24.0927 29.7896 23.5424 30.0318 23.1365 30.4625C22.7306 30.8931 22.5023 31.477 22.5017 32.086V34.6216C22.5021 34.9871 22.6391 35.3374 22.8827 35.5958C23.1262 35.8542 23.4565 35.9995 23.8009 35.9999H25.7183C25.6689 35.8524 25.6437 35.697 25.6438 35.5405V30.8891C25.6437 30.5138 25.7058 30.1413 25.8273 29.7888Z" fill="#92AE70"/>
<path d="M31.3273 28.5925H28.6749C28.1008 28.5932 27.5504 28.8355 27.1445 29.2661C26.7385 29.6968 26.5101 30.2807 26.5095 30.8897V35.5411C26.5095 35.663 26.5551 35.7798 26.6363 35.866C26.7175 35.9521 26.8277 36.0005 26.9426 36.0005H33.0596C33.1745 36.0005 33.2847 35.9521 33.3659 35.866C33.4471 35.7798 33.4927 35.663 33.4927 35.5411V30.8897C33.4921 30.2807 33.2637 29.6968 32.8577 29.2661C32.4518 28.8355 31.9014 28.5932 31.3273 28.5925Z" fill="#92AE70"/>
<path d="M28.73 27.6732C29.1263 27.9087 29.5738 28.0301 30.028 28.0254C30.4823 28.0207 30.9275 27.8901 31.3194 27.6464C31.7113 27.4028 32.0363 27.0546 32.2622 26.6365C32.4881 26.2183 32.6069 25.7448 32.6069 25.2629C32.6069 23.7396 31.4386 22.5002 30.0027 22.5002C28.5667 22.5002 27.3984 23.7403 27.3984 25.2629C27.3986 25.7539 27.522 26.236 27.756 26.6596C27.9901 27.0833 28.3262 27.4331 28.73 27.6732Z" fill="#92AE70"/>
<path d="M27.1487 28.1134C27.3648 27.6829 27.4304 27.1851 27.3339 26.7081C27.2373 26.2312 26.9848 25.8058 26.6211 25.5074C26.2573 25.2089 25.8058 25.0566 25.3463 25.0773C24.8869 25.0981 24.4492 25.2905 24.1106 25.6207C23.7721 25.9509 23.5546 26.3974 23.4966 26.8814C23.4386 27.3653 23.5438 27.8554 23.7937 28.2649C24.0435 28.6745 24.4219 28.977 24.8618 29.1191C25.3017 29.2612 25.7748 29.2336 26.1974 29.0412C26.6043 28.855 26.9396 28.5279 27.1487 28.1134Z" fill="#92AE70"/>
<path d="M36.5209 27.1419C36.5208 26.7335 36.4066 26.3342 36.1926 25.9946C35.9786 25.655 35.6745 25.3903 35.3187 25.2341C34.963 25.0778 34.5715 25.0369 34.1939 25.1166C33.8162 25.1963 33.4693 25.393 33.197 25.6818C32.9247 25.9707 32.7393 26.3386 32.6641 26.7393C32.589 27.1399 32.6275 27.5551 32.7747 27.9326C32.922 28.31 33.1715 28.6326 33.4916 28.8596C33.8117 29.0867 34.1881 29.2079 34.5731 29.208C35.0895 29.2075 35.5846 28.9896 35.9498 28.6023C36.3149 28.2149 36.5203 27.6897 36.5209 27.1419Z" fill="#92AE70"/>
</svg>
