<svg xmlns="http://www.w3.org/2000/svg" width="72" height="72" viewBox="0 0 72 72">
    <defs>
        <linearGradient id="z0efebnyia" x1=".5" x2=".5" y2="1" gradientUnits="objectBoundingBox">
            <stop offset="0" stop-color="#1778f2"/>
            <stop offset="1" stop-color="#f40009"/>
        </linearGradient>
    </defs>
    <g data-name="Group 189145">
        <g data-name="Group 188988">
            <path data-name="Path 83289" d="M52 83.146a80.6 80.6 0 0 1-20.885-20.889 13.148 13.148 0 0 1-3.744-9.077 12.8 12.8 0 0 1 3.744-9.08A110.048 110.048 0 0 1 52 23.213a13.157 13.157 0 0 1 9.077-3.745 12.8 12.8 0 0 1 9.077 3.745A125.741 125.741 0 0 1 91.049 44.1a13.154 13.154 0 0 1 3.745 9.077 12.8 12.8 0 0 1-3.745 9.077 124.851 124.851 0 0 1-20.891 20.892 13.218 13.218 0 0 1-5.524 3.254 12.508 12.508 0 0 1-3.557.5 13.256 13.256 0 0 1-4.42-.865A14.169 14.169 0 0 1 52 83.146z" transform="translate(-25.124 -17.145)" style="opacity:.04;fill:url(#z0efebnyia)"/>
            <g data-name="Group 231">
                <path data-name="Rectangle 46" style="fill:none" d="M0 0h72v72H0z"/>
                <path data-name="Path 206" d="M27.493 2286.2a48.209 48.209 0 0 0 5.619 7.387c4.879 5.255 8.158 6.376 13.943 12.591 2.7 2.9 4.061 4.39 4.683 6.451 1.275 4.22-.61 7.344-1.768 12.384a38.7 38.7 0 0 0-.313 15.192l15.922-.416c2.148-6.2 3.843-11.112 4.891-14.15 3.936-11.435 4.481-13.121 4.267-15.819-.374-4.689-2.631-7.313-10.2-16.856-2.988-3.769-7.9-10-14.153-18.108q-11.444 5.665-22.891 11.344z" transform="translate(-18.332 -2270.861)" style="fill:#fff;stroke:#fff"/>
                <path data-name="Path 207" d="M38.249 2274.326c9.354 11.216 14.243 16.923 15.466 18.463a500.59 500.59 0 0 1 1.8 2.283c.457.586.9 1.158 1.531 1.974 4.439 5.745 6.827 9.114 7.007 13.857a12.264 12.264 0 0 1-.038 1.653 20.928 20.928 0 0 1-2.251 7.584c-1.37 2.669-3.323 7.889-6.271 17.676" transform="translate(-7.567 -2271.077)" style="stroke:#2d2d2d;stroke-linecap:round;stroke-miterlimit:10;fill:none"/>
                <path data-name="Path 208" d="M27.371 2282.482a127.45 127.45 0 0 0 16.076 14.136c4.564 3.362 8.968 6.1 9.4 10.67.222 2.342-.741 3.71-1.75 6.37a35.255 35.255 0 0 0-1.752 16.879" transform="translate(-18.452 -2263.383)" style="stroke:#2d2d2d;stroke-linecap:round;stroke-miterlimit:10;fill:none"/>
                <path data-name="Path 209" d="M31.19 2279.613q5.991 5.355 12.057 11.413 1.669 1.676 3.283 3.347s5.491 5.3 5.57 9.061a4.025 4.025 0 0 1 .006.422c-.069 2.087-.9 4.463.39 5.512a3.081 3.081 0 0 0 3.869-.376c.758-.96.143-2.432.6-2.6.552-.206 1.307 2.035 2.6 2.108 1.271.071 2.972-1.948 2.653-3.433-.279-1.3-1.925-1.345-5.049-3.926 0 0-.594-.49-1.711-1.552a33.582 33.582 0 0 1-6.142-7.984c-1.574-2.726-5.041-7.322-13.4-15.51" transform="translate(-14.709 -2269.646)" style="fill:#86bcff;stroke:#2d2d2d;stroke-linecap:round;stroke-miterlimit:10"/>
                <path data-name="Path 210" d="M41.736 2318.669a67.968 67.968 0 0 0 2.808-11.939c.347-2.551.513-3.854.236-5.23-.545-2.685-2.01-4.3-1.172-5.775a2.526 2.526 0 0 1 1.406-1.093 2.407 2.407 0 0 1 2.366.608c.719.792.406 1.893.756 1.968.434.093.7-1.646 2.075-2.267a2.711 2.711 0 0 1 3.622 1.644c.384 1.576-1.818 2.541-4.057 6.175a20.142 20.142 0 0 0-1.8 3.734 22.2 22.2 0 0 0-1.17 6.869 33.562 33.562 0 0 0 .234 6.009" transform="translate(-4.374 -2251.566)" style="fill:#86bcff;stroke:#2d2d2d;stroke-linecap:round;stroke-miterlimit:10"/>
            </g>
        </g>
        <g data-name="Group 1520" style="opacity:.703;mix-blend-mode:multiply;isolation:isolate">
            <path data-name="Path 178" d="M583.14 124.642c.344 1.546 1.269 5.7-1.17 9.061-3.353 4.617-10.214 3.8-11.13 3.676-5.09-.685-12.6-4.687-12.736-12.3a12.52 12.52 0 0 1 12.3-12.735c7.841-.138 11.764 7.934 12.736 12.298z" transform="translate(-526.102 -84.771)" style="fill:#ff8e93"/>
        </g>
    </g>
</svg>
