<?xml version="1.0" encoding="utf-8"?>
<!-- Generator: Adobe Illustrator 16.0.0, SVG Export Plug-In . SVG Version: 6.00 Build 0)  -->
<!DOCTYPE svg PUBLIC "-//W3C//DTD SVG 1.1//EN" "http://www.w3.org/Graphics/SVG/1.1/DTD/svg11.dtd">
<svg version="1.1" id="Layer_1" xmlns="http://www.w3.org/2000/svg" xmlns:xlink="http://www.w3.org/1999/xlink" x="0px" y="0px"
	 width="1648px" height="1480px" viewBox="0 0 1648 1480" enable-background="new 0 0 1648 1480" xml:space="preserve">
<linearGradient id="SVGID_1_" gradientUnits="userSpaceOnUse" x1="312.1943" y1="1252.7461" x2="313.1974" y2="1251.7301" gradientTransform="matrix(1648 0 0 -1314.2617 -514481.5 1646517.25)">
	<stop  offset="0" style="stop-color:#0F7ED0"/>
	<stop  offset="1" style="stop-color:#06CBB0"/>
</linearGradient>
<path fill="url(#SVGID_1_)" d="M0,130.258c0,0,99.965-78.262,367.875-69.418c267.906,8.84,383.727,87.434,703.754,104.789
	S1648,130.258,1648,130.258v1182.531c0,0-242.262,72.039-549.086,60.395c-306.82-11.648-403.473-75.316-678.203-80.477
	C145.98,1287.543,0,1339.293,0,1339.293V130.258z"/>
<path fill="#F40009" d="M1612.273,82.992c-29.082,22.883-64.363,41.445-104.863,55.176c-50.629,17.16-109.602,26.766-175.281,28.551
	c-10.094,0.277-20.066,0.391-29.906,0.344c-1.371,0.133-2.734,0.262-4.102,0.391c2.598,0.02,5.188,0.051,7.801,0.051
	c8.641,0,17.383-0.117,26.219-0.355c65.73-1.789,124.754-11.406,175.43-28.59c40.551-13.742,75.879-32.336,104.996-55.254
	c12.859-10.055,24.723-21.316,35.434-33.637v-0.656C1637.219,61.465,1625.254,72.848,1612.273,82.992z"/>
<path fill="#F40009" d="M295.848,41.559c75.984-6.594,152.324-8.184,228.52-4.758c164.078,7.215,289.699,39.488,411.188,70.691
	c116.348,29.887,226.805,58.258,358.125,59.934c1.422-0.125,2.844-0.25,4.27-0.379c-133.148-1.105-244.711-29.766-362.289-59.969
	C814.152,75.863,688.508,43.59,524.383,36.371c-76.215-3.426-152.574-1.836-228.582,4.762
	C237.887,46.148,180.313,54.5,123.359,66.145C66.074,77.984,24.07,90.605,0,98.66v0.453c24.031-8.047,66.074-20.691,123.461-32.551
	C180.395,54.922,237.953,46.574,295.848,41.559z"/>
<path fill="#1778F2" d="M294.32,148.906c74.914-14.699,150.711-24.457,226.906-29.215c164.008-10.395,292.332,8.262,416.43,26.301
	c89.832,13.059,176.215,25.617,269.551,25.617c29.496,0,59.699-1.266,90.91-4.152c-1.477-0.012-2.969-0.012-4.441-0.031
	c-128.059,11.262-239.102-4.871-355.961-21.859c-124.113-18.043-252.461-36.695-416.516-26.305
	c-76.215,4.762-152.031,14.523-226.961,29.223c-57.121,11.199-113.551,25.676-169.008,43.359
	C64.418,211.371,21.773,229.887,0,240.113v0.473c21.703-10.203,64.395-28.758,125.363-48.332
	C180.805,174.578,237.219,160.102,294.32,148.906z"/>
<path fill="#1778F2" d="M1608.516,49.109c-26.582,25.891-59.781,48.141-98.664,66.145c-48.617,22.504-106.316,38.379-171.492,47.195
	c-13.672,1.848-27.141,3.379-40.41,4.598c1.422,0.012,2.852,0.016,4.273,0.02c11.91-1.156,23.977-2.551,36.191-4.191
	c65.223-8.82,122.961-24.711,171.617-47.234c38.934-18.02,72.168-40.301,98.789-66.223c15.043-14.492,28.211-30.82,39.184-48.598V0
	C1636.977,17.98,1623.711,34.48,1608.516,49.109z"/>
<path fill="#1778F2" d="M1297.949,167.043c-1.426,0.133-2.848,0.258-4.27,0.383c1.473,0.02,2.961,0.016,4.441,0.027
	c1.363-0.125,2.73-0.254,4.102-0.387C1300.797,167.063,1299.367,167.059,1297.949,167.043z"/>
<path fill="#F40009" d="M1612.273,1322.621c-29.082,22.883-64.363,41.445-104.863,55.176
	c-50.629,17.16-109.602,26.766-175.281,28.551c-10.094,0.277-20.066,0.391-29.906,0.344c-1.371,0.133-2.734,0.262-4.102,0.391
	c2.598,0.02,5.188,0.051,7.801,0.051c8.641,0,17.383-0.117,26.219-0.355c65.73-1.789,124.754-11.406,175.43-28.59
	c40.551-13.742,75.879-32.336,104.996-55.254c12.859-10.055,24.723-21.316,35.434-33.637v-0.656
	C1637.219,1301.094,1625.254,1312.477,1612.273,1322.621z"/>
<path fill="#F40009" d="M295.848,1281.188c75.984-6.594,152.324-8.184,228.52-4.758c164.078,7.215,289.699,39.488,411.188,70.691
	c116.348,29.887,226.805,58.258,358.125,59.934c1.422-0.125,2.844-0.25,4.27-0.379c-133.148-1.105-244.711-29.766-362.289-59.969
	c-121.508-31.215-247.152-63.488-411.277-70.707c-76.215-3.426-152.574-1.836-228.582,4.762
	c-57.914,5.016-115.488,13.367-172.441,25.012C66.074,1317.609,24.07,1330.234,0,1338.289v0.453
	c24.031-8.047,66.074-20.691,123.461-32.551C180.395,1294.551,237.953,1286.203,295.848,1281.188z"/>
<path fill="#1778F2" d="M294.32,1388.535c74.914-14.699,150.711-24.457,226.906-29.215c164.008-10.395,292.332,8.262,416.43,26.301
	c89.832,13.059,176.215,25.617,269.551,25.617c29.496,0,59.699-1.266,90.91-4.152c-1.477-0.016-2.969-0.012-4.441-0.031
	c-128.059,11.262-239.102-4.875-355.961-21.859c-124.113-18.043-252.461-36.695-416.516-26.305
	c-76.215,4.762-152.031,14.523-226.961,29.223c-57.121,11.199-113.551,25.676-169.008,43.359
	C64.418,1451,21.773,1469.516,0,1479.742v0.473c21.703-10.203,64.395-28.758,125.363-48.332
	C180.805,1414.203,237.219,1399.73,294.32,1388.535z"/>
<path fill="#1778F2" d="M1608.516,1288.738c-26.582,25.891-59.781,48.141-98.664,66.141
	c-48.617,22.504-106.316,38.383-171.492,47.199c-13.672,1.848-27.141,3.379-40.41,4.598c1.422,0.012,2.852,0.012,4.273,0.02
	c11.91-1.156,23.977-2.551,36.191-4.191c65.223-8.82,122.961-24.711,171.617-47.234c38.934-18.02,72.168-40.301,98.789-66.223
	c15.043-14.492,28.211-30.82,39.184-48.598v-0.82C1636.977,1257.609,1623.711,1274.109,1608.516,1288.738z"/>
<path fill="#1778F2" d="M1297.949,1406.672c-1.426,0.133-2.848,0.258-4.27,0.383c1.473,0.02,2.961,0.016,4.441,0.027
	c1.363-0.125,2.73-0.254,4.102-0.387C1300.797,1406.688,1299.367,1406.688,1297.949,1406.672z"/>
</svg>
