<svg xmlns="http://www.w3.org/2000/svg" width="72.224" height="72.224" viewBox="0 0 72.224 72.224">
    <defs>
        <linearGradient id="ozlu9c8jta" x1=".5" x2=".5" y2="1" gradientUnits="objectBoundingBox">
            <stop offset="0" stop-color="#1778f2"/>
            <stop offset="1" stop-color="#f40009"/>
        </linearGradient>
    </defs>
    <g data-name="Group 189118">
        <g data-name="Group 189111">
            <path data-name="Rectangle 16364" style="fill:none" d="M0 0h71.824v71.824H0z" transform="translate(.2 .2)"/>
            <g data-name="Group 188830">
                <path data-name="Path 238517" d="M26.241 67.835a85.952 85.952 0 0 1-12.27-10.217 85.773 85.773 0 0 1-9.982-12.035A14.016 14.016 0 0 1 0 35.912a13.636 13.636 0 0 1 3.989-9.671A117.436 117.436 0 0 1 26.241 3.989 14.026 14.026 0 0 1 35.912 0a13.634 13.634 0 0 1 9.671 3.989 133.456 133.456 0 0 1 11.245 9.937 133.742 133.742 0 0 1 11.007 12.315 14.008 14.008 0 0 1 3.989 9.671 13.635 13.635 0 0 1-3.989 9.671 132.987 132.987 0 0 1-11.567 12.879 133.758 133.758 0 0 1-10.686 9.373A14.126 14.126 0 0 1 39.7 71.3a13.458 13.458 0 0 1-3.789.528 14.187 14.187 0 0 1-4.706-.92 15.2 15.2 0 0 1-4.964-3.073z" transform="translate(.2 .2)" style="stroke:#707070;stroke-width:.4px;opacity:.05;fill:url(#ozlu9c8jta)"/>
            </g>
        </g>
        <g data-name="Group 189117">
            <g data-name="Group 189110">
                <g data-name="Group 189116">
                    <path data-name="Path 239252" d="m730.559 698.749.581 2.732a57.73 57.73 0 0 0 5.071 2.494 57.861 57.861 0 0 0 8.979 3.034l1.361-8.636-8.22-3.709z" transform="translate(-722.258 -679.054)" style="fill:#fff"/>
                    <path data-name="Path 239254" d="M748.944 681.113a85.157 85.157 0 0 0-15.879 15.546 26.4 26.4 0 0 1 3.492 7.482l7.315.749c-.153 4.6-.44 9.43-.9 14.465-.572 6.317-2.272 17.845-2.272 17.845s-.7 5.971 3.85 7.833 3.433 6.188 13.809 6.172 6.674-2.353 12.346-5.532 5.8-5.343 7.917-7.291c-.24-2-2.165-6.324-2.479-10.133-.239-2.9-.34-4.764-.582-8.563-.168-2.638-.421-6.483-.763-11.224a1.646 1.646 0 0 1 .083-1.039 1.617 1.617 0 0 1 .457-.6 14.11 14.11 0 0 0 8.979-3.138 12.791 12.791 0 0 0 2.452-2.785q-.686-.681-1.371-1.372-1.884-1.895-3.7-3.782l-12.055-12.221a10.417 10.417 0 0 0-5.593-3.626c-3.66-.907-5.153-.687-9.055-.357a15.673 15.673 0 0 0-6.051 1.571z" transform="translate(-722.258 -679.054)" style="fill:#fff"/>
                    <path data-name="Path 239257" d="M767.634 682.148a29.958 29.958 0 0 1 6.24 4.917c2.31 2.219 2.168 2.684 4.936 5.684 5.291 5.756 8.046 6.5 7.936 8.369-.09 1.652-2.4 3.788-11.963 5.956" transform="translate(-722.258 -679.054)" style="stroke-linecap:round;stroke:#2d2d2d;stroke-miterlimit:10;fill:none"/>
                    <path data-name="Path 239258" d="M743.567 706.267c-10.724-2.523-13.228-4.71-13.254-6.33-.013-1.439 1.942-2.019 5.9-6.33 2.607-2.832 2.562-3.464 4.5-5.574a26.038 26.038 0 0 1 7.607-5.962" transform="translate(-722.258 -679.054)" style="stroke-linecap:round;stroke:#2d2d2d;stroke-miterlimit:10;fill:none"/>
                    <path data-name="Path 239259" d="M742.547 698.545a60.8 60.8 0 0 1 .965 9.871 66.5 66.5 0 0 1-.569 9.36 981.176 981.176 0 0 1-2.327 18.641" transform="translate(-722.258 -679.054)" style="stroke-linecap:round;stroke:#2d2d2d;stroke-miterlimit:10;fill:none"/>
                    <path data-name="Path 239260" d="M774.368 699.07c.034 3.057.115 7.465.332 12.8.136 3.336.226 5.558.416 7.981a111.631 111.631 0 0 0 2.513 16.241" transform="translate(-722.258 -679.054)" style="stroke-linecap:round;stroke:#2d2d2d;stroke-miterlimit:10;fill:none"/>
                    <path data-name="Path 239261" d="M733.825 703.282a24.226 24.226 0 0 0-2.6 5.543c-.844 2.617-1.545 4.792-1.109 7.205.877 4.856 5.836 7.79 9.538 9.98a31.731 31.731 0 0 0 5.322 2.513 45.642 45.642 0 0 0 5.407 2.53 29.179 29.179 0 0 0 3.454 1.16 18.721 18.721 0 0 0 4.767.776c4.547-.168 8.573-5.605 7.87-6.651-.81-1.205-8.316 2.8-9.09 1.441-.134-.234.022-.71.333-1.662.534-1.635 1.135-2.222.887-2.55-.269-.354-1.28-.073-1.885.222a5.911 5.911 0 0 0-1.662 1.441 17.04 17.04 0 0 1-1.786 1.69c-1.394.923-4.221-.815-10.184-5.308-5.17-3.9-6.146-4.922-6.194-6.414-.037-1.172.651-2.333 2.028-4.655a36.457 36.457 0 0 1 3.219-4.586q-1.023-.252-2.111-.565c-.31-.09-1.076-.314-2.234-.7a77.57 77.57 0 0 1-3.97-1.41z" transform="translate(-722.258 -679.054)" style="stroke:#2d2d2d;stroke-miterlimit:10;fill:#fff"/>
                    <path data-name="Path 239262" d="M776.238 706.76c.473.678 4.581 6.587 5.529 8.826a1.7 1.7 0 0 1 .111 1.33c-.192.428-.693.788-2 1a7.733 7.733 0 0 1-5.16-.439c-2.989-1.624-2.607-5.056-5.176-5.6-.74-.157-1.662-.063-1.829.333-.3.707 1.966 2.011 1.746 2.494-.383.837-7.385-2.688-8.729-1-.812 1.019.4 3.973 2.494 5.57s3.594.709 9.449 1.967c3.263.7 3.034 1.022 5.321 1.331 2.6.351 7.413 1 9.145-1.441.858-1.212.627-2.715.166-5.709a24.726 24.726 0 0 0-1.773-5.875 39.6 39.6 0 0 0-2.46-5.019q-.967.415-2.03.807a40.082 40.082 0 0 1-4.804 1.425z" transform="translate(-722.258 -679.054)" style="stroke:#2d2d2d;stroke-miterlimit:10;fill:#fff"/>
                    <path data-name="Path 239263" d="M748.541 730.289a3.067 3.067 0 0 1 2.984-1.041c1.722.5 2.512 1.8 2.308 2.965z" transform="rotate(-177 380.696 401.123)" style="fill:#ff8e93;stroke-linecap:round;stroke:#2d2d2d;stroke-miterlimit:10"/>
                    <path data-name="Path 239264" d="M785.147 722.5a2.767 2.767 0 0 1-1.122-2.932 2.714 2.714 0 0 1 3.582-2.089s.974 4.074-2.46 5.021z" transform="rotate(-165.02 380.096 428.486)" style="fill:#ff8e93;stroke-linecap:round;stroke:#2d2d2d;stroke-miterlimit:10"/>
                    <path data-name="Path 239265" d="M730.436 712.257a4.441 4.441 0 0 1 3.268 3.189 2.925 2.925 0 0 1-2.053 3.37s-2.551-3.126-1.215-6.559z" transform="rotate(180 369.784 376.01)" style="fill:#ff8e93;stroke-linecap:round;stroke:#2d2d2d;stroke-miterlimit:10"/>
                    <path data-name="Path 239266" d="M768.922 720.614a2.415 2.415 0 0 1 2.335-1.854c1.895.034 2.266 1.962 2.25 2.667a18.216 18.216 0 0 0-4.585-.813z" transform="rotate(178 415.205 375.005)" style="stroke-linejoin:round;fill:#ff8e93;stroke-linecap:round;stroke:#2d2d2d;stroke-miterlimit:10"/>
                </g>
            </g>
            <g data-name="Group 189112" style="opacity:.703;mix-blend-mode:multiply;isolation:isolate">
                <path data-name="Path 178" d="M564.5 115.482a2.85 2.85 0 0 1-.3 2.314 3.145 3.145 0 0 1-2.842.939c-1.3-.175-3.218-1.2-3.252-3.141a3.2 3.2 0 0 1 3.141-3.252c1.999-.036 3 2.025 3.253 3.14z" transform="translate(-497.746 -73.737)" style="fill:#ff8e93"/>
            </g>
            <g data-name="Group 189113" style="opacity:.703;mix-blend-mode:multiply;isolation:isolate">
                <path data-name="Path 178" d="M564.5 115.482a2.85 2.85 0 0 1-.3 2.314 3.145 3.145 0 0 1-2.842.939c-1.3-.175-3.218-1.2-3.252-3.141a3.2 3.2 0 0 1 3.141-3.252c1.999-.036 3 2.025 3.253 3.14z" transform="translate(-513.746 -72.737)" style="fill:#ff8e93"/>
            </g>
            <g data-name="Group 189114" style="opacity:.703;mix-blend-mode:multiply;isolation:isolate">
                <path data-name="Path 178" d="M564.5 115.482a2.85 2.85 0 0 1-.3 2.314 3.145 3.145 0 0 1-2.842.939c-1.3-.175-3.218-1.2-3.252-3.141a3.2 3.2 0 0 1 3.141-3.252c1.999-.036 3 2.025 3.253 3.14z" transform="translate(-552.746 -78.767)" style="fill:#ff8e93"/>
            </g>
            <g data-name="Group 189115" style="opacity:.703;mix-blend-mode:multiply;isolation:isolate">
                <path data-name="Path 178" d="M564.5 115.482a2.85 2.85 0 0 1-.3 2.314 3.145 3.145 0 0 1-2.842.939c-1.3-.175-3.218-1.2-3.252-3.141a3.2 3.2 0 0 1 3.141-3.252c1.999-.036 3 2.025 3.253 3.14z" transform="translate(-533.746 -62.194)" style="fill:#ff8e93"/>
            </g>
        </g>
    </g>
</svg>
