<svg xmlns="http://www.w3.org/2000/svg" width="71.824" height="71.824" viewBox="0 0 71.824 71.824">
    <defs>
        <linearGradient id="cdyik2x4qa" x1=".5" x2=".5" y2="1" gradientUnits="objectBoundingBox">
            <stop offset="0" stop-color="#1778f2"/>
            <stop offset="1" stop-color="#f40009"/>
        </linearGradient>
    </defs>
    <g data-name="Group 189139" transform="translate(-285.088 -490.791)">
        <g data-name="Group 189119">
            <path data-name="Rectangle 16364" style="fill:none" d="M0 0h71.824v71.824H0z" transform="translate(285.088 490.791)"/>
            <g data-name="Group 188830">
                <path data-name="Path 238517" d="M26.241 67.835a85.952 85.952 0 0 1-12.27-10.217 85.773 85.773 0 0 1-9.982-12.035A14.016 14.016 0 0 1 0 35.912a13.636 13.636 0 0 1 3.989-9.671A117.436 117.436 0 0 1 26.241 3.989 14.026 14.026 0 0 1 35.912 0a13.634 13.634 0 0 1 9.671 3.989 133.456 133.456 0 0 1 11.245 9.937 133.742 133.742 0 0 1 11.007 12.315 14.008 14.008 0 0 1 3.989 9.671 13.635 13.635 0 0 1-3.989 9.671 132.987 132.987 0 0 1-11.567 12.879 133.758 133.758 0 0 1-10.686 9.373A14.126 14.126 0 0 1 39.7 71.3a13.458 13.458 0 0 1-3.789.528 14.187 14.187 0 0 1-4.706-.92 15.2 15.2 0 0 1-4.964-3.073z" transform="translate(285.088 490.791)" style="opacity:.05;fill:url(#cdyik2x4qa)"/>
            </g>
        </g>
        <path data-name="Path 239267" d="M40.349 99.53c-11.6-9.337-27.667-6.157-34.935.117s-4.325 18.844-4.325 18.844l11.246 3.348 8.835-3.348v-4.283a1.556 1.556 0 0 1 3.112 0v4.283l9.907 3.087 10.172-3.087s4.349-12.232-4.012-18.961" transform="translate(298.004 438.273)" style="fill:#fff"/>
        <path data-name="Path 239268" d="M40.349 99.53c-11.6-9.337-27.667-6.157-34.935.117s-4.325 18.844-4.325 18.844 3.156 2.762 9.9 3.03 10.179-3.03 10.179-3.03v-4.283a1.556 1.556 0 0 1 3.112 0v4.283a21.258 21.258 0 0 0 10.315 3.03 16.662 16.662 0 0 0 9.765-3.03s4.35-12.232-4.011-18.961z" transform="translate(298.004 438.273)" style="stroke-miterlimit:10;stroke:#212121;fill:none"/>
        <path data-name="Path 239269" d="M27.232 120.727s10.389-8.959 20.187-9.007a11.238 11.238 0 0 0-5.994-5.757c-4.2-1.464-31.476.283-32.189.974a14.7 14.7 0 0 0-3.447 4.418s11.671-.172 19.347 9.372c.723.561 2.4.1 2.1 0" transform="translate(294.545 430.607)" style="fill:#fff"/>
        <path data-name="Path 239270" d="M27.232 120.727s10.389-8.959 20.187-9.007a11.238 11.238 0 0 0-5.994-5.757c-4.2-1.464-31.476.283-32.189.974a14.7 14.7 0 0 0-3.447 4.418s11.671-.172 19.347 9.372c.723.561 2.404.103 2.096 0z" transform="translate(294.545 430.607)" style="stroke-miterlimit:10;stroke:#212121;fill:none"/>
        <path data-name="Path 239271" d="M6.528.5s-9.73 30.48 0 38.217c0 0 5.57 3.565 17.5 4.01S41.463 38.6 41.463 38.6s9.027-5.979 0-38.1" transform="translate(296.89 499.204)" style="fill:#fff"/>
        <path data-name="Path 239272" d="M6.528.5s-9.73 30.48 0 38.217c0 0 5.57 3.565 17.5 4.01S41.463 38.6 41.463 38.6s9.027-5.979 0-38.1" transform="translate(296.89 499.204)" style="stroke-linecap:round;stroke-linejoin:round;stroke:#212121;fill:none"/>
        <path data-name="Path 239273" d="M18.318.5s6.99 12.761 2.057 26.863-7.33 20.79-3.947 31.985" transform="translate(288.621 499.204)" style="stroke:#ff8e93;stroke-dasharray:1 4;stroke-linecap:round;stroke-linejoin:round;fill:none"/>
        <path data-name="Path 239274" d="M97.361.5s-6.99 12.761-2.061 26.863 7.33 20.79 3.947 31.985" transform="translate(237.158 499.204)" style="stroke:#ff8e93;stroke-dasharray:1 4;stroke-linecap:round;stroke-linejoin:round;fill:none"/>
        <path data-name="Path 239275" d="M0 0h45.338v59.194H0z" transform="translate(298.331 499.531)" style="fill:none"/>
        <ellipse data-name="Ellipse 104264" cx="1" cy=".5" rx="1" ry=".5" transform="translate(320.331 537)" style="fill:#2d2d2d"/>
    </g>
</svg>
