<svg xmlns="http://www.w3.org/2000/svg" width="7.239" height="6.926" viewBox="0 0 7.239 6.926">
  <path id="Path_158343" data-name="Path 158343" d="M342.56,305.637l.563,1.733a.424.424,0,0,0,.4.294h1.823a.425.425,0,0,1,.25.768l-1.474,1.071a.426.426,0,0,0-.155.475l.563,1.733a.425.425,0,0,1-.654.475l-1.474-1.071a.426.426,0,0,0-.5,0l-1.474,1.071a.425.425,0,0,1-.654-.475l.563-1.733a.426.426,0,0,0-.155-.475l-1.474-1.071a.425.425,0,0,1,.25-.768h1.823a.424.424,0,0,0,.4-.294l.563-1.733A.425.425,0,0,1,342.56,305.637Z" transform="translate(-338.537 -305.344)" fill="#e4b72d"/>
</svg>
