<?xml version="1.0" encoding="UTF-8"?>
<svg width="16px" height="9px" viewBox="0 0 16 9" version="1.1" xmlns="http://www.w3.org/2000/svg" xmlns:xlink="http://www.w3.org/1999/xlink">
    <title>Motor_Renewal</title>
    <g id="Login" stroke="none" stroke-width="1" fill="none" fill-rule="evenodd">
        <g id="Policy_Media_Coverage" transform="translate(-89.000000, -263.000000)" fill="#0129A3" fill-rule="nonzero" stroke="#0029A3" stroke-width="0.5">
            <g id="Motor_Renewal" transform="translate(90.000000, 264.000000)">
                <path d="M14,2.89071361 L14,5.74808715 C14,5.87518638 13.895525,5.97823514 13.7666667,5.97823514 L13.2125,5.97823514 C13.0836417,5.97823514 12.9791667,5.87518638 12.9791667,5.74808715 C12.9791667,5.62098793 13.0836417,5.51793917 13.2125,5.51793917 L13.5333333,5.51793917 L13.5333333,2.89071361 C13.5333333,2.52336866 13.3537542,2.17544245 13.0529583,1.9600527 C12.1597583,1.32047145 10.4436792,0.359114549 8.3132875,0.468549916 L8.46521667,1.62242561 C8.4818125,1.7484604 8.39165833,1.86393715 8.26387917,1.88030642 C8.13604167,1.8966757 8.019025,1.8077235 8.00242917,1.68171748 L7.84805,0.509257341 C6.4719375,0.67936547 5.18425833,1.27438432 4.11063333,2.24109216 L10.0059458,2.24109216 C10.3602625,2.24109216 10.6911583,2.08513813 10.9137292,1.81318952 C10.9946667,1.71428342 11.1415792,1.69883474 11.2418542,1.77866732 C11.3421292,1.8584999 11.3577917,2.00340683 11.2768542,2.10231292 C10.9652667,2.48303523 10.5020417,2.70138813 10.005975,2.70138813 L3.57513333,2.70138813 L0.979329167,3.41260294 C0.677483333,3.49531237 0.466666667,3.76887202 0.466666667,4.07787446 L0.466666667,5.45755409 L0.816666667,5.45755409 C0.945525,5.45755409 1.05,5.56060285 1.05,5.68770207 C1.05,5.8148013 0.945525,5.91785006 0.816666667,5.91785006 L0.233333333,5.91785006 C0.104475,5.91785006 0,5.8148013 0,5.68770207 L0,4.07787446 C0,3.56288957 0.351341667,3.10693765 0.854408333,2.96910777 L3.41541667,2.26741533 C5.95714583,-0.350920753 9.90304583,-0.86432337 13.3270958,1.58755819 C13.7484375,1.8892822 14,2.37641917 14,2.89071361 L14,2.89071361 Z M4.8125,5.69331193 C4.8125,6.58162562 4.079775,7.30434783 3.17916667,7.30434783 C2.27855833,7.30434783 1.54583333,6.58162562 1.54583333,5.69331193 C1.54583333,4.80499825 2.27855833,4.08227604 3.17916667,4.08227604 C4.079775,4.08227604 4.8125,4.80499825 4.8125,5.69331193 Z M4.34583333,5.69331193 C4.34583333,5.05879394 3.82246667,4.54257201 3.17916667,4.54257201 C2.53586667,4.54257201 2.0125,5.05879394 2.0125,5.69331193 C2.0125,6.32782993 2.53586667,6.84405186 3.17916667,6.84405186 C3.82246667,6.84405186 4.34583333,6.32785869 4.34583333,5.69331193 Z M12.4541667,5.69331193 C12.4541667,6.58162562 11.7214417,7.30434783 10.8208333,7.30434783 C9.920225,7.30434783 9.1875,6.58162562 9.1875,5.69331193 C9.1875,4.80499825 9.920225,4.08227604 10.8208333,4.08227604 C11.7214417,4.08227604 12.4541667,4.80499825 12.4541667,5.69331193 Z M11.9875,5.69331193 C11.9875,5.05879394 11.4641333,4.54257201 10.8208333,4.54257201 C10.1775333,4.54257201 9.65416667,5.05879394 9.65416667,5.69331193 C9.65416667,6.32782993 10.1775333,6.84405186 10.8208333,6.84405186 C11.4641333,6.84405186 11.9875,6.32785869 11.9875,5.69331193 Z M8.54583333,5.52070094 L5.54166667,5.52070094 C5.41280833,5.52070094 5.30833333,5.6237497 5.30833333,5.75084893 C5.30833333,5.87794815 5.41280833,5.98099691 5.54166667,5.98099691 L8.54583333,5.98099691 C8.67469167,5.98099691 8.77916667,5.87794815 8.77916667,5.75084893 C8.77916667,5.6237497 8.67469167,5.52070094 8.54583333,5.52070094 Z" id="Shape"></path>
            </g>
        </g>
    </g>
</svg>