<svg xmlns="http://www.w3.org/2000/svg" width="72.224" height="75.887" viewBox="0 0 72.224 75.887">
    <defs>
        <linearGradient id="friyklrnja" x1=".5" x2=".5" y2="1" gradientUnits="objectBoundingBox">
            <stop offset="0" stop-color="#1778f2"/>
            <stop offset="1" stop-color="#f40009"/>
        </linearGradient>
    </defs>
    <g data-name="Group 189137">
        <g data-name="Group 189102">
            <path data-name="Rectangle 16364" style="fill:none" d="M0 0h71.824v71.824H0z" transform="translate(.2 .2)"/>
            <g data-name="Group 188830">
                <path data-name="Path 238517" d="M26.241 67.835a85.952 85.952 0 0 1-12.27-10.217 85.773 85.773 0 0 1-9.982-12.035A14.016 14.016 0 0 1 0 35.912a13.636 13.636 0 0 1 3.989-9.671A117.436 117.436 0 0 1 26.241 3.989 14.026 14.026 0 0 1 35.912 0a13.634 13.634 0 0 1 9.671 3.989 133.456 133.456 0 0 1 11.245 9.937 133.742 133.742 0 0 1 11.007 12.315 14.008 14.008 0 0 1 3.989 9.671 13.635 13.635 0 0 1-3.989 9.671 132.987 132.987 0 0 1-11.567 12.879 133.758 133.758 0 0 1-10.686 9.373A14.126 14.126 0 0 1 39.7 71.3a13.458 13.458 0 0 1-3.789.528 14.187 14.187 0 0 1-4.706-.92 15.2 15.2 0 0 1-4.964-3.073z" transform="translate(.2 .2)" style="stroke:#707070;stroke-width:.4px;opacity:.05;fill:url(#friyklrnja)"/>
            </g>
        </g>
        <path data-name="Path 239239" d="M22.356 48.693s-.868-9.158 1.735-15.328 6.387-14.022 9.833-15.425c2.232-.908 4.435-.482 5.5 1.735s6.073 14.171 6.073 14.171.675 2.41 2.892 2.41h5.4a5.639 5.639 0 0 1 2.941.784A3.476 3.476 0 0 1 58.6 40a4.5 4.5 0 0 1-3.953 4.255H42.311s-1.253.386-2.8-3.471l-2.02-4.334s-1.446-2.217-2.121-.1-1.639 5.785-1.639 5.785-.868 2.217.868 2.313 6.35-.136 6.35-.136l10.676-.067s3.649.187 3.007 5.2-4.006 23.233-4.006 23.233-.491 4.274-4.415 3.994-3.994-4.134-3.784-5.536S45.09 54.6 45.09 54.6s.7-2.593-1.541-2.523-15.7.28-15.7.28-5.356-.391-5.493-3.664z" transform="translate(-1.638 -1.302)" style="stroke:#2d2d2d;fill:#fff;stroke-miterlimit:10"/>
        <path data-name="Path 239240" d="M75.972 7.632a7.132 7.132 0 1 0-7.132 7.132 7.132 7.132 0 0 0 7.132-7.132z" transform="translate(-22.617 7.726)" style="stroke:#212121;fill:#fff;stroke-miterlimit:10"/>
        <path data-name="Path 239241" d="M.375 103.978a1.18 1.18 0 0 0 .385.3 1.227 1.227 0 0 0 1.615-.27c.77-.957 1.4-1.8 1.4-1.8a.48.48 0 0 1 .747 0c.374.42 1 1.035 1 1.035s.794.623 1.564-.428 2.848-3.782 2.848-3.782a1.873 1.873 0 0 0 .162-.585 1.256 1.256 0 0 0-1.486-1.432 1 1 0 0 0-.59.313l-1.858 2.242a.432.432 0 0 1-.7.016 11.495 11.495 0 0 0-.528-.577 1.337 1.337 0 0 0-1.291-.4 1.083 1.083 0 0 0-.544.34 834.09 834.09 0 0 0-2.77 3.23 1.292 1.292 0 0 0-.251 1.293 1.851 1.851 0 0 0 .3.5" transform="translate(10.164 -43.543)" style="fill:#ff8e93"/>
        <path data-name="Path 239242" d="M16.413 116.681a1.182 1.182 0 0 0 .49.015 1.227 1.227 0 0 0 1.14-1.176c.052-1.228.06-2.278.06-2.278a.48.48 0 0 1 .6-.443c.55.116 1.422.236 1.422.236s1.008.03 1.005-1.272.046-4.735.046-4.735a1.88 1.88 0 0 0-.217-.567 1.256 1.256 0 0 0-2.046-.27 1 1 0 0 0-.289.6l-.172 2.907s-.024.555-.553.428a11.007 11.007 0 0 0-.767-.15 1.337 1.337 0 0 0-1.274.448 1.087 1.087 0 0 0-.236.6c-.057.7-.243 3.3-.311 4.244a1.291 1.291 0 0 0 .565 1.189 1.851 1.851 0 0 0 .535.226" transform="translate(2.032 -48.204)" style="fill:#ff8e93"/>
        <path data-name="Path 239243" d="M36.525 111.932a1.185 1.185 0 0 0 .426-.243 1.226 1.226 0 0 0 .358-1.6c-.6-1.074-1.138-1.975-1.138-1.975a.48.48 0 0 1 .281-.692c.53-.188 1.336-.54 1.336-.54s.877-.5.194-1.61-2.431-4.063-2.431-4.063a1.873 1.873 0 0 0-.481-.37 1.256 1.256 0 0 0-1.886.838 1 1 0 0 0 .067.664l1.37 2.569a.432.432 0 0 1-.248.654 11.8 11.8 0 0 0-.733.271 1.337 1.337 0 0 0-.853 1.047 1.087 1.087 0 0 0 .11.632c.316.625 1.514 2.941 1.949 3.783a1.292 1.292 0 0 0 1.1.72 1.857 1.857 0 0 0 .575-.087" transform="translate(-7.249 -45.485)" style="fill:#ff8e93"/>
        <path data-name="Path 239244" d="M30.776 87.532a3.4 3.4 0 1 0-3.4 3.4 3.4 3.4 0 0 0 3.4-3.4" transform="translate(-2.573 -36.702)" style="fill:#ff8e93"/>
        <path data-name="Rectangle 16407" transform="translate(8.164 5.991)" style="fill:none" d="M0 0h51.036v69.629H0z"/>
    </g>
</svg>
