<svg width="88" height="77" viewBox="0 0 88 77" fill="none" xmlns="http://www.w3.org/2000/svg">
<path opacity="0.3" d="M39.2308 71.6283C30.6206 65.7221 23.1762 58.2754 17.2727 49.6634C14.7786 47.1097 13.3687 43.6904 13.3379 40.1209C13.3333 38.3496 13.6784 36.5948 14.3537 34.9572C15.0289 33.3196 16.0209 31.8316 17.2727 30.5784C23.5729 22.3107 30.9588 14.9301 39.2308 8.63571C41.7839 6.14054 45.2034 4.72993 48.7731 4.69927C50.5446 4.69444 52.2995 5.03971 53.9371 5.71525C55.5747 6.3908 57.0626 7.3833 58.3154 8.63571C66.4726 15.0659 73.8429 22.4357 80.2735 30.5926C82.7686 33.1458 84.1792 36.5653 84.2099 40.1351C84.2143 41.9066 83.8688 43.6614 83.1932 45.299C82.5177 46.9365 81.5255 48.4245 80.2735 49.6777C73.849 57.8404 66.478 65.2115 58.3154 71.6362C56.6897 73.2325 54.6966 74.4047 52.5114 75.0499C51.2969 75.4026 50.0378 75.5781 48.7731 75.571C47.1845 75.5349 45.6137 75.2274 44.1287 74.6618C42.3144 73.9787 40.6507 72.9482 39.2308 71.6283Z" fill="url(#paint0_linear_327_3567)"/>
<path d="M53.3775 18.2504H36.7468V28.704V32.2677V35.8314V51.987H70.9586V34.8811H87.5893V18.2504H70.9586V1.14453H53.3775V18.2504Z" fill="white"/>
<path d="M35.7992 76.2197C33.3473 75.994 31.0688 74.8068 29.424 72.8979C25.6438 69.5588 22.2094 65.8162 19.1772 61.7314C18.0166 60.3868 9.17914 50.0688 8.73146 41.671C8.65467 40.088 8.80724 38.5021 9.18408 36.9666C10.118 33.8231 12.0313 31.0941 14.6209 29.2117C20.4241 25.2366 29.744 26.5623 33.2276 31.087C34.0566 32.1758 34.9288 33.9127 36.295 33.8989C37.6613 33.8851 38.4107 32.1706 39.3608 30.9608C41.5341 28.7581 44.3308 27.3445 47.3358 26.9298C50.3409 26.5151 53.3942 27.1214 56.0425 28.6587C58.362 30.2505 60.1245 32.5825 61.0664 35.3057C61.7823 37.3389 62.0586 39.5119 61.8756 41.6693C61.3947 50.4214 54.3728 58.6999 52.8839 60.3936C49.6136 65.0668 45.8536 69.3455 41.6737 73.1502C40.1474 74.8958 38.0543 75.9895 35.7992 76.2197Z" fill="#1778F2" stroke="#050A4E" stroke-width="0.4" stroke-miterlimit="10"/>
<path d="M1 52.3967H14.5405C15.0822 52.3967 15.353 52.3967 15.5791 52.2714C15.8053 52.1462 15.9489 51.9165 16.2361 51.4573L17.2282 49.8711C17.9813 48.6669 18.3579 48.0648 18.9084 48.0618C19.459 48.0589 19.842 48.6569 20.608 49.853L21.888 51.8515C22.8546 53.3608 23.3379 54.1155 23.96 54.0417C24.582 53.9679 24.8754 53.1211 25.462 51.4275L27.6848 45.0105C28.6116 42.3351 29.075 40.9974 29.8277 41.0385C30.5805 41.0797 30.8952 42.46 31.5246 45.2205L34.3614 57.6619C34.9612 60.2928 35.2612 61.6083 36.0016 61.6599C36.742 61.7115 37.2216 60.4504 38.1807 57.9282L40.6365 51.47C41.2408 49.881 41.5429 49.0865 42.1487 49.0181C42.7545 48.9496 43.2262 49.6567 44.1697 51.071L45.2985 52.7631C45.8919 53.6524 46.1885 54.0971 46.64 54.1553C47.0915 54.2134 47.4912 53.8584 48.2905 53.1484L48.9348 52.5761C49.2157 52.3266 49.3561 52.2019 49.5277 52.1366C49.6994 52.0714 49.8872 52.0714 50.263 52.0714H68.3364C69.2793 52.0714 69.7507 52.0714 70.0435 51.7785C70.3364 51.4856 70.3364 51.0142 70.3364 50.0714V37.156C70.3364 36.2132 70.3364 35.7418 70.6293 35.4489C70.9222 35.1561 71.3936 35.1561 72.3364 35.1561H85.5892C86.532 35.1561 87.0034 35.1561 87.2963 34.8632C87.5892 34.5703 87.5892 34.0989 87.5892 33.1561V20.2407C87.5892 19.2979 87.5892 18.8265 87.2963 18.5336C87.0034 18.2407 86.532 18.2407 85.5892 18.2407H72.9875C72.0447 18.2407 71.5733 18.2407 71.2804 17.9478C70.9875 17.6549 70.9875 17.1835 70.9875 16.2407V3C70.9875 2.05719 70.9875 1.58579 70.6946 1.29289C70.4017 1 69.9303 1 68.9875 1H55.4092C54.4664 1 53.995 1 53.7021 1.29289C53.4092 1.58579 53.4092 2.05719 53.4092 3V16.2407C53.4092 17.1835 53.4092 17.6549 53.1163 17.9478C52.8234 18.2407 52.352 18.2407 51.4092 18.2407H38.8076C37.8647 18.2407 37.3933 18.2407 37.1004 18.5336C36.8076 18.8265 36.8076 19.2979 36.8076 20.2407V28.2291" stroke="black" stroke-width="0.8" stroke-linecap="round"/>
<defs>
<linearGradient id="paint0_linear_327_3567" x1="48.7739" y1="4.69922" x2="48.7739" y2="75.5712" gradientUnits="userSpaceOnUse">
<stop stop-color="#C7DCFF"/>
<stop offset="1" stop-color="#FFABAF"/>
</linearGradient>
</defs>
</svg>
