<svg width="104" height="76" viewBox="0 0 104 76" fill="none" xmlns="http://www.w3.org/2000/svg">
<path opacity="0.3" d="M58.3707 69.6829C49.7605 63.7768 42.3161 56.3301 36.4126 47.7181C33.9185 45.1644 32.5086 41.7451 32.4778 38.1756C32.4731 36.4043 32.8183 34.6495 33.4936 33.0119C34.1688 31.3743 35.1608 29.8863 36.4126 28.6331C42.7128 20.3654 50.0987 12.9848 58.3707 6.6904C60.9238 4.19522 64.3433 2.78461 67.913 2.75396C69.6844 2.74913 71.4394 3.0944 73.077 3.76994C74.7146 4.44549 76.2025 5.43799 77.4553 6.6904C85.6125 13.1206 92.9828 20.4904 99.4134 28.6473C101.908 31.2005 103.319 34.62 103.35 38.1898C103.354 39.9612 103.009 41.7161 102.333 43.3536C101.658 44.9912 100.665 46.4792 99.4134 47.7323C92.9888 55.8951 85.6179 63.2662 77.4553 69.6909C75.8296 71.2871 73.8365 72.4594 71.6513 73.1046C70.4368 73.4573 69.1777 73.6328 67.913 73.6257C66.3244 73.5896 64.7536 73.2821 63.2686 72.7165C61.4542 72.0334 59.7906 71.0029 58.3707 69.6829Z" fill="url(#paint0_linear_2016_6473)"/>
<rect x="0.649902" y="0.595215" width="76.2775" height="74.3927" rx="14.5" fill="white" stroke="#050A4E"/>
<path d="M45.301 23.9145C44.5177 23.8983 43.7359 23.8378 42.9595 23.7334C41.3722 23.5408 39.7752 23.4384 38.1763 23.4268C36.7023 23.4212 35.2293 23.5029 33.765 23.6715C31.8663 24.0597 29.8924 23.8019 28.157 22.9392C26.069 21.8121 24.2956 20.1813 22.998 18.1947C22.8159 17.9133 22.7503 17.5722 22.8152 17.2433C22.88 16.9145 23.0701 16.6236 23.3454 16.4324C23.6207 16.2412 23.9595 16.1645 24.2903 16.2186C24.6211 16.2727 24.9179 16.4534 25.1179 16.7223C26.1741 18.356 27.6198 19.7016 29.3249 20.6382C30.623 21.2732 32.1019 21.4355 33.5068 21.0969C34.6785 20.9832 36.174 20.8579 38.1801 20.8405C39.8713 20.8503 41.5605 20.9591 43.2389 21.1663C44.7516 21.5692 46.3605 21.3891 47.7465 20.6615C49.3312 19.7013 50.6524 18.3621 51.5912 16.7646C51.7744 16.4751 52.0652 16.2702 52.3995 16.1951C52.7338 16.1199 53.0843 16.1805 53.3738 16.3637C53.6633 16.547 53.8682 16.8378 53.9434 17.1721C54.0186 17.5064 53.9579 17.8569 53.7747 18.1465C52.608 20.1041 50.9738 21.7417 49.0184 22.9123C47.8946 23.5809 46.6086 23.9277 45.301 23.9145Z" fill="#1778F2"/>
<path d="M47.806 29.6321C46.8636 29.6321 45.8788 29.5491 44.7322 29.4566C43.0787 29.3179 41.0185 29.1482 38.1972 29.1463C35.5107 29.1367 33.6838 29.2814 32.171 29.3912C29.7669 29.7707 27.3059 29.5379 25.0155 28.7146C22.4168 27.7104 20.0867 26.1165 18.2088 24.0586C17.9752 23.8082 17.8507 23.4752 17.8626 23.1329C17.8745 22.7907 18.0219 22.4671 18.2724 22.2336C18.5228 22 18.8558 21.8756 19.198 21.8875C19.5403 21.8994 19.8638 22.0469 20.0974 22.2973C21.7072 24.0618 23.702 25.4315 25.927 26.3C27.867 26.9858 29.9503 27.1629 31.9783 26.8145C33.5393 26.7008 35.6283 26.5698 38.201 26.5621C41.1265 26.5621 43.2425 26.7413 44.9461 26.8839C47.131 27.3028 49.3894 27.1065 51.4695 26.3172C53.5311 25.429 55.3536 24.0661 56.7884 22.3397C57.0131 22.0868 57.328 21.9322 57.6655 21.9091C58.0029 21.8861 58.336 21.9965 58.593 22.2164C58.85 22.4363 59.0104 22.7482 59.0398 23.0852C59.0693 23.4221 58.9653 23.757 58.7503 24.0181C57.0543 26.0539 54.8999 27.6589 52.4639 28.7012C50.994 29.3356 49.4068 29.6528 47.806 29.6321Z" fill="#1778F2"/>
<path d="M47.806 36.123C46.8636 36.123 45.8788 36.0402 44.7321 35.9477C43.0787 35.809 41.0185 35.6413 38.1972 35.6375C35.4683 35.6375 33.6838 35.7723 32.171 35.8821C29.767 36.2606 27.3064 36.0287 25.0155 35.2077C22.417 34.2012 20.0871 32.6063 18.2088 30.5479C17.9752 30.2974 17.8507 29.9644 17.8626 29.6222C17.8745 29.2799 18.0219 28.9564 18.2724 28.7228C18.5228 28.4892 18.8558 28.3648 19.198 28.3768C19.5403 28.3887 19.8638 28.5359 20.0974 28.7863C21.7065 30.5534 23.7032 31.9235 25.9309 32.7891C27.8705 33.4764 29.9543 33.6535 31.9821 33.3036C33.5393 33.1899 35.5358 33.0646 38.203 33.0511C41.1322 33.0511 43.2482 33.2303 44.948 33.373C47.1329 33.7931 49.3916 33.597 51.4714 32.8065C53.5325 31.9173 55.3548 30.5546 56.7903 28.8289C57.015 28.5761 57.33 28.4215 57.6674 28.3984C58.0049 28.3753 58.3379 28.4855 58.5949 28.7054C58.8519 28.9253 59.0124 29.2372 59.0418 29.5742C59.0712 29.9111 58.9672 30.2463 58.7522 30.5074C57.0556 32.5421 54.9014 34.1461 52.4658 35.1884C50.9957 35.8247 49.4077 36.1432 47.806 36.123Z" fill="#1778F2"/>
<path d="M45.9531 43.7402C45.1341 43.7402 44.2784 43.6573 43.2975 43.5609C41.4711 43.3653 39.6361 43.2623 37.7993 43.2525C35.5966 43.2525 34.0105 43.3876 32.7328 43.4974C30.6346 43.8819 28.4695 43.6372 26.5101 42.794C24.2134 41.7213 22.2126 40.1054 20.6804 38.086C20.4767 37.8169 20.3865 37.4787 20.429 37.1438C20.4715 36.809 20.6435 36.5042 20.908 36.2946C21.1725 36.085 21.5086 35.9873 21.8443 36.0224C22.18 36.0575 22.4885 36.2227 22.7039 36.4826C23.98 38.1746 25.6488 39.5306 27.5661 40.4333C29.1258 41.0951 30.8501 41.2657 32.5093 40.9226C34.2695 40.744 36.0378 40.6585 37.807 40.6664C39.7249 40.6756 41.6411 40.7831 43.548 40.9883C45.3359 41.4029 47.2108 41.2146 48.8804 40.4526C50.6566 39.5252 52.1785 38.1766 53.3129 36.5249C53.5135 36.2474 53.8161 36.061 54.1542 36.0066C54.4923 35.9523 54.8382 36.0342 55.1157 36.2348C55.3933 36.4355 55.5797 36.7382 55.6341 37.0763C55.6885 37.4144 55.6064 37.7602 55.4058 38.0378C54.0249 40.03 52.1777 41.6542 50.0252 42.7689C48.7681 43.422 47.3696 43.7556 45.9531 43.7402Z" fill="#1778F2"/>
<path d="M38.6079 48.7488H38.4768C37.9916 48.7478 37.5265 48.5546 37.1834 48.2115C36.8403 47.8684 36.6471 47.4033 36.646 46.9181C36.3705 42.2929 36.2144 37.3998 36.2279 32.2563C36.2413 27.5598 36.3936 23.0754 36.646 18.8241C36.6528 18.3402 36.8461 17.8776 37.1857 17.5328C37.3547 17.3622 37.5558 17.2267 37.7773 17.1341C37.9989 17.0415 38.2367 16.9935 38.4768 16.9932H38.6079C39.0928 16.9952 39.5573 17.1887 39.9002 17.5316C40.2431 17.8745 40.4367 18.3392 40.4387 18.8241C40.5389 23.2392 40.8241 27.8449 40.8241 32.4315C40.8241 37.394 40.5447 42.154 40.4387 46.916V46.9508C40.4071 47.4227 40.203 47.8664 39.8655 48.1976C39.5279 48.5288 39.0803 48.7243 38.6079 48.7469V48.7488Z" fill="#1778F2"/>
<path d="M53.0339 50.2382C52.5097 49.1802 50.0468 49.7506 38.9502 49.7506C27.1946 49.7506 24.514 49.1089 23.9435 50.2382C22.8932 52.3311 29.9399 60.3162 38.163 60.4415C46.6772 60.5648 54.0726 52.333 53.0339 50.2382Z" fill="#1778F2"/>
<defs>
<linearGradient id="paint0_linear_2016_6473" x1="67.9138" y1="2.75391" x2="67.9138" y2="73.6259" gradientUnits="userSpaceOnUse">
<stop stop-color="#C7DCFF"/>
<stop offset="1" stop-color="#FFABAF"/>
</linearGradient>
</defs>
</svg>
