<svg width="81" height="76" viewBox="0 0 81 76" fill="none" xmlns="http://www.w3.org/2000/svg">
<path opacity="0.3" d="M35.5726 71.2972C26.9624 65.3911 19.518 57.9444 13.6145 49.3323C11.1204 46.7786 9.71046 43.3593 9.67973 39.7898C9.67505 38.0185 10.0202 36.2637 10.6955 34.6261C11.3707 32.9886 12.3627 31.5005 13.6145 30.2473C19.9147 21.9797 27.3006 14.599 35.5726 8.30466C38.1257 5.80948 41.5452 4.39887 45.1149 4.36821C46.8864 4.36339 48.6413 4.70866 50.2789 5.3842C51.9165 6.05974 53.4044 7.05225 54.6572 8.30466C62.8144 14.7348 70.1847 22.1047 76.6153 30.2616C79.1104 32.8148 80.521 36.2343 80.5517 39.8041C80.5561 41.5755 80.2105 43.3303 79.535 44.9679C78.8595 46.6055 77.8673 48.0935 76.6153 49.3466C70.1908 57.5094 62.8198 64.8805 54.6572 71.3051C53.0315 72.9014 51.0384 74.0737 48.8532 74.7188C47.6387 75.0716 46.3796 75.2471 45.1149 75.24C43.5263 75.2038 41.9555 74.8963 40.4705 74.3307C38.6562 73.6476 36.9925 72.6172 35.5726 71.2972Z" fill="url(#paint0_linear_2016_6445)"/>
<path d="M5.42186 11.7051H42.946C43.9779 11.7051 44.9676 12.115 45.6973 12.8447C46.427 13.5744 46.8369 14.564 46.8369 15.596C47.1994 24.1565 47.3863 33.0526 47.3976 42.2843C47.3976 51.346 47.2107 60.0963 46.8369 68.535C46.8284 69.5654 46.4204 70.5522 45.6986 71.2876C45.3373 71.6492 44.9081 71.9359 44.4358 72.1312C43.9634 72.3266 43.4572 72.4267 42.946 72.4259H5.42186C4.38993 72.4259 3.40025 72.016 2.67057 71.2863C1.94088 70.5566 1.53096 69.567 1.53096 68.535C1.17699 59.7565 1 50.6381 1 41.1798C1 32.3673 1.17699 23.8393 1.53096 15.596C1.53429 14.9286 1.70516 14.2728 2.02793 13.6887C2.2018 13.3775 2.41763 13.0917 2.66934 12.8392C3.42328 12.1467 4.39888 11.7447 5.42186 11.7051Z" fill="white" stroke="#2D2D2D" stroke-width="0.8" stroke-miterlimit="10"/>
<path d="M29.3242 4.90945C29.0047 4.90721 28.6943 4.80239 28.4389 4.61044C28.1835 4.41848 27.9965 4.14955 27.9055 3.84327C27.6718 3.06341 27.1928 2.37969 26.5397 1.89361C25.8866 1.40754 25.0942 1.14502 24.28 1.14502C23.4659 1.14502 22.6734 1.40754 22.0203 1.89361C21.3672 2.37969 20.8883 3.06341 20.6546 3.84327C20.5636 4.14955 20.3766 4.41848 20.1211 4.61044C19.8657 4.80239 19.5554 4.90721 19.2359 4.90945C17.9828 4.82024 16.6363 4.76928 15.2091 4.77777C14.0282 4.77777 12.911 4.83299 11.8534 4.90945C11.4619 4.91031 11.086 5.06253 10.8042 5.33422C10.5305 5.61296 10.3778 5.98848 10.3794 6.37915C10.0864 8.58108 10.0864 10.8121 10.3794 13.0141C10.3711 13.2141 10.4293 13.4113 10.5451 13.5748C10.7257 13.7263 10.9367 13.8373 11.1638 13.9003C11.391 13.9633 11.629 13.9769 11.8619 13.9401C15.8547 13.9401 19.839 14.437 23.8361 14.4285C28.1348 14.4285 32.4292 13.6555 36.7151 13.9401C36.9233 13.9401 37.6964 14.0208 38.032 13.5705C38.148 13.4072 38.2063 13.2099 38.1976 13.0098C38.4598 10.8045 38.4598 8.57595 38.1976 6.37066C38.1965 5.98052 38.0443 5.60598 37.7729 5.32573C37.6345 5.18948 37.4705 5.08182 37.2905 5.00894C37.1105 4.93605 36.9178 4.89936 36.7236 4.90095C35.5513 4.82025 34.2897 4.76928 32.956 4.77353C31.6222 4.77778 30.4541 4.82874 29.3242 4.90945Z" fill="#1778F2" stroke="#2D2D2D" stroke-width="0.4" stroke-miterlimit="10"/>
<path d="M21.5342 46.8626V45.0134C21.5342 44.5675 21.3571 44.1398 21.0417 43.8245C20.7264 43.5092 20.2987 43.332 19.8528 43.332H18.0037C17.6427 43.332 17.2852 43.2609 16.9517 43.1228C16.6182 42.9846 16.3152 42.7822 16.06 42.527C15.8047 42.2717 15.6022 41.9687 15.4641 41.6352C15.326 41.3017 15.2549 40.9442 15.2549 40.5833C15.2549 40.2223 15.326 39.8649 15.4641 39.5314C15.6022 39.1979 15.8047 38.8948 16.06 38.6396C16.3152 38.3843 16.6182 38.1819 16.9517 38.0438C17.2852 37.9056 17.6427 37.8345 18.0037 37.8345H19.8528C20.2984 37.8336 20.7256 37.6561 21.0407 37.341C21.3558 37.0259 21.5333 36.5988 21.5342 36.1531V34.304C21.5342 33.5749 21.8238 32.8758 22.3393 32.3603C22.8548 31.8448 23.5539 31.5552 24.283 31.5552C25.012 31.5552 25.7112 31.8448 26.2267 32.3603C26.7421 32.8758 27.0317 33.5749 27.0317 34.304V36.1531C27.0317 36.5991 27.2089 37.0267 27.5242 37.342C27.8395 37.6573 28.2672 37.8345 28.7132 37.8345H30.5623C31.2913 37.8345 31.9905 38.1241 32.506 38.6396C33.0215 39.1551 33.3111 39.8543 33.3111 40.5833C33.3111 41.3123 33.0215 42.0115 32.506 42.527C31.9905 43.0425 31.2913 43.332 30.5623 43.332H28.7096C28.2636 43.332 27.836 43.5092 27.5207 43.8245C27.2053 44.1398 27.0282 44.5675 27.0282 45.0134V46.8626C27.0282 47.5916 26.7386 48.2907 26.2231 48.8062C25.7076 49.3217 25.0084 49.6114 24.2794 49.6114C23.5504 49.6114 22.8512 49.3217 22.3357 48.8062C21.8202 48.2907 21.5306 47.5916 21.5306 46.8626H21.5342Z" fill="#1778F2" stroke="#2D2D2D" stroke-width="0.4"/>
<path d="M54.6351 64.023C53.1265 61.895 51.5052 59.8485 49.7781 57.8922C48.6264 56.5914 47.4845 55.3951 46.37 54.2921C46.195 54.1177 45.9581 54.0189 45.7105 54.0171C45.463 54.0153 45.2246 54.1106 45.0471 54.2825C43.8179 55.4594 42.5581 56.7474 41.2837 58.1559C39.5247 60.0982 38.0112 61.9858 36.6706 63.7834C36.4671 64.105 36.8709 64.2031 36.8709 64.2031H40.9429C41.1162 64.2035 41.2824 64.2723 41.4049 64.3943C41.5275 64.5163 41.5966 64.6817 41.597 64.8543V73.651C41.5957 73.9708 41.7087 74.2807 41.9158 74.5252C42.123 74.7697 42.4107 74.9329 42.7277 74.9855C44.7052 75.3243 46.7264 75.3243 48.704 74.9855C49.0209 74.9329 49.3086 74.7697 49.5157 74.5252C49.7229 74.2807 49.836 73.9708 49.8347 73.651V64.9122C49.8347 64.7662 49.8928 64.6261 49.9963 64.5228C50.0999 64.4194 50.2404 64.3611 50.387 64.3607H54.4251C54.4637 64.3573 54.501 64.3451 54.534 64.3249C54.567 64.3047 54.5948 64.2771 54.6152 64.2443C54.6356 64.2115 54.648 64.1744 54.6514 64.136C54.6549 64.0976 54.6493 64.0589 54.6351 64.023Z" fill="#1778F2" stroke="#2D2D2D" stroke-width="0.4"/>
<defs>
<linearGradient id="paint0_linear_2016_6445" x1="45.1157" y1="4.36816" x2="45.1157" y2="75.2402" gradientUnits="userSpaceOnUse">
<stop stop-color="#C7DCFF"/>
<stop offset="1" stop-color="#FFABAF"/>
</linearGradient>
</defs>
</svg>
