<svg xmlns="http://www.w3.org/2000/svg" width="14.226" height="14.226" viewBox="0 0 14.226 14.226">
    <defs>
        <clipPath id="clip-path">
            <path id="Path_151980" fill="#fff1c9" d="M839.907 114.483a15.362 15.362 0 0 1-3.99-3.99 2.508 2.508 0 0 1-.716-1.734 2.445 2.445 0 0 1 .716-1.734 20.96 20.96 0 0 1 3.99-3.99 2.509 2.509 0 0 1 1.734-.715 2.445 2.445 0 0 1 1.734.715 23.963 23.963 0 0 1 3.99 3.99 2.509 2.509 0 0 1 .716 1.734 2.444 2.444 0 0 1-.716 1.734 23.786 23.786 0 0 1-3.99 3.99 2.531 2.531 0 0 1-1.055.621 2.44 2.44 0 0 1-.679.095 2.554 2.554 0 0 1-.844-.166 2.691 2.691 0 0 1-.89-.55z" data-name="Path 151980" opacity="0.5" transform="translate(-835.201 -102.319)"/>
        </clipPath>
        <style>
            .cls-5{stroke-width:.2px;fill:#f2f2f2;stroke-miterlimit:10;stroke:#2d2d2d;stroke-linecap:round}
        </style>
    </defs>
    <g id="Group_77752" data-name="Group 77752" transform="translate(6786.61 -2075.417)">
        <path id="Path_151981" fill="#fff" stroke="#707070" stroke-width="0.2px" d="M840.326 115.565a16.729 16.729 0 0 1-4.346-4.345 2.732 2.732 0 0 1-.779-1.888 2.663 2.663 0 0 1 .779-1.889 22.822 22.822 0 0 1 4.346-4.345 2.732 2.732 0 0 1 1.888-.779 2.663 2.663 0 0 1 1.888.779 26.1 26.1 0 0 1 4.345 4.345 2.733 2.733 0 0 1 .779 1.889 2.662 2.662 0 0 1-.779 1.888 25.91 25.91 0 0 1-4.345 4.345 2.756 2.756 0 0 1-1.148.676 2.657 2.657 0 0 1-.74.1 2.78 2.78 0 0 1-.919-.18 2.929 2.929 0 0 1-.969-.596z" data-name="Path 151981" transform="translate(-7621.71 1973.198)"/>
        <g id="Mask_Group_887" clip-path="url(#clip-path)" data-name="Mask Group 887" transform="translate(-6785.92 2076.106)">
            <g id="Group_77051" data-name="Group 77051" transform="translate(.676 1.571)">
                <g id="Group_77050" data-name="Group 77050">
                    <path id="Path_151160" d="M148.039 205.283a2.892 2.892 0 0 0-.1 1.757c.155.577.254.561 1.114.835a3.059 3.059 0 0 1-2.291 1.632 5.435 5.435 0 0 1-3.083-1.552c.4-.037 1.615-.224 1.843-.8a2.506 2.506 0 0 0-.064-1.677z" class="cls-5" data-name="Path 151160" transform="translate(-140.924 -199.391)"/>
                    <path id="Path_151161" d="M139.856 218.914c2.779 0 4.988-.59 5.3-.966.363-.43-.965-2.846-1.353-3.359 0 0-.377-.605-2.469-.952a1.672 1.672 0 0 1-1.655.946 1.942 1.942 0 0 1-1.839-.9c-2.034.317-2.67.908-2.847 1.316a10.62 10.62 0 0 0-1.11 2.725c-.001.838 3.679 1.193 5.973 1.19z" class="cls-5" data-name="Path 151161" transform="translate(-133.888 -205.392)"/>
                    <path id="Path_151162" d="M162.168 199.583c.047 0 .532.034.667.323.142.3-.114.872-.773 1.145a3.557 3.557 0 0 0 .106-1.468z" class="cls-5" data-name="Path 151162" transform="translate(-154.125 -195.297)"/>
                    <path id="Path_151163" d="M144.757 199.485c-.047 0-.532.033-.666.323s.115.872.773 1.145a3.563 3.563 0 0 1-.106-1.468z" class="cls-5" data-name="Path 151163" transform="translate(-141.189 -195.227)"/>
                    <path id="Path_151164" d="M146.162 192.756a3.527 3.527 0 0 0 .83 2.331 1.747 1.747 0 0 0 3.046-.021 3.488 3.488 0 0 0 .8-2.31c-.053-1.411-1.042-3.212-2.338-3.212s-2.291 1.795-2.338 3.212z" class="cls-5" data-name="Path 151164" transform="translate(-142.704 -188.086)"/>
                    <path id="Path_151165" fill="#f2f2f2" stroke="#2d2d2d" stroke-miterlimit="10" stroke-width="0.2px" d="M145.8 184.5a3.065 3.065 0 0 1 2.054.1 2.779 2.779 0 0 1 1.576 1.55c.407 1.143-.125 2.424-.406 2.421-.251 0-.142-1.027-.83-1.425-.466-.27-.719.08-1.557-.165-.649-.19-.781-.434-1.156-.331-.349.1-.512.412-.66.682a6.067 6.067 0 0 0-.418 1.285 2.422 2.422 0 0 1-.607-2.468 2.857 2.857 0 0 1 2.004-1.649z" data-name="Path 151165" transform="translate(-140.928 -184.368)"/>
                </g>
            </g>
        </g>
    </g>
</svg>
