<?xml version="1.0" encoding="utf-8"?>
<!-- Generator: Adobe Illustrator 16.0.0, SVG Export Plug-In . SVG Version: 6.00 Build 0)  -->
<!DOCTYPE svg PUBLIC "-//W3C//DTD SVG 1.1//EN" "http://www.w3.org/Graphics/SVG/1.1/DTD/svg11.dtd">
<svg version="1.1" id="Layer_1" xmlns="http://www.w3.org/2000/svg" xmlns:xlink="http://www.w3.org/1999/xlink" x="0px" y="0px"
	 width="2021.797px" height="638.838px" viewBox="0 0 2021.797 638.838" enable-background="new 0 0 2021.797 638.838"
	 xml:space="preserve">
<path id="Path_183801" opacity="0.05" fill="#3B79C8" enable-background="new    " d="M0,96.919c0,0,109.99-116.358,485.085-79.222
	s651.482,201.381,1044.302,218.59c392.824,17.209,526.988-149.752,526.988-149.752v370.758c0,0-180.498,97.824-526.988,102.652
	c-346.486,4.828-444.391-146.73-826.738-152.166C320.301,402.344,0,605.838,0,605.838V96.919z"/>
<path id="Path_183801_1_" opacity="0.05" fill="#3B79C8" enable-background="new    " d="M0,124.919
	c0,0,109.99-111.358,485.085-74.222s651.482,201.381,1044.302,218.59c392.824,17.209,526.988-149.752,526.988-149.752v370.758
	c0,0-180.498,97.824-526.988,102.652c-346.486,4.828-444.391-146.73-826.738-152.166C320.301,435.344,0,638.838,0,638.838V124.919z"
	/>
</svg>
