<svg width="126" height="135" viewBox="0 0 126 135" fill="none" xmlns="http://www.w3.org/2000/svg">
<path opacity="0.05" d="M50.3738 112.105C35.951 102.217 23.4807 89.7479 13.5912 75.3271C9.41346 71.0508 7.05169 65.3246 7.00007 59.3469C6.99259 56.3808 7.57095 53.4424 8.70202 50.7004C9.83309 47.9584 11.4946 45.4666 13.5912 43.3682C24.143 29.5124 36.5153 17.1426 50.3738 6.59333C54.6498 2.41542 60.3761 0.0528779 66.3545 7.13195e-05C69.321 -0.00739364 72.2598 0.571227 75.002 1.7027C77.7443 2.83418 80.2359 4.49621 82.3338 6.59333C95.9983 17.3628 108.344 29.7064 119.116 43.3682C123.296 47.643 125.659 53.369 125.711 59.3469C125.718 62.3135 125.139 65.2523 124.008 67.9946C122.876 70.737 121.214 73.2288 119.116 75.3271C108.355 88.9994 96.0079 101.345 82.3338 112.105C79.6108 114.784 76.2705 116.753 72.6073 117.837C70.5725 118.428 68.463 118.722 66.3441 118.71C63.6828 118.65 61.0513 118.135 58.5634 117.189C55.5293 116.042 52.7475 114.315 50.3738 112.105Z" fill="url(#paint0_linear_3137_9102)"/>
<path d="M56.0325 134.253C67.9439 134.253 77.6001 130.054 77.6001 124.875C77.6001 119.696 67.9439 115.498 56.0325 115.498C44.121 115.498 34.4648 119.696 34.4648 124.875C34.4648 130.054 44.121 134.253 56.0325 134.253Z" fill="white"/>
<path d="M43.4718 42.9971C43.1699 43.0121 40.0584 43.2109 39.192 45.0732C38.2824 47.0293 39.9273 50.6733 44.1545 52.4212C43.2717 49.3619 43.0384 46.1518 43.4699 42.9971H43.4718Z" fill="white"/>
<path d="M44.8535 53.2037L43.9813 52.8436C42.8506 52.4255 41.8148 51.7857 40.9347 50.9619C40.0545 50.1381 39.3476 49.1468 38.8557 48.0462C38.6311 47.551 38.5085 47.0157 38.4953 46.4721C38.4821 45.9285 38.5786 45.3879 38.7789 44.8824C39.7166 42.8475 42.8317 42.5774 43.4449 42.5437L43.9945 42.5137L43.9214 43.0594C43.497 46.1513 43.7251 49.2977 44.5909 52.296L44.8535 53.2037ZM42.9517 43.502C42.2969 43.5234 41.6556 43.6932 41.076 43.9986C40.4964 44.304 39.9937 44.737 39.6059 45.2649C39.314 46.0623 39.3491 46.9427 39.7034 47.7143C40.4627 49.41 41.7945 50.7843 43.4655 51.5964C42.8211 48.9493 42.6466 46.2096 42.9499 43.502H42.9517Z" fill="#050A4E"/>
<path d="M72.2002 42.8193C72.5021 42.8343 75.6154 43.0331 76.4818 44.8954C77.3895 46.8515 75.7467 50.4955 71.5176 52.2435C72.4009 49.1842 72.6333 45.9739 72.2002 42.8193Z" fill="white"/>
<path d="M70.8184 53.0242L71.0808 52.1165C71.9444 49.1184 72.1718 45.9729 71.7485 42.8818L71.6754 42.3379L72.223 42.3641C72.5981 42.3829 75.9195 42.6098 76.8928 44.7028C77.0929 45.2084 77.1892 45.749 77.176 46.2926C77.1628 46.8361 77.0404 47.3715 76.816 47.8667C76.3235 48.9667 75.6165 49.9574 74.7364 50.7809C73.8563 51.6043 72.8207 52.2439 71.6904 52.6622L70.8184 53.0242ZM72.7238 43.33C73.0271 46.0357 72.8525 48.7736 72.208 51.4188C73.8791 50.6074 75.2106 49.2327 75.9683 47.5366C76.3238 46.7654 76.3595 45.8848 76.0676 45.0873C75.4938 43.8551 73.654 43.4538 72.7238 43.3263V43.33Z" fill="#050A4E"/>
<path d="M50.4717 60.8027C51.6373 63.8687 51.819 67.2217 50.9913 70.3956C50.3555 72.7532 49.1674 74.9255 47.5254 76.7328C48.2082 78.6865 49.4462 80.3987 51.0875 81.6594C52.7289 82.9201 54.7024 83.6746 56.7662 83.8305C58.8299 83.9864 60.8944 83.5368 62.7065 82.5369C64.5186 81.5371 65.9996 80.0303 66.9681 78.2012C65.4695 75.7871 64.4802 73.0921 64.0609 70.2818C63.6416 67.4714 63.8013 64.605 64.5301 61.8586L50.4717 60.8027Z" fill="white"/>
<path d="M57.5808 84.3148H57.4065C55.1446 84.2419 52.9556 83.4972 51.1185 82.1755C49.2815 80.8538 47.8796 79.0151 47.0915 76.8937L46.9902 76.633L47.1777 76.4286C48.7696 74.6738 49.9221 72.5661 50.5405 70.279C51.342 67.1973 51.1657 63.9426 50.036 60.9655L49.7809 60.2979L65.0996 61.4494L64.9607 61.9764C64.1943 64.9001 64.0785 67.9564 64.6213 70.9298C65.0824 73.4243 66.0067 75.8104 67.3463 77.9645L67.4851 78.1896L67.3575 78.424C66.4026 80.1896 64.9921 81.6672 63.2728 82.7031C61.5534 83.739 59.588 84.2956 57.5808 84.3148ZM48.0499 76.8243C48.8053 78.7128 50.0944 80.3405 51.7597 81.5085C53.4249 82.6764 55.3942 83.3342 57.4271 83.4015H57.5865C59.3884 83.3848 61.1544 82.8965 62.7088 81.985C64.2632 81.0736 65.5518 79.7708 66.4462 78.2065C65.1226 76.0173 64.2064 73.6066 63.7417 71.091C63.2089 68.1689 63.2842 65.1682 63.963 62.2764L51.1368 61.3125C52.1233 64.2874 52.2275 67.4843 51.4369 70.5172C50.802 72.8497 49.6437 75.0067 48.0499 76.8243Z" fill="#050A4E"/>
<path d="M57.894 66.0941C66.1833 66.0941 72.9032 56.8595 72.9032 45.468C72.9032 34.0764 66.1833 24.8418 57.894 24.8418C49.6046 24.8418 42.8848 34.0764 42.8848 45.468C42.8848 56.8595 49.6046 66.0941 57.894 66.0941Z" fill="white"/>
<path d="M57.8946 66.5505C49.3669 66.5505 42.4297 57.0926 42.4297 45.4686C42.4297 33.8446 49.3688 24.3867 57.8946 24.3867C66.4203 24.3867 73.3576 33.8371 73.3576 45.4649C73.3576 57.0926 66.4203 66.5505 57.8946 66.5505ZM57.8946 25.2907C49.8695 25.2907 43.3393 34.3397 43.3393 45.4611C43.3393 56.5825 49.8677 65.6315 57.8946 65.6315C65.9215 65.6315 72.448 56.5825 72.448 45.4611C72.448 34.3397 65.9196 25.2982 57.8946 25.2982V25.2907Z" fill="#050A4E"/>
<path d="M63.7996 16.3327C59.4642 15.0158 54.8072 15.2357 50.6153 16.9553C48.3363 17.8325 46.2615 19.1681 44.5195 20.8794C42.7775 22.5908 41.4053 24.6415 40.4878 26.9046C37.8734 34.2432 41.2887 42.4708 43.0929 42.4501C44.7039 42.4351 44.0061 35.8561 48.4247 33.2979C51.4254 31.5669 53.0402 33.8137 58.4246 32.2402C62.59 31.0212 63.6758 29.0744 66.0857 29.7346C68.3269 30.3479 69.5817 32.6303 70.5363 34.367C73.0006 38.8511 72.211 42.4051 73.0287 42.5401C74.304 42.7483 79.2383 34.5808 76.6689 26.9046C74.122 19.2677 65.7294 16.8822 63.7996 16.3327Z" fill="#050A4E"/>
<path d="M73.0894 42.9998C73.0485 42.9993 73.0077 42.9955 72.9674 42.9885C72.3092 42.8816 72.2173 42.1333 72.0729 41.0005C71.8732 38.7542 71.2185 36.5719 70.1487 34.5865C69.2109 32.8705 68.0332 30.7381 65.9758 30.1736C65.3815 30.0603 64.7699 30.0741 64.1813 30.2141C63.5927 30.354 63.0403 30.617 62.5606 30.9857C61.2916 31.6902 59.9504 32.2561 58.5603 32.6736C56.5806 33.2752 54.4939 33.4396 52.4445 33.1556C51.1607 32.868 49.8161 33.0573 48.6616 33.6882C46.1542 35.1379 45.3872 38.0148 44.8301 40.1135C44.4007 41.7263 44.0913 42.8929 43.1048 42.9004H43.0934C42.5646 42.9004 42.017 42.5103 41.4656 41.7395C40.1846 39.4822 39.3972 36.9788 39.1557 34.3947C38.9142 31.8105 39.224 29.2045 40.0646 26.749C40.9714 24.4112 42.3636 22.2923 44.1494 20.532C45.9352 18.7718 48.0739 17.4102 50.4246 16.5372C54.7123 14.7525 59.4894 14.5242 63.9278 15.8921C72.6486 18.3695 75.9119 23.1688 77.1122 26.7565C77.8655 29.3483 78.016 32.0781 77.5525 34.737C77.0889 37.3959 76.0236 39.9137 74.4378 42.0977C73.9239 42.7053 73.4832 42.9998 73.0894 42.9998ZM65.16 29.1477C65.5172 29.1491 65.8725 29.1996 66.2159 29.2978C68.654 29.9636 69.9668 32.3829 70.9439 34.1495C72.0662 36.2373 72.757 38.5296 72.975 40.8899C73.0085 41.281 73.0711 41.669 73.1625 42.0508C73.7507 41.5792 74.231 40.987 74.5709 40.3141C75.7391 38.3338 76.4899 36.1354 76.7769 33.8542C77.064 31.573 76.8813 29.2571 76.2401 27.0491C75.1148 23.6733 72.0072 19.1385 63.6746 16.7679C59.4413 15.4615 54.8847 15.6751 50.7922 17.3718C48.5563 18.1971 46.5208 19.4869 44.8197 21.1563C43.1187 22.8257 41.7907 24.8366 40.9236 27.0566C40.1428 29.3764 39.854 31.8334 40.0755 34.271C40.297 36.7086 41.0241 39.0733 42.2102 41.2144C42.6491 41.8295 42.9735 41.9945 43.0954 41.9945C43.3898 41.9945 43.7143 40.7736 43.9506 39.8847C44.5132 37.756 45.374 34.5434 48.2059 32.9043C49.5247 32.1731 51.0628 31.9421 52.5382 32.2535C54.471 32.526 56.4399 32.3723 58.3071 31.8034C59.6386 31.402 60.9227 30.8575 62.1368 30.1792C63.0432 29.5899 64.0823 29.236 65.16 29.1496V29.1477Z" fill="#2D2D2D"/>
<path d="M38.7066 77.2884C32.2682 74.7866 26.8369 72.6467 22.7015 71.0095C15.9387 68.3313 13.3562 67.343 12.9811 65.1956C12.591 62.9544 15.2654 60.1825 20.618 54.6349C21.1543 54.0723 22.936 52.2569 25.346 49.6219C26.6588 48.1947 26.4487 48.3822 26.8669 47.9471C28.851 45.5558 31.3408 43.6342 34.1568 42.3208C36.5761 41.3662 38.0952 41.6437 39.3649 40.0327C39.7658 39.5076 40.0607 38.9094 40.2332 38.2717C41.8236 32.8329 38.5453 25.4305 39.8843 21.7265C40.2405 20.7641 40.6558 19.8246 41.1278 18.9133C41.6904 17.8481 41.9324 17.6136 42.21 17.0379C43.0989 15.2093 43.1476 12.4843 42.3149 12.0473C41.0997 11.4097 37.1894 15.2356 34.9426 19.7198C31.9119 25.7718 34.2693 28.2924 32.1501 33.208C30.2652 37.5815 27.8478 36.8632 16.447 45.4209C11.2014 49.1103 6.67402 53.7272 3.08809 59.0441C1.22241 61.3824 0.293847 64.3313 0.483134 67.3167C0.6538 68.532 1.19949 70.4468 4.4759 74.0064C7.31592 77.0865 10.6158 79.7082 14.2582 81.7783C20.4461 85.2614 26.9878 88.0749 33.7723 90.1709C35.4177 85.8749 37.0624 81.5807 38.7066 77.2884Z" fill="white"/>
<path d="M34.0362 90.73L33.6291 90.6006C26.8144 88.4887 20.243 85.6597 14.0252 82.1611C10.3443 80.0635 7.00761 77.4126 4.13218 74.3011C0.855778 70.7378 0.216247 68.7273 0.0249511 67.362C-0.16989 64.2706 0.781572 61.2158 2.69744 58.7818C6.30802 53.4158 10.8736 48.7587 16.1669 45.0423C19.4074 42.5965 22.7687 40.315 26.238 38.2063C29.4601 36.2183 30.666 35.4738 31.7256 33.0151C32.4555 31.2399 32.7975 29.3293 32.729 27.4112C32.6488 24.6646 33.2677 21.9426 34.5275 19.5006C36.3635 15.8379 39.533 12.2201 41.4479 11.6031C41.6193 11.5361 41.8025 11.5042 41.9865 11.5093C42.1704 11.5145 42.3515 11.5566 42.5188 11.6331C43.6704 12.237 43.5484 15.2958 42.6106 17.2238C42.4816 17.4817 42.3383 17.7321 42.1813 17.974C42.0144 18.2403 41.8061 18.5629 41.5192 19.1143C41.0572 20.0077 40.6513 20.9291 40.3039 21.873C39.8826 24.151 39.9537 26.4927 40.5121 28.7409C41.2341 31.9124 41.284 35.2 40.6584 38.392C40.4721 39.0841 40.1537 39.7337 39.7207 40.3049C38.8865 41.2826 37.7201 41.9172 36.4461 42.0866C35.724 42.2548 35.0141 42.4716 34.3212 42.7355C31.5705 44.0344 29.1379 45.9203 27.1945 48.2606C27.007 48.4481 26.9488 48.5213 26.8194 48.6732C26.6581 48.8607 26.39 49.1589 25.6942 49.9297C23.5112 52.3153 21.8532 54.0276 21.1443 54.7571L20.9568 54.9447C15.8837 60.1959 13.0893 63.0991 13.44 65.1114C13.7645 66.9663 16.3338 67.9828 22.5397 70.4396L22.881 70.5746C27.007 72.2119 32.4457 74.3499 38.8841 76.8536L39.3062 77.0168L34.0362 90.73ZM41.9955 12.432C41.9039 12.4357 41.8136 12.4534 41.7274 12.4846C40.2271 12.9665 37.1813 16.2486 35.3508 19.9244C34.1555 22.2466 33.5695 24.8344 33.6479 27.445C33.7125 29.48 33.3451 31.5056 32.5696 33.3883C31.3975 36.1095 30.0302 36.9516 26.7257 38.994C23.2793 41.089 19.9405 43.3561 16.7221 45.7868C11.5155 49.4388 7.02363 54.0158 3.4701 59.2901C1.66779 62.0732 0.546298 64.4925 0.934515 67.2513C1.10706 68.4779 1.70535 70.3233 4.81109 73.6972C7.62298 76.7404 10.8856 79.3338 14.4847 81.3866C20.5217 84.7814 26.8957 87.5388 33.5036 89.6142L38.1228 77.5588C31.8682 75.1207 26.5812 73.0446 22.5359 71.443L22.1946 71.306C15.4636 68.6429 12.9467 67.6452 12.5341 65.2896C12.1028 62.8215 14.841 59.9858 20.2929 54.3333L20.4804 54.1457C21.1856 53.418 22.8379 51.7076 25.0115 49.3352C25.7092 48.5738 25.9736 48.2737 26.1367 48.0937C26.2999 47.9136 26.3431 47.8611 26.5438 47.6529C28.5738 45.2133 31.1182 43.2529 33.9949 41.9122C34.724 41.6345 35.4708 41.4058 36.2304 41.2276C37.3079 41.1081 38.301 40.5871 39.0118 39.7685C39.3768 39.2894 39.6444 38.7434 39.7994 38.1613C40.3783 35.0958 40.3196 31.944 39.6269 28.9022C39.0296 26.5066 38.9737 24.0079 39.4637 21.588C39.8255 20.6049 40.2483 19.6453 40.7296 18.7148C41.0372 18.1353 41.2491 17.7977 41.4254 17.5183C41.5629 17.3042 41.6882 17.0826 41.8006 16.8543C42.6764 15.052 42.5601 12.7059 42.1006 12.4677C42.0716 12.4477 42.0381 12.4354 42.003 12.432H41.9955Z" fill="#050A4E"/>
<path d="M76.295 77.6426C79.7627 76.2379 85.2597 74.008 92.1276 71.1873C98.129 68.723 101.13 67.4496 101.505 65.3734C101.949 62.8885 99.3124 60.1391 94.0405 54.6365C93.5772 54.1526 91.9231 52.4497 89.6594 49.9741C88.3673 48.5619 88.5717 48.7476 88.1385 48.2994C86.1362 45.927 83.6509 44.0089 80.8486 42.673C77.9885 41.4953 76.8802 42.2192 75.815 40.912C74.9223 39.8167 74.9729 38.4195 75.2936 35.6326C76.2876 27.0056 77.5272 26.1541 76.6814 23.4872C75.9312 21.1035 74.7159 21.1429 73.4106 17.4145C73.1499 16.6644 71.8353 12.9135 72.6886 12.3977C73.6789 11.7976 77.7523 15.4509 80.0609 20.0702C83.0917 26.1222 80.7342 28.6428 82.8535 33.5584C84.7289 37.93 87.1539 37.2136 98.5548 45.7713C103.802 49.4599 108.329 54.077 111.915 59.3945C113.78 61.7332 114.708 64.682 114.518 67.6671C114.331 69.0343 113.721 70.8797 110.528 74.3549C107.597 77.543 104.203 80.2723 100.46 82.4512C94.4059 85.92 87.9468 88.6286 81.2293 90.5157L76.295 77.6426Z" fill="white"/>
<path d="M80.9527 91.0786L75.7015 77.3878L76.1178 77.2209C79.5836 75.8199 85.0806 73.5882 91.9485 70.7675C97.8674 68.3294 100.727 67.0897 101.046 65.2987C101.449 63.0481 98.8595 60.3419 93.702 54.9575L93.5014 54.7493C92.8506 54.0723 91.3277 52.4875 89.3135 50.2895C88.6195 49.5393 88.3551 49.2317 88.1882 49.0498C88.0532 48.8941 87.9913 48.8248 87.7943 48.6222C85.836 46.297 83.4071 44.4133 80.6677 43.0953C79.7655 42.7271 78.8202 42.475 77.8545 42.3451C77.3985 42.3343 76.9497 42.2287 76.5367 42.035C76.1238 41.8412 75.7556 41.5636 75.4558 41.2198C74.4562 39.9933 74.5049 38.4948 74.8369 35.5935C75.1215 33.0272 75.5366 30.477 76.0804 27.9529C76.5628 26.5634 76.6195 25.0614 76.2435 23.6394C75.9865 22.8377 75.577 22.0933 75.0376 21.447C74.1272 20.2897 73.4288 18.9805 72.9746 17.5798C71.4743 13.2832 71.9018 12.3548 72.4476 12.0248C72.5901 11.9472 72.7476 11.9013 72.9095 11.8903C73.0713 11.8793 73.2337 11.9034 73.3853 11.961C75.107 12.458 78.5034 15.9501 80.4726 19.8829C81.7324 22.3242 82.3513 25.0456 82.2711 27.7916C82.2025 29.7097 82.5447 31.6203 83.2746 33.3955C84.3342 35.8523 85.54 36.5969 88.7621 38.5848C92.2313 40.6943 95.5926 42.9765 98.8332 45.4227C104.126 49.1396 108.692 53.7966 112.303 59.1622C114.218 61.5979 115.169 64.6538 114.973 67.7461C114.769 69.1865 114.124 71.1351 110.866 74.6853C107.902 77.9057 104.473 80.6638 100.692 82.8679C94.603 86.3537 88.1091 89.0785 81.356 90.981L80.9527 91.0786ZM76.8792 77.9035L81.5041 89.9739C88.0435 88.0976 94.333 85.4397 100.236 82.0577C103.938 79.9012 107.295 77.2011 110.195 74.0476C113.284 70.6868 113.887 68.9033 114.073 67.6017C114.225 64.7279 113.323 61.8973 111.538 59.6405C107.983 54.3673 103.491 49.7906 98.2856 46.1372C95.0673 43.7069 91.7285 41.4404 88.282 39.3463C84.9774 37.3076 83.6121 36.4618 82.4362 33.7405C81.6606 31.8573 81.2931 29.8311 81.3578 27.7954C81.4361 25.1848 80.8502 22.5971 79.655 20.2749C77.3876 15.7456 73.6366 12.5855 72.9165 12.7918C72.9258 12.7918 72.4832 13.3901 73.841 17.2648C74.2643 18.5761 74.9165 19.8022 75.7672 20.8862C76.3689 21.6144 76.8259 22.4509 77.1137 23.3506C77.5473 24.9209 77.4983 26.5853 76.973 28.1273C76.4361 30.6243 76.0262 33.1469 75.7446 35.6854C75.4352 38.3804 75.3808 39.6632 76.1647 40.6272C76.3962 40.8842 76.6795 41.0893 76.996 41.229C77.3125 41.3686 77.6549 41.4396 78.0008 41.4374C79.0372 41.5804 80.0512 41.8545 81.0184 42.2532C83.8808 43.613 86.4193 45.569 88.4639 47.9902C88.672 48.2077 88.7359 48.2809 88.8821 48.444C89.0284 48.6072 89.306 48.9242 89.9924 49.6743C91.9991 51.8649 93.5164 53.444 94.1653 54.1173L94.3678 54.3273C99.7391 59.9349 102.432 62.7462 101.95 65.4581C101.528 67.8193 98.2518 69.164 92.3029 71.6096C85.6995 74.3196 80.3564 76.4876 76.8812 77.8979L76.8792 77.9035Z" fill="#050A4E"/>
<path d="M77.6899 124.256C74.6554 113.941 76.0246 104.847 79.2897 101.461C81.4311 99.5482 83.7904 97.8939 86.3189 96.5328C88.4944 95.5951 88.9108 95.475 88.9108 95.475C90.0445 95.1758 91.1457 94.7649 92.1984 94.2485C92.1984 94.2485 92.5529 93.9766 92.8286 93.7215C96.1218 90.6852 95.383 73.7367 88.7926 71.5912C86.032 70.6891 84.5972 73.1497 77.9863 74.892C74.0808 75.9089 70.0328 76.2658 66.0097 75.9479C64.3101 78.0023 61.8865 79.3256 59.2394 79.6444C57.3017 79.7787 55.3645 79.3752 53.6417 78.4784C51.9188 77.5815 50.4771 76.2262 49.4757 74.5619C47.5714 75.1159 45.6 75.4049 43.6169 75.4209C40.4526 75.2833 37.3246 74.6902 34.3296 73.6599C28.4388 72.0939 25.4719 71.2912 24.7649 71.4975C17.4206 73.6767 15.0632 88.7797 17.1112 90.5839C17.1852 90.6529 17.2649 90.7157 17.3494 90.7714C18.522 91.4917 19.8587 91.9015 21.2334 91.9623C25.4152 92.2779 29.3617 94.0198 32.413 96.8966C33.3021 97.9434 34.0066 99.1338 34.4965 100.417C37.259 106.863 36.6627 113.129 35.9556 118.59C35.7137 120.454 35.4174 122.011 35.1736 123.143" fill="white"/>
<path d="M77.686 124.703C77.5877 124.703 77.4919 124.672 77.4131 124.613C77.3343 124.554 77.2767 124.471 77.2491 124.377C74.074 113.574 75.7056 104.51 78.9576 101.138C81.141 99.1818 83.5505 97.4938 86.1349 96.1099C88.2767 95.1722 88.738 95.0428 88.783 95.0297C89.3644 94.8196 89.8671 94.6546 90.2947 94.5271C90.872 94.3824 91.4267 94.159 91.9431 93.8631C91.9431 93.8631 92.2639 93.6137 92.5059 93.3812C94.2782 91.7476 94.8164 85.3167 93.6311 79.8967C93.0835 77.3817 91.705 73.0119 88.6331 72.0067C87.2696 71.5622 86.2813 72.0386 84.4809 72.8975C82.437 73.9195 80.2941 74.7302 78.0855 75.3169C74.2055 76.326 70.1863 76.6928 66.1877 76.4027C65.1215 77.6772 63.766 78.6781 62.2342 79.322C60.7024 79.9659 59.0389 80.2341 57.3823 80.1041C55.7258 79.9742 54.1243 79.4499 52.7117 78.575C51.2991 77.7001 50.1161 76.5 49.2617 75.0749C47.4181 75.5825 45.5158 75.846 43.6036 75.8589C40.7977 75.7596 38.0198 75.2659 35.3516 74.3923L33.6056 73.9253C30.7652 72.994 27.8463 72.3218 24.8847 71.9167C20.9107 73.0963 18.4088 78.4357 17.3942 83.0418C16.5765 86.7552 16.7603 89.6622 17.3942 90.2267C17.4527 90.278 17.5155 90.3244 17.5818 90.3654C18.686 91.044 19.9443 91.4311 21.2389 91.4907C25.5396 91.8223 29.5972 93.6159 32.7372 96.5732C33.6499 97.6653 34.3813 98.8969 34.9034 100.221C37.6491 106.631 37.1539 112.831 36.4038 118.632C36.2031 120.178 35.9386 121.721 35.616 123.225C35.5863 123.338 35.5143 123.436 35.4148 123.497C35.3152 123.559 35.1958 123.579 35.0813 123.555C34.9668 123.531 34.866 123.464 34.7997 123.368C34.7334 123.271 34.7068 123.153 34.7252 123.038C35.044 121.56 35.3047 120.037 35.5016 118.522C36.2368 112.846 36.7319 106.785 34.0763 100.585C33.5859 99.3586 32.911 98.2145 32.0752 97.1921C29.1088 94.4039 25.2775 92.7149 21.2182 92.4059C19.7644 92.3396 18.3513 91.9053 17.1111 91.1438C17.0054 91.0775 16.9055 91.0022 16.8128 90.9187C15.6125 89.8609 15.8001 86.1082 16.5165 82.8543C17.036 80.495 19.1571 72.6781 24.6353 71.0521C25.3949 70.8252 27.4485 71.3522 33.8494 73.0551L35.5973 73.5202C38.1477 74.3711 40.8062 74.8542 43.4929 74.9549H43.6074C45.5487 74.9417 47.4789 74.6589 49.3424 74.1147L49.6688 74.0209L49.8563 74.3079C50.8105 75.9039 52.1881 77.2043 53.8364 78.0651C55.4846 78.9258 57.3392 79.3131 59.1941 79.184C61.7224 78.8773 64.0364 77.6119 65.6588 75.6488L65.8107 75.4613L66.0432 75.48C70.016 75.795 74.0135 75.4425 77.8699 74.4373C80.0237 73.8682 82.1128 73.0776 84.1038 72.078C84.7972 71.5908 85.5856 71.2555 86.4174 71.0939C87.2493 70.9323 88.1059 70.9481 88.9313 71.1402C91.5269 71.9879 93.5186 75.0299 94.535 79.7017C95.6791 84.9529 95.3902 91.9671 93.1341 94.0451C92.8452 94.3114 92.4739 94.6077 92.4739 94.6077C91.8805 94.963 91.2387 95.2302 90.5685 95.401C90.1521 95.5323 89.6608 95.6861 89.0682 95.9018C89.0231 95.9168 88.5712 96.0537 86.5044 96.9483C84.03 98.2839 81.72 99.904 79.6216 101.776C76.6208 104.88 75.0848 113.767 78.1211 124.123C78.1542 124.239 78.1403 124.363 78.0823 124.469C78.0243 124.574 77.9271 124.652 77.8117 124.686C77.7707 124.697 77.7285 124.703 77.686 124.703Z" fill="#050A4E"/>
<path d="M89.006 10.4629C91.7404 12.3027 92.3237 13.5668 92.1737 14.4407C91.9167 15.9579 89.4524 16.3162 89.458 17.6533C89.458 19.0656 92.2487 19.4707 92.3237 21.0292C92.3912 22.417 90.195 22.8896 90.2119 24.3956C90.2269 25.8284 92.2261 26.211 92.4737 27.762C92.6087 28.606 92.2281 29.825 90.1463 31.5373" stroke="#050A4E" stroke-width="0.4"/>
<path d="M90.1485 31.984C90.0549 31.9835 89.9638 31.9543 89.8875 31.9003C89.8111 31.8462 89.7531 31.77 89.7216 31.6819C89.6901 31.5938 89.6864 31.4982 89.7111 31.408C89.7358 31.3177 89.7877 31.2373 89.8596 31.1775C91.4444 29.8647 92.1721 28.7395 92.0277 27.8242C91.8589 27.2381 91.489 26.7302 90.983 26.3895C90.6443 26.1675 90.3589 25.8732 90.1472 25.5279C89.9355 25.1826 89.8026 24.7948 89.7583 24.3922C89.7951 23.9727 89.9265 23.5669 90.1425 23.2054C90.3585 22.8439 90.6536 22.536 91.0056 22.3048C91.5682 21.8116 91.8926 21.4796 91.872 21.0426C91.8439 20.48 91.2307 20.0749 90.5799 19.6417C89.8447 19.1522 89.0083 18.5952 89.0026 17.6575C89.0026 16.7535 89.7734 16.219 90.456 15.7483C91.0599 15.33 91.6282 14.9381 91.7257 14.3679C91.8776 13.4733 90.8499 12.2562 88.7513 10.844C88.6981 10.8123 88.652 10.7702 88.6157 10.7201C88.5794 10.67 88.5538 10.613 88.5403 10.5527C88.5268 10.4923 88.5259 10.4298 88.5374 10.369C88.549 10.3083 88.5728 10.2505 88.6075 10.1993C88.6422 10.1481 88.687 10.1045 88.7391 10.0712C88.7913 10.038 88.8496 10.0157 88.9107 10.0058C88.9718 9.99595 89.0342 9.99866 89.0942 10.0138C89.1542 10.0289 89.2104 10.0561 89.2595 10.0938C91.7445 11.7667 92.8454 13.2164 92.6222 14.5236C92.4972 14.9483 92.2864 15.3428 92.0028 15.6828C91.7193 16.0228 91.369 16.3011 90.9737 16.5003C90.3116 16.9579 89.9084 17.2636 89.9122 17.6575C89.9122 18.1113 90.4748 18.4902 91.0843 18.8896C91.8552 19.4054 92.7292 19.9886 92.7723 21.0051C92.7456 21.404 92.626 21.7912 92.4232 22.1357C92.2203 22.4802 91.9397 22.7725 91.6038 22.9894C91.0937 23.4432 90.6548 23.8333 90.6661 24.3884C90.6661 24.8873 91.0187 25.2174 91.5814 25.7125C92.2561 26.1845 92.734 26.888 92.9242 27.6892C93.1286 28.9683 92.3146 30.3411 90.4373 31.8865C90.3548 31.9508 90.253 31.9851 90.1485 31.984Z" fill="#050A4E"/>
<g style="mix-blend-mode:multiply" opacity="0.4">
<g style="mix-blend-mode:multiply" opacity="0.4">
<path d="M71.9886 30.7004C72.4673 32.2869 72.6051 33.9567 72.3931 35.6002C72.1811 37.2438 71.624 38.8239 70.7583 40.237C67.2287 45.0981 60.0082 44.2354 59.0424 44.106C53.6861 43.384 45.7755 39.1736 45.6368 31.1655C45.576 27.672 46.905 24.2974 49.3317 21.7836C51.7583 19.2697 55.0838 17.8224 58.5773 17.7598C66.8367 17.6097 70.9646 26.1055 71.9886 30.7004Z" fill="#FF8E93"/>
</g>
</g>
<path d="M96.3651 13.7488C98.2406 15.0147 98.6475 15.8849 98.5444 16.4869C98.3681 17.5297 96.6689 17.7829 96.6689 18.6981C96.6689 19.6696 98.5894 19.949 98.6419 21.0143C98.6888 21.9689 97.1772 22.2952 97.1885 23.3304C97.1997 24.3169 98.5745 24.5795 98.7451 25.6466C98.8389 26.228 98.5763 27.0644 97.1435 28.2441" stroke="#050A4E" stroke-width="0.4"/>
<path d="M97.1519 28.557C97.0856 28.559 97.0203 28.5399 96.9655 28.5024C96.9107 28.4648 96.8692 28.4109 96.8471 28.3483C96.825 28.2856 96.8233 28.2176 96.8424 28.154C96.8615 28.0904 96.9002 28.0345 96.9531 27.9943C98.0427 27.0979 98.5454 26.3214 98.4536 25.6875C98.3369 25.2843 98.0819 24.935 97.7333 24.701C97.5003 24.5481 97.304 24.3456 97.1585 24.108C97.0129 23.8703 96.9216 23.6034 96.8913 23.3263C96.9164 23.0377 97.0066 22.7585 97.155 22.5097C97.3035 22.2609 97.5063 22.049 97.7483 21.8898C98.1234 21.5503 98.3597 21.3271 98.3447 21.0214C98.3259 20.637 97.904 20.3556 97.4557 20.0574C96.9494 19.7199 96.3736 19.3373 96.3699 18.6921C96.3661 18.047 96.9007 17.7019 97.3695 17.3793C97.7859 17.0924 98.176 16.8167 98.2435 16.4285C98.3485 15.8133 97.6396 14.975 96.1974 14.0035C96.1612 13.9815 96.1299 13.9524 96.1052 13.918C96.0806 13.8836 96.0632 13.8445 96.0541 13.8032C96.045 13.7619 96.0444 13.7191 96.0522 13.6775C96.0601 13.6359 96.0763 13.5964 96.0999 13.5612C96.1235 13.5261 96.154 13.4961 96.1895 13.473C96.225 13.45 96.2649 13.4344 96.3066 13.4272C96.3483 13.42 96.391 13.4213 96.4322 13.4311C96.4733 13.4408 96.5121 13.4588 96.5462 13.484C98.2566 14.6355 99.0124 15.6314 98.8605 16.5316C98.7754 16.8229 98.6317 17.0938 98.4382 17.3276C98.2447 17.5614 98.0055 17.7533 97.7353 17.8913C97.2795 18.2064 97.0019 18.4164 97.0038 18.6884C97.0038 18.9997 97.3958 19.2604 97.8102 19.5361C98.341 19.8905 98.9355 20.2862 98.9748 20.9914C98.9565 21.266 98.8742 21.5324 98.7345 21.7695C98.5948 22.0065 98.4016 22.2076 98.1704 22.3567C97.8197 22.6681 97.5177 22.9381 97.5214 23.3188C97.5214 23.6621 97.7634 23.8815 98.1516 24.2303C98.6154 24.5552 98.9437 25.039 99.0743 25.59C99.215 26.4696 98.6561 27.4148 97.3639 28.4782C97.3054 28.5296 97.2299 28.5577 97.1519 28.557V28.557Z" stroke="#050A4E" stroke-width="0.4"/>
<path d="M26.4003 10.4629C23.6659 12.3027 23.0826 13.5668 23.2326 14.4407C23.4895 15.9579 25.9539 16.3162 25.9483 17.6533C25.9483 19.0656 23.1576 19.4707 23.0825 21.0292C23.015 22.417 25.2112 22.8896 25.1944 24.3956C25.1794 25.8284 23.1801 26.211 22.9326 27.762C22.7976 28.606 23.1782 29.825 25.26 31.5373" stroke="#050A4E" stroke-width="0.4"/>
<path d="M25.246 31.984C25.3395 31.9835 25.4306 31.9543 25.507 31.9003C25.5833 31.8462 25.6413 31.77 25.6728 31.6819C25.7044 31.5938 25.7079 31.4982 25.6833 31.408C25.6586 31.3177 25.6068 31.2373 25.5348 31.1775C23.95 29.8647 23.2224 28.7395 23.3668 27.8242C23.5356 27.2381 23.9054 26.7302 24.4114 26.3895C24.7501 26.1675 25.0355 25.8732 25.2472 25.5279C25.459 25.1826 25.5917 24.7948 25.636 24.3922C25.5992 23.9727 25.4679 23.5669 25.2519 23.2054C25.0359 22.8439 24.7408 22.536 24.3888 22.3048C23.8262 21.8116 23.5018 21.4796 23.5224 21.0426C23.5506 20.48 24.1638 20.0749 24.8146 19.6417C25.5497 19.1522 26.3862 18.5952 26.3918 17.6575C26.3918 16.7535 25.6211 16.219 24.9384 15.7483C24.3345 15.33 23.7663 14.9381 23.6687 14.3679C23.5168 13.4733 24.5446 12.2562 26.6432 10.844C26.6963 10.8123 26.7424 10.7702 26.7787 10.7201C26.815 10.67 26.8407 10.613 26.8541 10.5527C26.8676 10.4923 26.8686 10.4298 26.857 10.369C26.8454 10.3083 26.8216 10.2505 26.787 10.1993C26.7523 10.1481 26.7075 10.1045 26.6553 10.0712C26.6032 10.038 26.5448 10.0157 26.4837 10.0058C26.4227 9.99595 26.3602 9.99866 26.3002 10.0138C26.2403 10.0289 26.184 10.0561 26.1349 10.0938C23.65 11.7667 22.549 13.2164 22.7722 14.5236C22.8972 14.9483 23.1081 15.3428 23.3916 15.6828C23.6751 16.0228 24.0254 16.3011 24.4208 16.5003C25.0828 16.9579 25.486 17.2636 25.4822 17.6575C25.4822 18.1113 24.9196 18.4902 24.3101 18.8896C23.5393 19.4054 22.6653 19.9886 22.6221 21.0051C22.6488 21.404 22.7684 21.7912 22.9713 22.1357C23.1741 22.4802 23.4547 22.7725 23.7906 22.9894C24.3008 23.4432 24.7396 23.8333 24.7284 24.3884C24.7284 24.8873 24.3757 25.2174 23.8131 25.7125C23.1383 26.1845 22.6604 26.888 22.4702 27.6892C22.2658 28.9683 23.0797 30.3411 24.9571 31.8865C25.0395 31.9508 25.1414 31.9851 25.246 31.984Z" fill="#050A4E"/>
<path d="M19.028 13.749C17.1525 15.0149 16.7455 15.8852 16.8486 16.4872C17.0249 17.5299 18.7241 17.7831 18.7241 18.6983C18.7241 19.6698 16.8036 19.9492 16.7511 21.0145C16.7042 21.9691 18.2159 22.2954 18.2046 23.3307C18.1934 24.3172 16.8186 24.5797 16.648 25.6468C16.5542 26.2282 16.8168 27.0647 18.2496 28.2443" stroke="#050A4E" stroke-width="0.4"/>
<path d="M18.2424 28.5572C18.3088 28.5592 18.3742 28.5401 18.429 28.5026C18.4838 28.4651 18.5252 28.4111 18.5473 28.3485C18.5695 28.2859 18.5711 28.2178 18.552 28.1542C18.533 28.0906 18.4941 28.0347 18.4412 27.9946C17.3516 27.0981 16.849 26.3217 16.9409 25.6878C17.0575 25.2845 17.3124 24.9352 17.661 24.7013C17.894 24.5484 18.0904 24.3459 18.236 24.1082C18.3816 23.8705 18.4728 23.6036 18.5032 23.3266C18.478 23.038 18.3879 22.7588 18.2394 22.51C18.091 22.2612 17.8881 22.0492 17.646 21.89C17.2709 21.5505 17.0346 21.3274 17.0496 21.0217C17.0684 20.6372 17.4904 20.3559 17.9386 20.0577C18.445 19.7201 19.0207 19.3375 19.0244 18.6924C19.0282 18.0472 18.4938 17.7021 18.0249 17.3795C17.6086 17.0926 17.2185 16.8169 17.1509 16.4287C17.0459 15.8136 17.7548 14.9752 19.1971 14.0037C19.2332 13.9818 19.2646 13.9527 19.2892 13.9183C19.3138 13.8838 19.3311 13.8448 19.3403 13.8034C19.3494 13.7621 19.3501 13.7193 19.3422 13.6777C19.3343 13.6362 19.3181 13.5966 19.2945 13.5615C19.2709 13.5263 19.2404 13.4963 19.2048 13.4733C19.1693 13.4502 19.1296 13.4347 19.0879 13.4274C19.0461 13.4202 19.0034 13.4215 18.9622 13.4313C18.921 13.4411 18.8822 13.4591 18.8482 13.4842C17.1378 14.6358 16.3819 15.6316 16.5338 16.5318C16.6189 16.8232 16.7626 17.0941 16.9561 17.3279C17.1496 17.5617 17.3889 17.7535 17.6592 17.8915C18.1149 18.2066 18.3925 18.4167 18.3906 18.6886C18.3906 18.9999 17.9986 19.2606 17.5841 19.5363C17.0533 19.8908 16.4589 20.2865 16.4195 20.9917C16.4379 21.2662 16.5202 21.5326 16.6599 21.7697C16.7996 22.0068 16.9928 22.2079 17.2241 22.357C17.5748 22.6683 17.8768 22.9384 17.873 23.3191C17.873 23.6623 17.6311 23.8817 17.2429 24.2306C16.7791 24.5554 16.4507 25.0393 16.3201 25.5902C16.1795 26.4698 16.7383 27.4151 18.0305 28.4784C18.0891 28.5299 18.1645 28.5579 18.2424 28.5572V28.5572Z" stroke="#050A4E" stroke-width="0.4"/>
<defs>
<linearGradient id="paint0_linear_3137_9102" x1="66.3553" y1="0" x2="66.3553" y2="118.711" gradientUnits="userSpaceOnUse">
<stop stop-color="#1778F2"/>
<stop offset="1" stop-color="#F40009"/>
</linearGradient>
</defs>
</svg>
