<?xml version="1.0" encoding="utf-8"?>
<!-- Generator: Adobe Illustrator 16.0.0, SVG Export Plug-In . SVG Version: 6.00 Build 0)  -->
<!DOCTYPE svg PUBLIC "-//W3C//DTD SVG 1.1//EN" "http://www.w3.org/Graphics/SVG/1.1/DTD/svg11.dtd">
<svg version="1.1" id="Layer_1" xmlns="http://www.w3.org/2000/svg" xmlns:xlink="http://www.w3.org/1999/xlink" x="0px" y="0px"
	 width="1440px" height="135.595px" viewBox="0 0 1440 135.595" enable-background="new 0 0 1440 135.595" xml:space="preserve">
<path fill="none" d="M1420,100H20C8.954,100,0,91.046,0,80V20C0,8.954,8.954,0,20,0h1400c11.046,0,20,8.954,20,20v60
	C1440,91.046,1431.046,100,1420,100z"/>
<path fill="#FFFFFF" d="M20,0h1400c11.046,0,20,12.141,20,27.119v81.356c0,14.978-8.954,27.119-20,27.119H20
	c-11.046,0-20-12.142-20-27.119V27.119C0,12.141,8.954,0,20,0z"/>
<g opacity="0.2">
	<path opacity="0.13" fill="#0E82D3" enable-background="new    " d="M-726.585,446.669c0,0,355.428,164.688,738.077,69.962
		c382.648-94.725,338.811-351.885,792.521-448.879c453.711-96.994,655.301,149.924,1022.313,60.903
		c367.02-89.021,445.779-416.984,445.779-416.984l196.75,977.017L-651.488,1205.4L-726.585,446.669L-726.585,446.669z"/>
	<path opacity="0.13" fill="#0E82D3" enable-background="new    " d="M-714.135,694.734c0,0,378.097,94.697,735.884-46.582
		c357.787-141.281,268.267-364.743,695.273-518.558c427.011-153.812,669.25,37.16,1012.761-96.71
		c343.51-133.87,361.28-438.763,361.28-438.763l369.729,844.514l-2963.934,923.425L-714.135,694.734L-714.135,694.734z"/>
	<path opacity="0.13" fill="#0E82D3" enable-background="new    " d="M2159.813,405.716c0,0-355.432,164.688-738.08,69.962
		c-382.65-94.725-338.812-351.885-792.519-448.879C175.507-70.195-26.081,176.723-393.098,87.702
		C-760.114-1.32-838.875-329.282-838.875-329.282l-196.752,977.019l3120.34,516.715L2159.813,405.716L2159.813,405.716z"/>
	<path opacity="0.13" fill="#0E82D3" enable-background="new    " d="M2198.953,694.734c0,0-378.09,94.697-735.88-46.581
		C1105.283,506.874,1194.803,283.41,767.8,129.598C340.793-24.215,98.555,166.754-244.958,32.888
		c-343.514-133.866-361.287-438.765-361.287-438.765l-369.722,844.513l2963.93,923.425L2198.953,694.734L2198.953,694.734z"/>
</g>
<path fill="#06CBB1" d="M1204,40h166c5.521,0,10,4.477,10,10v40c0,5.523-4.479,10-10,10h-166c-5.521,0-10-4.477-10-10V50
	C1194,44.477,1198.479,40,1204,40z"/>
<path fill="#FFFFFF" d="M1219.74,77.962c-1.04,0-1.562-0.527-1.562-1.584V62.529c0-1.039,0.521-1.56,1.54-1.56
	c1.021,0,1.54,0.521,1.54,1.56v12.816h6.96c0.892,0,1.34,0.433,1.34,1.296c0,0.881-0.448,1.32-1.34,1.32H1219.74z M1237.04,78.202
	c-1.33,0-2.47-0.248-3.43-0.744s-1.71-1.2-2.23-2.112c-0.52-0.911-0.77-1.991-0.77-3.239c0-1.217,0.25-2.279,0.738-3.191
	c0.489-0.89,1.212-1.628,2.091-2.136c0.899-0.528,1.909-0.793,3.051-0.793c1.66,0,2.97,0.528,3.93,1.584
	c0.98,1.057,1.47,2.496,1.47,4.321c0,0.592-0.39,0.889-1.148,0.889h-7.25c0.22,2.096,1.42,3.144,3.6,3.144
	c0.41,0,0.88-0.048,1.392-0.144c0.521-0.11,1.021-0.297,1.488-0.553c0.41-0.24,0.771-0.313,1.051-0.217
	c0.291,0.08,0.489,0.248,0.601,0.504c0.13,0.258,0.149,0.545,0.05,0.864c-0.08,0.304-0.3,0.567-0.67,0.792
	c-0.561,0.354-1.21,0.616-1.939,0.792C1238.34,78.122,1237.66,78.202,1237.04,78.202z M1236.61,68.025
	c-0.88,0-1.591,0.272-2.142,0.816c-0.54,0.544-0.87,1.28-0.979,2.208h5.898c-0.06-0.976-0.328-1.72-0.81-2.231
	C1238.11,68.29,1237.46,68.025,1236.61,68.025z M1248.13,78.202c-0.85,0-1.61-0.16-2.28-0.48c-0.66-0.336-1.18-0.783-1.56-1.344
	c-0.37-0.561-0.55-1.191-0.55-1.896c0-0.862,0.22-1.543,0.67-2.039c0.449-0.513,1.17-0.881,2.18-1.104s2.36-0.336,4.062-0.336h0.84
	v-0.504c0-0.8-0.182-1.376-0.53-1.728c-0.349-0.353-0.939-0.528-1.78-0.528c-0.46,0-0.96,0.056-1.51,0.168
	c-0.58,0.129-1.144,0.321-1.68,0.575c-0.382,0.177-0.7,0.201-0.96,0.072c-0.25-0.144-0.432-0.359-0.53-0.647
	c-0.08-0.304-0.062-0.608,0.05-0.912c0.13-0.304,0.38-0.528,0.75-0.672c0.73-0.304,1.44-0.521,2.11-0.648
	c0.688-0.128,1.31-0.192,1.87-0.192c1.71,0,2.979,0.4,3.818,1.201c0.83,0.783,1.24,2.008,1.24,3.671v5.761
	c0,1.022-0.46,1.534-1.39,1.534c-0.94,0-1.41-0.512-1.41-1.534v-0.528c-0.266,0.641-0.72,1.186-1.3,1.561
	C1249.649,78.019,1248.939,78.202,1248.13,78.202L1248.13,78.202z M1248.75,76.138c0.79,0,1.43-0.271,1.95-0.816
	c0.52-0.543,0.79-1.23,0.79-2.063v-0.527h-0.82c-1.5,0-2.55,0.121-3.14,0.359c-0.58,0.225-0.87,0.641-0.87,1.248
	c0,0.528,0.188,0.96,0.56,1.296C1247.58,75.97,1248.1,76.138,1248.75,76.138L1248.75,76.138z M1258.92,78.153
	c-1.02,0-1.53-0.512-1.53-1.535v-9.072c0-1.008,0.49-1.512,1.46-1.512c0.98,0,1.472,0.504,1.472,1.512v0.744
	c0.568-1.376,1.8-2.144,3.688-2.304c0.69-0.08,1.07,0.312,1.15,1.176c0.08,0.848-0.33,1.32-1.24,1.416l-0.53,0.048
	c-1.97,0.192-2.95,1.2-2.95,3.023v4.969C1260.439,77.642,1259.93,78.153,1258.92,78.153L1258.92,78.153z M1268.27,78.153
	c-0.988,0-1.479-0.512-1.479-1.535v-9.072c0-1.008,0.479-1.512,1.46-1.512s1.46,0.504,1.46,1.512v0.504
	c0.4-0.672,0.939-1.185,1.61-1.536c0.688-0.352,1.46-0.527,2.31-0.527c2.76,0,4.15,1.607,4.15,4.823v5.81
	c0,1.022-0.5,1.534-1.49,1.534c-1.01,0-1.51-0.512-1.51-1.534v-5.664c0-0.912-0.182-1.576-0.53-1.992
	c-0.34-0.416-0.86-0.624-1.58-0.624c-0.88,0-1.59,0.28-2.12,0.84c-0.51,0.544-0.76,1.272-0.76,2.186v5.256
	C1269.79,77.642,1269.28,78.153,1268.27,78.153z M1289.07,78.153c-0.932,0-1.392-0.479-1.392-1.439V62.29
	c0-0.96,0.48-1.44,1.44-1.44c0.398,0,0.71,0.08,0.93,0.24c0.24,0.145,0.46,0.4,0.65,0.768l5.55,10.249l5.54-10.249
	c0.189-0.367,0.4-0.623,0.62-0.768c0.229-0.16,0.54-0.24,0.938-0.24c0.932,0,1.392,0.48,1.392,1.44v14.424
	c0,0.96-0.46,1.439-1.392,1.439c-0.93,0-1.39-0.479-1.39-1.439V66.563l-4.51,8.231c-0.16,0.271-0.33,0.473-0.511,0.6
	c-0.171,0.129-0.409,0.192-0.721,0.192c-0.3,0-0.55-0.063-0.738-0.192c-0.209-0.164-0.382-0.367-0.512-0.6l-4.51-8.185v10.104
	C1290.46,77.674,1290,78.153,1289.07,78.153z M1313.53,78.202c-1.22,0-2.271-0.248-3.17-0.744c-0.886-0.489-1.61-1.223-2.091-2.112
	c-0.489-0.928-0.739-2.016-0.739-3.264s0.25-2.328,0.739-3.24c0.5-0.912,1.199-1.615,2.091-2.111
	c0.898-0.496,1.948-0.744,3.17-0.744c1.22,0,2.27,0.248,3.17,0.744c0.89,0.496,1.59,1.199,2.09,2.111
	c0.49,0.912,0.74,1.992,0.74,3.24s-0.25,2.336-0.74,3.264c-0.5,0.912-1.2,1.616-2.09,2.112
	C1315.8,77.954,1314.75,78.202,1313.53,78.202z M1313.53,75.922c0.898,0,1.62-0.319,2.16-0.96c0.54-0.656,0.818-1.616,0.818-2.88
	c0-1.28-0.278-2.232-0.818-2.855c-0.54-0.641-1.262-0.961-2.16-0.961c-0.9,0-1.62,0.32-2.16,0.961
	c-0.54,0.623-0.82,1.575-0.82,2.855c0,1.264,0.28,2.224,0.82,2.88C1311.91,75.603,1312.63,75.922,1313.53,75.922z M1323.54,78.153
	c-1.021,0-1.53-0.512-1.53-1.535v-9.072c0-1.008,0.48-1.512,1.46-1.512c0.98,0,1.46,0.504,1.46,1.512v0.744
	c0.58-1.376,1.812-2.144,3.7-2.304c0.69-0.08,1.07,0.312,1.15,1.176c0.079,0.848-0.33,1.32-1.25,1.416l-0.521,0.048
	c-1.97,0.192-2.96,1.2-2.96,3.023v4.969C1325.05,77.642,1324.55,78.153,1323.54,78.153L1323.54,78.153z M1337,78.202
	c-1.33,0-2.47-0.248-3.43-0.744c-0.961-0.496-1.71-1.2-2.23-2.112c-0.52-0.911-0.77-1.991-0.77-3.239
	c0-1.217,0.25-2.279,0.738-3.191c0.489-0.89,1.213-1.628,2.092-2.136c0.898-0.528,1.908-0.793,3.05-0.793
	c1.66,0,2.97,0.528,3.93,1.584c0.98,1.057,1.47,2.496,1.47,4.321c0,0.592-0.39,0.889-1.148,0.889h-7.25
	c0.22,2.096,1.42,3.144,3.6,3.144c0.41,0,0.88-0.048,1.391-0.144c0.521-0.11,1.022-0.297,1.489-0.553
	c0.41-0.24,0.771-0.313,1.052-0.217c0.288,0.08,0.488,0.248,0.6,0.504c0.13,0.258,0.15,0.545,0.05,0.864
	c-0.08,0.304-0.3,0.567-0.67,0.792c-0.56,0.354-1.21,0.616-1.94,0.792C1338.3,78.122,1337.62,78.202,1337,78.202z M1336.57,68.025
	c-0.881,0-1.59,0.272-2.142,0.816c-0.54,0.544-0.87,1.28-0.979,2.208h5.898c-0.06-0.976-0.329-1.72-0.81-2.231
	C1338.07,68.29,1337.42,68.025,1336.57,68.025z"/>
<path fill="none" stroke="#FFFFFF" stroke-width="2" stroke-linecap="round" stroke-linejoin="round" d="M1358,77.686l4-6l-4-6"/>
<path fill="#FFFFFF" stroke="#707070" stroke-width="0.7" d="M82.609,68.646l7.76,6.728l-18.228,1.668c0,0-6.438-1.286-6.142-1.515
	C69.5,69.925,76.171,67.16,82.609,68.646L82.609,68.646z M97.657,90.604l-0.377,8.901l5.954,1.336l4.567-9.16L97.657,90.604z"/>
<path fill="#FFFFFF" d="M52.875,94.181l-6.732,15.384l8.022,5.4c0.101,2.93,0.081,5.86-0.064,8.787
	c-0.154,2.974-0.439,5.938-0.855,8.89c12.804,13.981,34.036,16.196,49.451,5.158c-1.634-7.761-2.545-15.655-2.724-23.581
	c0.313-5.685,0.624-11.369,0.935-17.051l-2.475-13.577L83.32,88.97l-10.614,1.9L52.875,94.181L52.875,94.181z M66.538,72.594
	c-0.238,0.087-0.478,0.187-0.737,0.288c1.404-0.552,2.646-1.446,3.614-2.602c1.671-2.108,2.446-4.791,2.157-7.466
	c-3.509-2.775-6.151-6.492-7.617-10.719c-0.902-2.687-1.273-5.523-1.094-8.353c0.215-2.596,0.314-3.979,1.205-5.328
	c2.543-3.847,7.76-1.019,13.716-5.276c4.089-2.944,4.699-5.659,7.126-5.545c4.415,0.213,7.055,9.369,7.288,10.243
	c1.152,4.429,1.036,9.093-0.337,13.458c-1.421,4.51-4.06,8.537-7.626,11.64c-0.506,1.87-0.274,3.861,0.644,5.563
	c1.015,1.589,2.566,2.761,4.373,3.305"/>
<path fill="none" stroke="#2D2D2D" stroke-width="0.7" stroke-miterlimit="10" d="M66.538,72.594
	c-0.238,0.087-0.478,0.187-0.737,0.288c1.404-0.552,2.646-1.446,3.614-2.602c1.671-2.108,2.446-4.791,2.157-7.466
	c-3.509-2.775-6.151-6.492-7.617-10.719c-0.902-2.687-1.273-5.523-1.094-8.353c0.215-2.596,0.314-3.979,1.205-5.328
	c2.543-3.847,7.76-1.019,13.716-5.276c4.089-2.944,4.699-5.659,7.126-5.545c4.415,0.213,7.055,9.369,7.288,10.243
	c1.152,4.429,1.036,9.093-0.337,13.458c-1.421,4.51-4.06,8.537-7.626,11.64c-0.506,1.87-0.274,3.861,0.644,5.563
	c1.015,1.589,2.566,2.761,4.373,3.305"/>
<path fill="#FFFFFF" stroke="#2D2D2D" stroke-width="0.7" stroke-miterlimit="10" d="M78.03,64.397
	c8.398-0.08,15.122-9.284,15.014-20.557c-0.106-11.275-7-20.351-15.399-20.272c-8.398,0.08-15.122,9.284-15.014,20.558
	C62.737,55.4,69.631,64.476,78.03,64.397z"/>
<path fill="none" stroke="#2D2D2D" stroke-width="0.7" stroke-linecap="round" stroke-miterlimit="10" d="M48.705,145.104
	c3.073-6.395,4.961-13.295,5.572-20.362c0.174-2.087,0.233-4.184,0.178-6.275 M104.489,144.576
	c-2.017-7.229-3.276-14.651-3.758-22.141c0,0-0.213-6.882-0.094-10.008"/>
<path fill="#FFFFFF" stroke="#2D2D2D" stroke-width="0.7" stroke-linecap="round" stroke-miterlimit="10" d="M92.057,50.982
	c3.924-1.893,5.384-5.392,4.423-7.304c-0.774-1.542-3.03-1.873-3.559-1.938C93.176,44.848,92.883,47.975,92.057,50.982
	L92.057,50.982L92.057,50.982z M63.034,50.504c-3.698-1.832-5.015-5.332-3.994-7.293c0.839-1.165,2.153-1.897,3.585-1.996
	C62.211,44.311,62.35,47.455,63.034,50.504L63.034,50.504z"/>
<path fill="#C4C4C4" stroke="#2D2D2D" stroke-width="0.7" stroke-linecap="round" stroke-miterlimit="10" d="M80.002,100.349
	c-2.381,0.394-7.972,2.714-14.14,3.584l-20.438,2.566c0,0-2.613,22.095,38.229,5.204c0,0,1.717-0.792,1.568-2.243
	C85.072,108.005,83.083,99.841,80.002,100.349L80.002,100.349z"/>
<path fill="#FFFFFF" d="M58.789,98.261c0.054,5.738,4.68,6.011,7.073,5.674c6.169-0.872,11.759-3.19,14.139-3.584
	c3.083-0.505,5.071,7.656,5.219,9.113c0.149,1.455-1.568,2.243-1.568,2.243c-40.842,16.892-38.23-5.203-38.23-5.203
	c0.45-25.62,8.431-29.219,8.431-29.219c3.545-2.419,7.695-4.811,11.961-5.258c1.916-0.492,3.95-0.203,5.653,0.803
	c3.963,2.533,9.577,2.306,12.382,0.114c1.583-1.073,3.525-1.479,5.406-1.137c0.12,0.015,0.304,0.04,0.525,0.073
	c5.922,0.853,11.433,3.528,15.763,7.658c1.872,1.906,2.013,4.901,4.909,10.948"/>
<path fill="none" stroke="#2D2D2D" stroke-width="0.7" stroke-linecap="round" stroke-miterlimit="10" d="M58.789,98.261
	c0.054,5.738,4.68,6.011,7.073,5.674c6.169-0.872,11.759-3.19,14.139-3.584c3.083-0.505,5.071,7.656,5.219,9.113
	c0.149,1.455-1.568,2.243-1.568,2.243c-40.842,16.892-38.23-5.203-38.23-5.203c0.45-25.62,8.431-29.219,8.431-29.219
	c3.545-2.419,7.695-4.811,11.961-5.258c1.916-0.492,3.95-0.203,5.653,0.803c3.963,2.533,9.577,2.306,12.382,0.114
	c1.583-1.073,3.525-1.479,5.406-1.137c0.12,0.015,0.304,0.04,0.525,0.073c5.922,0.853,11.433,3.528,15.763,7.658
	c1.872,1.906,2.013,4.901,4.909,10.948"/>
<path fill="none" stroke="#2D2D2D" stroke-width="0.7" stroke-linecap="round" stroke-miterlimit="10" d="M92.993,86.398
	c-0.475-4.953-1.548-9.824-3.196-14.516"/>
<path fill="#FF8E93" stroke="#2D2D2D" stroke-width="0.7" stroke-miterlimit="10" d="M93.243,90.439
	c1.336-0.012,2.407-1.105,2.394-2.441c-0.012-1.334-1.105-2.407-2.441-2.396c-1.336,0.013-2.409,1.106-2.396,2.443
	C90.813,89.382,91.908,90.453,93.243,90.439z"/>
<path fill="none" stroke="#2D2D2D" stroke-width="0.7" stroke-linecap="round" stroke-miterlimit="10" d="M65.904,98.804
	c-1.104,0.857-2.559,1.119-3.895,0.7c-4.387-2.063-3.683-18.872,1.718-20.72c5.592-1.917,16.815,12.007,14.463,16.167
	c-0.476,0.842-1.577,1.416-3.593,1.559"/>
<path fill="#FF8E93" stroke="#2D2D2D" stroke-width="0.7" stroke-miterlimit="10" d="M65.559,100.658
	c0.978,0.025,1.792-0.748,1.817-1.725c0.025-0.979-0.747-1.792-1.726-1.819c-0.042,0-0.083,0-0.124,0.002
	c-0.979,0.042-1.736,0.87-1.693,1.847C63.875,99.896,64.629,100.635,65.559,100.658L65.559,100.658z M73.397,98.68
	c0.979,0.015,1.783-0.768,1.796-1.748c0.014-0.979-0.769-1.782-1.748-1.796c-0.028-0.002-0.056,0-0.084,0
	c-0.978,0.031-1.745,0.853-1.712,1.83C71.681,97.912,72.45,98.667,73.397,98.68z"/>
<path fill="#1173D2" d="M92.814,44.227c0.052,3.307-0.513,15.672-11.535,19.483c-2.408,0.839-5.029,0.843-7.438,0.01
	c-4.641-1.615-11.847-6.37-11.385-20.144c0.01-0.135-0.149-0.193-0.012-0.184l0.012,0.184c-0.11,0.408-0.107,0.838,0.012,1.244
	c1.627,2.023,7.427-0.85,14.33-0.916c7.17-0.066,13.989,2.447,15.945,0.938"/>
<path fill="none" stroke="#2D2D2D" stroke-width="0.7" stroke-linecap="round" stroke-miterlimit="10" d="M93.006,44.96
	c0.052,3.307-0.513,15.672-11.535,19.484c-2.408,0.839-5.029,0.843-7.438,0.01c-4.641-1.615-11.847-6.37-11.385-20.144
	c0.01-0.135-0.149-0.193-0.012-0.184l0.012,0.184c-0.11,0.408-0.107,0.838,0.012,1.244c1.627,2.024,7.427-0.85,14.33-0.915
	c7.17-0.067,13.989,2.447,15.945,0.937"/>
<path fill="#FFFFFF" d="M99.095,102.008c-1.27,2.023-1.722,4.452-1.267,6.8c0.411,2.628,4.655,5.301,7.315,5.242
	c1.78-0.342,3.403-1.251,4.625-2.592c2.712-3.372,0.691-20.975,0.691-20.975"/>
<path fill="none" stroke="#2D2D2D" stroke-width="0.7" stroke-linecap="round" stroke-miterlimit="10" d="M99.095,102.008
	c-1.27,2.023-1.722,4.452-1.267,6.8c0.411,2.628,4.655,5.301,7.315,5.242c1.78-0.342,3.403-1.251,4.625-2.592
	c2.712-3.372,0.691-20.975,0.691-20.975"/>
<path fill="#1173D2" d="M100.104,104.514c0,0,0.603,3.87,5.366,3.206c4.766-0.659,3.578-15.315,4.853-17.296
	c1.274-1.979,6.331-5.971,7.927-8.09c1.597-2.12,3.678-4.586,3.678-4.586s4.141-6.762,4.762-9.481c0,0,0.227-1.703-1.146-1.485
	c0,0-0.808,0.076-0.967,0.348c0,0-0.096-1.561-1.388-1.345c-0.992,0.355-1.616,1.343-1.513,2.393
	c-0.144,1.667-0.566,3.302-1.248,4.831c0,0-0.123-4.344-1.189-6.1c-0.266-0.67-1.026-0.995-1.695-0.729
	c-0.433,0.172-0.743,0.563-0.81,1.024c0.086,0.609,0.777,5.222,0.707,6.173c-0.017,0.512-0.182,1.01-0.472,1.43
	c0,0-0.327-0.268-0.501-1.623c-0.173-1.355-0.603-4.068-2.057-3.716c-0.722,0.076-1.246,0.724-1.169,1.445
	c0.005,0.045,0.011,0.088,0.021,0.128c-1.4,1.94-2.667,3.97-3.791,6.081c-1.269,2.592-4.457,7.513-4.929,8.808
	c-0.475,1.295-4.456,16.345-4.456,16.345c-0.207,0.734-0.199,1.511,0.02,2.242l0,0V104.514L100.104,104.514z"/>
<path fill="#86BCFF" d="M113.391,71.102c0.388,1.2,0.56,2.461,0.506,3.722c-0.104,1.737,0.075,3.478,0.527,5.159"/>
<path fill="none" stroke="#2D2D2D" stroke-width="0.7" stroke-linecap="round" stroke-miterlimit="10" d="M113.391,71.102
	c0.388,1.2,0.56,2.461,0.506,3.722c-0.104,1.737,0.075,3.478,0.527,5.159"/>
<path fill="#86BCFF" d="M117.096,74.869c0,0-0.251,0.413,0.762,3.236L117.096,74.869z"/>
<path fill="none" stroke="#2D2D2D" stroke-width="0.7" stroke-linecap="round" stroke-miterlimit="10" d="M117.096,74.869
	c0,0-0.251,0.413,0.762,3.236"/>
<path fill="#86BCFF" d="M113.897,74.486c-0.322,0.962-0.543,1.956-0.661,2.965L113.897,74.486z"/>
<path fill="none" stroke="#2D2D2D" stroke-width="0.7" stroke-linecap="round" stroke-miterlimit="10" d="M113.897,74.486
	c-0.322,0.962-0.543,1.956-0.661,2.965"/>
<path fill="#86BCFF" d="M124.545,67.17c-0.226,1.374-0.526,2.74-0.895,4.084L124.545,67.17z"/>
<path fill="none" stroke="#2D2D2D" stroke-width="0.7" stroke-linecap="round" stroke-miterlimit="10" d="M124.545,67.17
	c-0.226,1.374-0.526,2.74-0.895,4.084"/>
<path fill="none" stroke="#2D2D2D" stroke-width="0.7" stroke-linecap="round" stroke-linejoin="bevel" d="M99.983,92.611
	c0,0,0.297,3.386-0.743,4.651"/>
<path fill="#FFFFFF" d="M98.231,103.875c1.113-2.229,1.867-4.62,2.232-7.087c0,0-0.344-2.293,2.937-1.138
	c3.28,1.155,5.936,1.594,7.101,0.89c1.164-0.7,2.043,0.036,1.614,0.819c-0.57,2.54-0.896,5.127-0.973,7.729"/>
<path fill="none" stroke="#2D2D2D" stroke-width="0.7" stroke-linecap="round" stroke-linejoin="bevel" d="M98.231,103.875
	c1.113-2.229,1.867-4.62,2.232-7.087c0,0-0.344-2.293,2.937-1.138c3.28,1.155,5.936,1.594,7.101,0.89
	c1.164-0.7,2.043,0.036,1.614,0.819c-0.57,2.54-0.896,5.127-0.973,7.729"/>
<path fill="#FFFFFF" d="M109.245,103.32l-0.957,6.429l-10.02-1.704l1.58-5.057L109.245,103.32z"/>
<path fill="#1173D2" d="M99.569,92.049c1.721,0.654,2.781,2.392,2.574,4.223c0.038,5.729-3.146,5.39-3.146,5.39
	c-0.575,1.664-4.298,2.383-4.298,2.383c-1.307,1.567-2.408,1.06-2.408,1.06c-0.994,0.477-2.069,0.76-3.169,0.834
	c-1.62,0.394-3.121,1.164-4.385,2.25c-0.297,0.331-0.666,0.587-1.079,0.751c-4.453-0.289-5.296-4.076-5.402-6.326
	c-0.039-0.822,0.505-1.561,1.303-1.764c1.256-0.341,3.391-1.451,6.069-4.915C85.627,95.928,90.073,89.681,99.569,92.049z"/>
<path fill="#86BCFF" d="M88.544,98.623c0.672,0.719,1.395,1.391,2.165,2.007c0.84,0.618-0.92,1.987-0.959,2.421
	c-0.041,0.434-0.365,1.264,0.59,1.859c0.955,0.595,2.415-0.747,2.991-1.952c0.812-1.316,0.832-2.972,0.054-4.306
	c-0.657-0.859-1.383-1.659-2.171-2.401"/>
<path fill="none" stroke="#2D2D2D" stroke-width="0.7" stroke-linecap="round" stroke-miterlimit="10" d="M88.544,98.623
	c0.672,0.719,1.395,1.391,2.165,2.007c0.84,0.618-0.92,1.987-0.959,2.421c-0.041,0.434-0.365,1.264,0.59,1.859
	c0.955,0.595,2.415-0.747,2.991-1.952c0.812-1.316,0.832-2.972,0.054-4.306c-0.657-0.859-1.383-1.659-2.171-2.401"/>
<path fill="#86BCFF" d="M94.7,104.044c1.104-1.088,1.885-2.461,2.258-3.962c0.59-1.792-0.083-3.757-1.646-4.812"/>
<path fill="none" stroke="#2D2D2D" stroke-width="0.7" stroke-linecap="round" stroke-miterlimit="10" d="M94.7,104.044
	c1.104-1.088,1.885-2.461,2.258-3.962c0.59-1.792-0.083-3.757-1.646-4.812"/>
<path fill="#86BCFF" d="M98.821,102.011c1.775-2.28,1.125-4.703,0.981-6.911c-0.172-0.508-0.461-0.973-0.846-1.349"/>
<path fill="none" stroke="#2D2D2D" stroke-width="0.7" stroke-linecap="round" stroke-miterlimit="10" d="M98.821,102.011
	c1.775-2.28,1.125-4.703,0.981-6.911c-0.172-0.508-0.461-0.973-0.846-1.349"/>
<path fill="#FFFFFF" d="M73.014,102.352c0,0,4.471-1.41,6.088-1.813c1.618-0.407,1.595-0.153,1.595-0.153
	c5.386,2.353,4.384,9.943,4.384,9.943c-0.479,0.795-1.233,1.389-2.121,1.666c-1.373,0.336-2.684,1.143-5.457,2.083"/>
<path fill="none" stroke="#2D2D2D" stroke-width="0.7" stroke-linecap="round" stroke-linejoin="round" d="M73.014,102.352
	c0,0,4.471-1.41,6.088-1.813c1.618-0.407,1.595-0.153,1.595-0.153c5.386,2.353,4.384,9.943,4.384,9.943
	c-0.479,0.795-1.233,1.389-2.121,1.666c-1.373,0.336-2.684,1.143-5.457,2.083"/>
<path fill="#474747" stroke="#2D2D2D" stroke-width="0.7" stroke-miterlimit="10" d="M62.626,41.215c0,0,1.67-5.478,5.901-4.815
	c4.229,0.663,16.281,1.536,18.23-4.113c0,0-16.481-4.491-21.798-1.062C64.959,31.225,62.389,38.687,62.626,41.215z"/>
<path fill="#1173D2" d="M62.752,38.827c0,0,2.055-5.88,15.026-5.688c12.968,0.193,14.421,4.695,14.421,4.695
	s0.605,3.207,2.125,0.693c0,0,3.1-3.738,1.416-6.917c0,0-0.224-5.237-3.921-6.736c0,0-2.33-5.579-7.691-4.961
	c0,0-6.678-3.393-11.5,0.07c0,0-7.28,0.417-8.645,4.775c0,0-3.422,1.948-2.866,7.311C60.269,34.445,60.912,37.1,62.752,38.827
	L62.752,38.827z"/>
<path fill="none" stroke="#2D2D2D" stroke-width="0.7" stroke-linecap="round" stroke-miterlimit="10" d="M63.721,78.784
	c0,0-0.354-5.199,2.087-6.759"/>
<path fill="#FF8E93" stroke="#2D2D2D" stroke-width="0.7" stroke-miterlimit="10" d="M80.817,25.658l-1.018,0.016
	c-0.176,0.002-0.322-0.137-0.327-0.313l-0.019-0.967c-0.069-0.569-0.583-0.975-1.152-0.906c-0.474,0.056-0.847,0.43-0.904,0.904
	l0.021,1.003c0,0.177-0.144,0.321-0.322,0.321l-1.08,0.02c-0.566-0.005-1.03,0.449-1.036,1.015c0,0.001,0,0.002,0,0.003
	c0.031,0.564,0.512,0.997,1.076,0.967l1.079-0.03c0.177-0.011,0.331,0.125,0.34,0.303l0.021,0.976
	c0.009,0.469,0.347,0.867,0.809,0.953c0.559,0.116,1.108-0.244,1.224-0.805c0.012-0.058,0.02-0.117,0.022-0.176l-0.02-0.992
	c-0.001-0.176,0.142-0.321,0.317-0.322c0,0,0.001,0,0.002,0l1.015-0.028c0.545-0.006,0.983-0.448,0.986-0.992
	c-0.017-0.545-0.471-0.975-1.016-0.959c-0.003,0-0.006,0-0.009,0L80.817,25.658L80.817,25.658z"/>
<g>
	<path fill="#1173D2" d="M245.634,57.393l-3.587-13.306l-3.633,13.306c-0.283,1.008-0.507,1.732-0.673,2.172
		c-0.167,0.438-0.457,0.832-0.871,1.181c-0.414,0.348-0.964,0.522-1.65,0.522c-0.555,0-1.012-0.104-1.37-0.311
		c-0.358-0.207-0.648-0.5-0.87-0.878c-0.222-0.379-0.404-0.828-0.545-1.349c-0.142-0.52-0.268-1-0.378-1.444l-3.693-14.94
		c-0.222-0.868-0.333-1.529-0.333-1.983c0-0.575,0.202-1.06,0.605-1.453c0.403-0.394,0.903-0.59,1.499-0.59
		c0.817,0,1.367,0.263,1.65,0.787c0.282,0.525,0.53,1.287,0.742,2.286l2.906,12.957l3.254-12.125
		c0.242-0.928,0.459-1.635,0.651-2.119c0.191-0.484,0.504-0.903,0.938-1.256s1.024-0.53,1.771-0.53c0.757,0,1.345,0.184,1.763,0.552
		c0.419,0.369,0.709,0.77,0.871,1.204c0.161,0.434,0.378,1.15,0.651,2.149l3.285,12.125l2.906-12.957
		c0.141-0.676,0.275-1.206,0.401-1.589c0.126-0.383,0.343-0.727,0.651-1.029c0.308-0.303,0.754-0.454,1.339-0.454
		s1.083,0.194,1.491,0.583c0.409,0.389,0.613,0.876,0.613,1.461c0,0.414-0.111,1.075-0.333,1.983l-3.693,14.94
		c-0.252,1.009-0.462,1.748-0.628,2.218c-0.167,0.469-0.449,0.88-0.848,1.233c-0.399,0.353-0.961,0.53-1.688,0.53
		c-0.687,0-1.236-0.172-1.65-0.516c-0.414-0.343-0.702-0.729-0.863-1.158C246.153,59.165,245.926,58.432,245.634,57.393z"/>
	<path fill="#1173D2" d="M273.41,52.866c0,1.231-0.192,2.366-0.575,3.405c-0.384,1.041-0.938,1.934-1.665,2.68
		c-0.727,0.747-1.595,1.318-2.604,1.718c-1.009,0.399-2.145,0.599-3.406,0.599c-1.251,0-2.376-0.203-3.375-0.605
		c-0.999-0.403-1.864-0.98-2.596-1.732c-0.731-0.753-1.286-1.641-1.665-2.664c-0.378-1.024-0.567-2.158-0.567-3.398
		c0-1.251,0.191-2.396,0.575-3.436c0.383-1.039,0.933-1.927,1.65-2.664c0.716-0.736,1.584-1.304,2.604-1.703
		c1.019-0.399,2.144-0.598,3.375-0.598c1.251,0,2.386,0.202,3.406,0.605c1.019,0.404,1.892,0.979,2.619,1.726
		s1.279,1.635,1.657,2.664C273.221,50.489,273.41,51.625,273.41,52.866z M269.262,52.866c0-1.685-0.371-2.997-1.113-3.936
		c-0.741-0.938-1.738-1.408-2.989-1.408c-0.808,0-1.519,0.209-2.134,0.628c-0.616,0.418-1.09,1.037-1.423,1.854
		c-0.333,0.816-0.5,1.771-0.5,2.861c0,1.08,0.164,2.023,0.492,2.83c0.328,0.809,0.797,1.426,1.407,1.854
		c0.611,0.429,1.33,0.644,2.157,0.644c1.251,0,2.248-0.471,2.989-1.414C268.892,55.835,269.262,54.531,269.262,52.866z"/>
	<path fill="#1173D2" d="M280.766,55.303v3.451c0,0.838-0.197,1.466-0.59,1.885c-0.394,0.418-0.893,0.627-1.499,0.627
		c-0.596,0-1.085-0.211-1.468-0.636c-0.384-0.424-0.575-1.049-0.575-1.877V47.25c0-1.856,0.671-2.785,2.013-2.785
		c0.686,0,1.181,0.217,1.483,0.651c0.303,0.434,0.469,1.075,0.5,1.922c0.494-0.848,1.001-1.488,1.521-1.922
		c0.52-0.434,1.213-0.651,2.082-0.651c0.868,0,1.71,0.217,2.528,0.651c0.817,0.434,1.226,1.009,1.226,1.726
		c0,0.505-0.174,0.921-0.522,1.249c-0.349,0.328-0.725,0.492-1.128,0.492c-0.151,0-0.517-0.093-1.098-0.28
		c-0.58-0.187-1.092-0.28-1.536-0.28c-0.605,0-1.1,0.159-1.483,0.477c-0.384,0.318-0.681,0.79-0.893,1.416s-0.358,1.37-0.439,2.232
		C280.806,53.009,280.766,54.063,280.766,55.303z"/>
	<path fill="#1173D2" d="M293.935,55.303v3.451c0,0.838-0.197,1.466-0.59,1.885c-0.394,0.418-0.893,0.627-1.499,0.627
		c-0.596,0-1.085-0.211-1.468-0.636c-0.384-0.424-0.575-1.049-0.575-1.877V47.25c0-1.856,0.671-2.785,2.013-2.785
		c0.686,0,1.181,0.217,1.483,0.651c0.303,0.434,0.469,1.075,0.5,1.922c0.494-0.848,1.001-1.488,1.521-1.922
		c0.52-0.434,1.213-0.651,2.082-0.651c0.868,0,1.71,0.217,2.528,0.651c0.817,0.434,1.226,1.009,1.226,1.726
		c0,0.505-0.174,0.921-0.522,1.249c-0.349,0.328-0.725,0.492-1.128,0.492c-0.151,0-0.517-0.093-1.098-0.28
		c-0.58-0.187-1.092-0.28-1.536-0.28c-0.605,0-1.1,0.159-1.483,0.477c-0.384,0.318-0.681,0.79-0.893,1.416s-0.358,1.37-0.439,2.232
		C293.975,53.009,293.935,54.063,293.935,55.303z"/>
	<path fill="#1173D2" d="M305.5,42.542c-0.575,0-1.067-0.176-1.476-0.53c-0.408-0.353-0.613-0.853-0.613-1.499
		c0-0.585,0.209-1.067,0.628-1.445c0.418-0.379,0.905-0.568,1.46-0.568c0.535,0,1.009,0.172,1.423,0.515
		c0.414,0.343,0.621,0.843,0.621,1.499c0,0.636-0.202,1.133-0.605,1.491S306.054,42.542,305.5,42.542z M307.543,46.811v11.943
		c0,0.828-0.197,1.453-0.59,1.877c-0.394,0.424-0.894,0.637-1.499,0.637c-0.606,0-1.098-0.218-1.476-0.651
		c-0.379-0.435-0.568-1.054-0.568-1.862V46.932c0-0.817,0.189-1.433,0.568-1.847c0.378-0.414,0.87-0.621,1.476-0.621
		c0.606,0,1.104,0.207,1.499,0.621C307.346,45.5,307.543,46.075,307.543,46.811z"/>
	<path fill="#1173D2" d="M323.346,53.88h-8.083c0.011,0.938,0.199,1.767,0.568,2.481c0.368,0.718,0.856,1.257,1.468,1.621
		c0.611,0.362,1.284,0.545,2.021,0.545c0.494,0,0.945-0.059,1.354-0.174c0.408-0.117,0.804-0.299,1.188-0.545
		c0.383-0.248,0.735-0.513,1.06-0.795c0.323-0.283,0.742-0.666,1.256-1.15c0.212-0.182,0.516-0.272,0.908-0.272
		c0.424,0,0.767,0.116,1.029,0.349c0.262,0.231,0.394,0.56,0.394,0.983c0,0.374-0.146,0.81-0.438,1.31s-0.734,0.979-1.325,1.438
		c-0.59,0.459-1.332,0.84-2.225,1.144c-0.895,0.303-1.921,0.453-3.082,0.453c-2.653,0-4.718-0.757-6.19-2.271
		c-1.474-1.515-2.21-3.567-2.21-6.161c0-1.221,0.182-2.354,0.545-3.398s0.893-1.939,1.589-2.687
		c0.696-0.747,1.554-1.319,2.573-1.718c1.019-0.399,2.148-0.598,3.391-0.598c1.614,0,3,0.34,4.155,1.022
		c1.156,0.681,2.021,1.562,2.596,2.641c0.575,1.08,0.863,2.18,0.863,3.3c0,1.039-0.298,1.713-0.893,2.021
		C325.263,53.727,324.425,53.88,323.346,53.88z M315.263,51.534h7.493c-0.101-1.413-0.481-2.47-1.143-3.171
		c-0.661-0.702-1.532-1.052-2.611-1.052c-1.029,0-1.875,0.356-2.535,1.067C315.805,49.089,315.404,50.141,315.263,51.534z"/>
	<path fill="#1173D2" d="M341.555,58.905v-0.409c-0.555,0.636-1.103,1.152-1.642,1.552c-0.54,0.397-1.125,0.701-1.756,0.908
		s-1.32,0.31-2.066,0.31c-0.989,0-1.905-0.209-2.747-0.627c-0.843-0.419-1.572-1.017-2.188-1.794
		c-0.616-0.776-1.082-1.689-1.4-2.739c-0.316-1.049-0.477-2.186-0.477-3.406c0-2.583,0.63-4.596,1.892-6.04
		c1.261-1.443,2.921-2.165,4.98-2.165c1.189,0,2.194,0.205,3.012,0.613c0.817,0.409,1.614,1.037,2.392,1.885v-6.1
		c0-0.848,0.169-1.488,0.508-1.922c0.338-0.434,0.818-0.651,1.444-0.651c0.625,0,1.107,0.199,1.445,0.598
		c0.338,0.398,0.507,0.986,0.507,1.763v18.225c0,0.786-0.182,1.377-0.545,1.771c-0.363,0.395-0.833,0.59-1.408,0.59
		c-0.564,0-1.032-0.205-1.4-0.613C341.739,60.245,341.555,59.662,341.555,58.905z M333.427,52.835c0,1.12,0.174,2.074,0.522,2.86
		c0.348,0.787,0.825,1.381,1.43,1.779c0.605,0.398,1.266,0.599,1.983,0.599c0.727,0,1.39-0.189,1.989-0.567
		c0.602-0.379,1.08-0.959,1.438-1.74c0.358-0.783,0.537-1.759,0.537-2.93c0-1.1-0.179-2.046-0.537-2.838s-0.843-1.398-1.453-1.816
		c-0.611-0.419-1.279-0.628-2.006-0.628c-0.757,0-1.433,0.214-2.028,0.643c-0.596,0.429-1.057,1.045-1.385,1.847
		C333.591,50.845,333.427,51.775,333.427,52.835z"/>
	<path fill="#1173D2" d="M367.802,58.936c-0.999,0.777-1.965,1.36-2.898,1.75c-0.934,0.388-1.98,0.582-3.142,0.582
		c-1.06,0-1.989-0.209-2.793-0.627c-0.802-0.418-1.42-0.986-1.854-1.703c-0.435-0.717-0.651-1.494-0.651-2.332
		c0-1.129,0.358-2.094,1.075-2.891c0.716-0.797,1.7-1.332,2.952-1.604c0.262-0.062,0.913-0.197,1.953-0.409
		c1.039-0.212,1.93-0.406,2.671-0.583c0.742-0.178,1.546-0.391,2.415-0.644c-0.052-1.09-0.271-1.89-0.659-2.399
		c-0.388-0.509-1.193-0.764-2.414-0.764c-1.05,0-1.839,0.146-2.369,0.439c-0.529,0.293-0.982,0.732-1.361,1.317
		s-0.646,0.971-0.803,1.158c-0.157,0.187-0.492,0.28-1.007,0.28c-0.464,0-0.865-0.149-1.203-0.446
		c-0.338-0.298-0.507-0.679-0.507-1.143c0-0.727,0.257-1.433,0.772-2.119c0.515-0.686,1.316-1.251,2.406-1.695
		c1.091-0.444,2.447-0.666,4.072-0.666c1.816,0,3.244,0.214,4.284,0.643c1.039,0.429,1.772,1.108,2.203,2.036
		c0.429,0.929,0.643,2.16,0.643,3.692c0,0.969-0.002,1.793-0.007,2.467c-0.005,0.677-0.013,1.429-0.022,2.256
		c0,0.777,0.127,1.587,0.386,2.43c0.257,0.842,0.386,1.385,0.386,1.627c0,0.424-0.199,0.811-0.598,1.158
		c-0.399,0.348-0.852,0.521-1.355,0.521c-0.424,0-0.843-0.199-1.256-0.598C368.705,60.27,368.266,59.691,367.802,58.936z
		 M367.53,52.957c-0.605,0.223-1.486,0.457-2.642,0.704s-1.956,0.429-2.398,0.545c-0.444,0.116-0.868,0.343-1.271,0.681
		s-0.604,0.811-0.604,1.416c0,0.627,0.236,1.158,0.711,1.598c0.474,0.438,1.095,0.658,1.862,0.658c0.816,0,1.571-0.18,2.263-0.537
		c0.69-0.358,1.198-0.82,1.521-1.386c0.373-0.625,0.561-1.655,0.561-3.088L367.53,52.957L367.53,52.957z"/>
	<path fill="#1173D2" d="M379.185,40.681v6.312c0.777-0.807,1.569-1.425,2.376-1.854c0.808-0.429,1.807-0.643,2.997-0.643
		c1.372,0,2.576,0.326,3.61,0.976c1.034,0.651,1.836,1.595,2.406,2.831c0.57,1.236,0.854,2.702,0.854,4.397
		c0,1.251-0.159,2.399-0.477,3.444c-0.318,1.043-0.78,1.949-1.385,2.717c-0.605,0.767-1.339,1.359-2.203,1.777
		c-0.862,0.42-1.814,0.629-2.854,0.629c-0.636,0-1.233-0.076-1.793-0.228c-0.561-0.151-1.037-0.351-1.431-0.599
		c-0.395-0.248-0.729-0.502-1.007-0.765c-0.277-0.262-0.644-0.655-1.098-1.181v0.409c0,0.776-0.187,1.364-0.56,1.763
		c-0.374,0.398-0.848,0.598-1.423,0.598c-0.585,0-1.052-0.199-1.4-0.598c-0.348-0.398-0.521-0.986-0.521-1.763V40.862
		c0-0.837,0.169-1.471,0.507-1.9c0.338-0.429,0.81-0.643,1.415-0.643c0.636,0,1.125,0.205,1.468,0.613
		C379.013,39.341,379.185,39.924,379.185,40.681z M379.382,52.957c0,1.645,0.376,2.909,1.128,3.792
		c0.751,0.883,1.738,1.324,2.959,1.324c1.039,0,1.936-0.452,2.688-1.354s1.128-2.197,1.128-3.883c0-1.09-0.157-2.027-0.469-2.815
		c-0.313-0.787-0.758-1.395-1.332-1.824c-0.575-0.429-1.247-0.643-2.014-0.643c-0.787,0-1.489,0.214-2.104,0.643
		c-0.616,0.429-1.101,1.05-1.453,1.862C379.558,50.87,379.382,51.836,379.382,52.957z"/>
	<path fill="#1173D2" d="M410.215,52.866c0,1.231-0.191,2.366-0.575,3.405c-0.384,1.041-0.938,1.934-1.665,2.68
		c-0.727,0.747-1.595,1.318-2.604,1.718s-2.146,0.599-3.406,0.599c-1.251,0-2.376-0.203-3.375-0.605
		c-0.999-0.403-1.864-0.98-2.596-1.732c-0.731-0.753-1.286-1.641-1.665-2.664c-0.378-1.024-0.567-2.158-0.567-3.398
		c0-1.251,0.191-2.396,0.575-3.436c0.383-1.039,0.933-1.927,1.65-2.664c0.716-0.736,1.584-1.304,2.604-1.703
		s2.145-0.598,3.375-0.598c1.251,0,2.386,0.202,3.406,0.605c1.019,0.404,1.892,0.979,2.619,1.726
		c0.727,0.747,1.278,1.635,1.657,2.664C410.026,50.489,410.215,51.625,410.215,52.866z M406.068,52.866
		c0-1.685-0.371-2.997-1.113-3.936c-0.741-0.938-1.738-1.408-2.989-1.408c-0.808,0-1.519,0.209-2.134,0.628
		c-0.616,0.418-1.09,1.037-1.423,1.854c-0.333,0.816-0.5,1.771-0.5,2.861c0,1.08,0.164,2.023,0.492,2.83
		c0.327,0.809,0.797,1.426,1.406,1.854c0.611,0.429,1.33,0.644,2.157,0.644c1.251,0,2.248-0.471,2.989-1.414
		C405.697,55.835,406.068,54.531,406.068,52.866z"/>
	<path fill="#1173D2" d="M424.202,58.936v-0.529c-0.495,0.626-1.015,1.15-1.56,1.574s-1.141,0.738-1.785,0.945
		c-0.646,0.207-1.384,0.311-2.211,0.311c-0.998,0-1.895-0.207-2.687-0.621s-1.405-0.984-1.839-1.71
		c-0.516-0.878-0.772-2.14-0.772-3.784v-8.189c0-0.827,0.188-1.445,0.561-1.854c0.373-0.408,0.868-0.613,1.482-0.613
		c0.625,0,1.13,0.207,1.515,0.621c0.383,0.414,0.575,1.029,0.575,1.847v6.615c0,0.959,0.081,1.763,0.241,2.415
		c0.161,0.65,0.452,1.16,0.87,1.528c0.419,0.368,0.986,0.553,1.703,0.553c0.696,0,1.353-0.207,1.968-0.621s1.064-0.954,1.348-1.62
		c0.231-0.585,0.348-1.867,0.348-3.845v-5.025c0-0.817,0.191-1.433,0.575-1.847c0.383-0.414,0.883-0.621,1.499-0.621
		c0.615,0,1.109,0.205,1.482,0.613c0.373,0.409,0.561,1.027,0.561,1.854v11.973c0,0.786-0.18,1.377-0.537,1.771
		c-0.358,0.395-0.82,0.59-1.385,0.59c-0.565,0-1.032-0.205-1.4-0.613C424.386,60.245,424.202,59.672,424.202,58.936z"/>
	<path fill="#1173D2" d="M432.421,44.828h0.454v-2.482c0-0.666,0.018-1.188,0.053-1.567c0.036-0.378,0.135-0.704,0.295-0.976
		c0.161-0.282,0.395-0.512,0.696-0.688c0.303-0.176,0.642-0.265,1.014-0.265c0.524,0,0.999,0.197,1.424,0.59
		c0.281,0.263,0.462,0.583,0.536,0.961c0.076,0.378,0.114,0.916,0.114,1.612v2.815h1.515c0.585,0,1.031,0.139,1.339,0.417
		c0.308,0.277,0.462,0.633,0.462,1.067c0,0.555-0.221,0.944-0.658,1.166c-0.439,0.222-1.067,0.333-1.885,0.333h-0.772v7.599
		c0,0.646,0.023,1.143,0.068,1.491c0.046,0.348,0.167,0.63,0.363,0.848c0.196,0.217,0.517,0.325,0.961,0.325
		c0.241,0,0.569-0.043,0.983-0.13c0.414-0.084,0.736-0.127,0.969-0.127c0.334,0,0.634,0.134,0.9,0.4
		c0.268,0.268,0.401,0.598,0.401,0.992c0,0.666-0.363,1.176-1.09,1.529c-0.728,0.353-1.771,0.529-3.134,0.529
		c-1.292,0-2.271-0.217-2.937-0.65s-1.104-1.034-1.31-1.801c-0.207-0.768-0.311-1.791-0.311-3.073V47.81h-0.545
		c-0.596,0-1.05-0.141-1.362-0.424c-0.313-0.282-0.469-0.641-0.469-1.075s0.164-0.79,0.492-1.067
		C431.318,44.967,431.795,44.828,432.421,44.828z"/>
	<path fill="#1173D2" d="M466.115,47.492v12.003c0,1.373-0.146,2.553-0.439,3.542c-0.293,0.988-0.762,1.806-1.408,2.452
		c-0.646,0.646-1.49,1.125-2.535,1.438c-1.045,0.313-2.345,0.47-3.897,0.47c-1.423,0-2.694-0.199-3.813-0.599
		c-1.12-0.399-1.983-0.914-2.589-1.544c-0.604-0.631-0.907-1.279-0.907-1.945c0-0.504,0.171-0.916,0.515-1.232
		c0.343-0.318,0.757-0.477,1.241-0.477c0.604,0,1.135,0.267,1.589,0.801c0.222,0.272,0.452,0.548,0.688,0.826
		c0.237,0.276,0.5,0.515,0.787,0.711c0.288,0.196,0.633,0.343,1.037,0.438c0.403,0.097,0.868,0.144,1.394,0.144
		c1.068,0,1.898-0.148,2.489-0.445c0.591-0.299,1.004-0.715,1.241-1.249c0.237-0.535,0.375-1.107,0.416-1.718
		c0.04-0.611,0.07-1.592,0.091-2.944c-0.636,0.888-1.37,1.563-2.202,2.028c-0.833,0.464-1.823,0.695-2.975,0.695
		c-1.383,0-2.591-0.353-3.625-1.06c-1.035-0.706-1.83-1.695-2.384-2.968c-0.556-1.271-0.833-2.739-0.833-4.404
		c0-1.241,0.169-2.361,0.507-3.36c0.338-0.999,0.82-1.841,1.446-2.528c0.625-0.686,1.347-1.203,2.165-1.552
		c0.816-0.348,1.715-0.522,2.693-0.522c1.17,0,2.186,0.225,3.042,0.673c0.857,0.449,1.655,1.153,2.393,2.112v-0.56
		c0-0.716,0.176-1.271,0.529-1.665c0.354-0.394,0.808-0.59,1.362-0.59c0.797,0,1.327,0.26,1.589,0.78
		C465.984,45.764,466.115,46.514,466.115,47.492z M454.142,52.729c0,1.676,0.366,2.942,1.099,3.799
		c0.73,0.858,1.677,1.287,2.838,1.287c0.686,0,1.334-0.184,1.945-0.551c0.609-0.369,1.106-0.925,1.49-1.666
		c0.383-0.742,0.575-1.643,0.575-2.701c0-1.686-0.371-2.998-1.113-3.937c-0.74-0.938-1.718-1.408-2.929-1.408
		c-1.181,0-2.127,0.449-2.838,1.347C454.498,49.798,454.142,51.075,454.142,52.729z"/>
	<path fill="#1173D2" d="M481.055,53.88h-8.083c0.011,0.938,0.199,1.767,0.568,2.481c0.368,0.718,0.856,1.257,1.468,1.621
		c0.611,0.362,1.284,0.545,2.021,0.545c0.494,0,0.945-0.059,1.354-0.174c0.408-0.117,0.804-0.299,1.188-0.545
		c0.383-0.248,0.735-0.513,1.06-0.795c0.323-0.283,0.742-0.666,1.256-1.15c0.212-0.182,0.516-0.272,0.908-0.272
		c0.424,0,0.767,0.116,1.029,0.349c0.262,0.231,0.394,0.56,0.394,0.983c0,0.374-0.146,0.81-0.438,1.31s-0.734,0.979-1.325,1.438
		c-0.59,0.459-1.332,0.84-2.225,1.144c-0.895,0.303-1.921,0.453-3.082,0.453c-2.653,0-4.718-0.757-6.19-2.271
		c-1.474-1.515-2.21-3.567-2.21-6.161c0-1.221,0.182-2.354,0.545-3.398s0.893-1.939,1.589-2.687
		c0.696-0.747,1.554-1.319,2.573-1.718c1.019-0.399,2.148-0.598,3.391-0.598c1.614,0,3,0.34,4.155,1.022
		c1.156,0.681,2.021,1.562,2.596,2.641c0.575,1.08,0.863,2.18,0.863,3.3c0,1.039-0.298,1.713-0.893,2.021
		C482.972,53.727,482.135,53.88,481.055,53.88z M472.972,51.534h7.493c-0.101-1.413-0.481-2.47-1.143-3.171
		c-0.661-0.702-1.532-1.052-2.611-1.052c-1.029,0-1.875,0.356-2.535,1.067C473.515,49.089,473.113,50.141,472.972,51.534z"/>
	<path fill="#1173D2" d="M488.169,44.828h0.454v-2.482c0-0.666,0.018-1.188,0.053-1.567c0.036-0.378,0.135-0.704,0.295-0.976
		c0.161-0.282,0.395-0.512,0.696-0.688c0.303-0.176,0.641-0.265,1.014-0.265c0.524,0,0.999,0.197,1.424,0.59
		c0.281,0.263,0.462,0.583,0.536,0.961c0.076,0.378,0.114,0.916,0.114,1.612v2.815h1.515c0.585,0,1.031,0.139,1.339,0.417
		c0.308,0.277,0.462,0.633,0.462,1.067c0,0.555-0.221,0.944-0.658,1.166c-0.439,0.222-1.067,0.333-1.885,0.333h-0.772v7.599
		c0,0.646,0.023,1.143,0.068,1.491c0.046,0.348,0.167,0.63,0.362,0.848c0.197,0.217,0.518,0.325,0.962,0.325
		c0.241,0,0.569-0.043,0.983-0.13c0.414-0.084,0.736-0.127,0.969-0.127c0.334,0,0.634,0.134,0.9,0.4
		c0.268,0.268,0.401,0.598,0.401,0.992c0,0.666-0.363,1.176-1.091,1.529c-0.727,0.353-1.771,0.529-3.133,0.529
		c-1.292,0-2.271-0.217-2.937-0.65s-1.104-1.034-1.31-1.801c-0.207-0.768-0.311-1.791-0.311-3.073V47.81h-0.545
		c-0.596,0-1.05-0.141-1.362-0.424c-0.313-0.282-0.469-0.641-0.469-1.075s0.164-0.79,0.492-1.067
		C487.067,44.967,487.543,44.828,488.169,44.828z"/>
	<path fill="#1173D2" d="M499.145,44.828h0.453v-2.482c0-0.666,0.019-1.188,0.054-1.567c0.036-0.378,0.134-0.704,0.295-0.976
		c0.161-0.282,0.394-0.512,0.696-0.688c0.303-0.176,0.641-0.265,1.014-0.265c0.523,0,0.999,0.197,1.423,0.59
		c0.282,0.263,0.462,0.583,0.537,0.961c0.076,0.378,0.114,0.916,0.114,1.612v2.815h1.514c0.585,0,1.032,0.139,1.339,0.417
		c0.308,0.277,0.462,0.633,0.462,1.067c0,0.555-0.22,0.944-0.658,1.166s-1.066,0.333-1.885,0.333h-0.771v7.599
		c0,0.646,0.022,1.143,0.067,1.491c0.046,0.348,0.167,0.63,0.363,0.848c0.197,0.217,0.517,0.325,0.961,0.325
		c0.242,0,0.57-0.043,0.984-0.13c0.414-0.084,0.735-0.127,0.969-0.127c0.333,0,0.633,0.134,0.899,0.4
		c0.269,0.268,0.401,0.598,0.401,0.992c0,0.666-0.363,1.176-1.09,1.529c-0.728,0.353-1.771,0.529-3.133,0.529
		c-1.292,0-2.271-0.217-2.938-0.65s-1.103-1.034-1.309-1.801c-0.207-0.768-0.312-1.791-0.312-3.073V47.81h-0.545
		c-0.596,0-1.05-0.141-1.361-0.424c-0.313-0.282-0.47-0.641-0.47-1.075s0.164-0.79,0.492-1.067
		C498.041,44.967,498.518,44.828,499.145,44.828z"/>
	<path fill="#1173D2" d="M511.979,42.542c-0.574,0-1.066-0.176-1.476-0.53c-0.408-0.353-0.613-0.853-0.613-1.499
		c0-0.585,0.209-1.067,0.628-1.445c0.418-0.379,0.905-0.568,1.46-0.568c0.535,0,1.01,0.172,1.424,0.515
		c0.413,0.343,0.62,0.843,0.62,1.499c0,0.636-0.201,1.133-0.604,1.491S512.534,42.542,511.979,42.542z M514.023,46.811v11.943
		c0,0.828-0.197,1.453-0.591,1.877c-0.393,0.424-0.893,0.637-1.499,0.637c-0.605,0-1.098-0.218-1.476-0.651
		c-0.379-0.435-0.568-1.054-0.568-1.862V46.932c0-0.817,0.189-1.433,0.568-1.847c0.378-0.414,0.87-0.621,1.476-0.621
		c0.606,0,1.105,0.207,1.499,0.621C513.826,45.5,514.023,46.075,514.023,46.811z"/>
	<path fill="#1173D2" d="M522.045,46.75v0.5c0.727-0.958,1.521-1.663,2.384-2.112c0.862-0.449,1.854-0.673,2.975-0.673
		c1.09,0,2.063,0.237,2.921,0.711c0.856,0.475,1.499,1.146,1.922,2.013c0.271,0.505,0.449,1.05,0.53,1.635s0.12,1.332,0.12,2.24
		v7.688c0,0.828-0.188,1.453-0.566,1.877c-0.379,0.425-0.871,0.636-1.477,0.636c-0.615,0-1.114-0.217-1.499-0.65
		c-0.384-0.434-0.574-1.055-0.574-1.862v-6.887c0-1.362-0.189-2.404-0.567-3.126c-0.379-0.721-1.133-1.082-2.263-1.082
		c-0.737,0-1.408,0.22-2.014,0.658c-0.604,0.439-1.05,1.042-1.332,1.809c-0.201,0.616-0.303,1.766-0.303,3.451v5.177
		c0,0.838-0.193,1.466-0.583,1.884c-0.388,0.42-0.891,0.629-1.506,0.629c-0.596,0-1.085-0.218-1.468-0.651
		c-0.384-0.435-0.575-1.054-0.575-1.862V46.811c0-0.787,0.171-1.375,0.515-1.764c0.344-0.388,0.813-0.583,1.408-0.583
		c0.363,0,0.691,0.086,0.984,0.257c0.292,0.172,0.526,0.429,0.704,0.772C521.957,45.837,522.045,46.256,522.045,46.75z"/>
	<path fill="#1173D2" d="M552.213,47.492v12.003c0,1.373-0.146,2.553-0.438,3.542c-0.294,0.988-0.763,1.806-1.408,2.452
		c-0.646,0.646-1.491,1.125-2.536,1.438c-1.044,0.313-2.344,0.47-3.897,0.47c-1.423,0-2.693-0.199-3.813-0.599
		s-1.983-0.914-2.588-1.544c-0.605-0.631-0.908-1.279-0.908-1.945c0-0.504,0.171-0.916,0.515-1.232
		c0.343-0.318,0.757-0.477,1.241-0.477c0.605,0,1.135,0.267,1.589,0.801c0.222,0.272,0.452,0.548,0.688,0.826
		c0.236,0.276,0.5,0.515,0.787,0.711s0.633,0.343,1.036,0.438c0.403,0.097,0.868,0.144,1.394,0.144c1.068,0,1.898-0.148,2.49-0.445
		c0.59-0.299,1.004-0.715,1.24-1.249c0.237-0.535,0.375-1.107,0.416-1.718c0.04-0.611,0.07-1.592,0.092-2.944
		c-0.637,0.888-1.37,1.563-2.202,2.028c-0.833,0.464-1.824,0.695-2.976,0.695c-1.383,0-2.591-0.353-3.625-1.06
		c-1.034-0.706-1.83-1.695-2.384-2.968c-0.555-1.271-0.833-2.739-0.833-4.404c0-1.241,0.169-2.361,0.507-3.36
		c0.339-0.999,0.82-1.841,1.446-2.528c0.625-0.686,1.347-1.203,2.165-1.552c0.817-0.348,1.715-0.522,2.694-0.522
		c1.17,0,2.185,0.225,3.042,0.673c0.856,0.449,1.654,1.153,2.392,2.112v-0.56c0-0.716,0.176-1.271,0.53-1.665
		c0.353-0.394,0.807-0.59,1.362-0.59c0.797,0,1.326,0.26,1.589,0.78C552.082,45.764,552.213,46.514,552.213,47.492z M540.24,52.729
		c0,1.676,0.366,2.942,1.098,3.799c0.731,0.858,1.677,1.287,2.838,1.287c0.687,0,1.334-0.184,1.945-0.551
		c0.61-0.369,1.107-0.925,1.491-1.666c0.383-0.742,0.575-1.643,0.575-2.701c0-1.686-0.371-2.998-1.113-3.937
		c-0.741-0.938-1.718-1.408-2.929-1.408c-1.182,0-2.128,0.449-2.839,1.347C540.595,49.798,540.24,51.075,540.24,52.729z"/>
	<path fill="#1173D2" d="M567.955,61.781l0.378-0.924l-5.086-12.806c-0.313-0.736-0.469-1.271-0.469-1.604
		c0-0.354,0.091-0.681,0.271-0.984c0.181-0.303,0.432-0.545,0.75-0.727c0.317-0.182,0.648-0.272,0.991-0.272
		c0.595,0,1.044,0.189,1.347,0.568c0.304,0.378,0.57,0.921,0.803,1.627l3.497,10.172l3.314-9.46c0.262-0.767,0.5-1.367,0.711-1.801
		c0.212-0.434,0.438-0.727,0.673-0.878c0.237-0.151,0.573-0.227,1.007-0.227c0.313,0,0.613,0.083,0.9,0.25
		c0.288,0.167,0.51,0.392,0.666,0.674c0.157,0.283,0.235,0.581,0.235,0.893c-0.041,0.192-0.106,0.464-0.197,0.817
		c-0.091,0.354-0.202,0.711-0.333,1.075l-5.389,14.107c-0.465,1.241-0.918,2.215-1.362,2.921s-1.032,1.249-1.764,1.627
		s-1.719,0.566-2.959,0.566c-1.211,0-2.119-0.131-2.726-0.394c-0.604-0.263-0.908-0.742-0.908-1.438c0-0.475,0.145-0.84,0.433-1.097
		c0.287-0.258,0.713-0.386,1.278-0.386c0.223,0,0.439,0.029,0.651,0.091c0.262,0.062,0.489,0.091,0.681,0.091
		c0.475,0,0.849-0.07,1.12-0.212c0.272-0.142,0.518-0.386,0.734-0.733C567.423,62.969,567.672,62.457,567.955,61.781z"/>
	<path fill="#1173D2" d="M596.003,52.866c0,1.231-0.192,2.366-0.575,3.405c-0.384,1.041-0.938,1.934-1.665,2.68
		c-0.727,0.747-1.595,1.318-2.604,1.718s-2.146,0.599-3.406,0.599c-1.251,0-2.376-0.203-3.375-0.605
		c-0.999-0.403-1.864-0.98-2.596-1.732c-0.731-0.753-1.286-1.641-1.665-2.664c-0.378-1.024-0.567-2.158-0.567-3.398
		c0-1.251,0.191-2.396,0.575-3.436c0.383-1.039,0.933-1.927,1.65-2.664c0.716-0.736,1.584-1.304,2.604-1.703
		s2.145-0.598,3.375-0.598c1.251,0,2.386,0.202,3.406,0.605c1.019,0.404,1.892,0.979,2.619,1.726
		c0.727,0.747,1.278,1.635,1.656,2.664C595.814,50.489,596.003,51.625,596.003,52.866z M591.856,52.866
		c0-1.685-0.371-2.997-1.113-3.936c-0.741-0.938-1.738-1.408-2.989-1.408c-0.808,0-1.519,0.209-2.134,0.628
		c-0.616,0.418-1.09,1.037-1.423,1.854c-0.333,0.816-0.5,1.771-0.5,2.861c0,1.08,0.164,2.023,0.492,2.83
		c0.328,0.809,0.797,1.426,1.406,1.854c0.611,0.429,1.33,0.644,2.157,0.644c1.251,0,2.248-0.471,2.989-1.414
		C591.485,55.835,591.856,54.531,591.856,52.866z"/>
	<path fill="#1173D2" d="M609.99,58.936v-0.529c-0.495,0.626-1.015,1.15-1.56,1.574s-1.141,0.738-1.786,0.945
		s-1.383,0.311-2.21,0.311c-0.999,0-1.895-0.207-2.687-0.621s-1.405-0.984-1.839-1.71c-0.516-0.878-0.772-2.14-0.772-3.784v-8.189
		c0-0.827,0.188-1.445,0.561-1.854c0.373-0.408,0.867-0.613,1.482-0.613c0.625,0,1.13,0.207,1.515,0.621
		c0.383,0.414,0.574,1.029,0.574,1.847v6.615c0,0.959,0.081,1.763,0.242,2.415c0.161,0.65,0.452,1.16,0.87,1.528
		c0.419,0.368,0.986,0.553,1.703,0.553c0.696,0,1.352-0.207,1.968-0.621c0.615-0.414,1.064-0.954,1.347-1.62
		c0.232-0.585,0.349-1.867,0.349-3.845v-5.025c0-0.817,0.19-1.433,0.575-1.847c0.383-0.414,0.883-0.621,1.499-0.621
		c0.614,0,1.109,0.205,1.482,0.613c0.373,0.409,0.561,1.027,0.561,1.854v11.973c0,0.786-0.18,1.377-0.537,1.771
		c-0.358,0.395-0.82,0.59-1.385,0.59c-0.565,0-1.032-0.205-1.4-0.613C610.174,60.245,609.99,59.672,609.99,58.936z"/>
	<path fill="#1173D2" d="M622.084,55.303v3.451c0,0.838-0.197,1.466-0.59,1.885c-0.395,0.418-0.894,0.627-1.499,0.627
		c-0.597,0-1.085-0.211-1.468-0.636c-0.385-0.424-0.575-1.049-0.575-1.877V47.25c0-1.856,0.671-2.785,2.013-2.785
		c0.686,0,1.181,0.217,1.483,0.651c0.303,0.434,0.469,1.075,0.5,1.922c0.493-0.848,1.001-1.488,1.521-1.922
		c0.521-0.434,1.213-0.651,2.082-0.651c0.868,0,1.71,0.217,2.528,0.651c0.816,0.434,1.226,1.009,1.226,1.726
		c0,0.505-0.174,0.921-0.521,1.249c-0.35,0.328-0.726,0.492-1.128,0.492c-0.151,0-0.518-0.093-1.099-0.28
		c-0.58-0.187-1.092-0.28-1.536-0.28c-0.604,0-1.1,0.159-1.482,0.477c-0.384,0.318-0.682,0.79-0.894,1.416s-0.357,1.37-0.438,2.232
		C622.124,53.009,622.084,54.063,622.084,55.303z"/>
	<path fill="#1173D2" d="M656.459,54.229c0,1.342-0.346,2.547-1.037,3.617c-0.69,1.07-1.703,1.907-3.035,2.514
		c-1.332,0.605-2.912,0.908-4.737,0.908c-2.19,0-3.996-0.414-5.419-1.242c-1.01-0.594-1.829-1.39-2.461-2.383
		c-0.63-0.994-0.945-1.961-0.945-2.898c0-0.545,0.188-1.012,0.567-1.4c0.378-0.388,0.86-0.583,1.445-0.583
		c0.474,0,0.875,0.151,1.203,0.454s0.608,0.752,0.84,1.348c0.282,0.707,0.588,1.297,0.916,1.771c0.328,0.476,0.79,0.865,1.385,1.173
		c0.596,0.309,1.378,0.461,2.347,0.461c1.332,0,2.414-0.31,3.247-0.931c0.832-0.62,1.249-1.396,1.249-2.323
		c0-0.736-0.226-1.334-0.673-1.794c-0.449-0.459-1.029-0.81-1.741-1.052c-0.711-0.242-1.663-0.5-2.854-0.772
		c-1.595-0.372-2.929-0.81-4.003-1.309c-1.075-0.5-1.928-1.181-2.559-2.044c-0.63-0.862-0.946-1.935-0.946-3.216
		c0-1.221,0.333-2.306,0.999-3.254s1.629-1.678,2.891-2.188c1.262-0.509,2.745-0.764,4.45-0.764c1.362,0,2.541,0.169,3.534,0.507
		c0.994,0.338,1.819,0.787,2.475,1.347c0.656,0.561,1.136,1.148,1.438,1.764c0.303,0.616,0.454,1.216,0.454,1.801
		c0,0.535-0.189,1.017-0.567,1.446c-0.379,0.429-0.851,0.643-1.416,0.643c-0.515,0-0.906-0.128-1.173-0.386
		c-0.267-0.257-0.558-0.678-0.87-1.264c-0.404-0.837-0.888-1.491-1.453-1.96c-0.564-0.47-1.474-0.704-2.725-0.704
		c-1.161,0-2.097,0.255-2.808,0.765c-0.712,0.509-1.067,1.123-1.067,1.839c0,0.444,0.121,0.828,0.363,1.15
		c0.241,0.323,0.574,0.601,0.999,0.833c0.424,0.232,0.853,0.414,1.286,0.545c0.435,0.131,1.15,0.323,2.149,0.575
		c1.251,0.293,2.384,0.616,3.398,0.969c1.015,0.354,1.877,0.782,2.589,1.287c0.711,0.505,1.266,1.143,1.665,1.916
		C656.26,52.162,656.459,53.107,656.459,54.229z"/>
	<path fill="#1173D2" d="M670.718,58.936v-0.529c-0.495,0.626-1.014,1.15-1.559,1.574s-1.142,0.738-1.786,0.945
		c-0.646,0.207-1.383,0.311-2.21,0.311c-0.999,0-1.896-0.207-2.688-0.621s-1.404-0.984-1.839-1.71
		c-0.515-0.878-0.771-2.14-0.771-3.784v-8.189c0-0.827,0.187-1.445,0.56-1.854c0.373-0.408,0.868-0.613,1.483-0.613
		c0.625,0,1.13,0.207,1.514,0.621c0.383,0.414,0.575,1.029,0.575,1.847v6.615c0,0.959,0.081,1.763,0.242,2.415
		c0.161,0.65,0.452,1.16,0.87,1.528c0.419,0.368,0.985,0.553,1.702,0.553c0.696,0,1.353-0.207,1.969-0.621
		c0.614-0.414,1.063-0.954,1.347-1.62c0.232-0.585,0.348-1.867,0.348-3.845v-5.025c0-0.817,0.191-1.433,0.575-1.847
		c0.383-0.414,0.883-0.621,1.499-0.621c0.615,0,1.11,0.205,1.483,0.613c0.373,0.409,0.56,1.027,0.56,1.854v11.973
		c0,0.786-0.179,1.377-0.537,1.771c-0.357,0.395-0.819,0.59-1.385,0.59c-0.564,0-1.032-0.205-1.4-0.613
		C670.902,60.245,670.718,59.672,670.718,58.936z"/>
	<path fill="#1173D2" d="M682.813,55.303v3.451c0,0.838-0.196,1.466-0.59,1.885c-0.394,0.418-0.893,0.627-1.499,0.627
		c-0.596,0-1.085-0.211-1.468-0.636c-0.384-0.424-0.575-1.049-0.575-1.877V47.25c0-1.856,0.671-2.785,2.014-2.785
		c0.686,0,1.181,0.217,1.482,0.651c0.303,0.434,0.469,1.075,0.5,1.922c0.494-0.848,1.001-1.488,1.521-1.922
		c0.52-0.434,1.213-0.651,2.082-0.651c0.867,0,1.71,0.217,2.527,0.651c0.817,0.434,1.227,1.009,1.227,1.726
		c0,0.505-0.175,0.921-0.522,1.249c-0.349,0.328-0.725,0.492-1.128,0.492c-0.151,0-0.517-0.093-1.098-0.28
		c-0.58-0.187-1.092-0.28-1.536-0.28c-0.605,0-1.1,0.159-1.483,0.477s-0.681,0.79-0.893,1.416s-0.358,1.37-0.439,2.232
		C682.854,53.009,682.813,54.063,682.813,55.303z"/>
	<path fill="#1173D2" d="M706.713,47.492v12.003c0,1.373-0.146,2.553-0.438,3.542c-0.294,0.988-0.763,1.806-1.408,2.452
		c-0.646,0.646-1.491,1.125-2.536,1.438c-1.044,0.313-2.344,0.47-3.897,0.47c-1.423,0-2.693-0.199-3.813-0.599
		s-1.983-0.914-2.588-1.544c-0.605-0.631-0.908-1.279-0.908-1.945c0-0.504,0.171-0.916,0.515-1.232
		c0.343-0.318,0.757-0.477,1.241-0.477c0.605,0,1.135,0.267,1.589,0.801c0.222,0.272,0.452,0.548,0.688,0.826
		c0.236,0.276,0.5,0.515,0.787,0.711s0.633,0.343,1.036,0.438c0.403,0.097,0.868,0.144,1.394,0.144c1.068,0,1.898-0.148,2.49-0.445
		c0.59-0.299,1.004-0.715,1.24-1.249c0.237-0.535,0.375-1.107,0.416-1.718c0.04-0.611,0.07-1.592,0.092-2.944
		c-0.637,0.888-1.37,1.563-2.202,2.028c-0.833,0.464-1.824,0.695-2.976,0.695c-1.383,0-2.591-0.353-3.625-1.06
		c-1.034-0.706-1.83-1.695-2.384-2.968c-0.555-1.271-0.833-2.739-0.833-4.404c0-1.241,0.169-2.361,0.507-3.36
		c0.339-0.999,0.82-1.841,1.446-2.528c0.625-0.686,1.347-1.203,2.165-1.552c0.817-0.348,1.715-0.522,2.694-0.522
		c1.17,0,2.185,0.225,3.042,0.673c0.856,0.449,1.654,1.153,2.392,2.112v-0.56c0-0.716,0.176-1.271,0.53-1.665
		c0.353-0.394,0.807-0.59,1.362-0.59c0.797,0,1.326,0.26,1.589,0.78C706.582,45.764,706.713,46.514,706.713,47.492z M694.74,52.729
		c0,1.676,0.366,2.942,1.098,3.799c0.731,0.858,1.677,1.287,2.838,1.287c0.687,0,1.334-0.184,1.945-0.551
		c0.61-0.369,1.107-0.925,1.491-1.666c0.383-0.742,0.575-1.643,0.575-2.701c0-1.686-0.371-2.998-1.113-3.937
		c-0.741-0.938-1.718-1.408-2.929-1.408c-1.182,0-2.128,0.449-2.839,1.347C695.096,49.798,694.74,51.075,694.74,52.729z"/>
	<path fill="#1173D2" d="M721.652,53.88h-8.082c0.01,0.938,0.198,1.767,0.567,2.481c0.368,0.718,0.857,1.257,1.469,1.621
		c0.61,0.362,1.283,0.545,2.021,0.545c0.494,0,0.946-0.059,1.355-0.174c0.407-0.117,0.804-0.299,1.188-0.545
		c0.383-0.248,0.736-0.513,1.059-0.795c0.324-0.283,0.742-0.666,1.259-1.15c0.211-0.182,0.514-0.272,0.907-0.272
		c0.425,0,0.767,0.116,1.029,0.349c0.262,0.231,0.394,0.56,0.394,0.983c0,0.374-0.146,0.81-0.439,1.31
		c-0.291,0.5-0.731,0.979-1.324,1.438c-0.59,0.459-1.332,0.84-2.225,1.144c-0.894,0.303-1.92,0.453-3.08,0.453
		c-2.654,0-4.718-0.757-6.191-2.271c-1.474-1.515-2.21-3.567-2.21-6.161c0-1.221,0.183-2.354,0.545-3.398
		c0.363-1.044,0.894-1.939,1.59-2.687c0.695-0.747,1.554-1.319,2.572-1.718c1.02-0.399,2.149-0.598,3.392-0.598
		c1.613,0,3,0.34,4.153,1.022c1.156,0.681,2.021,1.562,2.597,2.641c0.575,1.08,0.862,2.18,0.862,3.3
		c0,1.039-0.297,1.713-0.893,2.021S722.732,53.88,721.652,53.88z M713.57,51.534h7.492c-0.102-1.413-0.481-2.47-1.143-3.171
		c-0.661-0.702-1.532-1.052-2.611-1.052c-1.028,0-1.875,0.356-2.534,1.067C714.113,49.089,713.711,50.141,713.57,51.534z"/>
	<path fill="#1173D2" d="M732.643,55.303v3.451c0,0.838-0.196,1.466-0.59,1.885c-0.395,0.418-0.894,0.627-1.499,0.627
		c-0.596,0-1.085-0.211-1.468-0.636c-0.384-0.424-0.576-1.049-0.576-1.877V47.25c0-1.856,0.672-2.785,2.014-2.785
		c0.688,0,1.182,0.217,1.483,0.651c0.303,0.434,0.47,1.075,0.499,1.922c0.495-0.848,1.002-1.488,1.521-1.922
		c0.52-0.434,1.214-0.651,2.082-0.651c0.866,0,1.71,0.217,2.526,0.651c0.817,0.434,1.228,1.009,1.228,1.726
		c0,0.505-0.176,0.921-0.522,1.249c-0.349,0.328-0.725,0.492-1.128,0.492c-0.151,0-0.518-0.093-1.098-0.28
		c-0.58-0.187-1.093-0.28-1.536-0.28c-0.605,0-1.101,0.159-1.483,0.477c-0.384,0.318-0.682,0.79-0.893,1.416
		c-0.213,0.626-0.358,1.37-0.439,2.232C732.683,53.009,732.643,54.063,732.643,55.303z"/>
	<path fill="#1173D2" d="M745.934,61.781l0.379-0.924l-5.087-12.806c-0.313-0.736-0.47-1.271-0.47-1.604
		c0-0.354,0.092-0.681,0.273-0.984c0.181-0.303,0.431-0.545,0.749-0.727c0.316-0.182,0.647-0.272,0.991-0.272
		c0.596,0,1.045,0.189,1.348,0.568c0.303,0.378,0.569,0.921,0.802,1.627l3.497,10.172l3.314-9.46c0.263-0.767,0.5-1.367,0.711-1.801
		c0.213-0.434,0.437-0.727,0.674-0.878s0.573-0.227,1.007-0.227c0.313,0,0.613,0.083,0.9,0.25c0.288,0.167,0.51,0.392,0.666,0.674
		c0.155,0.283,0.234,0.581,0.234,0.893c-0.041,0.192-0.105,0.464-0.196,0.817c-0.092,0.354-0.202,0.711-0.333,1.075l-5.39,14.107
		c-0.464,1.241-0.918,2.215-1.361,2.921c-0.444,0.706-1.032,1.249-1.765,1.627c-0.73,0.378-1.718,0.566-2.959,0.566
		c-1.211,0-2.119-0.131-2.725-0.394s-0.908-0.742-0.908-1.438c0-0.475,0.145-0.84,0.433-1.097c0.286-0.258,0.714-0.386,1.278-0.386
		c0.222,0,0.438,0.029,0.65,0.091c0.263,0.062,0.489,0.091,0.682,0.091c0.475,0,0.849-0.07,1.119-0.212
		c0.273-0.142,0.519-0.386,0.734-0.733C745.4,62.969,745.65,62.457,745.934,61.781z"/>
	<path fill="#1173D2" d="M769.742,38.698h5.856c1.524,0,2.831,0.142,3.921,0.424c1.091,0.283,2.079,0.813,2.968,1.589
		c2.311,1.978,3.466,4.985,3.466,9.021c0,1.333-0.115,2.548-0.348,3.648c-0.232,1.101-0.591,2.091-1.074,2.976
		c-0.484,0.883-1.105,1.672-1.862,2.369c-0.596,0.534-1.246,0.963-1.952,1.286c-0.707,0.323-1.467,0.55-2.277,0.681
		c-0.813,0.132-1.729,0.197-2.747,0.197h-5.858c-0.817,0-1.433-0.123-1.847-0.371c-0.414-0.246-0.685-0.595-0.811-1.043
		c-0.127-0.449-0.188-1.033-0.188-1.75V41.453c0-0.969,0.217-1.67,0.65-2.104S768.773,38.698,769.742,38.698z M771.482,42.255
		v15.062h3.405c0.747,0,1.332-0.021,1.756-0.062c0.425-0.04,0.863-0.141,1.316-0.303c0.455-0.161,0.848-0.388,1.182-0.681
		c1.503-1.271,2.255-3.461,2.255-6.569c0-2.189-0.33-3.83-0.99-4.919c-0.661-1.09-1.478-1.784-2.445-2.081
		c-0.969-0.298-2.139-0.447-3.512-0.447H771.482z"/>
	<path fill="#1173D2" d="M805.086,52.866c0,1.231-0.191,2.366-0.574,3.405c-0.384,1.041-0.938,1.934-1.666,2.68
		c-0.727,0.747-1.594,1.318-2.604,1.718c-1.009,0.399-2.145,0.599-3.405,0.599c-1.251,0-2.376-0.203-3.376-0.605
		c-0.998-0.403-1.864-0.98-2.596-1.732c-0.731-0.753-1.286-1.641-1.665-2.664c-0.378-1.024-0.567-2.158-0.567-3.398
		c0-1.251,0.191-2.396,0.575-3.436c0.384-1.039,0.934-1.927,1.649-2.664c0.717-0.736,1.585-1.304,2.604-1.703
		c1.021-0.399,2.146-0.598,3.376-0.598c1.251,0,2.387,0.202,3.405,0.605c1.02,0.404,1.893,0.979,2.619,1.726
		s1.278,1.635,1.656,2.664C804.896,50.489,805.086,51.625,805.086,52.866z M800.939,52.866c0-1.685-0.371-2.997-1.113-3.936
		c-0.741-0.938-1.738-1.408-2.989-1.408c-0.808,0-1.519,0.209-2.134,0.628c-0.616,0.418-1.09,1.037-1.424,1.854
		c-0.332,0.816-0.499,1.771-0.499,2.861c0,1.08,0.164,2.023,0.492,2.83c0.326,0.809,0.797,1.426,1.406,1.854
		c0.61,0.429,1.33,0.644,2.157,0.644c1.251,0,2.248-0.471,2.989-1.414C800.568,55.835,800.939,54.531,800.939,52.866z"/>
	<path fill="#1173D2" d="M812.096,46.75v0.5c0.728-0.958,1.521-1.663,2.385-2.112c0.861-0.449,1.854-0.673,2.974-0.673
		c1.09,0,2.063,0.237,2.922,0.711c0.856,0.475,1.498,1.146,1.922,2.013c0.273,0.505,0.449,1.05,0.53,1.635s0.121,1.332,0.121,2.24
		v7.688c0,0.828-0.189,1.453-0.567,1.877c-0.379,0.425-0.871,0.636-1.477,0.636c-0.615,0-1.114-0.217-1.498-0.65
		s-0.575-1.055-0.575-1.862v-6.887c0-1.362-0.189-2.404-0.567-3.126c-0.379-0.721-1.133-1.082-2.264-1.082
		c-0.736,0-1.407,0.22-2.013,0.658c-0.605,0.439-1.051,1.042-1.332,1.809c-0.202,0.616-0.303,1.766-0.303,3.451v5.177
		c0,0.838-0.194,1.466-0.584,1.884c-0.389,0.42-0.891,0.629-1.506,0.629c-0.596,0-1.085-0.218-1.469-0.651
		c-0.383-0.435-0.574-1.054-0.574-1.862V46.811c0-0.787,0.172-1.375,0.515-1.764c0.344-0.388,0.813-0.583,1.407-0.583
		c0.363,0,0.691,0.086,0.984,0.257c0.292,0.172,0.526,0.429,0.703,0.772C812.007,45.837,812.096,46.256,812.096,46.75z"/>
	<path fill="#1173D2" d="M838.6,53.88h-8.082c0.011,0.938,0.198,1.767,0.567,2.481c0.368,0.718,0.857,1.257,1.468,1.621
		c0.611,0.363,1.284,0.545,2.021,0.545c0.494,0,0.945-0.059,1.354-0.174c0.408-0.117,0.806-0.299,1.188-0.545
		c0.383-0.248,0.735-0.513,1.059-0.795c0.323-0.283,0.742-0.666,1.257-1.15c0.213-0.182,0.516-0.272,0.908-0.272
		c0.424,0,0.768,0.116,1.029,0.349c0.263,0.231,0.394,0.56,0.394,0.983c0,0.374-0.146,0.81-0.438,1.31
		c-0.292,0.5-0.733,0.979-1.324,1.438c-0.59,0.459-1.332,0.84-2.225,1.144c-0.895,0.303-1.92,0.453-3.08,0.453
		c-2.654,0-4.719-0.757-6.191-2.271c-1.473-1.515-2.21-3.567-2.21-6.161c0-1.221,0.183-2.354,0.545-3.398
		c0.363-1.044,0.895-1.939,1.589-2.687c0.697-0.747,1.556-1.319,2.574-1.718c1.02-0.399,2.148-0.598,3.391-0.598
		c1.614,0,3,0.34,4.154,1.022c1.155,0.681,2.021,1.562,2.596,2.641c0.576,1.08,0.863,2.18,0.863,3.3
		c0,1.039-0.298,1.713-0.893,2.021C840.518,53.727,839.68,53.88,838.6,53.88z M830.518,51.534h7.492
		c-0.101-1.413-0.481-2.47-1.143-3.171c-0.661-0.702-1.531-1.052-2.611-1.052c-1.029,0-1.875,0.356-2.535,1.067
		S830.658,50.141,830.518,51.534z"/>
	<path fill="#1173D2" d="M852.465,44.646c0-0.958,0.309-1.93,0.923-2.914c0.616-0.984,1.515-1.799,2.695-2.445
		c1.18-0.646,2.558-0.969,4.132-0.969c1.463,0,2.755,0.27,3.875,0.81s1.985,1.274,2.596,2.202c0.61,0.929,0.916,1.938,0.916,3.027
		c0,0.858-0.174,1.61-0.521,2.255c-0.348,0.646-0.762,1.204-1.241,1.672c-0.479,0.47-1.339,1.259-2.581,2.368
		c-0.343,0.313-0.617,0.589-0.824,0.826c-0.207,0.236-0.36,0.453-0.461,0.649c-0.102,0.197-0.181,0.394-0.234,0.591
		c-0.057,0.196-0.139,0.542-0.25,1.037c-0.191,1.051-0.792,1.574-1.803,1.574c-0.523,0-0.966-0.171-1.323-0.516
		c-0.358-0.342-0.537-0.853-0.537-1.528c0-0.849,0.131-1.582,0.394-2.202c0.264-0.621,0.61-1.166,1.045-1.635
		c0.435-0.47,1.02-1.027,1.756-1.673c0.646-0.565,1.112-0.991,1.399-1.279c0.288-0.287,0.53-0.607,0.728-0.961
		c0.196-0.353,0.295-0.736,0.295-1.15c0-0.807-0.301-1.488-0.9-2.043c-0.601-0.555-1.375-0.833-2.323-0.833
		c-1.109,0-1.928,0.28-2.452,0.84c-0.523,0.561-0.969,1.385-1.332,2.475c-0.343,1.141-0.993,1.71-1.952,1.71
		c-0.564,0-1.042-0.199-1.431-0.598C852.659,45.542,852.465,45.111,852.465,44.646z M859.852,61.236
		c-0.614,0-1.152-0.199-1.611-0.598s-0.688-0.957-0.688-1.673c0-0.636,0.222-1.17,0.666-1.604c0.444-0.434,0.989-0.65,1.636-0.65
		c0.636,0,1.171,0.217,1.604,0.65c0.434,0.435,0.65,0.97,0.65,1.604c0,0.707-0.228,1.263-0.682,1.665
		C860.972,61.034,860.447,61.236,859.852,61.236z"/>
</g>
<g>
	<path fill="#1D4056" d="M229.771,101.869V79.678h8.325c1.695,0,3.055,0.225,4.079,0.674c1.024,0.449,1.827,1.142,2.407,2.074
		c0.58,0.934,0.87,1.91,0.87,2.93c0,0.947-0.257,1.842-0.772,2.679c-0.515,0.838-1.292,1.514-2.331,2.028
		c1.342,0.394,2.374,1.064,3.095,2.014c0.722,0.947,1.083,2.068,1.083,3.359c0,1.039-0.219,2.006-0.659,2.898
		c-0.438,0.893-0.981,1.582-1.627,2.066c-0.646,0.483-1.456,0.85-2.43,1.098c-0.974,0.247-2.167,0.371-3.58,0.371H229.771z
		 M232.707,89.002h4.798c1.302,0,2.235-0.085,2.8-0.257c0.747-0.222,1.31-0.591,1.688-1.104c0.379-0.516,0.568-1.16,0.568-1.938
		c0-0.736-0.177-1.385-0.53-1.945c-0.354-0.561-0.858-0.943-1.514-1.15c-0.656-0.207-1.781-0.311-3.375-0.311h-4.435V89.002z
		 M232.707,99.25h5.525c0.948,0,1.614-0.035,1.998-0.105c0.676-0.121,1.241-0.322,1.695-0.604c0.454-0.283,0.827-0.694,1.12-1.233
		c0.292-0.539,0.439-1.162,0.439-1.869c0-0.828-0.212-1.547-0.636-2.156c-0.424-0.611-1.012-1.04-1.764-1.287
		c-0.751-0.248-1.834-0.371-3.247-0.371h-5.131L232.707,99.25L232.707,99.25z"/>
	<path fill="#1D4056" d="M249.206,93.831c0-2.978,0.827-5.183,2.482-6.614c1.382-1.191,3.067-1.787,5.056-1.787
		c2.21,0,4.016,0.726,5.419,2.172c1.402,1.449,2.104,3.449,2.104,6.002c0,2.069-0.31,3.696-0.931,4.883
		c-0.62,1.187-1.523,2.105-2.709,2.763c-1.186,0.656-2.48,0.983-3.883,0.983c-2.25,0-4.069-0.722-5.457-2.164
		C249.9,98.625,249.206,96.546,249.206,93.831z M252.006,93.831c0,2.06,0.449,3.601,1.347,4.624s2.028,1.537,3.391,1.537
		c1.352,0,2.477-0.516,3.375-1.545s1.347-2.598,1.347-4.707c0-1.988-0.452-3.494-1.354-4.518c-0.903-1.025-2.026-1.537-3.368-1.537
		c-1.362,0-2.493,0.51-3.391,1.528C252.455,90.234,252.006,91.771,252.006,93.831z"/>
	<path fill="#1D4056" d="M267.461,101.869V85.793h2.452v2.286c1.181-1.767,2.886-2.649,5.116-2.649c0.969,0,1.859,0.174,2.671,0.523
		c0.813,0.348,1.42,0.805,1.824,1.369c0.403,0.564,0.686,1.236,0.848,2.014c0.101,0.504,0.151,1.387,0.151,2.648v9.885h-2.725V92.09
		c0-1.109-0.106-1.939-0.318-2.49c-0.212-0.549-0.588-0.988-1.127-1.315c-0.54-0.328-1.173-0.492-1.9-0.492
		c-1.161,0-2.162,0.369-3.004,1.104c-0.843,0.736-1.264,2.136-1.264,4.193v8.779H267.461z"/>
	<path fill="#1D4056" d="M295.191,99.886c-1.009,0.858-1.98,1.464-2.914,1.816c-0.933,0.353-1.935,0.53-3.004,0.53
		c-1.766,0-3.124-0.433-4.072-1.295c-0.949-0.863-1.423-1.965-1.423-3.308c0-0.787,0.179-1.506,0.537-2.157
		c0.358-0.65,0.828-1.173,1.408-1.566c0.58-0.393,1.233-0.69,1.96-0.893c0.535-0.142,1.342-0.277,2.422-0.408
		c2.2-0.264,3.819-0.576,4.859-0.939c0.01-0.373,0.015-0.609,0.015-0.711c0-1.109-0.257-1.893-0.772-2.346
		c-0.696-0.615-1.731-0.924-3.103-0.924c-1.282,0-2.228,0.225-2.838,0.674c-0.611,0.449-1.063,1.244-1.355,2.384l-2.664-0.363
		c0.242-1.14,0.641-2.062,1.196-2.763c0.555-0.701,1.357-1.24,2.407-1.619c1.049-0.379,2.265-0.568,3.648-0.568
		c1.372,0,2.487,0.162,3.345,0.484c0.857,0.324,1.488,0.729,1.892,1.219c0.403,0.49,0.686,1.107,0.848,1.854
		c0.091,0.465,0.136,1.303,0.136,2.514v3.633c0,2.533,0.058,4.135,0.174,4.807c0.116,0.67,0.345,1.314,0.688,1.931h-2.846
		C295.454,101.305,295.272,100.643,295.191,99.886z M294.964,93.801c-0.989,0.404-2.473,0.747-4.45,1.029
		c-1.12,0.162-1.913,0.344-2.376,0.545c-0.464,0.202-0.823,0.497-1.075,0.885c-0.252,0.389-0.378,0.82-0.378,1.295
		c0,0.728,0.275,1.332,0.825,1.816c0.55,0.484,1.354,0.727,2.414,0.727c1.049,0,1.983-0.229,2.8-0.688
		c0.817-0.459,1.417-1.086,1.801-1.884c0.292-0.615,0.439-1.523,0.439-2.726V93.801L294.964,93.801z"/>
	<path fill="#1D4056" d="M301.942,101.869V85.793h2.452v2.286c1.181-1.767,2.886-2.649,5.116-2.649c0.969,0,1.859,0.174,2.671,0.523
		c0.813,0.348,1.42,0.805,1.824,1.369c0.403,0.564,0.687,1.236,0.848,2.014c0.102,0.504,0.151,1.387,0.151,2.648v9.885h-2.725V92.09
		c0-1.109-0.106-1.939-0.318-2.49c-0.212-0.549-0.588-0.988-1.127-1.315c-0.54-0.328-1.173-0.492-1.9-0.492
		c-1.16,0-2.162,0.369-3.003,1.104c-0.843,0.736-1.264,2.136-1.264,4.193v8.779H301.942z"/>
	<path fill="#1D4056" d="M317.745,101.869v-2.211l10.231-11.746c-1.16,0.061-2.185,0.092-3.072,0.092h-6.555v-2.211h13.14v1.803
		l-8.704,10.201l-1.68,1.861c1.221-0.09,2.365-0.137,3.436-0.137h7.432v2.348H317.745z"/>
	<path fill="#1D4056" d="M345.173,99.886c-1.009,0.858-1.979,1.464-2.914,1.816c-0.933,0.353-1.935,0.53-3.004,0.53
		c-1.766,0-3.124-0.433-4.072-1.295c-0.948-0.863-1.423-1.965-1.423-3.308c0-0.787,0.18-1.506,0.537-2.157
		c0.358-0.65,0.828-1.173,1.408-1.566c0.58-0.393,1.232-0.69,1.96-0.893c0.535-0.142,1.342-0.277,2.422-0.408
		c2.2-0.264,3.819-0.576,4.859-0.939c0.01-0.373,0.015-0.609,0.015-0.711c0-1.109-0.257-1.893-0.771-2.346
		c-0.696-0.615-1.731-0.924-3.104-0.924c-1.282,0-2.228,0.225-2.838,0.674c-0.611,0.449-1.063,1.244-1.355,2.384l-2.664-0.363
		c0.242-1.14,0.642-2.062,1.196-2.763c0.556-0.701,1.357-1.24,2.407-1.619c1.049-0.379,2.265-0.568,3.648-0.568
		c1.371,0,2.486,0.162,3.345,0.484c0.856,0.324,1.487,0.729,1.892,1.219c0.403,0.49,0.687,1.107,0.849,1.854
		c0.091,0.465,0.136,1.303,0.136,2.514v3.633c0,2.533,0.058,4.135,0.174,4.807c0.116,0.67,0.345,1.314,0.688,1.931h-2.846
		C345.435,101.305,345.253,100.643,345.173,99.886z M344.946,93.801c-0.989,0.404-2.474,0.747-4.45,1.029
		c-1.12,0.162-1.913,0.344-2.376,0.545c-0.464,0.202-0.823,0.497-1.075,0.885c-0.252,0.389-0.378,0.82-0.378,1.295
		c0,0.728,0.275,1.332,0.825,1.816s1.354,0.727,2.414,0.727c1.049,0,1.982-0.229,2.8-0.688c0.817-0.459,1.417-1.086,1.801-1.884
		c0.292-0.615,0.439-1.523,0.439-2.726V93.801L344.946,93.801z"/>
	<path fill="#1D4056" d="M368.105,94.088l2.937,0.742c-0.616,2.412-1.723,4.251-3.322,5.518s-3.555,1.899-5.866,1.899
		c-2.392,0-4.336-0.487-5.834-1.46c-1.498-0.975-2.64-2.385-3.422-4.23c-0.781-1.848-1.173-3.83-1.173-5.949
		c0-2.311,0.441-4.326,1.324-6.047s2.14-3.026,3.771-3.922c1.629-0.893,3.423-1.339,5.381-1.339c2.22,0,4.087,0.565,5.601,1.695
		s2.568,2.72,3.164,4.769l-2.891,0.682c-0.516-1.614-1.263-2.791-2.24-3.526c-0.979-0.735-2.21-1.104-3.693-1.104
		c-1.706,0-3.131,0.408-4.275,1.227c-1.146,0.816-1.95,1.914-2.414,3.291c-0.464,1.379-0.696,2.799-0.696,4.262
		c0,1.887,0.275,3.535,0.825,4.941c0.55,1.408,1.405,2.461,2.564,3.156c1.16,0.697,2.417,1.045,3.77,1.045
		c1.645,0,3.037-0.476,4.178-1.424C366.929,97.363,367.701,95.955,368.105,94.088z"/>
	<path fill="#1D4056" d="M384.801,99.886c-1.009,0.858-1.979,1.464-2.914,1.816c-0.933,0.353-1.935,0.53-3.004,0.53
		c-1.766,0-3.124-0.433-4.072-1.295c-0.948-0.863-1.423-1.965-1.423-3.308c0-0.787,0.18-1.506,0.537-2.157
		c0.358-0.65,0.828-1.173,1.408-1.566c0.58-0.393,1.233-0.69,1.96-0.893c0.535-0.142,1.342-0.277,2.422-0.408
		c2.2-0.264,3.819-0.576,4.859-0.939c0.01-0.373,0.015-0.609,0.015-0.711c0-1.109-0.257-1.893-0.771-2.346
		c-0.696-0.615-1.731-0.924-3.104-0.924c-1.282,0-2.228,0.225-2.838,0.674c-0.611,0.449-1.063,1.244-1.354,2.384l-2.664-0.363
		c0.241-1.14,0.641-2.062,1.195-2.763c0.556-0.701,1.357-1.24,2.407-1.619c1.049-0.379,2.265-0.568,3.648-0.568
		c1.372,0,2.486,0.162,3.345,0.484c0.856,0.324,1.488,0.729,1.892,1.219s0.687,1.107,0.849,1.854
		c0.091,0.465,0.136,1.303,0.136,2.514v3.633c0,2.533,0.058,4.135,0.174,4.807c0.116,0.67,0.345,1.314,0.688,1.931h-2.847
		C385.063,101.305,384.881,100.643,384.801,99.886z M384.574,93.801c-0.989,0.404-2.474,0.747-4.45,1.029
		c-1.12,0.162-1.913,0.344-2.376,0.545c-0.464,0.202-0.823,0.497-1.075,0.885c-0.252,0.389-0.378,0.82-0.378,1.295
		c0,0.728,0.275,1.332,0.825,1.816s1.354,0.727,2.414,0.727c1.049,0,1.982-0.229,2.8-0.688c0.817-0.459,1.417-1.086,1.801-1.884
		c0.292-0.615,0.439-1.523,0.439-2.726V93.801z"/>
	<path fill="#1D4056" d="M391.521,101.869V85.793h2.451v2.438c0.625-1.141,1.204-1.893,1.733-2.256
		c0.53-0.363,1.113-0.545,1.749-0.545c0.918,0,1.852,0.293,2.8,0.879l-0.938,2.527c-0.666-0.395-1.332-0.59-1.998-0.59
		c-0.597,0-1.13,0.179-1.604,0.537c-0.475,0.357-0.813,0.855-1.014,1.49c-0.303,0.969-0.454,2.028-0.454,3.18v8.416H391.521z"/>
	<path fill="#1D4056" d="M412.879,96.691l2.815,0.349c-0.444,1.646-1.268,2.921-2.468,3.829s-2.734,1.363-4.602,1.363
		c-2.352,0-4.215-0.726-5.593-2.172c-1.377-1.449-2.066-3.479-2.066-6.095c0-2.702,0.696-4.803,2.089-6.297
		c1.394-1.492,3.199-2.239,5.419-2.239c2.149,0,3.905,0.731,5.269,2.194s2.043,3.521,2.043,6.176c0,0.162-0.005,0.404-0.016,0.728
		h-11.987c0.101,1.766,0.6,3.117,1.499,4.057c0.897,0.938,2.018,1.408,3.359,1.408c0.999,0,1.853-0.264,2.559-0.787
		C411.905,98.68,412.465,97.842,412.879,96.691z M403.934,92.287h8.977c-0.121-1.352-0.464-2.366-1.029-3.043
		c-0.868-1.049-1.993-1.574-3.375-1.574c-1.251,0-2.303,0.42-3.156,1.257C404.496,89.766,404.024,90.885,403.934,92.287z"/>
	<path fill="#1D4056" d="M427.744,82.813v-3.135h2.725v3.135H427.744z M427.744,101.869V85.793h2.725v16.076H427.744z"/>
	<path fill="#1D4056" d="M433.526,97.07l2.693-0.424c0.151,1.08,0.573,1.906,1.265,2.481c0.69,0.575,1.656,0.863,2.897,0.863
		c1.251,0,2.181-0.257,2.785-0.767c0.605-0.509,0.908-1.105,0.908-1.793c0-0.615-0.269-1.1-0.802-1.453
		c-0.374-0.242-1.303-0.549-2.785-0.924c-1.998-0.504-3.383-0.939-4.155-1.309s-1.357-0.879-1.756-1.529
		c-0.399-0.65-0.599-1.369-0.599-2.156c0-0.717,0.164-1.381,0.492-1.99c0.328-0.61,0.774-1.117,1.34-1.521
		c0.425-0.313,1.002-0.577,1.733-0.795c0.731-0.217,1.516-0.325,2.354-0.325c1.261,0,2.368,0.182,3.321,0.545
		c0.954,0.362,1.658,0.854,2.112,1.477s0.767,1.451,0.938,2.49l-2.664,0.363c-0.12-0.828-0.472-1.475-1.052-1.938
		c-0.58-0.466-1.399-0.697-2.459-0.697c-1.251,0-2.145,0.207-2.679,0.621c-0.535,0.414-0.802,0.897-0.802,1.453
		c0,0.354,0.11,0.672,0.333,0.952c0.222,0.294,0.569,0.535,1.044,0.728c0.271,0.103,1.075,0.334,2.407,0.697
		c1.927,0.514,3.271,0.937,4.033,1.264c0.763,0.328,1.36,0.806,1.794,1.431c0.435,0.627,0.651,1.402,0.651,2.332
		c0,0.908-0.265,1.764-0.794,2.563c-0.53,0.804-1.294,1.424-2.293,1.863c-0.999,0.438-2.129,0.657-3.391,0.657
		c-2.089,0-3.682-0.434-4.776-1.303C434.527,100.063,433.829,98.775,433.526,97.07z"/>
	<path fill="#1D4056" d="M458.729,101.869V79.678h2.726v7.963c1.271-1.474,2.876-2.211,4.813-2.211c1.19,0,2.226,0.234,3.104,0.705
		c0.878,0.469,1.506,1.117,1.885,1.944c0.378,0.827,0.567,2.028,0.567,3.603v10.188h-2.726V91.682c0-1.361-0.295-2.354-0.886-2.975
		c-0.59-0.621-1.425-0.932-2.505-0.932c-0.808,0-1.566,0.211-2.278,0.629c-0.711,0.419-1.218,0.986-1.521,1.703
		c-0.304,0.717-0.454,1.705-0.454,2.967v8.795H458.729z"/>
	<path fill="#1D4056" d="M486.974,96.691l2.815,0.349c-0.444,1.646-1.268,2.921-2.467,3.829c-1.201,0.908-2.735,1.363-4.603,1.363
		c-2.352,0-4.215-0.726-5.593-2.172c-1.377-1.449-2.066-3.479-2.066-6.095c0-2.702,0.696-4.803,2.09-6.297
		c1.393-1.492,3.198-2.239,5.419-2.239c2.148,0,3.904,0.731,5.268,2.194s2.043,3.521,2.043,6.176c0,0.162-0.005,0.404-0.015,0.728
		h-11.988c0.102,1.766,0.6,3.117,1.499,4.057c0.898,0.938,2.018,1.408,3.36,1.408c0.999,0,1.852-0.264,2.558-0.787
		C486,98.68,486.56,97.842,486.974,96.691z M478.028,92.287h8.976c-0.121-1.352-0.464-2.366-1.029-3.043
		c-0.867-1.049-1.992-1.574-3.375-1.574c-1.251,0-2.303,0.42-3.155,1.257C478.59,89.766,478.119,90.885,478.028,92.287z"/>
	<path fill="#1D4056" d="M493.18,101.869V85.793h2.452v2.438c0.625-1.141,1.204-1.893,1.733-2.256s1.113-0.545,1.749-0.545
		c0.918,0,1.852,0.293,2.8,0.879l-0.938,2.527c-0.666-0.395-1.332-0.59-1.997-0.59c-0.597,0-1.131,0.179-1.604,0.537
		c-0.475,0.357-0.813,0.855-1.014,1.49c-0.304,0.969-0.454,2.028-0.454,3.18v8.416H493.18z"/>
	<path fill="#1D4056" d="M514.538,96.691l2.815,0.349c-0.444,1.646-1.268,2.921-2.468,3.829s-2.734,1.363-4.602,1.363
		c-2.353,0-4.215-0.726-5.593-2.172c-1.377-1.449-2.066-3.479-2.066-6.095c0-2.702,0.696-4.803,2.089-6.297
		c1.394-1.492,3.199-2.239,5.419-2.239c2.149,0,3.905,0.731,5.269,2.194c1.362,1.463,2.043,3.521,2.043,6.176
		c0,0.162-0.005,0.404-0.016,0.728H505.44c0.101,1.766,0.6,3.117,1.499,4.057c0.897,0.938,2.018,1.408,3.359,1.408
		c0.999,0,1.853-0.264,2.559-0.787C513.563,98.68,514.124,97.842,514.538,96.691z M505.592,92.287h8.977
		c-0.121-1.352-0.465-2.366-1.029-3.043c-0.868-1.049-1.993-1.574-3.375-1.574c-1.251,0-2.303,0.42-3.156,1.257
		C506.154,89.766,505.683,90.885,505.592,92.287z"/>
	<path fill="#1D4056" d="M535.335,99.432l0.394,2.406c-0.767,0.162-1.452,0.242-2.059,0.242c-0.989,0-1.756-0.156-2.301-0.469
		c-0.545-0.313-0.93-0.726-1.15-1.234c-0.222-0.509-0.333-1.581-0.333-3.216v-9.249h-1.998v-2.119h1.998v-3.98l2.709-1.635v5.615
		h2.74v2.119h-2.74v9.4c0,0.776,0.048,1.276,0.145,1.498c0.096,0.223,0.252,0.398,0.469,0.529c0.217,0.133,0.526,0.196,0.931,0.196
		C534.442,99.537,534.841,99.502,535.335,99.432z"/>
	<path fill="#1D4056" d="M536.985,93.831c0-2.978,0.827-5.183,2.481-6.614c1.382-1.191,3.067-1.787,5.057-1.787
		c2.21,0,4.016,0.726,5.419,2.172c1.401,1.449,2.104,3.449,2.104,6.002c0,2.069-0.31,3.696-0.931,4.883
		c-0.62,1.187-1.523,2.105-2.709,2.763c-1.187,0.656-2.48,0.983-3.883,0.983c-2.25,0-4.069-0.722-5.457-2.164
		C537.679,98.625,536.985,96.546,536.985,93.831z M539.786,93.831c0,2.06,0.449,3.601,1.347,4.624
		c0.898,1.023,2.028,1.537,3.392,1.537c1.352,0,2.477-0.516,3.375-1.545c0.897-1.029,1.347-2.598,1.347-4.707
		c0-1.988-0.452-3.494-1.354-4.518c-0.902-1.025-2.025-1.537-3.367-1.537c-1.362,0-2.493,0.51-3.392,1.528
		C540.234,90.234,539.786,91.771,539.786,93.831z"/>
	<path fill="#1D4056" d="M562.93,94.648l4.359-0.424c0.262,1.463,0.795,2.537,1.597,3.225c0.804,0.686,1.886,1.029,3.247,1.029
		c1.443,0,2.53-0.307,3.262-0.916c0.732-0.611,1.099-1.324,1.099-2.144c0-0.522-0.154-0.971-0.462-1.34
		c-0.309-0.367-0.845-0.688-1.612-0.961c-0.524-0.183-1.721-0.504-3.587-0.97c-2.402-0.594-4.087-1.325-5.056-2.193
		c-1.362-1.221-2.043-2.71-2.043-4.466c0-1.13,0.319-2.188,0.961-3.171c0.641-0.983,1.563-1.733,2.77-2.248
		c1.206-0.516,2.662-0.771,4.367-0.771c2.785,0,4.882,0.61,6.289,1.831c1.408,1.222,2.146,2.853,2.218,4.89l-4.479,0.196
		c-0.192-1.14-0.604-1.959-1.233-2.459c-0.631-0.5-1.577-0.75-2.838-0.75c-1.302,0-2.321,0.269-3.058,0.804
		c-0.476,0.344-0.711,0.803-0.711,1.377c0,0.524,0.222,0.975,0.666,1.348c0.564,0.475,1.938,0.969,4.116,1.482
		c2.18,0.515,3.792,1.047,4.836,1.598c1.045,0.551,1.862,1.303,2.452,2.256c0.591,0.953,0.887,2.132,0.887,3.534
		c0,1.271-0.354,2.462-1.061,3.571c-0.707,1.11-1.706,1.936-2.997,2.477c-1.292,0.539-2.9,0.809-4.829,0.809
		c-2.806,0-4.96-0.647-6.463-1.945C564.12,99.021,563.222,97.131,562.93,94.648z"/>
	<path fill="#1D4056" d="M584.711,83.613v-3.937h4.253v3.937H584.711z M584.711,101.869V85.793h4.253v16.076H584.711z"/>
	<path fill="#1D4056" d="M593.006,85.793h3.92v2.195c1.402-1.705,3.073-2.559,5.01-2.559c1.029,0,1.923,0.213,2.68,0.637
		s1.377,1.063,1.861,1.922c0.706-0.857,1.469-1.498,2.286-1.922c0.818-0.424,1.69-0.637,2.619-0.637
		c1.182,0,2.181,0.239,2.997,0.719c0.817,0.479,1.428,1.184,1.832,2.111c0.292,0.688,0.439,1.797,0.439,3.33v10.278h-4.253V92.68
		c0-1.595-0.146-2.623-0.439-3.088c-0.394-0.605-0.999-0.908-1.816-0.908c-0.596,0-1.155,0.183-1.68,0.545
		c-0.524,0.363-0.903,0.896-1.135,1.598c-0.232,0.701-0.349,1.809-0.349,3.322v7.721h-4.253v-8.811c0-1.563-0.075-2.572-0.227-3.027
		c-0.151-0.453-0.386-0.791-0.704-1.014s-0.75-0.334-1.294-0.334c-0.656,0-1.247,0.178-1.771,0.53
		c-0.525,0.354-0.9,0.862-1.129,1.528c-0.227,0.666-0.34,1.771-0.34,3.314v7.812h-4.253V85.793H593.006z"/>
	<path fill="#1D4056" d="M620.767,85.793h3.967v2.361c0.515-0.807,1.211-1.463,2.089-1.967c0.878-0.506,1.852-0.758,2.921-0.758
		c1.867,0,3.451,0.731,4.753,2.194s1.953,3.502,1.953,6.115c0,2.685-0.656,4.771-1.968,6.26c-1.313,1.487-2.901,2.231-4.769,2.231
		c-0.888,0-1.693-0.178-2.414-0.529c-0.722-0.354-1.48-0.958-2.277-1.816v8.1h-4.254L620.767,85.793L620.767,85.793z
		 M624.975,93.559c0,1.808,0.358,3.142,1.075,4.004c0.716,0.863,1.589,1.295,2.619,1.295c0.989,0,1.812-0.396,2.467-1.188
		c0.656-0.792,0.984-2.091,0.984-3.897c0-1.685-0.338-2.937-1.014-3.754c-0.677-0.816-1.515-1.226-2.514-1.226
		c-1.04,0-1.901,0.399-2.588,1.203C625.318,90.797,624.975,91.984,624.975,93.559z"/>
	<path fill="#1D4056" d="M639.824,101.869V79.678h4.253v22.191H639.824z"/>
	<path fill="#1D4056" d="M648.438,83.613v-3.937h4.253v3.937H648.438z M648.438,101.869V85.793h4.253v16.076H648.438z"/>
	<path fill="#1D4056" d="M655.188,85.793h2.361v-1.211c0-1.352,0.145-2.361,0.433-3.027c0.286-0.666,0.816-1.207,1.589-1.627
		c0.771-0.418,1.749-0.628,2.929-0.628c1.211,0,2.396,0.183,3.557,0.545l-0.574,2.968c-0.677-0.162-1.327-0.242-1.953-0.242
		c-0.616,0-1.058,0.144-1.325,0.431c-0.268,0.289-0.401,0.841-0.401,1.658v1.135h3.18v3.347h-3.18v12.729h-4.253V89.141h-2.361
		V85.793z"/>
	<path fill="#1D4056" d="M665.36,85.793h4.525l3.845,11.414l3.755-11.414h4.404l-5.676,15.471l-1.014,2.801
		c-0.374,0.938-0.729,1.654-1.067,2.148s-0.727,0.896-1.165,1.203c-0.438,0.309-0.979,0.547-1.62,0.719
		c-0.641,0.172-1.364,0.258-2.172,0.258c-0.816,0-1.62-0.086-2.406-0.258l-0.379-3.33c0.666,0.131,1.267,0.197,1.802,0.197
		c0.988,0,1.72-0.29,2.194-0.871c0.475-0.58,0.837-1.318,1.091-2.217L665.36,85.793z"/>
	<path fill="#1D4056" d="M692.924,108.061l-0.303-2.559c0.595,0.16,1.115,0.242,1.559,0.242c0.605,0,1.091-0.102,1.453-0.303
		c0.363-0.203,0.661-0.484,0.894-0.849c0.171-0.272,0.448-0.948,0.833-2.028c0.05-0.15,0.131-0.373,0.242-0.666l-6.101-16.105h2.938
		l3.345,9.311c0.434,1.181,0.822,2.422,1.166,3.724c0.313-1.251,0.686-2.474,1.12-3.663l3.436-9.37h2.726l-6.115,16.349
		c-0.656,1.766-1.166,2.981-1.529,3.647c-0.484,0.897-1.04,1.558-1.665,1.976c-0.626,0.42-1.373,0.629-2.24,0.629
		C694.155,108.393,693.569,108.281,692.924,108.061z"/>
	<path fill="#1D4056" d="M707.531,93.831c0-2.978,0.827-5.183,2.481-6.614c1.382-1.191,3.067-1.787,5.057-1.787
		c2.21,0,4.016,0.726,5.419,2.172c1.402,1.449,2.104,3.449,2.104,6.002c0,2.069-0.311,3.696-0.932,4.883
		c-0.619,1.187-1.523,2.105-2.708,2.763c-1.187,0.656-2.48,0.983-3.883,0.983c-2.25,0-4.069-0.722-5.457-2.164
		C708.225,98.625,707.531,96.546,707.531,93.831z M710.331,93.831c0,2.06,0.449,3.601,1.347,4.624
		c0.898,1.023,2.028,1.537,3.392,1.537c1.352,0,2.477-0.516,3.375-1.545c0.897-1.029,1.347-2.598,1.347-4.707
		c0-1.988-0.452-3.494-1.354-4.518c-0.902-1.025-2.025-1.537-3.367-1.537c-1.362,0-2.493,0.51-3.392,1.528
		C710.78,90.234,710.331,91.771,710.331,93.831z"/>
	<path fill="#1D4056" d="M736.32,101.869v-2.361c-1.251,1.816-2.951,2.725-5.102,2.725c-0.947,0-1.834-0.182-2.656-0.545
		c-0.822-0.362-1.434-0.819-1.831-1.371c-0.398-0.549-0.68-1.223-0.841-2.02c-0.11-0.535-0.167-1.383-0.167-2.543v-9.961h2.726
		v8.916c0,1.423,0.056,2.382,0.167,2.876c0.172,0.717,0.535,1.278,1.09,1.688c0.555,0.408,1.241,0.611,2.059,0.611
		c0.818,0,1.584-0.21,2.302-0.628c0.717-0.419,1.224-0.989,1.521-1.711c0.297-0.721,0.446-1.769,0.446-3.141v-8.613h2.725v16.076
		L736.32,101.869L736.32,101.869z"/>
	<path fill="#1D4056" d="M742.996,101.869V85.793h2.451v2.438c0.626-1.141,1.204-1.893,1.732-2.256
		c0.53-0.363,1.112-0.545,1.749-0.545c0.918,0,1.853,0.293,2.8,0.879l-0.938,2.527c-0.666-0.395-1.332-0.59-1.998-0.59
		c-0.596,0-1.13,0.179-1.604,0.537c-0.476,0.357-0.813,0.855-1.016,1.49c-0.303,0.969-0.453,2.028-0.453,3.18v8.416H742.996z"/>
	<path fill="#1D4056" d="M760.872,97.07l2.695-0.424c0.149,1.08,0.571,1.906,1.264,2.481c0.69,0.575,1.657,0.863,2.897,0.863
		c1.252,0,2.181-0.257,2.785-0.767c0.605-0.509,0.908-1.105,0.908-1.793c0-0.615-0.268-1.1-0.803-1.453
		c-0.373-0.242-1.301-0.549-2.785-0.924c-1.998-0.504-3.383-0.939-4.154-1.309s-1.356-0.879-1.756-1.529
		c-0.398-0.65-0.598-1.369-0.598-2.156c0-0.717,0.163-1.381,0.491-1.99c0.328-0.61,0.773-1.117,1.34-1.521
		c0.424-0.313,1.001-0.577,1.732-0.795c0.731-0.217,1.517-0.325,2.354-0.325c1.262,0,2.369,0.182,3.322,0.545
		c0.954,0.362,1.658,0.854,2.11,1.477c0.455,0.621,0.769,1.451,0.939,2.49l-2.664,0.363c-0.121-0.828-0.473-1.475-1.053-1.938
		c-0.58-0.466-1.4-0.697-2.459-0.697c-1.252,0-2.146,0.207-2.681,0.621c-0.534,0.414-0.803,0.897-0.803,1.453
		c0,0.354,0.111,0.672,0.334,0.952c0.223,0.294,0.569,0.535,1.044,0.728c0.272,0.103,1.075,0.334,2.407,0.697
		c1.927,0.514,3.271,0.937,4.033,1.264c0.762,0.328,1.359,0.806,1.794,1.431c0.434,0.627,0.651,1.402,0.651,2.332
		c0,0.908-0.267,1.764-0.796,2.563c-0.529,0.804-1.295,1.424-2.293,1.863c-1,0.438-2.13,0.657-3.391,0.657
		c-2.09,0-3.682-0.434-4.776-1.303C761.874,100.063,761.175,98.775,760.872,97.07z"/>
	<path fill="#1D4056" d="M787.997,101.869v-2.361c-1.251,1.816-2.951,2.725-5.101,2.725c-0.948,0-1.834-0.182-2.656-0.545
		c-0.823-0.362-1.435-0.819-1.832-1.371c-0.398-0.549-0.68-1.223-0.84-2.02c-0.111-0.535-0.167-1.383-0.167-2.543v-9.961h2.725
		v8.916c0,1.423,0.056,2.382,0.167,2.876c0.172,0.717,0.535,1.278,1.09,1.688c0.555,0.408,1.241,0.611,2.06,0.611
		c0.817,0,1.584-0.21,2.301-0.628c0.717-0.419,1.224-0.989,1.521-1.711c0.297-0.721,0.446-1.769,0.446-3.141v-8.613h2.725v16.076
		L787.997,101.869L787.997,101.869z"/>
	<path fill="#1D4056" d="M794.674,101.869V85.793h2.451v2.438c0.626-1.141,1.204-1.893,1.733-2.256s1.111-0.545,1.749-0.545
		c0.918,0,1.852,0.293,2.8,0.879l-0.938,2.527c-0.666-0.395-1.332-0.59-1.998-0.59c-0.596,0-1.13,0.179-1.604,0.537
		c-0.476,0.357-0.813,0.855-1.016,1.49c-0.303,0.969-0.452,2.028-0.452,3.18v8.416H794.674z"/>
	<path fill="#1D4056" d="M804.526,103.201l2.648,0.393c0.11,0.818,0.418,1.413,0.923,1.787c0.677,0.504,1.601,0.756,2.771,0.756
		c1.261,0,2.233-0.252,2.921-0.756c0.687-0.506,1.15-1.211,1.393-2.119c0.143-0.556,0.207-1.721,0.196-3.496
		c-1.189,1.402-2.674,2.104-4.449,2.104c-2.211,0-3.921-0.797-5.132-2.393c-1.211-1.595-1.815-3.507-1.815-5.736
		c0-1.533,0.276-2.949,0.833-4.246c0.555-1.297,1.358-2.299,2.413-3.004c1.055-0.707,2.294-1.061,3.717-1.061
		c1.896,0,3.461,0.768,4.691,2.301v-1.938h2.514v13.896c0,2.502-0.256,4.275-0.766,5.32s-1.315,1.869-2.422,2.475
		c-1.104,0.605-2.465,0.908-4.079,0.908c-1.917,0-3.466-0.432-4.646-1.295C805.057,106.236,804.486,104.936,804.526,103.201z
		 M806.781,93.543c0,2.109,0.419,3.648,1.257,4.617s1.887,1.453,3.147,1.453c1.252,0,2.302-0.482,3.148-1.445
		c0.848-0.964,1.271-2.475,1.271-4.533c0-1.969-0.438-3.451-1.311-4.451c-0.873-0.998-1.925-1.498-3.156-1.498
		c-1.211,0-2.239,0.492-3.088,1.478C807.205,90.145,806.781,91.605,806.781,93.543z"/>
	<path fill="#1D4056" d="M833.271,96.691l2.814,0.349c-0.443,1.646-1.267,2.921-2.467,3.829c-1.201,0.908-2.735,1.363-4.602,1.363
		c-2.353,0-4.217-0.726-5.595-2.172c-1.377-1.449-2.065-3.479-2.065-6.095c0-2.702,0.696-4.803,2.09-6.297
		c1.393-1.492,3.197-2.239,5.418-2.239c2.15,0,3.906,0.731,5.268,2.194c1.363,1.463,2.044,3.521,2.044,6.176
		c0,0.162-0.005,0.404-0.015,0.728h-11.988c0.102,1.766,0.601,3.117,1.498,4.057c0.898,0.939,2.02,1.408,3.36,1.408
		c0.999,0,1.852-0.264,2.558-0.787C832.298,98.68,832.857,97.842,833.271,96.691z M824.325,92.287h8.977
		c-0.121-1.352-0.464-2.366-1.028-3.043c-0.868-1.049-1.993-1.574-3.375-1.574c-1.252,0-2.305,0.42-3.156,1.257
		C824.888,89.766,824.417,90.885,824.325,92.287z"/>
	<path fill="#1D4056" d="M839.479,101.869V85.793h2.451v2.438c0.626-1.141,1.204-1.893,1.733-2.256
		c0.53-0.363,1.112-0.545,1.749-0.545c0.918,0,1.852,0.293,2.8,0.879l-0.938,2.527c-0.666-0.395-1.331-0.59-1.997-0.59
		c-0.597,0-1.13,0.179-1.604,0.537c-0.475,0.357-0.813,0.855-1.015,1.49c-0.304,0.969-0.453,2.028-0.453,3.18v8.416H839.479z"/>
	<path fill="#1D4056" d="M849.709,108.061l-0.303-2.559c0.596,0.16,1.115,0.242,1.56,0.242c0.605,0,1.09-0.102,1.453-0.303
		c0.363-0.203,0.661-0.484,0.894-0.849c0.172-0.272,0.448-0.948,0.832-2.028c0.052-0.15,0.131-0.373,0.242-0.666l-6.1-16.105h2.936
		l3.347,9.311c0.434,1.181,0.821,2.422,1.166,3.724c0.313-1.251,0.686-2.474,1.118-3.663l3.438-9.37h2.725l-6.114,16.349
		c-0.656,1.766-1.165,2.981-1.528,3.647c-0.484,0.897-1.04,1.558-1.666,1.976c-0.625,0.42-1.372,0.629-2.24,0.629
		C850.939,108.393,850.355,108.281,849.709,108.061z"/>
	<path fill="#1D4056" d="M870.479,108.105l0.515-2.316c0.545,0.141,0.974,0.212,1.287,0.212c0.555,0,0.969-0.185,1.239-0.552
		c0.273-0.369,0.409-1.29,0.409-2.764V85.793h2.726v16.953c0,1.979-0.258,3.355-0.772,4.133c-0.655,1.01-1.745,1.514-3.27,1.514
		C871.875,108.393,871.164,108.297,870.479,108.105z M873.929,82.842v-3.164h2.726v3.164H873.929z"/>
	<path fill="#1D4056" d="M879.816,93.831c0-2.978,0.826-5.183,2.481-6.614c1.383-1.191,3.067-1.787,5.056-1.787
		c2.211,0,4.018,0.726,5.42,2.172c1.401,1.449,2.104,3.449,2.104,6.002c0,2.069-0.31,3.696-0.931,4.883
		c-0.62,1.187-1.523,2.105-2.709,2.763c-1.188,0.656-2.48,0.983-3.884,0.983c-2.25,0-4.068-0.722-5.457-2.164
		C880.51,98.625,879.816,96.546,879.816,93.831z M882.617,93.831c0,2.06,0.447,3.601,1.347,4.624
		c0.898,1.023,2.028,1.537,3.392,1.537c1.353,0,2.478-0.516,3.375-1.545s1.348-2.598,1.348-4.707c0-1.988-0.452-3.494-1.354-4.518
		c-0.902-1.025-2.025-1.537-3.368-1.537c-1.361,0-2.491,0.51-3.391,1.528C883.066,90.232,882.617,91.771,882.617,93.831z"/>
	<path fill="#1D4056" d="M908.605,101.869v-2.361c-1.25,1.816-2.95,2.725-5.101,2.725c-0.948,0-1.834-0.182-2.656-0.545
		c-0.822-0.362-1.434-0.819-1.831-1.371c-0.398-0.549-0.68-1.223-0.841-2.02c-0.11-0.535-0.167-1.383-0.167-2.543v-9.961h2.726
		v8.916c0,1.423,0.056,2.382,0.167,2.876c0.172,0.717,0.535,1.278,1.09,1.688c0.555,0.408,1.241,0.611,2.059,0.611
		c0.818,0,1.584-0.21,2.301-0.628c0.718-0.419,1.225-0.989,1.521-1.711c0.297-0.721,0.446-1.769,0.446-3.141v-8.613h2.725v16.076
		L908.605,101.869L908.605,101.869z"/>
	<path fill="#1D4056" d="M915.283,101.869V85.793h2.451v2.438c0.626-1.141,1.203-1.893,1.732-2.256
		c0.53-0.363,1.112-0.545,1.749-0.545c0.918,0,1.853,0.293,2.8,0.879l-0.938,2.527c-0.666-0.395-1.332-0.59-1.998-0.59
		c-0.596,0-1.13,0.179-1.604,0.537c-0.476,0.357-0.813,0.855-1.016,1.49c-0.303,0.969-0.453,2.028-0.453,3.18v8.416H915.283z"/>
	<path fill="#1D4056" d="M925.635,101.869V85.793h2.453v2.286c1.18-1.767,2.886-2.649,5.115-2.649c0.969,0,1.859,0.174,2.672,0.523
		c0.813,0.348,1.421,0.805,1.824,1.369c0.402,0.564,0.687,1.236,0.848,2.014c0.102,0.504,0.151,1.387,0.151,2.648v9.885h-2.726
		V92.09c0-1.109-0.105-1.939-0.316-2.49c-0.213-0.549-0.589-0.988-1.128-1.315c-0.54-0.328-1.173-0.492-1.899-0.492
		c-1.161,0-2.163,0.369-3.005,1.104c-0.843,0.736-1.265,2.136-1.265,4.193v8.779H925.635z"/>
	<path fill="#1D4056" d="M953.881,96.691l2.815,0.349c-0.444,1.646-1.268,2.921-2.468,3.829s-2.734,1.363-4.602,1.363
		c-2.352,0-4.216-0.726-5.594-2.172c-1.377-1.449-2.066-3.479-2.066-6.095c0-2.702,0.697-4.803,2.09-6.297
		c1.394-1.492,3.198-2.239,5.418-2.239c2.15,0,3.906,0.731,5.269,2.194c1.363,1.463,2.044,3.521,2.044,6.176
		c0,0.162-0.005,0.404-0.015,0.728h-11.988c0.101,1.766,0.6,3.117,1.498,4.057c0.897,0.939,2.019,1.408,3.36,1.408
		c0.998,0,1.852-0.264,2.558-0.787C952.907,98.68,953.467,97.842,953.881,96.691z M944.936,92.287h8.977
		c-0.121-1.352-0.464-2.366-1.029-3.043c-0.868-1.049-1.993-1.574-3.375-1.574c-1.252,0-2.304,0.42-3.156,1.257
		C945.497,89.766,945.026,90.885,944.936,92.287z"/>
	<path fill="#1D4056" d="M959.996,108.061l-0.303-2.559c0.596,0.16,1.114,0.242,1.56,0.242c0.604,0,1.09-0.102,1.453-0.303
		c0.363-0.203,0.661-0.484,0.894-0.849c0.172-0.272,0.448-0.948,0.832-2.028c0.051-0.15,0.131-0.373,0.242-0.666l-6.1-16.105h2.936
		l3.346,9.311c0.435,1.181,0.822,2.422,1.166,3.724c0.313-1.251,0.687-2.474,1.119-3.663l3.438-9.37h2.725l-6.115,16.349
		c-0.655,1.766-1.164,2.981-1.527,3.647c-0.484,0.897-1.04,1.558-1.666,1.976c-0.625,0.42-1.372,0.629-2.24,0.629
		C961.229,108.393,960.643,108.281,959.996,108.061z"/>
</g>
</svg>
