<?xml version="1.0" encoding="utf-8"?>
<!-- Generator: Adobe Illustrator 16.0.0, SVG Export Plug-In . SVG Version: 6.00 Build 0)  -->
<!DOCTYPE svg PUBLIC "-//W3C//DTD SVG 1.1//EN" "http://www.w3.org/Graphics/SVG/1.1/DTD/svg11.dtd">
<svg version="1.1" id="Layer_1" xmlns="http://www.w3.org/2000/svg" xmlns:xlink="http://www.w3.org/1999/xlink" x="0px" y="0px"
	 width="1440px" height="100px" viewBox="0 0 1440 100" enable-background="new 0 0 1440 100" xml:space="preserve">
<path fill="none" d="M1420,100H20C8.954,100,0,91.046,0,80V20C0,8.954,8.954,0,20,0h1400c11.046,0,20,8.954,20,20v60
	C1440,91.046,1431.046,100,1420,100z"/>
<path fill="#FFFFFF" d="M20,0h1400c11.046,0,20,8.954,20,20v60c0,11.046-8.954,20-20,20H20C8.954,100,0,91.046,0,80V20
	C0,8.954,8.954,0,20,0z"/>
<g opacity="0.2">
	<path opacity="0.13" fill="#0E82D3" enable-background="new    " d="M-723.918,432.669c0,0,355.428,164.687,738.077,69.962
		C396.808,407.906,352.97,150.746,806.68,53.752c453.711-96.994,655.301,149.924,1022.312,60.903
		c367.02-89.021,445.78-416.984,445.78-416.984l196.75,977.017L-648.821,1191.4L-723.918,432.669L-723.918,432.669z"/>
	<path opacity="0.13" fill="#0E82D3" enable-background="new    " d="M-711.468,680.734c0,0,378.097,94.698,735.884-46.582
		c357.787-141.281,268.267-364.743,695.273-518.557c427.011-153.812,669.25,37.16,1012.761-96.71
		c343.51-133.87,361.28-438.763,361.28-438.763l369.729,844.514L-500.475,1348.06L-711.468,680.734L-711.468,680.734z"/>
	<path opacity="0.13" fill="#0E82D3" enable-background="new    " d="M2162.48,391.716c0,0-355.431,164.688-738.08,69.962
		c-382.65-94.725-338.811-351.885-792.518-448.879C178.174-84.195-23.414,162.723-390.431,73.702
		C-757.447-15.32-836.208-343.282-836.208-343.282l-196.752,977.018l3120.34,516.715L2162.48,391.716L2162.48,391.716z"/>
	<path opacity="0.13" fill="#0E82D3" enable-background="new    " d="M2201.62,680.734c0,0-378.09,94.698-735.88-46.581
		S1197.47,269.41,770.467,115.598C343.46-38.215,101.222,152.754-242.291,18.888c-343.514-133.866-361.287-438.765-361.287-438.765
		L-973.3,424.636l2963.93,923.425L2201.62,680.734L2201.62,680.734z"/>
</g>
<path fill="#06CBB1" d="M1204,20h166c5.522,0,10,4.477,10,10v40c0,5.523-4.478,10-10,10h-166c-5.522,0-10-4.477-10-10V30
	C1194,24.477,1198.478,20,1204,20z"/>
<path fill="#FFFFFF" d="M1219.74,58c-1.04,0-1.561-0.527-1.561-1.584V42.568c0-1.04,0.521-1.56,1.54-1.56
	c1.021,0,1.54,0.52,1.54,1.56v12.816h6.96c0.891,0,1.34,0.433,1.34,1.296c0,0.881-0.449,1.32-1.34,1.32H1219.74z M1237.04,58.24
	c-1.33,0-2.47-0.248-3.43-0.744s-1.71-1.2-2.23-2.112c-0.52-0.911-0.77-1.991-0.77-3.239c0-1.217,0.25-2.28,0.739-3.192
	c0.489-0.889,1.212-1.628,2.09-2.136c0.9-0.528,1.91-0.792,3.051-0.792c1.66,0,2.97,0.528,3.93,1.584
	c0.98,1.056,1.47,2.496,1.47,4.32c0,0.592-0.39,0.889-1.149,0.889h-7.25c0.22,2.096,1.42,3.144,3.6,3.144
	c0.41,0,0.88-0.048,1.391-0.144c0.521-0.11,1.022-0.297,1.489-0.553c0.41-0.24,0.771-0.312,1.05-0.216
	c0.291,0.08,0.49,0.248,0.601,0.504c0.13,0.257,0.149,0.544,0.05,0.864c-0.08,0.304-0.3,0.568-0.67,0.792
	c-0.561,0.353-1.21,0.616-1.939,0.792C1238.34,58.16,1237.66,58.24,1237.04,58.24z M1236.61,48.064c-0.88,0-1.591,0.272-2.141,0.816
	c-0.54,0.544-0.87,1.28-0.979,2.208h5.899c-0.06-0.976-0.329-1.72-0.81-2.232C1238.11,48.328,1237.46,48.064,1236.61,48.064z
	 M1248.13,58.24c-0.85,0-1.61-0.16-2.28-0.48c-0.66-0.336-1.18-0.783-1.56-1.344c-0.37-0.561-0.55-1.191-0.55-1.896
	c0-0.863,0.22-1.543,0.67-2.039c0.449-0.513,1.17-0.881,2.18-1.104s2.36-0.336,4.061-0.336h0.84v-0.504
	c0-0.8-0.181-1.376-0.53-1.728s-0.94-0.528-1.78-0.528c-0.46,0-0.96,0.056-1.51,0.168c-0.58,0.129-1.144,0.322-1.68,0.576
	c-0.381,0.176-0.7,0.2-0.96,0.072c-0.25-0.144-0.431-0.36-0.53-0.648c-0.08-0.304-0.061-0.608,0.05-0.912
	c0.13-0.304,0.38-0.528,0.75-0.672c0.73-0.304,1.44-0.521,2.11-0.648c0.689-0.128,1.31-0.192,1.87-0.192c1.71,0,2.979,0.4,3.819,1.2
	c0.83,0.784,1.24,2.008,1.24,3.672v5.76c0,1.023-0.46,1.535-1.39,1.535c-0.94,0-1.41-0.512-1.41-1.535v-0.528
	c-0.265,0.64-0.719,1.185-1.3,1.56C1249.649,58.057,1248.939,58.24,1248.13,58.24L1248.13,58.24z M1248.75,56.176
	c0.79,0,1.43-0.271,1.95-0.816c0.52-0.543,0.79-1.231,0.79-2.063v-0.528h-0.82c-1.5,0-2.55,0.121-3.14,0.36
	c-0.58,0.224-0.87,0.64-0.87,1.248c0,0.528,0.189,0.96,0.56,1.296C1247.58,56.008,1248.1,56.176,1248.75,56.176L1248.75,56.176z
	 M1258.92,58.191c-1.02,0-1.53-0.512-1.53-1.535v-9.072c0-1.008,0.49-1.512,1.46-1.512c0.98,0,1.471,0.504,1.471,1.512v0.744
	c0.569-1.376,1.8-2.144,3.689-2.304c0.69-0.08,1.07,0.312,1.15,1.176c0.08,0.848-0.33,1.32-1.24,1.416l-0.53,0.048
	c-1.97,0.192-2.95,1.2-2.95,3.023v4.969C1260.439,57.68,1259.93,58.191,1258.92,58.191L1258.92,58.191z M1268.27,58.191
	c-0.989,0-1.479-0.512-1.479-1.535v-9.072c0-1.008,0.479-1.512,1.46-1.512s1.46,0.504,1.46,1.512v0.504
	c0.4-0.672,0.94-1.184,1.61-1.536c0.689-0.352,1.46-0.528,2.31-0.528c2.76,0,4.15,1.608,4.15,4.824v5.809
	c0,1.023-0.5,1.535-1.49,1.535c-1.01,0-1.51-0.512-1.51-1.535v-5.664c0-0.912-0.181-1.576-0.53-1.992
	c-0.34-0.416-0.86-0.624-1.58-0.624c-0.88,0-1.59,0.28-2.12,0.84c-0.51,0.544-0.76,1.272-0.76,2.185v5.256
	C1269.79,57.68,1269.28,58.191,1268.27,58.191z M1289.07,58.191c-0.931,0-1.391-0.479-1.391-1.439V42.328
	c0-0.96,0.48-1.44,1.44-1.44c0.399,0,0.71,0.08,0.93,0.24c0.24,0.144,0.46,0.4,0.65,0.768l5.55,10.249l5.54-10.249
	c0.19-0.368,0.4-0.624,0.62-0.768c0.23-0.16,0.54-0.24,0.939-0.24c0.931,0,1.391,0.48,1.391,1.44v14.424
	c0,0.96-0.46,1.439-1.391,1.439c-0.93,0-1.39-0.479-1.39-1.439V46.6l-4.51,8.232c-0.16,0.271-0.33,0.473-0.51,0.6
	c-0.171,0.129-0.41,0.192-0.721,0.192c-0.3,0-0.55-0.063-0.739-0.192c-0.208-0.164-0.381-0.368-0.511-0.6l-4.51-8.184v10.104
	C1290.46,57.712,1290,58.191,1289.07,58.191z M1313.53,58.24c-1.22,0-2.271-0.248-3.17-0.744c-0.885-0.489-1.61-1.223-2.091-2.112
	c-0.489-0.928-0.739-2.016-0.739-3.264s0.25-2.328,0.739-3.24c0.5-0.912,1.2-1.616,2.091-2.112c0.899-0.496,1.949-0.744,3.17-0.744
	c1.22,0,2.27,0.248,3.17,0.744c0.89,0.496,1.59,1.2,2.09,2.112c0.49,0.912,0.74,1.992,0.74,3.24s-0.25,2.336-0.74,3.264
	c-0.5,0.912-1.2,1.616-2.09,2.112C1315.8,57.992,1314.75,58.24,1313.53,58.24z M1313.53,55.96c0.899,0,1.62-0.319,2.16-0.96
	c0.54-0.656,0.819-1.616,0.819-2.88c0-1.28-0.279-2.232-0.819-2.856c-0.54-0.64-1.261-0.96-2.16-0.96c-0.9,0-1.62,0.32-2.16,0.96
	c-0.54,0.624-0.82,1.576-0.82,2.856c0,1.264,0.28,2.224,0.82,2.88C1311.91,55.641,1312.63,55.96,1313.53,55.96z M1323.54,58.191
	c-1.021,0-1.53-0.512-1.53-1.535v-9.072c0-1.008,0.48-1.512,1.46-1.512c0.98,0,1.46,0.504,1.46,1.512v0.744
	c0.58-1.376,1.811-2.144,3.7-2.304c0.69-0.08,1.07,0.312,1.15,1.176c0.079,0.848-0.33,1.32-1.25,1.416l-0.521,0.048
	c-1.97,0.192-2.96,1.2-2.96,3.023v4.969C1325.05,57.68,1324.55,58.191,1323.54,58.191L1323.54,58.191z M1337,58.24
	c-1.33,0-2.47-0.248-3.43-0.744c-0.961-0.496-1.71-1.2-2.23-2.112c-0.52-0.911-0.77-1.991-0.77-3.239c0-1.217,0.25-2.28,0.739-3.192
	c0.489-0.889,1.212-1.628,2.091-2.136c0.899-0.528,1.909-0.792,3.05-0.792c1.66,0,2.97,0.528,3.93,1.584
	c0.98,1.056,1.47,2.496,1.47,4.32c0,0.592-0.39,0.889-1.149,0.889h-7.25c0.22,2.096,1.42,3.144,3.6,3.144
	c0.41,0,0.88-0.048,1.39-0.144c0.521-0.11,1.023-0.297,1.49-0.553c0.41-0.24,0.771-0.312,1.051-0.216
	c0.289,0.08,0.489,0.248,0.6,0.504c0.13,0.257,0.15,0.544,0.05,0.864c-0.08,0.304-0.3,0.568-0.67,0.792
	c-0.56,0.353-1.21,0.616-1.94,0.792C1338.3,58.16,1337.62,58.24,1337,58.24z M1336.57,48.064c-0.881,0-1.59,0.272-2.141,0.816
	c-0.54,0.544-0.87,1.28-0.979,2.208h5.899c-0.06-0.976-0.33-1.72-0.81-2.232C1338.07,48.328,1337.42,48.064,1336.57,48.064z"/>
<path fill="none" stroke="#FFFFFF" stroke-width="2" stroke-linecap="round" stroke-linejoin="round" d="M1356,57l4-6l-4-6"/>
<defs>
	<filter id="Adobe_OpacityMaskFilter" filterUnits="userSpaceOnUse" x="49.375" y="8.046" width="71.351" height="110.764">
		<feColorMatrix  type="matrix" values="1 0 0 0 0  0 1 0 0 0  0 0 1 0 0  0 0 0 1 0"/>
	</filter>
</defs>
<mask maskUnits="userSpaceOnUse" x="49.375" y="8.046" width="71.351" height="110.764" id="b">
	<path fill="#FFFFFF" filter="url(#Adobe_OpacityMaskFilter)" d="M20,0h1400c11.046,0,20,8.954,20,20v60c0,11.046-8.954,20-20,20H20
		C8.954,100,0,91.046,0,80V20C0,8.954,8.954,0,20,0z"/>
</mask>
<g mask="url(#b)">
	<path fill="#FFFFFF" stroke="#707070" stroke-width="0.7" d="M82.064,52.03l6.742,5.846l-15.837,1.449c0,0-5.594-1.117-5.336-1.315
		C70.675,53.143,76.47,50.74,82.064,52.03L82.064,52.03z M95.138,71.109l-0.327,7.735l5.173,1.159l3.968-7.959L95.138,71.109z"/>
	<path fill="#FFFFFF" d="M56.23,74.217l-5.85,13.367l6.97,4.691c0.088,2.545,0.07,5.092-0.056,7.634
		c-0.134,2.584-0.382,5.161-0.743,7.724c11.125,12.148,29.572,14.072,42.965,4.482c-1.419-6.742-2.211-13.602-2.366-20.489
		c0.272-4.938,0.542-9.876,0.812-14.813l-2.15-11.797l-13.13,4.674l-9.222,1.649L56.23,74.217L56.23,74.217z M68.101,55.46
		c-0.207,0.076-0.415,0.163-0.64,0.251c1.219-0.479,2.298-1.257,3.14-2.26c1.452-1.832,2.125-4.163,1.874-6.487
		c-3.048-2.411-5.344-5.642-6.618-9.313c-0.784-2.334-1.106-4.799-0.951-7.257c0.187-2.256,0.273-3.458,1.047-4.63
		c2.21-3.342,6.743-0.885,11.917-4.584c3.553-2.558,4.083-4.917,6.192-4.817c3.836,0.185,6.13,8.14,6.332,8.899
		c1.001,3.848,0.9,7.9-0.293,11.693c-1.234,3.918-3.527,7.418-6.626,10.114c-0.439,1.624-0.238,3.354,0.56,4.833
		c0.882,1.381,2.23,2.399,3.8,2.871"/>
	<path fill="none" stroke="#2D2D2D" stroke-width="0.7" stroke-miterlimit="10" d="M68.101,55.46
		c-0.207,0.076-0.415,0.163-0.64,0.251c1.219-0.479,2.298-1.257,3.14-2.26c1.452-1.832,2.125-4.163,1.874-6.487
		c-3.048-2.411-5.344-5.642-6.618-9.313c-0.784-2.334-1.106-4.799-0.951-7.257c0.187-2.256,0.273-3.458,1.047-4.63
		c2.21-3.342,6.743-0.885,11.917-4.584c3.553-2.558,4.083-4.917,6.192-4.817c3.836,0.185,6.13,8.14,6.332,8.899
		c1.001,3.848,0.9,7.9-0.293,11.693c-1.234,3.918-3.527,7.418-6.626,10.114c-0.439,1.624-0.238,3.354,0.56,4.833
		c0.882,1.381,2.23,2.399,3.8,2.871"/>
	<path fill="#FFFFFF" stroke="#2D2D2D" stroke-width="0.7" stroke-miterlimit="10" d="M78.086,48.339
		c7.297-0.069,13.138-8.066,13.045-17.861c-0.092-9.796-6.082-17.682-13.38-17.613c-7.297,0.069-13.138,8.066-13.045,17.861
		C64.798,40.522,70.788,48.407,78.086,48.339z"/>
	<path fill="none" stroke="#2D2D2D" stroke-width="0.7" stroke-linecap="round" stroke-miterlimit="10" d="M52.606,118.461
		c2.67-5.556,4.311-11.551,4.841-17.691c0.152-1.814,0.203-3.635,0.154-5.453 M101.074,118.004
		c-1.752-6.282-2.846-12.73-3.265-19.238c0,0-0.185-5.98-0.082-8.695"/>
	<path fill="#FFFFFF" stroke="#2D2D2D" stroke-width="0.7" stroke-linecap="round" stroke-miterlimit="10" d="M90.273,36.683
		c3.41-1.644,4.678-4.684,3.843-6.346c-0.672-1.339-2.632-1.627-3.092-1.683C91.245,31.354,90.991,34.071,90.273,36.683
		L90.273,36.683L90.273,36.683z M65.056,36.267c-3.213-1.591-4.357-4.631-3.47-6.336c0.729-1.012,1.871-1.648,3.115-1.734
		C64.342,30.887,64.462,33.619,65.056,36.267L65.056,36.267z"/>
	<path fill="#C4C4C4" stroke="#2D2D2D" stroke-width="0.7" stroke-linecap="round" stroke-miterlimit="10" d="M79.799,79.576
		c-2.069,0.341-6.927,2.357-12.286,3.113l-17.758,2.23c0,0-2.27,19.197,33.215,4.523c0,0,1.492-0.688,1.363-1.951
		S82.476,79.135,79.799,79.576L79.799,79.576z"/>
	<path fill="#FFFFFF" d="M61.368,77.762c0.047,4.986,4.066,5.223,6.145,4.93c5.36-0.758,10.217-2.773,12.285-3.114
		c2.678-0.44,4.406,6.653,4.535,7.917s-1.363,1.951-1.363,1.951c-35.485,14.674-33.216-4.523-33.216-4.523
		c0.391-22.26,7.325-25.387,7.325-25.387c3.08-2.1,6.686-4.178,10.392-4.568c1.665-0.428,3.432-0.176,4.912,0.698
		c3.443,2.2,8.321,2.004,10.758,0.099c1.376-0.932,3.063-1.285,4.697-0.988c0.105,0.014,0.264,0.035,0.457,0.064
		c5.146,0.74,9.933,3.066,13.695,6.655c1.627,1.657,1.749,4.258,4.266,9.511"/>
	<path fill="none" stroke="#2D2D2D" stroke-width="0.7" stroke-linecap="round" stroke-miterlimit="10" d="M61.368,77.762
		c0.047,4.986,4.066,5.223,6.145,4.93c5.36-0.758,10.217-2.773,12.285-3.114c2.678-0.44,4.406,6.653,4.535,7.917
		s-1.363,1.951-1.363,1.951c-35.485,14.674-33.216-4.523-33.216-4.523c0.391-22.26,7.325-25.387,7.325-25.387
		c3.08-2.1,6.686-4.178,10.392-4.568c1.665-0.428,3.432-0.176,4.912,0.698c3.443,2.2,8.321,2.004,10.758,0.099
		c1.376-0.932,3.063-1.285,4.697-0.988c0.105,0.014,0.264,0.035,0.457,0.064c5.146,0.74,9.933,3.066,13.695,6.655
		c1.627,1.657,1.749,4.258,4.266,9.511"/>
	<path fill="none" stroke="#2D2D2D" stroke-width="0.7" stroke-linecap="round" stroke-miterlimit="10" d="M91.086,67.454
		c-0.412-4.301-1.345-8.535-2.777-12.611"/>
	<path fill="#FF8E93" stroke="#2D2D2D" stroke-width="0.7" stroke-miterlimit="10" d="M91.303,70.967
		c1.161-0.011,2.092-0.961,2.081-2.121c-0.011-1.16-0.96-2.093-2.121-2.082c-1.161,0.012-2.093,0.961-2.082,2.122
		C89.192,70.046,90.143,70.979,91.303,70.967z"/>
	<path fill="none" stroke="#2D2D2D" stroke-width="0.7" stroke-linecap="round" stroke-miterlimit="10" d="M67.55,78.234
		c-0.96,0.744-2.224,0.971-3.384,0.608c-3.812-1.792-3.2-16.396,1.492-18.002c4.859-1.667,14.61,10.431,12.567,14.046
		c-0.413,0.73-1.37,1.23-3.122,1.353"/>
	<path fill="#FF8E93" stroke="#2D2D2D" stroke-width="0.7" stroke-miterlimit="10" d="M67.25,79.845
		c0.85,0.022,1.557-0.649,1.579-1.499c0.022-0.851-0.649-1.558-1.5-1.58c-0.036,0-0.071,0-0.107,0.002
		c-0.85,0.037-1.508,0.756-1.471,1.605C65.787,79.182,66.442,79.824,67.25,79.845L67.25,79.845z M74.06,78.126
		c0.851,0.012,1.549-0.668,1.561-1.519s-0.668-1.549-1.519-1.561c-0.024-0.001-0.048,0-0.073,0c-0.85,0.028-1.516,0.74-1.488,1.59
		C72.569,77.459,73.238,78.115,74.06,78.126z"/>
	<path fill="#86BCFF" d="M91.097,31.451c0.045,2.873-0.445,13.617-10.022,16.93c-2.092,0.729-4.369,0.732-6.462,0.008
		c-4.032-1.405-10.293-5.535-9.892-17.502c0.008-0.117-0.13-0.168-0.01-0.16l0.01,0.16c-0.096,0.354-0.093,0.728,0.01,1.08
		c1.414,1.76,6.453-0.738,12.45-0.795c6.23-0.058,12.155,2.126,13.854,0.814"/>
	<path fill="none" stroke="#2D2D2D" stroke-width="0.7" stroke-linecap="round" stroke-miterlimit="10" d="M91.097,31.451
		c0.045,2.873-0.445,13.617-10.022,16.93c-2.092,0.729-4.369,0.732-6.462,0.008c-4.032-1.405-10.293-5.535-9.892-17.502
		c0.008-0.117-0.13-0.168-0.01-0.16l0.01,0.16c-0.096,0.354-0.093,0.728,0.01,1.08c1.414,1.76,6.453-0.738,12.45-0.795
		c6.23-0.058,12.155,2.126,13.854,0.814"/>
	<path fill="#FFFFFF" d="M96.388,81.018c-1.103,1.758-1.496,3.869-1.101,5.907c0.357,2.284,4.045,4.605,6.356,4.556
		c1.547-0.298,2.957-1.088,4.019-2.252c2.356-2.931,0.6-18.225,0.6-18.225"/>
	<path fill="none" stroke="#2D2D2D" stroke-width="0.7" stroke-linecap="round" stroke-miterlimit="10" d="M96.388,81.018
		c-1.103,1.758-1.496,3.869-1.101,5.907c0.357,2.284,4.045,4.605,6.356,4.556c1.547-0.298,2.957-1.088,4.019-2.252
		c2.356-2.931,0.6-18.225,0.6-18.225"/>
	<path fill="#86BCFF" stroke="#2D2D2D" stroke-width="0.7" stroke-linecap="round" stroke-miterlimit="10" d="M97.264,83.195
		c0,0,0.524,3.361,4.663,2.785c4.14-0.573,3.107-13.307,4.215-15.027c1.107-1.721,5.501-5.188,6.888-7.029
		c1.387-1.842,3.195-3.984,3.195-3.984s3.598-5.875,4.138-8.24c0,0,0.197-1.478-0.996-1.29c0,0-0.702,0.067-0.84,0.303
		c0,0-0.083-1.356-1.206-1.169c-0.862,0.31-1.404,1.166-1.315,2.078c-0.125,1.45-0.492,2.87-1.084,4.199
		c0,0-0.107-3.774-1.034-5.299c-0.231-0.583-0.891-0.867-1.473-0.635c-0.376,0.15-0.645,0.489-0.703,0.891
		c0.075,0.529,0.675,4.537,0.614,5.363c-0.015,0.445-0.158,0.877-0.411,1.242c0,0-0.283-0.232-0.435-1.41
		c-0.151-1.178-0.524-3.535-1.787-3.229c-0.627,0.066-1.082,0.628-1.016,1.256c0.004,0.038,0.01,0.075,0.018,0.112
		c-1.216,1.685-2.317,3.449-3.294,5.283c-1.102,2.252-3.872,6.527-4.283,7.652c-0.412,1.125-3.871,14.2-3.871,14.2
		c-0.179,0.639-0.173,1.314,0.017,1.95l0,0V83.195z"/>
	<path fill="#86BCFF" d="M108.809,54.163c0.337,1.044,0.486,2.14,0.439,3.235c-0.09,1.51,0.065,3.022,0.458,4.482"/>
	<path fill="none" stroke="#2D2D2D" stroke-width="0.7" stroke-linecap="round" stroke-miterlimit="10" d="M108.809,54.163
		c0.337,1.044,0.486,2.14,0.439,3.235c-0.09,1.51,0.065,3.022,0.458,4.482"/>
	<path fill="#86BCFF" d="M112.028,57.438c0,0-0.218,0.359,0.662,2.812L112.028,57.438z"/>
	<path fill="none" stroke="#2D2D2D" stroke-width="0.7" stroke-linecap="round" stroke-miterlimit="10" d="M112.028,57.438
		c0,0-0.218,0.359,0.662,2.812"/>
	<path fill="#86BCFF" d="M109.249,57.105c-0.28,0.836-0.472,1.699-0.574,2.576L109.249,57.105z"/>
	<path fill="none" stroke="#2D2D2D" stroke-width="0.7" stroke-linecap="round" stroke-miterlimit="10" d="M109.249,57.105
		c-0.28,0.836-0.472,1.699-0.574,2.576"/>
	<path fill="#86BCFF" d="M118.501,50.747c-0.197,1.196-0.457,2.381-0.778,3.55L118.501,50.747z"/>
	<path fill="none" stroke="#2D2D2D" stroke-width="0.7" stroke-linecap="round" stroke-miterlimit="10" d="M118.501,50.747
		c-0.197,1.196-0.457,2.381-0.778,3.55"/>
	<path fill="none" stroke="#2D2D2D" stroke-width="0.7" stroke-linecap="round" stroke-linejoin="bevel" d="M97.16,72.854
		c0,0,0.258,2.94-0.646,4.041"/>
	<path fill="#FFFFFF" d="M95.637,82.641c0.967-1.938,1.622-4.017,1.94-6.158c0,0-0.299-1.994,2.552-0.99
		c2.85,1.005,5.157,1.385,6.169,0.775c1.011-0.61,1.775,0.03,1.402,0.711c-0.495,2.206-0.778,4.455-0.845,6.715"/>
	<path fill="none" stroke="#2D2D2D" stroke-width="0.7" stroke-linecap="round" stroke-linejoin="bevel" d="M95.637,82.641
		c0.967-1.938,1.622-4.017,1.94-6.158c0,0-0.299-1.994,2.552-0.99c2.85,1.005,5.157,1.385,6.169,0.775
		c1.011-0.61,1.775,0.03,1.402,0.711c-0.495,2.206-0.778,4.455-0.845,6.715"/>
	<path fill="#FFFFFF" d="M105.206,82.157l-0.831,5.587l-8.706-1.48l1.373-4.395L105.206,82.157z"/>
	<path fill="#86BCFF" stroke="#2D2D2D" stroke-width="0.7" stroke-linecap="round" stroke-miterlimit="10" d="M96.8,72.365
		c1.495,0.568,2.416,2.077,2.236,3.667c0.033,4.979-2.733,4.684-2.733,4.684c-0.5,1.445-3.734,2.07-3.734,2.07
		c-1.136,1.362-2.093,0.92-2.093,0.92c-0.863,0.415-1.797,0.661-2.753,0.726c-1.407,0.341-2.712,1.011-3.81,1.954
		c-0.258,0.287-0.579,0.511-0.938,0.652c-3.868-0.25-4.602-3.541-4.694-5.496c-0.033-0.714,0.44-1.354,1.133-1.532
		c1.091-0.295,2.946-1.261,5.273-4.27C84.687,75.734,88.549,70.307,96.8,72.365z"/>
	<path fill="#86BCFF" d="M87.221,78.075c0.584,0.626,1.212,1.21,1.881,1.745c0.73,0.537-0.799,1.726-0.834,2.104
		c-0.035,0.377-0.317,1.098,0.513,1.615c0.83,0.518,2.098-0.648,2.599-1.696c0.705-1.144,0.723-2.581,0.047-3.741
		c-0.571-0.746-1.202-1.443-1.886-2.086"/>
	<path fill="none" stroke="#2D2D2D" stroke-width="0.7" stroke-linecap="round" stroke-miterlimit="10" d="M87.221,78.075
		c0.584,0.626,1.212,1.21,1.881,1.745c0.73,0.537-0.799,1.726-0.834,2.104c-0.035,0.377-0.317,1.098,0.513,1.615
		c0.83,0.518,2.098-0.648,2.599-1.696c0.705-1.144,0.723-2.581,0.047-3.741c-0.571-0.746-1.202-1.443-1.886-2.086"/>
	<path fill="#86BCFF" d="M92.57,82.786c0.959-0.945,1.637-2.137,1.961-3.443c0.513-1.556-0.072-3.264-1.43-4.18"/>
	<path fill="none" stroke="#2D2D2D" stroke-width="0.7" stroke-linecap="round" stroke-miterlimit="10" d="M92.57,82.786
		c0.959-0.945,1.637-2.137,1.961-3.443c0.513-1.556-0.072-3.264-1.43-4.18"/>
	<path fill="#86BCFF" d="M96.15,81.02c1.542-1.981,0.977-4.086,0.852-6.004c-0.149-0.443-0.401-0.846-0.735-1.173"/>
	<path fill="none" stroke="#2D2D2D" stroke-width="0.7" stroke-linecap="round" stroke-miterlimit="10" d="M96.15,81.02
		c1.542-1.981,0.977-4.086,0.852-6.004c-0.149-0.443-0.401-0.846-0.735-1.173"/>
	<path fill="#FFFFFF" d="M73.727,81.316c0,0,3.885-1.225,5.29-1.577c1.405-0.353,1.385-0.132,1.385-0.132
		c4.68,2.045,3.81,8.638,3.81,8.638c-0.416,0.692-1.072,1.208-1.844,1.448c-1.192,0.293-2.331,0.994-4.741,1.811"/>
	<path fill="none" stroke="#2D2D2D" stroke-width="0.7" stroke-linecap="round" stroke-linejoin="round" d="M73.727,81.316
		c0,0,3.885-1.225,5.29-1.577c1.405-0.353,1.385-0.132,1.385-0.132c4.68,2.045,3.81,8.638,3.81,8.638
		c-0.416,0.692-1.072,1.208-1.844,1.448c-1.192,0.293-2.331,0.994-4.741,1.811"/>
	<path fill="#474747" stroke="#2D2D2D" stroke-width="0.7" stroke-miterlimit="10" d="M64.702,28.197c0,0,1.452-4.76,5.127-4.184
		c3.674,0.576,14.146,1.334,15.84-3.574c0,0-14.32-3.902-18.94-0.922C66.729,19.517,64.496,26,64.702,28.197z"/>
	<path fill="#86BCFF" stroke="#2D2D2D" stroke-width="0.7" stroke-linecap="round" stroke-miterlimit="10" d="M64.811,26.122
		c0,0,1.786-5.11,13.055-4.942c11.268,0.168,12.53,4.08,12.53,4.08s0.526,2.786,1.847,0.602c0,0,2.693-3.248,1.23-6.01
		c0,0-0.195-4.55-3.407-5.853c0,0-2.024-4.847-6.682-4.31c0,0-5.802-2.948-9.992,0.06c0,0-6.325,0.363-7.511,4.149
		c0,0-2.974,1.693-2.49,6.352C62.654,22.315,63.212,24.621,64.811,26.122L64.811,26.122z"/>
	<path fill="none" stroke="#2D2D2D" stroke-width="0.7" stroke-linecap="round" stroke-miterlimit="10" d="M65.653,60.84
		c0,0-0.308-4.518,1.813-5.873"/>
	<path fill="#FF8E93" stroke="#2D2D2D" stroke-width="0.7" stroke-miterlimit="10" d="M80.507,14.68l-0.884,0.014
		c-0.153,0.002-0.28-0.119-0.284-0.272l-0.017-0.841c-0.06-0.494-0.507-0.846-1.001-0.787c-0.412,0.049-0.736,0.373-0.786,0.785
		l0.018,0.871c0,0.154-0.125,0.28-0.28,0.28l-0.938,0.017c-0.492-0.005-0.895,0.39-0.9,0.882c0,0.001,0,0.002,0,0.003
		c0.027,0.49,0.445,0.866,0.935,0.84l0.938-0.026c0.154-0.009,0.287,0.109,0.296,0.263l0.018,0.848
		c0.008,0.408,0.302,0.753,0.703,0.828c0.486,0.101,0.963-0.212,1.063-0.699c0.011-0.05,0.017-0.102,0.019-0.153l-0.017-0.862
		c-0.001-0.153,0.123-0.279,0.276-0.28c0,0,0.001,0,0.002,0l0.882-0.024c0.473-0.005,0.854-0.389,0.856-0.862
		c-0.014-0.474-0.409-0.847-0.882-0.833c-0.002,0-0.005,0-0.008,0L80.507,14.68L80.507,14.68z"/>
</g>
<g>
	<path fill="#386F96" d="M245.634,37.392l-3.587-13.305l-3.633,13.305c-0.283,1.009-0.507,1.733-0.673,2.172
		c-0.167,0.438-0.457,0.832-0.871,1.181c-0.414,0.348-0.964,0.522-1.65,0.522c-0.555,0-1.012-0.104-1.37-0.31
		c-0.358-0.207-0.648-0.5-0.87-0.878c-0.222-0.379-0.404-0.828-0.545-1.348c-0.142-0.52-0.268-1.001-0.378-1.445l-3.693-14.94
		c-0.222-0.868-0.333-1.529-0.333-1.983c0-0.575,0.202-1.06,0.605-1.453c0.403-0.394,0.903-0.59,1.499-0.59
		c0.817,0,1.367,0.263,1.65,0.787c0.282,0.525,0.53,1.287,0.742,2.286l2.906,12.957l3.254-12.125
		c0.242-0.928,0.459-1.635,0.651-2.119c0.191-0.484,0.504-0.903,0.938-1.256c0.434-0.353,1.024-0.53,1.771-0.53
		c0.757,0,1.345,0.184,1.763,0.552c0.419,0.369,0.709,0.77,0.871,1.204c0.161,0.434,0.378,1.15,0.651,2.149l3.285,12.125
		l2.906-12.957c0.141-0.676,0.275-1.206,0.401-1.589c0.126-0.383,0.343-0.727,0.651-1.029c0.308-0.303,0.754-0.454,1.339-0.454
		c0.585,0,1.083,0.194,1.491,0.583c0.409,0.389,0.613,0.876,0.613,1.461c0,0.414-0.111,1.075-0.333,1.983l-3.693,14.94
		c-0.252,1.009-0.462,1.748-0.628,2.218c-0.167,0.469-0.449,0.88-0.848,1.233c-0.399,0.353-0.961,0.53-1.688,0.53
		c-0.687,0-1.236-0.172-1.65-0.515c-0.414-0.343-0.702-0.729-0.863-1.158C246.153,39.165,245.926,38.431,245.634,37.392z"/>
	<path fill="#386F96" d="M273.41,32.866c0,1.231-0.192,2.367-0.575,3.406c-0.384,1.04-0.938,1.933-1.665,2.679
		c-0.727,0.747-1.595,1.319-2.604,1.718c-1.009,0.399-2.145,0.598-3.406,0.598c-1.251,0-2.376-0.202-3.375-0.605
		s-1.864-0.981-2.596-1.733c-0.731-0.752-1.286-1.64-1.665-2.664c-0.378-1.024-0.567-2.157-0.567-3.398
		c0-1.251,0.191-2.396,0.575-3.436c0.383-1.039,0.933-1.927,1.65-2.664c0.716-0.736,1.584-1.304,2.604-1.703
		c1.019-0.399,2.144-0.598,3.375-0.598c1.251,0,2.386,0.202,3.406,0.605c1.019,0.404,1.892,0.979,2.619,1.726
		c0.727,0.747,1.279,1.635,1.657,2.664C273.221,30.489,273.41,31.625,273.41,32.866z M269.262,32.866
		c0-1.685-0.371-2.997-1.113-3.936c-0.741-0.938-1.738-1.408-2.989-1.408c-0.808,0-1.519,0.209-2.134,0.628
		c-0.616,0.418-1.09,1.037-1.423,1.854s-0.5,1.771-0.5,2.861c0,1.08,0.164,2.023,0.492,2.831c0.328,0.808,0.797,1.425,1.407,1.854
		c0.611,0.429,1.33,0.644,2.157,0.644c1.251,0,2.248-0.472,2.989-1.415C268.892,35.835,269.262,34.531,269.262,32.866z"/>
	<path fill="#386F96" d="M280.766,35.303v3.451c0,0.838-0.197,1.466-0.59,1.884c-0.394,0.419-0.893,0.628-1.499,0.628
		c-0.596,0-1.085-0.212-1.468-0.636c-0.384-0.424-0.575-1.049-0.575-1.877V27.25c0-1.856,0.671-2.785,2.013-2.785
		c0.686,0,1.181,0.217,1.483,0.651c0.303,0.434,0.469,1.075,0.5,1.922c0.494-0.848,1.001-1.488,1.521-1.922
		c0.52-0.434,1.213-0.651,2.082-0.651c0.868,0,1.71,0.217,2.528,0.651c0.817,0.434,1.226,1.009,1.226,1.726
		c0,0.505-0.174,0.921-0.522,1.249c-0.349,0.328-0.725,0.492-1.128,0.492c-0.151,0-0.517-0.093-1.098-0.28
		c-0.58-0.187-1.092-0.28-1.536-0.28c-0.605,0-1.1,0.159-1.483,0.477c-0.384,0.318-0.681,0.79-0.893,1.416
		c-0.212,0.626-0.358,1.37-0.439,2.233C280.806,33.009,280.766,34.062,280.766,35.303z"/>
	<path fill="#386F96" d="M293.935,35.303v3.451c0,0.838-0.197,1.466-0.59,1.884c-0.394,0.419-0.893,0.628-1.499,0.628
		c-0.596,0-1.085-0.212-1.468-0.636c-0.384-0.424-0.575-1.049-0.575-1.877V27.25c0-1.856,0.671-2.785,2.013-2.785
		c0.686,0,1.181,0.217,1.483,0.651c0.303,0.434,0.469,1.075,0.5,1.922c0.494-0.848,1.001-1.488,1.521-1.922
		c0.52-0.434,1.213-0.651,2.082-0.651c0.868,0,1.71,0.217,2.528,0.651c0.817,0.434,1.226,1.009,1.226,1.726
		c0,0.505-0.174,0.921-0.522,1.249c-0.349,0.328-0.725,0.492-1.128,0.492c-0.151,0-0.517-0.093-1.098-0.28
		c-0.58-0.187-1.092-0.28-1.536-0.28c-0.605,0-1.1,0.159-1.483,0.477c-0.384,0.318-0.681,0.79-0.893,1.416
		c-0.212,0.626-0.358,1.37-0.439,2.233C293.975,33.009,293.935,34.062,293.935,35.303z"/>
	<path fill="#386F96" d="M305.5,22.542c-0.575,0-1.067-0.176-1.476-0.53c-0.408-0.353-0.613-0.853-0.613-1.499
		c0-0.585,0.209-1.067,0.628-1.445c0.418-0.379,0.905-0.568,1.46-0.568c0.535,0,1.009,0.172,1.423,0.515
		c0.414,0.343,0.621,0.843,0.621,1.499c0,0.636-0.202,1.133-0.605,1.491C306.534,22.363,306.054,22.542,305.5,22.542z
		 M307.543,26.811v11.943c0,0.828-0.197,1.453-0.59,1.877s-0.893,0.636-1.499,0.636s-1.098-0.217-1.476-0.651
		c-0.379-0.434-0.568-1.054-0.568-1.862V26.932c0-0.817,0.189-1.433,0.568-1.847c0.378-0.414,0.87-0.621,1.476-0.621
		s1.105,0.207,1.499,0.621C307.346,25.5,307.543,26.075,307.543,26.811z"/>
	<path fill="#386F96" d="M323.346,33.88h-8.083c0.01,0.938,0.199,1.766,0.568,2.482c0.368,0.717,0.857,1.256,1.468,1.62
		c0.611,0.363,1.284,0.545,2.021,0.545c0.494,0,0.946-0.058,1.355-0.174c0.408-0.116,0.804-0.298,1.188-0.545
		c0.383-0.248,0.736-0.512,1.06-0.795c0.323-0.282,0.742-0.666,1.256-1.15c0.212-0.182,0.515-0.272,0.908-0.272
		c0.424,0,0.767,0.116,1.029,0.348c0.262,0.232,0.394,0.56,0.394,0.984c0,0.374-0.146,0.81-0.439,1.31
		c-0.293,0.499-0.734,0.979-1.325,1.438c-0.59,0.459-1.332,0.84-2.225,1.143c-0.894,0.303-1.92,0.454-3.081,0.454
		c-2.654,0-4.718-0.757-6.191-2.271c-1.474-1.514-2.21-3.567-2.21-6.161c0-1.221,0.182-2.354,0.545-3.398
		c0.363-1.044,0.893-1.939,1.589-2.687c0.696-0.747,1.554-1.319,2.573-1.718c1.019-0.399,2.149-0.598,3.391-0.598
		c1.614,0,3,0.34,4.155,1.022c1.156,0.681,2.021,1.562,2.596,2.641c0.575,1.08,0.863,2.18,0.863,3.3c0,1.04-0.298,1.713-0.893,2.021
		C325.263,33.726,324.425,33.88,323.346,33.88z M315.263,31.534h7.493c-0.101-1.413-0.482-2.47-1.143-3.171
		c-0.661-0.702-1.532-1.052-2.611-1.052c-1.029,0-1.875,0.356-2.535,1.067C315.805,29.089,315.404,30.141,315.263,31.534z"/>
	<path fill="#386F96" d="M341.555,38.905v-0.409c-0.555,0.636-1.103,1.153-1.642,1.552c-0.54,0.398-1.125,0.701-1.756,0.908
		c-0.631,0.207-1.32,0.31-2.066,0.31c-0.989,0-1.905-0.209-2.747-0.628c-0.843-0.418-1.572-1.016-2.188-1.793
		c-0.616-0.777-1.082-1.69-1.4-2.74c-0.317-1.049-0.477-2.185-0.477-3.406c0-2.583,0.63-4.596,1.892-6.04
		c1.261-1.443,2.921-2.165,4.98-2.165c1.19,0,2.195,0.205,3.012,0.613c0.817,0.409,1.614,1.037,2.392,1.885v-6.1
		c0-0.848,0.169-1.488,0.507-1.922c0.338-0.434,0.819-0.651,1.445-0.651c0.625,0,1.107,0.199,1.445,0.598
		c0.338,0.398,0.507,0.986,0.507,1.763v18.225c0,0.787-0.182,1.377-0.545,1.771s-0.833,0.59-1.408,0.59
		c-0.565,0-1.032-0.205-1.4-0.613C341.739,40.245,341.555,39.662,341.555,38.905z M333.427,32.835c0,1.12,0.174,2.074,0.522,2.861
		c0.348,0.787,0.825,1.38,1.43,1.779c0.605,0.398,1.266,0.598,1.983,0.598c0.727,0,1.39-0.189,1.99-0.567
		c0.601-0.379,1.08-0.959,1.438-1.741c0.358-0.782,0.537-1.758,0.537-2.929c0-1.1-0.179-2.046-0.537-2.838
		c-0.358-0.792-0.843-1.398-1.453-1.816c-0.611-0.419-1.279-0.628-2.006-0.628c-0.757,0-1.433,0.214-2.028,0.643
		c-0.596,0.429-1.057,1.045-1.385,1.847C333.591,30.845,333.427,31.776,333.427,32.835z"/>
	<path fill="#386F96" d="M367.802,38.936c-0.999,0.777-1.965,1.36-2.899,1.749c-0.933,0.388-1.98,0.583-3.141,0.583
		c-1.06,0-1.99-0.209-2.793-0.628c-0.802-0.418-1.42-0.986-1.854-1.703c-0.434-0.716-0.651-1.493-0.651-2.331
		c0-1.13,0.358-2.094,1.075-2.891c0.716-0.797,1.7-1.332,2.952-1.604c0.262-0.061,0.913-0.197,1.953-0.409
		c1.039-0.212,1.93-0.406,2.671-0.583c0.742-0.177,1.546-0.391,2.415-0.644c-0.051-1.09-0.27-1.89-0.659-2.399
		c-0.388-0.509-1.193-0.764-2.414-0.764c-1.05,0-1.839,0.146-2.369,0.439c-0.529,0.293-0.983,0.732-1.362,1.317
		c-0.378,0.585-0.646,0.971-0.802,1.158c-0.157,0.187-0.492,0.28-1.007,0.28c-0.464,0-0.865-0.149-1.203-0.446
		c-0.338-0.298-0.507-0.679-0.507-1.143c0-0.727,0.257-1.433,0.772-2.119c0.515-0.686,1.317-1.251,2.407-1.695
		c1.09-0.444,2.447-0.666,4.072-0.666c1.816,0,3.244,0.214,4.284,0.643c1.039,0.429,1.773,1.108,2.203,2.036
		c0.429,0.929,0.643,2.16,0.643,3.693c0,0.969-0.002,1.792-0.007,2.467c-0.005,0.676-0.013,1.428-0.023,2.255
		c0,0.777,0.128,1.587,0.386,2.43c0.257,0.842,0.386,1.385,0.386,1.627c0,0.424-0.199,0.81-0.598,1.158
		c-0.399,0.348-0.851,0.522-1.355,0.522c-0.424,0-0.843-0.199-1.256-0.598C368.705,40.27,368.266,39.692,367.802,38.936z
		 M367.53,32.957c-0.605,0.222-1.486,0.457-2.641,0.704c-1.156,0.247-1.956,0.429-2.399,0.545c-0.444,0.116-0.868,0.343-1.271,0.681
		c-0.404,0.338-0.605,0.81-0.605,1.416c0,0.626,0.237,1.158,0.711,1.597c0.474,0.438,1.095,0.658,1.862,0.658
		c0.817,0,1.572-0.179,2.263-0.537c0.691-0.358,1.198-0.82,1.521-1.385c0.373-0.625,0.56-1.655,0.56-3.088V32.957z"/>
	<path fill="#386F96" d="M379.185,20.681v6.312c0.777-0.807,1.569-1.425,2.376-1.854c0.807-0.429,1.806-0.643,2.997-0.643
		c1.372,0,2.576,0.326,3.61,0.976c1.034,0.651,1.836,1.595,2.406,2.831c0.57,1.236,0.855,2.702,0.855,4.397
		c0,1.251-0.159,2.399-0.477,3.444c-0.318,1.044-0.78,1.95-1.385,2.717c-0.605,0.767-1.339,1.36-2.203,1.778
		c-0.862,0.419-1.814,0.628-2.853,0.628c-0.636,0-1.234-0.076-1.793-0.227c-0.561-0.151-1.037-0.351-1.431-0.598
		c-0.394-0.248-0.729-0.502-1.007-0.765c-0.277-0.262-0.643-0.656-1.097-1.181v0.409c0,0.777-0.187,1.365-0.56,1.763
		c-0.374,0.399-0.848,0.598-1.423,0.598c-0.585,0-1.052-0.199-1.4-0.598c-0.348-0.398-0.522-0.986-0.522-1.763V20.862
		c0-0.837,0.169-1.471,0.507-1.9c0.338-0.429,0.81-0.643,1.415-0.643c0.636,0,1.125,0.205,1.468,0.613
		C379.013,19.341,379.185,19.924,379.185,20.681z M379.382,32.957c0,1.645,0.376,2.909,1.128,3.792
		c0.751,0.883,1.738,1.324,2.959,1.324c1.039,0,1.935-0.452,2.687-1.354c0.752-0.903,1.128-2.197,1.128-3.883
		c0-1.09-0.157-2.028-0.469-2.815c-0.313-0.787-0.757-1.395-1.332-1.824c-0.575-0.429-1.247-0.643-2.013-0.643
		c-0.787,0-1.489,0.214-2.104,0.643c-0.616,0.429-1.1,1.05-1.453,1.862C379.558,30.87,379.382,31.836,379.382,32.957z"/>
	<path fill="#386F96" d="M410.215,32.866c0,1.231-0.192,2.367-0.575,3.406c-0.384,1.04-0.938,1.933-1.665,2.679
		c-0.727,0.747-1.595,1.319-2.604,1.718c-1.009,0.399-2.145,0.598-3.406,0.598c-1.251,0-2.376-0.202-3.375-0.605
		s-1.864-0.981-2.596-1.733c-0.731-0.752-1.286-1.64-1.665-2.664c-0.378-1.024-0.567-2.157-0.567-3.398
		c0-1.251,0.191-2.396,0.575-3.436c0.383-1.039,0.933-1.927,1.65-2.664c0.716-0.736,1.584-1.304,2.604-1.703
		c1.019-0.399,2.144-0.598,3.375-0.598c1.251,0,2.386,0.202,3.406,0.605c1.019,0.404,1.892,0.979,2.619,1.726
		c0.727,0.747,1.279,1.635,1.657,2.664C410.026,30.489,410.215,31.625,410.215,32.866z M406.068,32.866
		c0-1.685-0.371-2.997-1.113-3.936c-0.741-0.938-1.738-1.408-2.989-1.408c-0.808,0-1.519,0.209-2.134,0.628
		c-0.616,0.418-1.09,1.037-1.423,1.854s-0.5,1.771-0.5,2.861c0,1.08,0.164,2.023,0.492,2.831c0.328,0.808,0.797,1.425,1.407,1.854
		c0.611,0.429,1.33,0.644,2.157,0.644c1.251,0,2.248-0.472,2.989-1.415C405.697,35.835,406.068,34.531,406.068,32.866z"/>
	<path fill="#386F96" d="M424.202,38.936v-0.53c-0.495,0.626-1.014,1.15-1.559,1.574s-1.141,0.739-1.786,0.946
		c-0.646,0.207-1.383,0.31-2.21,0.31c-0.999,0-1.895-0.207-2.687-0.621c-0.792-0.414-1.405-0.984-1.839-1.71
		c-0.515-0.878-0.772-2.139-0.772-3.784v-8.189c0-0.827,0.187-1.445,0.56-1.854c0.373-0.408,0.868-0.613,1.483-0.613
		c0.625,0,1.13,0.207,1.514,0.621c0.383,0.414,0.575,1.029,0.575,1.847v6.615c0,0.959,0.081,1.763,0.242,2.415
		c0.161,0.65,0.452,1.16,0.87,1.528c0.419,0.369,0.986,0.553,1.703,0.553c0.696,0,1.352-0.207,1.968-0.621
		c0.615-0.414,1.064-0.954,1.347-1.62c0.232-0.585,0.348-1.867,0.348-3.845v-5.025c0-0.817,0.191-1.433,0.575-1.847
		c0.383-0.414,0.883-0.621,1.499-0.621c0.615,0,1.11,0.205,1.483,0.613c0.373,0.409,0.56,1.027,0.56,1.854v11.973
		c0,0.787-0.179,1.377-0.537,1.771c-0.358,0.394-0.82,0.59-1.385,0.59c-0.565,0-1.032-0.205-1.4-0.613
		C424.386,40.245,424.202,39.672,424.202,38.936z"/>
	<path fill="#386F96" d="M432.421,24.828h0.454v-2.482c0-0.666,0.018-1.188,0.053-1.567c0.036-0.378,0.134-0.704,0.295-0.976
		c0.161-0.282,0.394-0.512,0.696-0.689c0.303-0.176,0.641-0.265,1.014-0.265c0.524,0,0.999,0.197,1.423,0.59
		c0.282,0.263,0.462,0.583,0.537,0.961c0.076,0.378,0.114,0.916,0.114,1.612v2.815h1.514c0.585,0,1.032,0.139,1.339,0.417
		c0.308,0.277,0.462,0.633,0.462,1.067c0,0.555-0.22,0.944-0.658,1.166c-0.439,0.222-1.067,0.333-1.885,0.333h-0.772v7.599
		c0,0.646,0.023,1.143,0.068,1.491c0.046,0.348,0.167,0.63,0.363,0.848c0.197,0.217,0.517,0.325,0.961,0.325
		c0.242,0,0.57-0.043,0.984-0.129c0.414-0.085,0.736-0.128,0.969-0.128c0.333,0,0.633,0.134,0.9,0.401
		c0.268,0.268,0.401,0.598,0.401,0.992c0,0.666-0.363,1.176-1.09,1.529s-1.771,0.53-3.133,0.53c-1.292,0-2.271-0.217-2.937-0.651
		s-1.103-1.034-1.309-1.801c-0.207-0.767-0.311-1.791-0.311-3.073V27.81h-0.545c-0.596,0-1.05-0.141-1.362-0.424
		c-0.313-0.282-0.469-0.641-0.469-1.075c0-0.434,0.164-0.79,0.492-1.067C431.318,24.967,431.795,24.828,432.421,24.828z"/>
	<path fill="#386F96" d="M466.115,27.492v12.003c0,1.373-0.146,2.553-0.439,3.542c-0.293,0.989-0.762,1.806-1.408,2.452
		c-0.646,0.646-1.491,1.125-2.536,1.438c-1.044,0.313-2.344,0.469-3.897,0.469c-1.423,0-2.694-0.199-3.814-0.598
		c-1.12-0.399-1.983-0.914-2.588-1.544c-0.605-0.631-0.908-1.279-0.908-1.945c0-0.505,0.171-0.916,0.515-1.233
		c0.343-0.318,0.757-0.477,1.241-0.477c0.605,0,1.135,0.267,1.589,0.802c0.222,0.272,0.452,0.547,0.688,0.825
		c0.237,0.277,0.5,0.515,0.787,0.711c0.288,0.197,0.633,0.343,1.037,0.439c0.403,0.096,0.868,0.144,1.393,0.144
		c1.069,0,1.899-0.149,2.49-0.446c0.59-0.298,1.004-0.714,1.241-1.249c0.237-0.535,0.375-1.107,0.416-1.718
		c0.04-0.611,0.07-1.592,0.091-2.944c-0.636,0.888-1.37,1.564-2.202,2.028c-0.833,0.464-1.824,0.696-2.975,0.696
		c-1.383,0-2.591-0.353-3.625-1.06c-1.035-0.706-1.83-1.695-2.384-2.967c-0.555-1.271-0.833-2.74-0.833-4.405
		c0-1.241,0.169-2.361,0.507-3.36c0.338-0.999,0.82-1.841,1.446-2.528c0.625-0.686,1.347-1.203,2.165-1.552
		c0.817-0.348,1.715-0.522,2.694-0.522c1.17,0,2.185,0.225,3.042,0.673c0.857,0.449,1.655,1.153,2.392,2.112v-0.56
		c0-0.716,0.176-1.271,0.53-1.665c0.353-0.394,0.807-0.59,1.362-0.59c0.797,0,1.327,0.26,1.589,0.78
		C465.984,25.764,466.115,26.514,466.115,27.492z M454.142,32.729c0,1.675,0.366,2.942,1.098,3.799
		c0.731,0.858,1.677,1.287,2.838,1.287c0.686,0,1.334-0.184,1.945-0.552c0.61-0.369,1.107-0.924,1.491-1.665
		c0.383-0.742,0.575-1.643,0.575-2.702c0-1.685-0.371-2.997-1.113-3.936c-0.741-0.938-1.718-1.408-2.929-1.408
		c-1.181,0-2.127,0.449-2.838,1.347C454.498,29.798,454.142,31.075,454.142,32.729z"/>
	<path fill="#386F96" d="M481.055,33.88h-8.083c0.01,0.938,0.199,1.766,0.568,2.482c0.368,0.717,0.857,1.256,1.468,1.62
		c0.611,0.363,1.284,0.545,2.021,0.545c0.494,0,0.946-0.058,1.355-0.174c0.408-0.116,0.804-0.298,1.188-0.545
		c0.383-0.248,0.736-0.512,1.06-0.795c0.323-0.282,0.742-0.666,1.256-1.15c0.212-0.182,0.515-0.272,0.908-0.272
		c0.424,0,0.767,0.116,1.029,0.348c0.262,0.232,0.394,0.56,0.394,0.984c0,0.374-0.146,0.81-0.439,1.31
		c-0.293,0.499-0.734,0.979-1.325,1.438c-0.59,0.459-1.332,0.84-2.225,1.143c-0.894,0.303-1.92,0.454-3.081,0.454
		c-2.654,0-4.718-0.757-6.191-2.271c-1.474-1.514-2.21-3.567-2.21-6.161c0-1.221,0.182-2.354,0.545-3.398
		c0.363-1.044,0.893-1.939,1.589-2.687c0.696-0.747,1.554-1.319,2.573-1.718c1.019-0.399,2.149-0.598,3.391-0.598
		c1.614,0,3,0.34,4.155,1.022c1.156,0.681,2.021,1.562,2.596,2.641c0.575,1.08,0.863,2.18,0.863,3.3c0,1.04-0.298,1.713-0.893,2.021
		C482.972,33.726,482.135,33.88,481.055,33.88z M472.972,31.534h7.493c-0.101-1.413-0.482-2.47-1.143-3.171
		c-0.661-0.702-1.532-1.052-2.611-1.052c-1.029,0-1.875,0.356-2.535,1.067C473.515,29.089,473.113,30.141,472.972,31.534z"/>
	<path fill="#386F96" d="M488.169,24.828h0.454v-2.482c0-0.666,0.018-1.188,0.053-1.567c0.036-0.378,0.134-0.704,0.295-0.976
		c0.161-0.282,0.394-0.512,0.696-0.689c0.303-0.176,0.641-0.265,1.014-0.265c0.524,0,0.999,0.197,1.423,0.59
		c0.282,0.263,0.462,0.583,0.537,0.961c0.076,0.378,0.114,0.916,0.114,1.612v2.815h1.514c0.585,0,1.032,0.139,1.339,0.417
		c0.308,0.277,0.462,0.633,0.462,1.067c0,0.555-0.22,0.944-0.658,1.166c-0.439,0.222-1.067,0.333-1.885,0.333h-0.772v7.599
		c0,0.646,0.023,1.143,0.068,1.491c0.046,0.348,0.167,0.63,0.363,0.848c0.197,0.217,0.517,0.325,0.961,0.325
		c0.242,0,0.57-0.043,0.984-0.129c0.414-0.085,0.736-0.128,0.969-0.128c0.333,0,0.633,0.134,0.9,0.401
		c0.268,0.268,0.401,0.598,0.401,0.992c0,0.666-0.363,1.176-1.09,1.529s-1.771,0.53-3.133,0.53c-1.292,0-2.271-0.217-2.937-0.651
		s-1.103-1.034-1.309-1.801c-0.207-0.767-0.311-1.791-0.311-3.073V27.81h-0.545c-0.596,0-1.05-0.141-1.362-0.424
		c-0.313-0.282-0.469-0.641-0.469-1.075c0-0.434,0.164-0.79,0.492-1.067C487.067,24.967,487.543,24.828,488.169,24.828z"/>
	<path fill="#386F96" d="M499.144,24.828h0.454v-2.482c0-0.666,0.018-1.188,0.053-1.567c0.036-0.378,0.134-0.704,0.295-0.976
		c0.161-0.282,0.394-0.512,0.696-0.689c0.303-0.176,0.641-0.265,1.014-0.265c0.524,0,0.999,0.197,1.423,0.59
		c0.282,0.263,0.462,0.583,0.537,0.961c0.076,0.378,0.114,0.916,0.114,1.612v2.815h1.514c0.585,0,1.032,0.139,1.339,0.417
		c0.308,0.277,0.462,0.633,0.462,1.067c0,0.555-0.22,0.944-0.658,1.166c-0.439,0.222-1.067,0.333-1.885,0.333h-0.772v7.599
		c0,0.646,0.023,1.143,0.068,1.491c0.046,0.348,0.167,0.63,0.363,0.848c0.197,0.217,0.517,0.325,0.961,0.325
		c0.242,0,0.57-0.043,0.984-0.129c0.414-0.085,0.736-0.128,0.969-0.128c0.333,0,0.633,0.134,0.9,0.401
		c0.268,0.268,0.401,0.598,0.401,0.992c0,0.666-0.363,1.176-1.09,1.529s-1.771,0.53-3.133,0.53c-1.292,0-2.271-0.217-2.937-0.651
		s-1.103-1.034-1.309-1.801c-0.207-0.767-0.311-1.791-0.311-3.073V27.81h-0.545c-0.596,0-1.05-0.141-1.362-0.424
		c-0.313-0.282-0.469-0.641-0.469-1.075c0-0.434,0.164-0.79,0.492-1.067C498.041,24.967,498.518,24.828,499.144,24.828z"/>
	<path fill="#386F96" d="M511.979,22.542c-0.575,0-1.067-0.176-1.476-0.53c-0.408-0.353-0.613-0.853-0.613-1.499
		c0-0.585,0.209-1.067,0.628-1.445c0.418-0.379,0.905-0.568,1.46-0.568c0.535,0,1.009,0.172,1.423,0.515
		c0.414,0.343,0.621,0.843,0.621,1.499c0,0.636-0.202,1.133-0.605,1.491C513.014,22.363,512.534,22.542,511.979,22.542z
		 M514.023,26.811v11.943c0,0.828-0.197,1.453-0.59,1.877s-0.893,0.636-1.499,0.636s-1.098-0.217-1.476-0.651
		c-0.379-0.434-0.568-1.054-0.568-1.862V26.932c0-0.817,0.189-1.433,0.568-1.847c0.378-0.414,0.87-0.621,1.476-0.621
		s1.105,0.207,1.499,0.621C513.826,25.5,514.023,26.075,514.023,26.811z"/>
	<path fill="#386F96" d="M522.045,26.75v0.5c0.727-0.958,1.521-1.663,2.384-2.112c0.862-0.449,1.854-0.673,2.974-0.673
		c1.09,0,2.063,0.237,2.921,0.711c0.857,0.475,1.499,1.146,1.922,2.013c0.272,0.505,0.449,1.05,0.53,1.635
		c0.081,0.585,0.121,1.332,0.121,2.24v7.689c0,0.828-0.189,1.453-0.567,1.877c-0.379,0.424-0.871,0.636-1.476,0.636
		c-0.616,0-1.115-0.217-1.499-0.651c-0.384-0.434-0.575-1.054-0.575-1.862v-6.887c0-1.362-0.189-2.404-0.567-3.126
		c-0.379-0.721-1.133-1.082-2.263-1.082c-0.737,0-1.408,0.22-2.013,0.658c-0.605,0.439-1.05,1.042-1.332,1.809
		c-0.202,0.616-0.303,1.766-0.303,3.451v5.177c0,0.838-0.194,1.466-0.583,1.884c-0.388,0.419-0.891,0.628-1.506,0.628
		c-0.596,0-1.085-0.217-1.468-0.651c-0.384-0.434-0.575-1.054-0.575-1.862V26.811c0-0.787,0.171-1.375,0.515-1.764
		c0.343-0.388,0.812-0.583,1.408-0.583c0.363,0,0.691,0.086,0.984,0.257c0.292,0.172,0.527,0.429,0.704,0.772
		C521.957,25.837,522.045,26.256,522.045,26.75z"/>
	<path fill="#386F96" d="M552.213,27.492v12.003c0,1.373-0.146,2.553-0.439,3.542c-0.293,0.989-0.762,1.806-1.408,2.452
		c-0.646,0.646-1.491,1.125-2.536,1.438c-1.044,0.313-2.344,0.469-3.897,0.469c-1.423,0-2.694-0.199-3.814-0.598
		c-1.12-0.399-1.983-0.914-2.588-1.544c-0.605-0.631-0.908-1.279-0.908-1.945c0-0.505,0.171-0.916,0.515-1.233
		c0.343-0.318,0.757-0.477,1.241-0.477c0.605,0,1.135,0.267,1.589,0.802c0.222,0.272,0.452,0.547,0.688,0.825
		c0.237,0.277,0.5,0.515,0.787,0.711c0.288,0.197,0.633,0.343,1.037,0.439c0.403,0.096,0.868,0.144,1.393,0.144
		c1.069,0,1.899-0.149,2.49-0.446c0.59-0.298,1.004-0.714,1.241-1.249c0.237-0.535,0.375-1.107,0.416-1.718
		c0.04-0.611,0.07-1.592,0.091-2.944c-0.636,0.888-1.37,1.564-2.202,2.028c-0.833,0.464-1.824,0.696-2.975,0.696
		c-1.383,0-2.591-0.353-3.625-1.06c-1.035-0.706-1.83-1.695-2.384-2.967c-0.555-1.271-0.833-2.74-0.833-4.405
		c0-1.241,0.169-2.361,0.507-3.36c0.338-0.999,0.82-1.841,1.446-2.528c0.625-0.686,1.347-1.203,2.165-1.552
		c0.817-0.348,1.715-0.522,2.694-0.522c1.17,0,2.185,0.225,3.042,0.673c0.857,0.449,1.655,1.153,2.392,2.112v-0.56
		c0-0.716,0.176-1.271,0.53-1.665c0.353-0.394,0.807-0.59,1.362-0.59c0.797,0,1.327,0.26,1.589,0.78
		C552.082,25.764,552.213,26.514,552.213,27.492z M540.24,32.729c0,1.675,0.366,2.942,1.098,3.799
		c0.731,0.858,1.677,1.287,2.838,1.287c0.686,0,1.334-0.184,1.945-0.552c0.61-0.369,1.107-0.924,1.491-1.665
		c0.383-0.742,0.575-1.643,0.575-2.702c0-1.685-0.371-2.997-1.113-3.936c-0.741-0.938-1.718-1.408-2.929-1.408
		c-1.181,0-2.127,0.449-2.838,1.347C540.595,29.798,540.24,31.075,540.24,32.729z"/>
	<path fill="#386F96" d="M567.955,41.781l0.378-0.923l-5.086-12.806c-0.313-0.736-0.469-1.271-0.469-1.604
		c0-0.353,0.091-0.681,0.272-0.984s0.431-0.545,0.75-0.727c0.317-0.182,0.648-0.272,0.991-0.272c0.595,0,1.044,0.189,1.347,0.568
		c0.303,0.378,0.57,0.921,0.802,1.627l3.497,10.172l3.315-9.46c0.262-0.767,0.5-1.367,0.711-1.801
		c0.212-0.434,0.437-0.727,0.673-0.878c0.237-0.151,0.573-0.227,1.007-0.227c0.313,0,0.613,0.083,0.9,0.25
		c0.288,0.167,0.51,0.392,0.666,0.674c0.157,0.283,0.235,0.581,0.235,0.893c-0.041,0.192-0.106,0.464-0.197,0.817
		c-0.091,0.354-0.202,0.711-0.333,1.075l-5.389,14.107c-0.464,1.241-0.918,2.215-1.362,2.921c-0.444,0.706-1.032,1.249-1.764,1.627
		c-0.731,0.378-1.718,0.567-2.959,0.567c-1.211,0-2.119-0.131-2.725-0.394c-0.605-0.263-0.908-0.742-0.908-1.438
		c0-0.475,0.144-0.84,0.432-1.097c0.287-0.258,0.713-0.386,1.279-0.386c0.222,0,0.439,0.03,0.651,0.091
		c0.262,0.061,0.489,0.091,0.681,0.091c0.474,0,0.848-0.071,1.12-0.212c0.272-0.142,0.517-0.386,0.734-0.734
		C567.423,42.969,567.672,42.457,567.955,41.781z"/>
	<path fill="#386F96" d="M596.003,32.866c0,1.231-0.192,2.367-0.575,3.406c-0.384,1.04-0.938,1.933-1.665,2.679
		c-0.727,0.747-1.595,1.319-2.604,1.718c-1.009,0.399-2.145,0.598-3.406,0.598c-1.251,0-2.376-0.202-3.375-0.605
		s-1.864-0.981-2.596-1.733c-0.731-0.752-1.286-1.64-1.665-2.664c-0.378-1.024-0.567-2.157-0.567-3.398
		c0-1.251,0.191-2.396,0.575-3.436c0.383-1.039,0.933-1.927,1.65-2.664c0.716-0.736,1.584-1.304,2.604-1.703
		c1.019-0.399,2.144-0.598,3.375-0.598c1.251,0,2.386,0.202,3.406,0.605c1.019,0.404,1.892,0.979,2.619,1.726
		c0.727,0.747,1.279,1.635,1.657,2.664C595.814,30.489,596.003,31.625,596.003,32.866z M591.856,32.866
		c0-1.685-0.371-2.997-1.113-3.936c-0.741-0.938-1.738-1.408-2.989-1.408c-0.808,0-1.519,0.209-2.134,0.628
		c-0.616,0.418-1.09,1.037-1.423,1.854s-0.5,1.771-0.5,2.861c0,1.08,0.164,2.023,0.492,2.831c0.328,0.808,0.797,1.425,1.407,1.854
		c0.611,0.429,1.33,0.644,2.157,0.644c1.251,0,2.248-0.472,2.989-1.415C591.485,35.835,591.856,34.531,591.856,32.866z"/>
	<path fill="#386F96" d="M609.99,38.936v-0.53c-0.495,0.626-1.014,1.15-1.559,1.574s-1.141,0.739-1.786,0.946
		c-0.646,0.207-1.383,0.31-2.21,0.31c-0.999,0-1.895-0.207-2.687-0.621c-0.792-0.414-1.405-0.984-1.839-1.71
		c-0.515-0.878-0.772-2.139-0.772-3.784v-8.189c0-0.827,0.187-1.445,0.56-1.854c0.373-0.408,0.868-0.613,1.483-0.613
		c0.625,0,1.13,0.207,1.514,0.621c0.383,0.414,0.575,1.029,0.575,1.847v6.615c0,0.959,0.081,1.763,0.242,2.415
		c0.161,0.65,0.452,1.16,0.87,1.528c0.419,0.369,0.986,0.553,1.703,0.553c0.696,0,1.352-0.207,1.968-0.621
		c0.615-0.414,1.064-0.954,1.347-1.62c0.232-0.585,0.348-1.867,0.348-3.845v-5.025c0-0.817,0.191-1.433,0.575-1.847
		c0.383-0.414,0.883-0.621,1.499-0.621c0.615,0,1.11,0.205,1.483,0.613c0.373,0.409,0.56,1.027,0.56,1.854v11.973
		c0,0.787-0.179,1.377-0.537,1.771c-0.358,0.394-0.82,0.59-1.385,0.59c-0.565,0-1.032-0.205-1.4-0.613
		C610.174,40.245,609.99,39.672,609.99,38.936z"/>
	<path fill="#386F96" d="M622.084,35.303v3.451c0,0.838-0.197,1.466-0.59,1.884c-0.394,0.419-0.893,0.628-1.499,0.628
		c-0.596,0-1.085-0.212-1.468-0.636c-0.384-0.424-0.575-1.049-0.575-1.877V27.25c0-1.856,0.671-2.785,2.013-2.785
		c0.686,0,1.181,0.217,1.483,0.651c0.303,0.434,0.469,1.075,0.5,1.922c0.494-0.848,1.001-1.488,1.521-1.922
		c0.52-0.434,1.213-0.651,2.082-0.651c0.868,0,1.71,0.217,2.528,0.651c0.817,0.434,1.226,1.009,1.226,1.726
		c0,0.505-0.174,0.921-0.522,1.249c-0.349,0.328-0.725,0.492-1.128,0.492c-0.151,0-0.517-0.093-1.098-0.28
		c-0.58-0.187-1.092-0.28-1.536-0.28c-0.605,0-1.1,0.159-1.483,0.477c-0.384,0.318-0.681,0.79-0.893,1.416
		c-0.212,0.626-0.358,1.37-0.439,2.233C622.124,33.009,622.084,34.062,622.084,35.303z"/>
	<path fill="#386F96" d="M656.459,34.228c0,1.342-0.346,2.548-1.037,3.618c-0.691,1.07-1.703,1.907-3.035,2.513
		s-2.912,0.908-4.738,0.908c-2.19,0-3.996-0.414-5.419-1.241c-1.009-0.595-1.829-1.39-2.46-2.384
		c-0.63-0.994-0.946-1.96-0.946-2.898c0-0.545,0.189-1.012,0.568-1.4c0.378-0.388,0.86-0.583,1.445-0.583
		c0.474,0,0.875,0.151,1.203,0.454c0.328,0.303,0.608,0.752,0.84,1.347c0.282,0.707,0.588,1.297,0.916,1.771
		c0.328,0.475,0.79,0.865,1.385,1.173c0.595,0.308,1.377,0.461,2.346,0.461c1.332,0,2.414-0.31,3.247-0.931
		c0.832-0.62,1.249-1.395,1.249-2.323c0-0.736-0.225-1.334-0.673-1.794c-0.449-0.459-1.029-0.81-1.741-1.052
		c-0.711-0.242-1.663-0.5-2.853-0.772c-1.595-0.373-2.929-0.81-4.003-1.309c-1.075-0.5-1.928-1.181-2.559-2.044
		c-0.63-0.862-0.946-1.935-0.946-3.216c0-1.221,0.333-2.306,0.999-3.254c0.666-0.948,1.629-1.678,2.891-2.188
		c1.261-0.509,2.745-0.764,4.45-0.764c1.362,0,2.541,0.169,3.534,0.507c0.994,0.338,1.819,0.787,2.475,1.347
		c0.656,0.561,1.135,1.148,1.438,1.764c0.303,0.616,0.454,1.216,0.454,1.801c0,0.535-0.189,1.017-0.567,1.446
		c-0.379,0.429-0.851,0.643-1.416,0.643c-0.515,0-0.906-0.128-1.173-0.386c-0.267-0.257-0.558-0.678-0.87-1.264
		c-0.404-0.837-0.888-1.491-1.453-1.96c-0.565-0.47-1.474-0.704-2.725-0.704c-1.161,0-2.097,0.255-2.808,0.765
		c-0.712,0.509-1.067,1.123-1.067,1.839c0,0.444,0.121,0.828,0.363,1.15c0.242,0.323,0.575,0.601,0.999,0.833
		c0.424,0.232,0.853,0.414,1.287,0.545c0.434,0.131,1.15,0.323,2.149,0.575c1.251,0.293,2.384,0.616,3.398,0.969
		c1.015,0.354,1.877,0.782,2.589,1.287c0.711,0.505,1.266,1.143,1.665,1.915C656.26,32.162,656.459,33.108,656.459,34.228z"/>
	<path fill="#386F96" d="M670.718,38.936v-0.53c-0.495,0.626-1.014,1.15-1.559,1.574s-1.141,0.739-1.786,0.946
		c-0.646,0.207-1.383,0.31-2.21,0.31c-0.999,0-1.895-0.207-2.687-0.621c-0.792-0.414-1.405-0.984-1.839-1.71
		c-0.515-0.878-0.772-2.139-0.772-3.784v-8.189c0-0.827,0.187-1.445,0.56-1.854c0.373-0.408,0.868-0.613,1.483-0.613
		c0.625,0,1.13,0.207,1.514,0.621c0.383,0.414,0.575,1.029,0.575,1.847v6.615c0,0.959,0.081,1.763,0.242,2.415
		c0.161,0.65,0.452,1.16,0.87,1.528c0.419,0.369,0.986,0.553,1.703,0.553c0.696,0,1.352-0.207,1.968-0.621
		c0.615-0.414,1.064-0.954,1.347-1.62c0.232-0.585,0.348-1.867,0.348-3.845v-5.025c0-0.817,0.191-1.433,0.575-1.847
		c0.383-0.414,0.883-0.621,1.499-0.621c0.615,0,1.11,0.205,1.483,0.613c0.373,0.409,0.56,1.027,0.56,1.854v11.973
		c0,0.787-0.179,1.377-0.537,1.771c-0.358,0.394-0.82,0.59-1.385,0.59c-0.565,0-1.032-0.205-1.4-0.613
		C670.902,40.245,670.718,39.672,670.718,38.936z"/>
	<path fill="#386F96" d="M682.813,35.303v3.451c0,0.838-0.197,1.466-0.59,1.884c-0.394,0.419-0.893,0.628-1.499,0.628
		c-0.596,0-1.085-0.212-1.468-0.636c-0.384-0.424-0.575-1.049-0.575-1.877V27.25c0-1.856,0.671-2.785,2.013-2.785
		c0.686,0,1.181,0.217,1.483,0.651c0.303,0.434,0.469,1.075,0.5,1.922c0.494-0.848,1.001-1.488,1.521-1.922
		c0.52-0.434,1.213-0.651,2.082-0.651c0.868,0,1.71,0.217,2.528,0.651c0.817,0.434,1.226,1.009,1.226,1.726
		c0,0.505-0.174,0.921-0.522,1.249c-0.349,0.328-0.725,0.492-1.128,0.492c-0.151,0-0.517-0.093-1.098-0.28
		c-0.58-0.187-1.092-0.28-1.536-0.28c-0.605,0-1.1,0.159-1.483,0.477c-0.384,0.318-0.681,0.79-0.893,1.416
		c-0.212,0.626-0.358,1.37-0.439,2.233C682.853,33.009,682.813,34.062,682.813,35.303z"/>
	<path fill="#386F96" d="M706.713,27.492v12.003c0,1.373-0.146,2.553-0.439,3.542c-0.293,0.989-0.762,1.806-1.408,2.452
		c-0.646,0.646-1.491,1.125-2.536,1.438c-1.044,0.313-2.344,0.469-3.897,0.469c-1.423,0-2.694-0.199-3.814-0.598
		c-1.12-0.399-1.983-0.914-2.588-1.544c-0.605-0.631-0.908-1.279-0.908-1.945c0-0.505,0.171-0.916,0.515-1.233
		c0.343-0.318,0.757-0.477,1.241-0.477c0.605,0,1.135,0.267,1.589,0.802c0.222,0.272,0.452,0.547,0.688,0.825
		c0.237,0.277,0.5,0.515,0.787,0.711c0.288,0.197,0.633,0.343,1.037,0.439c0.403,0.096,0.868,0.144,1.393,0.144
		c1.069,0,1.899-0.149,2.49-0.446c0.59-0.298,1.004-0.714,1.241-1.249c0.237-0.535,0.375-1.107,0.416-1.718
		c0.04-0.611,0.07-1.592,0.091-2.944c-0.636,0.888-1.37,1.564-2.202,2.028c-0.833,0.464-1.824,0.696-2.975,0.696
		c-1.383,0-2.591-0.353-3.625-1.06c-1.035-0.706-1.83-1.695-2.384-2.967c-0.555-1.271-0.833-2.74-0.833-4.405
		c0-1.241,0.169-2.361,0.507-3.36c0.338-0.999,0.82-1.841,1.446-2.528c0.625-0.686,1.347-1.203,2.165-1.552
		c0.817-0.348,1.715-0.522,2.694-0.522c1.17,0,2.185,0.225,3.042,0.673c0.857,0.449,1.655,1.153,2.392,2.112v-0.56
		c0-0.716,0.176-1.271,0.53-1.665c0.353-0.394,0.807-0.59,1.362-0.59c0.797,0,1.327,0.26,1.589,0.78
		C706.582,25.764,706.713,26.514,706.713,27.492z M694.74,32.729c0,1.675,0.366,2.942,1.098,3.799
		c0.731,0.858,1.677,1.287,2.838,1.287c0.686,0,1.334-0.184,1.945-0.552c0.61-0.369,1.107-0.924,1.491-1.665
		c0.383-0.742,0.575-1.643,0.575-2.702c0-1.685-0.371-2.997-1.113-3.936c-0.741-0.938-1.718-1.408-2.929-1.408
		c-1.181,0-2.127,0.449-2.838,1.347C695.096,29.798,694.74,31.075,694.74,32.729z"/>
	<path fill="#386F96" d="M721.652,33.88h-8.082c0.01,0.938,0.199,1.766,0.568,2.482c0.368,0.717,0.857,1.256,1.468,1.62
		c0.611,0.363,1.284,0.545,2.021,0.545c0.494,0,0.946-0.058,1.355-0.174c0.408-0.116,0.804-0.298,1.188-0.545
		c0.383-0.248,0.736-0.512,1.059-0.795c0.324-0.282,0.742-0.666,1.258-1.15c0.211-0.182,0.514-0.272,0.908-0.272
		c0.424,0,0.766,0.116,1.029,0.348c0.262,0.232,0.393,0.56,0.393,0.984c0,0.374-0.146,0.81-0.439,1.31
		c-0.291,0.499-0.732,0.979-1.324,1.438c-0.59,0.459-1.332,0.84-2.225,1.143c-0.893,0.303-1.92,0.454-3.08,0.454
		c-2.654,0-4.718-0.757-6.191-2.271c-1.474-1.514-2.21-3.567-2.21-6.161c0-1.221,0.182-2.354,0.545-3.398
		c0.363-1.044,0.893-1.939,1.589-2.687c0.696-0.747,1.554-1.319,2.573-1.718c1.019-0.399,2.149-0.598,3.391-0.598
		c1.614,0,3,0.34,4.154,1.022c1.156,0.681,2.021,1.562,2.596,2.641c0.576,1.08,0.863,2.18,0.863,3.3c0,1.04-0.297,1.713-0.893,2.021
		C723.57,33.726,722.732,33.88,721.652,33.88z M713.57,31.534h7.492c-0.101-1.413-0.481-2.47-1.142-3.171
		c-0.661-0.702-1.532-1.052-2.611-1.052c-1.029,0-1.875,0.356-2.535,1.067C714.113,29.089,713.711,30.141,713.57,31.534z"/>
	<path fill="#386F96" d="M732.643,35.303v3.451c0,0.838-0.197,1.466-0.59,1.884c-0.395,0.419-0.894,0.628-1.499,0.628
		c-0.596,0-1.085-0.212-1.468-0.636c-0.384-0.424-0.576-1.049-0.576-1.877V27.25c0-1.856,0.672-2.785,2.014-2.785
		c0.687,0,1.181,0.217,1.483,0.651c0.303,0.434,0.47,1.075,0.499,1.922c0.495-0.848,1.002-1.488,1.521-1.922
		c0.52-0.434,1.214-0.651,2.082-0.651c0.867,0,1.71,0.217,2.527,0.651c0.817,0.434,1.227,1.009,1.227,1.726
		c0,0.505-0.175,0.921-0.522,1.249c-0.349,0.328-0.725,0.492-1.128,0.492c-0.151,0-0.518-0.093-1.098-0.28
		c-0.58-0.187-1.092-0.28-1.536-0.28c-0.605,0-1.1,0.159-1.483,0.477c-0.384,0.318-0.682,0.79-0.893,1.416
		c-0.213,0.626-0.358,1.37-0.439,2.233C732.683,33.009,732.643,34.062,732.643,35.303z"/>
	<path fill="#386F96" d="M745.934,41.781l0.378-0.923l-5.086-12.806c-0.313-0.736-0.47-1.271-0.47-1.604
		c0-0.353,0.092-0.681,0.273-0.984s0.431-0.545,0.749-0.727c0.317-0.182,0.648-0.272,0.991-0.272c0.596,0,1.045,0.189,1.348,0.568
		c0.303,0.378,0.569,0.921,0.802,1.627l3.497,10.172l3.314-9.46c0.263-0.767,0.5-1.367,0.711-1.801
		c0.213-0.434,0.437-0.727,0.674-0.878s0.573-0.227,1.007-0.227c0.313,0,0.613,0.083,0.9,0.25c0.288,0.167,0.51,0.392,0.666,0.674
		c0.156,0.283,0.235,0.581,0.235,0.893c-0.041,0.192-0.106,0.464-0.197,0.817c-0.091,0.354-0.202,0.711-0.333,1.075l-5.389,14.107
		c-0.464,1.241-0.918,2.215-1.362,2.921c-0.444,0.706-1.032,1.249-1.764,1.627c-0.731,0.378-1.718,0.567-2.959,0.567
		c-1.211,0-2.119-0.131-2.725-0.394c-0.605-0.263-0.908-0.742-0.908-1.438c0-0.475,0.144-0.84,0.432-1.097
		c0.287-0.258,0.714-0.386,1.279-0.386c0.222,0,0.438,0.03,0.65,0.091c0.263,0.061,0.489,0.091,0.682,0.091
		c0.474,0,0.848-0.071,1.119-0.212c0.273-0.142,0.518-0.386,0.734-0.734C745.4,42.969,745.65,42.457,745.934,41.781z"/>
	<path fill="#386F96" d="M769.742,18.698h5.857c1.524,0,2.831,0.142,3.921,0.424c1.09,0.283,2.079,0.813,2.967,1.589
		c2.311,1.978,3.466,4.985,3.466,9.021c0,1.332-0.115,2.548-0.348,3.648c-0.232,1.1-0.59,2.091-1.074,2.975
		c-0.484,0.883-1.105,1.672-1.862,2.369c-0.596,0.535-1.246,0.964-1.952,1.287c-0.707,0.323-1.467,0.55-2.278,0.681
		c-0.813,0.131-1.729,0.197-2.747,0.197h-5.858c-0.817,0-1.433-0.124-1.847-0.371c-0.414-0.247-0.684-0.595-0.81-1.044
		c-0.127-0.449-0.189-1.032-0.189-1.749V21.453c0-0.969,0.217-1.67,0.651-2.104C768.072,18.915,768.773,18.698,769.742,18.698z
		 M771.482,22.255v15.061h3.406c0.747,0,1.332-0.02,1.756-0.061c0.424-0.04,0.863-0.141,1.316-0.303
		c0.455-0.161,0.848-0.388,1.182-0.681c1.503-1.271,2.255-3.461,2.255-6.569c0-2.189-0.331-3.83-0.991-4.919
		c-0.661-1.09-1.477-1.784-2.445-2.081c-0.969-0.298-2.139-0.447-3.512-0.447H771.482z"/>
	<path fill="#386F96" d="M805.086,32.866c0,1.231-0.191,2.367-0.574,3.406c-0.384,1.04-0.939,1.933-1.666,2.679
		c-0.727,0.747-1.594,1.319-2.604,1.718c-1.009,0.399-2.144,0.598-3.405,0.598c-1.251,0-2.376-0.202-3.376-0.605
		c-0.998-0.403-1.864-0.981-2.596-1.733c-0.731-0.752-1.286-1.64-1.665-2.664c-0.378-1.024-0.567-2.157-0.567-3.398
		c0-1.251,0.191-2.396,0.575-3.436c0.384-1.039,0.934-1.927,1.649-2.664c0.717-0.736,1.585-1.304,2.604-1.703
		c1.02-0.399,2.145-0.598,3.376-0.598c1.251,0,2.387,0.202,3.405,0.605c1.02,0.404,1.893,0.979,2.619,1.726
		c0.727,0.747,1.279,1.635,1.657,2.664C804.897,30.489,805.086,31.625,805.086,32.866z M800.939,32.866
		c0-1.685-0.371-2.997-1.113-3.936c-0.741-0.938-1.738-1.408-2.989-1.408c-0.808,0-1.519,0.209-2.134,0.628
		c-0.616,0.418-1.09,1.037-1.424,1.854c-0.332,0.817-0.499,1.771-0.499,2.861c0,1.08,0.164,2.023,0.492,2.831
		c0.327,0.808,0.797,1.425,1.407,1.854c0.61,0.429,1.33,0.644,2.157,0.644c1.251,0,2.248-0.472,2.989-1.415
		C800.568,35.835,800.939,34.531,800.939,32.866z"/>
	<path fill="#386F96" d="M812.096,26.75v0.5c0.727-0.958,1.521-1.663,2.384-2.112c0.862-0.449,1.854-0.673,2.974-0.673
		c1.09,0,2.064,0.237,2.922,0.711c0.857,0.475,1.498,1.146,1.922,2.013c0.273,0.505,0.449,1.05,0.53,1.635
		c0.081,0.585,0.121,1.332,0.121,2.24v7.689c0,0.828-0.189,1.453-0.567,1.877c-0.379,0.424-0.871,0.636-1.477,0.636
		c-0.615,0-1.114-0.217-1.498-0.651s-0.575-1.054-0.575-1.862v-6.887c0-1.362-0.189-2.404-0.567-3.126
		c-0.379-0.721-1.133-1.082-2.264-1.082c-0.736,0-1.407,0.22-2.013,0.658c-0.605,0.439-1.05,1.042-1.332,1.809
		c-0.202,0.616-0.303,1.766-0.303,3.451v5.177c0,0.838-0.194,1.466-0.583,1.884c-0.389,0.419-0.891,0.628-1.506,0.628
		c-0.596,0-1.085-0.217-1.469-0.651c-0.383-0.434-0.574-1.054-0.574-1.862V26.811c0-0.787,0.171-1.375,0.514-1.764
		c0.344-0.388,0.813-0.583,1.408-0.583c0.363,0,0.691,0.086,0.984,0.257c0.292,0.172,0.526,0.429,0.703,0.772
		C812.007,25.837,812.096,26.256,812.096,26.75z"/>
	<path fill="#386F96" d="M838.6,33.88h-8.082c0.01,0.938,0.198,1.766,0.567,2.482c0.368,0.717,0.857,1.256,1.468,1.62
		s1.284,0.545,2.021,0.545c0.494,0,0.945-0.058,1.354-0.174c0.408-0.116,0.805-0.298,1.188-0.545
		c0.383-0.248,0.736-0.512,1.059-0.795c0.323-0.282,0.742-0.666,1.257-1.15c0.212-0.182,0.515-0.272,0.908-0.272
		c0.424,0,0.767,0.116,1.029,0.348c0.263,0.232,0.394,0.56,0.394,0.984c0,0.374-0.146,0.81-0.439,1.31
		c-0.292,0.499-0.733,0.979-1.324,1.438c-0.59,0.459-1.332,0.84-2.225,1.143c-0.894,0.303-1.92,0.454-3.08,0.454
		c-2.654,0-4.718-0.757-6.191-2.271s-2.21-3.567-2.21-6.161c0-1.221,0.182-2.354,0.545-3.398c0.363-1.044,0.894-1.939,1.589-2.687
		c0.697-0.747,1.555-1.319,2.574-1.718c1.019-0.399,2.148-0.598,3.391-0.598c1.614,0,2.999,0.34,4.154,1.022
		c1.155,0.681,2.021,1.562,2.596,2.641c0.576,1.08,0.863,2.18,0.863,3.3c0,1.04-0.298,1.713-0.893,2.021
		C840.518,33.726,839.68,33.88,838.6,33.88z M830.518,31.534h7.492c-0.101-1.413-0.482-2.47-1.143-3.171
		c-0.661-0.702-1.531-1.052-2.611-1.052c-1.029,0-1.875,0.356-2.535,1.067C831.06,29.089,830.658,30.141,830.518,31.534z"/>
	<path fill="#386F96" d="M852.465,24.646c0-0.958,0.308-1.93,0.923-2.914c0.616-0.984,1.514-1.799,2.695-2.445
		c1.18-0.646,2.558-0.969,4.132-0.969c1.463,0,2.755,0.27,3.875,0.81c1.12,0.54,1.985,1.274,2.596,2.202
		c0.61,0.929,0.916,1.938,0.916,3.027c0,0.858-0.174,1.61-0.522,2.255c-0.348,0.646-0.762,1.204-1.241,1.672
		c-0.479,0.47-1.339,1.259-2.581,2.369c-0.343,0.313-0.618,0.588-0.824,0.825c-0.207,0.237-0.361,0.454-0.462,0.65
		c-0.101,0.197-0.18,0.394-0.234,0.591c-0.056,0.196-0.139,0.542-0.25,1.037c-0.191,1.05-0.792,1.574-1.802,1.574
		c-0.524,0-0.966-0.171-1.324-0.515c-0.358-0.343-0.537-0.853-0.537-1.529c0-0.848,0.131-1.582,0.394-2.202
		c0.263-0.621,0.61-1.166,1.044-1.635c0.435-0.47,1.02-1.027,1.756-1.673c0.646-0.565,1.113-0.991,1.4-1.279
		c0.288-0.287,0.53-0.607,0.727-0.961c0.197-0.353,0.295-0.736,0.295-1.15c0-0.807-0.3-1.488-0.9-2.043
		c-0.601-0.555-1.375-0.833-2.323-0.833c-1.11,0-1.928,0.28-2.452,0.84c-0.524,0.561-0.969,1.385-1.332,2.475
		c-0.343,1.141-0.994,1.71-1.953,1.71c-0.564,0-1.042-0.199-1.43-0.598C852.659,25.542,852.465,25.111,852.465,24.646z
		 M859.852,41.236c-0.615,0-1.153-0.199-1.612-0.598c-0.459-0.398-0.688-0.956-0.688-1.672c0-0.636,0.222-1.17,0.666-1.604
		c0.444-0.434,0.989-0.651,1.635-0.651c0.636,0,1.171,0.217,1.604,0.651c0.434,0.434,0.65,0.969,0.65,1.604
		c0,0.707-0.227,1.262-0.681,1.665S860.447,41.236,859.852,41.236z"/>
</g>
<g>
	<path fill="#1D4056" d="M229.771,81.869V59.678h8.325c1.695,0,3.055,0.225,4.079,0.674c1.024,0.449,1.827,1.141,2.407,2.074
		c0.58,0.934,0.87,1.91,0.87,2.929c0,0.948-0.257,1.842-0.772,2.679c-0.515,0.838-1.292,1.514-2.331,2.029
		c1.342,0.393,2.374,1.064,3.095,2.013c0.722,0.948,1.083,2.069,1.083,3.36c0,1.039-0.219,2.006-0.659,2.898
		c-0.438,0.893-0.981,1.582-1.627,2.066c-0.646,0.484-1.456,0.85-2.43,1.098c-0.974,0.247-2.167,0.371-3.58,0.371H229.771z
		 M232.707,69.002h4.798c1.302,0,2.235-0.085,2.8-0.257c0.747-0.222,1.31-0.591,1.688-1.104c0.379-0.516,0.568-1.16,0.568-1.938
		c0-0.736-0.177-1.385-0.53-1.945c-0.354-0.561-0.858-0.943-1.514-1.15c-0.656-0.207-1.781-0.311-3.375-0.311h-4.435V69.002z
		 M232.707,79.25h5.525c0.948,0,1.614-0.035,1.998-0.105c0.676-0.121,1.241-0.323,1.695-0.605c0.454-0.283,0.827-0.694,1.12-1.234
		c0.292-0.539,0.439-1.162,0.439-1.869c0-0.827-0.212-1.547-0.636-2.156c-0.424-0.611-1.012-1.04-1.764-1.287
		c-0.751-0.248-1.834-0.371-3.247-0.371h-5.131V79.25z"/>
	<path fill="#1D4056" d="M249.206,73.831c0-2.977,0.827-5.182,2.482-6.614c1.382-1.191,3.067-1.787,5.056-1.787
		c2.21,0,4.016,0.725,5.419,2.172c1.402,1.449,2.104,3.449,2.104,6.002c0,2.069-0.31,3.696-0.931,4.883
		c-0.62,1.186-1.523,2.105-2.709,2.762c-1.186,0.656-2.48,0.984-3.883,0.984c-2.25,0-4.069-0.722-5.457-2.165
		C249.9,78.625,249.206,76.546,249.206,73.831z M252.006,73.831c0,2.059,0.449,3.601,1.347,4.624
		c0.898,1.024,2.028,1.537,3.391,1.537c1.352,0,2.477-0.516,3.375-1.545c0.898-1.029,1.347-2.598,1.347-4.707
		c0-1.988-0.452-3.494-1.354-4.518c-0.903-1.025-2.026-1.537-3.368-1.537c-1.362,0-2.493,0.51-3.391,1.529
		C252.455,70.234,252.006,71.772,252.006,73.831z"/>
	<path fill="#1D4056" d="M267.461,81.869V65.793h2.452v2.286c1.181-1.766,2.886-2.649,5.116-2.649c0.969,0,1.859,0.174,2.671,0.523
		c0.813,0.348,1.42,0.805,1.824,1.369c0.403,0.565,0.686,1.236,0.848,2.014c0.101,0.504,0.151,1.387,0.151,2.648v9.885h-2.725V72.09
		c0-1.109-0.106-1.939-0.318-2.49c-0.212-0.549-0.588-0.988-1.127-1.316c-0.54-0.328-1.173-0.492-1.9-0.492
		c-1.161,0-2.162,0.369-3.004,1.105c-0.843,0.736-1.264,2.135-1.264,4.193v8.779H267.461z"/>
	<path fill="#1D4056" d="M295.191,79.886c-1.009,0.858-1.98,1.464-2.914,1.816c-0.933,0.353-1.935,0.53-3.004,0.53
		c-1.766,0-3.124-0.432-4.072-1.295c-0.949-0.863-1.423-1.965-1.423-3.307c0-0.787,0.179-1.506,0.537-2.158
		c0.358-0.65,0.828-1.172,1.408-1.566c0.58-0.393,1.233-0.69,1.96-0.893c0.535-0.141,1.342-0.277,2.422-0.408
		c2.2-0.263,3.819-0.576,4.859-0.939c0.01-0.373,0.015-0.609,0.015-0.711c0-1.109-0.257-1.893-0.772-2.346
		c-0.696-0.615-1.731-0.924-3.103-0.924c-1.282,0-2.228,0.225-2.838,0.674c-0.611,0.449-1.063,1.244-1.355,2.384l-2.664-0.363
		c0.242-1.14,0.641-2.062,1.196-2.763c0.555-0.701,1.357-1.24,2.407-1.619c1.049-0.379,2.265-0.568,3.648-0.568
		c1.372,0,2.487,0.162,3.345,0.484c0.857,0.324,1.488,0.729,1.892,1.219c0.403,0.49,0.686,1.107,0.848,1.854
		c0.091,0.464,0.136,1.302,0.136,2.513v3.633c0,2.533,0.058,4.135,0.174,4.807c0.116,0.67,0.345,1.314,0.688,1.93h-2.846
		C295.454,81.304,295.272,80.643,295.191,79.886z M294.964,73.801c-0.989,0.404-2.473,0.747-4.45,1.029
		c-1.12,0.162-1.913,0.344-2.376,0.545c-0.464,0.202-0.823,0.497-1.075,0.885c-0.252,0.389-0.378,0.82-0.378,1.295
		c0,0.727,0.275,1.332,0.825,1.816c0.55,0.484,1.354,0.727,2.414,0.727c1.049,0,1.983-0.229,2.8-0.689
		c0.817-0.459,1.417-1.086,1.801-1.884c0.292-0.615,0.439-1.523,0.439-2.725V73.801z"/>
	<path fill="#1D4056" d="M301.942,81.869V65.793h2.452v2.286c1.181-1.766,2.886-2.649,5.116-2.649c0.969,0,1.859,0.174,2.671,0.523
		c0.813,0.348,1.42,0.805,1.824,1.369c0.403,0.565,0.686,1.236,0.848,2.014c0.101,0.504,0.151,1.387,0.151,2.648v9.885h-2.725V72.09
		c0-1.109-0.106-1.939-0.318-2.49c-0.212-0.549-0.588-0.988-1.127-1.316c-0.54-0.328-1.173-0.492-1.9-0.492
		c-1.161,0-2.162,0.369-3.004,1.105c-0.843,0.736-1.264,2.135-1.264,4.193v8.779H301.942z"/>
	<path fill="#1D4056" d="M317.745,81.869v-2.211l10.232-11.746c-1.161,0.061-2.185,0.092-3.073,0.092h-6.554v-2.211h13.139v1.802
		l-8.704,10.202l-1.68,1.861c1.221-0.09,2.366-0.136,3.436-0.136h7.432v2.347H317.745z"/>
	<path fill="#1D4056" d="M345.173,79.886c-1.009,0.858-1.98,1.464-2.914,1.816c-0.933,0.353-1.935,0.53-3.004,0.53
		c-1.766,0-3.124-0.432-4.072-1.295c-0.949-0.863-1.423-1.965-1.423-3.307c0-0.787,0.179-1.506,0.537-2.158
		c0.358-0.65,0.828-1.172,1.408-1.566c0.58-0.393,1.233-0.69,1.96-0.893c0.535-0.141,1.342-0.277,2.422-0.408
		c2.2-0.263,3.819-0.576,4.859-0.939c0.01-0.373,0.015-0.609,0.015-0.711c0-1.109-0.257-1.893-0.772-2.346
		c-0.696-0.615-1.731-0.924-3.103-0.924c-1.282,0-2.228,0.225-2.838,0.674c-0.611,0.449-1.063,1.244-1.355,2.384l-2.664-0.363
		c0.242-1.14,0.641-2.062,1.196-2.763c0.555-0.701,1.357-1.24,2.407-1.619c1.049-0.379,2.265-0.568,3.648-0.568
		c1.372,0,2.487,0.162,3.345,0.484c0.857,0.324,1.488,0.729,1.892,1.219c0.403,0.49,0.686,1.107,0.848,1.854
		c0.091,0.464,0.136,1.302,0.136,2.513v3.633c0,2.533,0.058,4.135,0.174,4.807c0.116,0.67,0.345,1.314,0.688,1.93h-2.846
		C345.435,81.304,345.253,80.643,345.173,79.886z M344.946,73.801c-0.989,0.404-2.473,0.747-4.45,1.029
		c-1.12,0.162-1.913,0.344-2.376,0.545c-0.464,0.202-0.823,0.497-1.075,0.885c-0.252,0.389-0.378,0.82-0.378,1.295
		c0,0.727,0.275,1.332,0.825,1.816c0.55,0.484,1.354,0.727,2.414,0.727c1.049,0,1.983-0.229,2.8-0.689
		c0.817-0.459,1.417-1.086,1.801-1.884c0.292-0.615,0.439-1.523,0.439-2.725V73.801z"/>
	<path fill="#1D4056" d="M368.105,74.088l2.937,0.742c-0.616,2.412-1.723,4.251-3.322,5.518c-1.6,1.266-3.555,1.899-5.866,1.899
		c-2.392,0-4.336-0.487-5.835-1.46c-1.498-0.975-2.639-2.385-3.421-4.231c-0.782-1.847-1.173-3.829-1.173-5.948
		c0-2.311,0.441-4.327,1.324-6.047c0.883-1.721,2.14-3.027,3.77-3.922c1.629-0.893,3.423-1.339,5.381-1.339
		c2.22,0,4.087,0.565,5.601,1.695s2.568,2.72,3.164,4.769l-2.891,0.681c-0.515-1.614-1.262-2.79-2.24-3.526
		c-0.979-0.736-2.21-1.105-3.693-1.105c-1.706,0-3.131,0.408-4.276,1.227c-1.145,0.816-1.95,1.914-2.414,3.291
		c-0.464,1.379-0.696,2.799-0.696,4.262c0,1.887,0.275,3.535,0.825,4.941c0.55,1.408,1.405,2.461,2.565,3.156
		c1.16,0.697,2.417,1.045,3.769,1.045c1.645,0,3.037-0.475,4.178-1.423C366.929,77.363,367.701,75.955,368.105,74.088z"/>
	<path fill="#1D4056" d="M384.801,79.886c-1.009,0.858-1.98,1.464-2.914,1.816c-0.933,0.353-1.935,0.53-3.004,0.53
		c-1.766,0-3.124-0.432-4.072-1.295c-0.949-0.863-1.423-1.965-1.423-3.307c0-0.787,0.179-1.506,0.537-2.158
		c0.358-0.65,0.828-1.172,1.408-1.566c0.58-0.393,1.233-0.69,1.96-0.893c0.535-0.141,1.342-0.277,2.422-0.408
		c2.2-0.263,3.819-0.576,4.859-0.939c0.01-0.373,0.015-0.609,0.015-0.711c0-1.109-0.257-1.893-0.772-2.346
		c-0.696-0.615-1.731-0.924-3.103-0.924c-1.282,0-2.228,0.225-2.838,0.674c-0.611,0.449-1.063,1.244-1.355,2.384l-2.664-0.363
		c0.242-1.14,0.641-2.062,1.196-2.763c0.555-0.701,1.357-1.24,2.407-1.619c1.049-0.379,2.265-0.568,3.648-0.568
		c1.372,0,2.487,0.162,3.345,0.484c0.857,0.324,1.488,0.729,1.892,1.219c0.403,0.49,0.686,1.107,0.848,1.854
		c0.091,0.464,0.136,1.302,0.136,2.513v3.633c0,2.533,0.058,4.135,0.174,4.807c0.116,0.67,0.345,1.314,0.688,1.93h-2.846
		C385.063,81.304,384.881,80.643,384.801,79.886z M384.574,73.801c-0.989,0.404-2.473,0.747-4.45,1.029
		c-1.12,0.162-1.913,0.344-2.376,0.545c-0.464,0.202-0.823,0.497-1.075,0.885c-0.252,0.389-0.378,0.82-0.378,1.295
		c0,0.727,0.275,1.332,0.825,1.816c0.55,0.484,1.354,0.727,2.414,0.727c1.049,0,1.983-0.229,2.8-0.689
		c0.817-0.459,1.417-1.086,1.801-1.884c0.292-0.615,0.439-1.523,0.439-2.725V73.801z"/>
	<path fill="#1D4056" d="M391.521,81.869V65.793h2.452v2.438c0.625-1.141,1.204-1.893,1.733-2.256
		c0.53-0.363,1.113-0.545,1.749-0.545c0.918,0,1.852,0.293,2.8,0.879l-0.938,2.527c-0.666-0.394-1.332-0.59-1.998-0.59
		c-0.596,0-1.13,0.179-1.604,0.537c-0.475,0.357-0.813,0.855-1.014,1.49c-0.303,0.969-0.454,2.029-0.454,3.18v8.416H391.521z"/>
	<path fill="#1D4056" d="M412.879,76.691l2.815,0.349c-0.444,1.646-1.267,2.921-2.467,3.829c-1.201,0.908-2.735,1.363-4.602,1.363
		c-2.352,0-4.215-0.725-5.593-2.172c-1.377-1.449-2.066-3.479-2.066-6.094c0-2.703,0.696-4.803,2.089-6.297
		c1.393-1.492,3.199-2.24,5.419-2.24c2.149,0,3.905,0.732,5.268,2.195s2.043,3.521,2.043,6.176c0,0.162-0.005,0.404-0.015,0.727
		h-11.988c0.101,1.766,0.6,3.118,1.499,4.057c0.898,0.938,2.018,1.408,3.36,1.408c0.999,0,1.852-0.263,2.558-0.787
		C411.905,78.68,412.465,77.842,412.879,76.691z M403.934,72.287h8.976c-0.121-1.352-0.464-2.366-1.029-3.043
		c-0.868-1.049-1.993-1.574-3.375-1.574c-1.251,0-2.303,0.42-3.156,1.257C404.496,69.765,404.024,70.885,403.934,72.287z"/>
	<path fill="#1D4056" d="M427.744,62.812v-3.134h2.725v3.134H427.744z M427.744,81.869V65.793h2.725v16.076H427.744z"/>
	<path fill="#1D4056" d="M433.526,77.07l2.694-0.424c0.151,1.08,0.573,1.907,1.264,2.482c0.691,0.575,1.657,0.863,2.898,0.863
		c1.251,0,2.18-0.256,2.785-0.766c0.605-0.509,0.908-1.106,0.908-1.793c0-0.615-0.268-1.1-0.802-1.453
		c-0.374-0.242-1.302-0.55-2.785-0.924c-1.998-0.504-3.383-0.94-4.155-1.309c-0.772-0.369-1.357-0.879-1.756-1.529
		c-0.399-0.65-0.598-1.369-0.598-2.156c0-0.717,0.164-1.381,0.492-1.99c0.328-0.611,0.774-1.118,1.34-1.521
		c0.424-0.313,1.001-0.578,1.733-0.795c0.731-0.217,1.516-0.326,2.354-0.326c1.261,0,2.369,0.182,3.322,0.545
		c0.954,0.363,1.658,0.855,2.112,1.477s0.767,1.451,0.938,2.49l-2.664,0.363c-0.121-0.828-0.472-1.474-1.052-1.938
		c-0.58-0.465-1.4-0.697-2.459-0.697c-1.251,0-2.145,0.207-2.679,0.621c-0.535,0.414-0.802,0.898-0.802,1.453
		c0,0.354,0.111,0.672,0.333,0.953c0.222,0.293,0.57,0.535,1.044,0.727c0.272,0.102,1.075,0.334,2.407,0.697
		c1.927,0.514,3.272,0.936,4.034,1.264c0.762,0.328,1.36,0.805,1.794,1.43c0.434,0.627,0.651,1.403,0.651,2.332
		c0,0.908-0.265,1.764-0.794,2.564c-0.53,0.803-1.294,1.424-2.293,1.863c-0.999,0.438-2.129,0.658-3.391,0.658
		c-2.089,0-3.681-0.434-4.776-1.303C434.527,80.063,433.829,78.775,433.526,77.07z"/>
	<path fill="#1D4056" d="M458.729,81.869V59.678h2.725v7.963c1.271-1.474,2.876-2.211,4.813-2.211c1.19,0,2.225,0.234,3.103,0.705
		c0.878,0.469,1.506,1.117,1.885,1.944c0.378,0.827,0.567,2.028,0.567,3.603v10.188h-2.725V71.682c0-1.362-0.295-2.354-0.886-2.975
		c-0.59-0.621-1.425-0.931-2.505-0.931c-0.808,0-1.566,0.21-2.278,0.628c-0.711,0.419-1.218,0.986-1.521,1.703
		s-0.454,1.705-0.454,2.967v8.795H458.729z"/>
	<path fill="#1D4056" d="M486.974,76.691l2.815,0.349c-0.444,1.646-1.267,2.921-2.467,3.829c-1.201,0.908-2.735,1.363-4.602,1.363
		c-2.352,0-4.215-0.725-5.593-2.172c-1.377-1.449-2.066-3.479-2.066-6.094c0-2.703,0.696-4.803,2.089-6.297
		c1.393-1.492,3.199-2.24,5.419-2.24c2.149,0,3.905,0.732,5.268,2.195s2.043,3.521,2.043,6.176c0,0.162-0.005,0.404-0.015,0.727
		h-11.988c0.101,1.766,0.6,3.118,1.499,4.057c0.898,0.938,2.018,1.408,3.36,1.408c0.999,0,1.852-0.263,2.558-0.787
		C486,78.68,486.56,77.842,486.974,76.691z M478.028,72.287h8.976c-0.121-1.352-0.464-2.366-1.029-3.043
		c-0.868-1.049-1.993-1.574-3.375-1.574c-1.251,0-2.303,0.42-3.156,1.257C478.59,69.765,478.119,70.885,478.028,72.287z"/>
	<path fill="#1D4056" d="M493.18,81.869V65.793h2.452v2.438c0.625-1.141,1.204-1.893,1.733-2.256
		c0.53-0.363,1.113-0.545,1.749-0.545c0.918,0,1.852,0.293,2.8,0.879l-0.938,2.527c-0.666-0.394-1.332-0.59-1.998-0.59
		c-0.596,0-1.13,0.179-1.604,0.537c-0.475,0.357-0.813,0.855-1.014,1.49c-0.303,0.969-0.454,2.029-0.454,3.18v8.416H493.18z"/>
	<path fill="#1D4056" d="M514.538,76.691l2.815,0.349c-0.444,1.646-1.267,2.921-2.467,3.829c-1.201,0.908-2.735,1.363-4.602,1.363
		c-2.352,0-4.215-0.725-5.593-2.172c-1.377-1.449-2.066-3.479-2.066-6.094c0-2.703,0.696-4.803,2.089-6.297
		c1.393-1.492,3.199-2.24,5.419-2.24c2.149,0,3.905,0.732,5.268,2.195s2.043,3.521,2.043,6.176c0,0.162-0.005,0.404-0.015,0.727
		H505.44c0.101,1.766,0.6,3.118,1.499,4.057c0.898,0.938,2.018,1.408,3.36,1.408c0.999,0,1.852-0.263,2.558-0.787
		C513.563,78.68,514.124,77.842,514.538,76.691z M505.592,72.287h8.976c-0.121-1.352-0.464-2.366-1.029-3.043
		c-0.868-1.049-1.993-1.574-3.375-1.574c-1.251,0-2.303,0.42-3.156,1.257C506.154,69.765,505.683,70.885,505.592,72.287z"/>
	<path fill="#1D4056" d="M535.335,79.432l0.394,2.406c-0.767,0.162-1.453,0.242-2.059,0.242c-0.989,0-1.756-0.156-2.301-0.469
		s-0.929-0.725-1.15-1.234c-0.222-0.509-0.333-1.581-0.333-3.216v-9.249h-1.998v-2.119h1.998v-3.98l2.709-1.635v5.615h2.74v2.119
		h-2.74v9.4c0,0.777,0.048,1.277,0.144,1.498c0.096,0.223,0.252,0.399,0.469,0.53c0.217,0.132,0.527,0.196,0.931,0.196
		C534.442,79.537,534.841,79.502,535.335,79.432z"/>
	<path fill="#1D4056" d="M536.985,73.831c0-2.977,0.827-5.182,2.482-6.614c1.382-1.191,3.067-1.787,5.056-1.787
		c2.21,0,4.016,0.725,5.419,2.172c1.402,1.449,2.104,3.449,2.104,6.002c0,2.069-0.31,3.696-0.931,4.883
		c-0.62,1.186-1.523,2.105-2.709,2.762c-1.186,0.656-2.48,0.984-3.883,0.984c-2.25,0-4.069-0.722-5.457-2.165
		C537.679,78.625,536.985,76.546,536.985,73.831z M539.786,73.831c0,2.059,0.449,3.601,1.347,4.624
		c0.898,1.024,2.028,1.537,3.391,1.537c1.352,0,2.477-0.516,3.375-1.545c0.898-1.029,1.347-2.598,1.347-4.707
		c0-1.988-0.452-3.494-1.354-4.518c-0.903-1.025-2.026-1.537-3.368-1.537c-1.362,0-2.493,0.51-3.391,1.529
		C540.234,70.234,539.786,71.772,539.786,73.831z"/>
	<path fill="#1D4056" d="M562.93,74.648l4.359-0.424c0.262,1.463,0.795,2.538,1.597,3.225c0.803,0.686,1.885,1.029,3.247,1.029
		c1.443,0,2.53-0.306,3.262-0.916c0.732-0.611,1.098-1.324,1.098-2.143c0-0.523-0.154-0.971-0.462-1.34
		c-0.308-0.367-0.845-0.688-1.612-0.961c-0.525-0.182-1.721-0.504-3.587-0.969c-2.402-0.595-4.087-1.326-5.056-2.194
		c-1.362-1.221-2.043-2.71-2.043-4.466c0-1.129,0.32-2.188,0.961-3.17c0.641-0.984,1.564-1.734,2.77-2.248
		c1.206-0.516,2.662-0.772,4.367-0.772c2.785,0,4.882,0.61,6.289,1.831c1.408,1.222,2.147,2.852,2.218,4.89l-4.48,0.196
		c-0.192-1.14-0.603-1.959-1.233-2.459c-0.631-0.5-1.577-0.75-2.838-0.75c-1.302,0-2.321,0.268-3.058,0.803
		c-0.475,0.344-0.711,0.803-0.711,1.377c0,0.525,0.222,0.975,0.666,1.348c0.565,0.475,1.938,0.969,4.117,1.483
		s3.792,1.047,4.836,1.597c1.045,0.551,1.862,1.303,2.452,2.256c0.591,0.953,0.886,2.132,0.886,3.534
		c0,1.271-0.354,2.462-1.06,3.572c-0.707,1.11-1.706,1.935-2.997,2.476c-1.292,0.539-2.901,0.809-4.829,0.809
		c-2.806,0-4.96-0.648-6.463-1.945C564.12,79.021,563.222,77.131,562.93,74.648z"/>
	<path fill="#1D4056" d="M584.711,63.613v-3.936h4.253v3.936H584.711z M584.711,81.869V65.793h4.253v16.076H584.711z"/>
	<path fill="#1D4056" d="M593.006,65.793h3.92v2.195c1.402-1.705,3.073-2.559,5.01-2.559c1.029,0,1.922,0.213,2.679,0.637
		s1.377,1.064,1.862,1.922c0.706-0.857,1.468-1.498,2.286-1.922s1.69-0.637,2.619-0.637c1.181,0,2.18,0.24,2.997,0.719
		c0.817,0.48,1.428,1.184,1.832,2.112c0.292,0.687,0.439,1.796,0.439,3.33v10.278h-4.253v-9.188c0-1.595-0.146-2.624-0.439-3.088
		c-0.394-0.605-0.999-0.908-1.816-0.908c-0.596,0-1.156,0.182-1.68,0.545c-0.525,0.363-0.903,0.896-1.135,1.597
		c-0.232,0.701-0.348,1.809-0.348,3.322v7.721h-4.253v-8.811c0-1.563-0.076-2.572-0.227-3.027c-0.151-0.453-0.386-0.791-0.704-1.014
		c-0.318-0.222-0.75-0.333-1.294-0.333c-0.656,0-1.247,0.177-1.771,0.53c-0.525,0.354-0.9,0.862-1.128,1.528
		c-0.227,0.666-0.34,1.771-0.34,3.315v7.811h-4.253V65.793z"/>
	<path fill="#1D4056" d="M620.767,65.793h3.966v2.361c0.515-0.807,1.211-1.463,2.089-1.967c0.878-0.505,1.852-0.758,2.921-0.758
		c1.867,0,3.451,0.732,4.753,2.195s1.953,3.502,1.953,6.115c0,2.685-0.656,4.771-1.968,6.26c-1.312,1.488-2.901,2.232-4.768,2.232
		c-0.888,0-1.693-0.178-2.414-0.53c-0.722-0.353-1.481-0.958-2.278-1.816v8.099h-4.253V65.793z M624.975,73.559
		c0,1.807,0.358,3.141,1.075,4.004c0.716,0.863,1.589,1.294,2.619,1.294c0.989,0,1.811-0.396,2.467-1.188
		c0.656-0.792,0.984-2.091,0.984-3.897c0-1.685-0.338-2.937-1.014-3.754c-0.676-0.817-1.514-1.226-2.513-1.226
		c-1.04,0-1.902,0.4-2.588,1.203C625.318,70.797,624.975,71.984,624.975,73.559z"/>
	<path fill="#1D4056" d="M639.824,81.869V59.678h4.253v22.191H639.824z"/>
	<path fill="#1D4056" d="M648.437,63.613v-3.936h4.253v3.936H648.437z M648.437,81.869V65.793h4.253v16.076H648.437z"/>
	<path fill="#1D4056" d="M655.188,65.793h2.361v-1.211c0-1.352,0.144-2.361,0.432-3.027c0.287-0.666,0.817-1.208,1.589-1.627
		c0.772-0.418,1.749-0.628,2.929-0.628c1.211,0,2.396,0.182,3.557,0.545l-0.575,2.967c-0.676-0.161-1.327-0.242-1.953-0.242
		c-0.616,0-1.057,0.144-1.325,0.431c-0.267,0.289-0.401,0.841-0.401,1.658v1.135h3.179v3.346h-3.179v12.73h-4.253v-12.73h-2.361
		V65.793z"/>
	<path fill="#1D4056" d="M665.36,65.793h4.526l3.845,11.414l3.754-11.414h4.405l-5.676,15.471l-1.014,2.8
		c-0.374,0.938-0.729,1.655-1.067,2.149c-0.338,0.494-0.727,0.896-1.165,1.203c-0.439,0.309-0.979,0.547-1.62,0.719
		c-0.641,0.172-1.365,0.258-2.172,0.258c-0.817,0-1.62-0.086-2.407-0.258l-0.378-3.33c0.666,0.131,1.266,0.197,1.801,0.197
		c0.989,0,1.72-0.29,2.195-0.871c0.474-0.58,0.837-1.318,1.09-2.217L665.36,65.793z"/>
	<path fill="#1D4056" d="M692.924,88.06l-0.303-2.558c0.595,0.16,1.115,0.242,1.559,0.242c0.605,0,1.09-0.102,1.453-0.303
		c0.363-0.203,0.661-0.484,0.893-0.848c0.171-0.273,0.449-0.949,0.833-2.029c0.05-0.15,0.131-0.373,0.242-0.666l-6.1-16.105h2.937
		l3.345,9.31c0.434,1.181,0.822,2.422,1.166,3.724c0.313-1.251,0.686-2.473,1.12-3.663l3.436-9.37h2.725l-6.115,16.348
		c-0.656,1.766-1.166,2.982-1.529,3.648c-0.484,0.898-1.04,1.557-1.665,1.975c-0.626,0.42-1.373,0.629-2.24,0.629
		C694.155,88.393,693.569,88.281,692.924,88.06z"/>
	<path fill="#1D4056" d="M707.531,73.831c0-2.977,0.827-5.182,2.482-6.614c1.382-1.191,3.067-1.787,5.056-1.787
		c2.21,0,4.016,0.725,5.419,2.172c1.403,1.449,2.104,3.449,2.104,6.002c0,2.069-0.311,3.696-0.932,4.883
		c-0.619,1.186-1.523,2.105-2.708,2.762c-1.186,0.656-2.48,0.984-3.883,0.984c-2.25,0-4.069-0.722-5.457-2.165
		C708.225,78.625,707.531,76.546,707.531,73.831z M710.331,73.831c0,2.059,0.449,3.601,1.347,4.624
		c0.898,1.024,2.028,1.537,3.391,1.537c1.352,0,2.477-0.516,3.375-1.545c0.898-1.029,1.347-2.598,1.347-4.707
		c0-1.988-0.452-3.494-1.354-4.518c-0.903-1.025-2.026-1.537-3.368-1.537c-1.362,0-2.493,0.51-3.391,1.529
		C710.78,70.234,710.331,71.772,710.331,73.831z"/>
	<path fill="#1D4056" d="M736.32,81.869v-2.361c-1.251,1.816-2.951,2.725-5.101,2.725c-0.948,0-1.834-0.182-2.656-0.545
		c-0.823-0.363-1.434-0.82-1.832-1.371c-0.398-0.549-0.679-1.223-0.84-2.02c-0.111-0.535-0.167-1.383-0.167-2.543v-9.961h2.725
		v8.916c0,1.423,0.056,2.382,0.167,2.876c0.172,0.717,0.535,1.278,1.09,1.688c0.555,0.408,1.241,0.612,2.059,0.612
		s1.584-0.21,2.301-0.628c0.717-0.419,1.224-0.989,1.521-1.711c0.297-0.721,0.446-1.768,0.446-3.141v-8.613h2.725v16.076H736.32z"/>
	<path fill="#1D4056" d="M742.996,81.869V65.793h2.451v2.438c0.626-1.141,1.204-1.893,1.733-2.256
		c0.53-0.363,1.112-0.545,1.749-0.545c0.918,0,1.852,0.293,2.8,0.879l-0.938,2.527c-0.666-0.394-1.332-0.59-1.998-0.59
		c-0.596,0-1.13,0.179-1.604,0.537c-0.475,0.357-0.813,0.855-1.015,1.49c-0.303,0.969-0.453,2.029-0.453,3.18v8.416H742.996z"/>
	<path fill="#1D4056" d="M760.872,77.07l2.695-0.424c0.15,1.08,0.572,1.907,1.264,2.482c0.69,0.575,1.657,0.863,2.898,0.863
		c1.251,0,2.18-0.256,2.785-0.766c0.605-0.509,0.908-1.106,0.908-1.793c0-0.615-0.268-1.1-0.803-1.453
		c-0.373-0.242-1.301-0.55-2.785-0.924c-1.998-0.504-3.383-0.94-4.154-1.309c-0.772-0.369-1.357-0.879-1.756-1.529
		c-0.399-0.65-0.598-1.369-0.598-2.156c0-0.717,0.163-1.381,0.491-1.99c0.328-0.611,0.774-1.118,1.34-1.521
		c0.424-0.313,1.001-0.578,1.733-0.795c0.731-0.217,1.516-0.326,2.354-0.326c1.262,0,2.369,0.182,3.322,0.545
		c0.954,0.363,1.658,0.855,2.111,1.477c0.455,0.621,0.768,1.451,0.939,2.49l-2.664,0.363c-0.121-0.828-0.473-1.474-1.053-1.938
		c-0.58-0.465-1.4-0.697-2.459-0.697c-1.252,0-2.145,0.207-2.68,0.621s-0.803,0.898-0.803,1.453c0,0.354,0.111,0.672,0.334,0.953
		c0.222,0.293,0.569,0.535,1.044,0.727c0.272,0.102,1.075,0.334,2.407,0.697c1.927,0.514,3.271,0.936,4.033,1.264
		s1.36,0.805,1.794,1.43c0.434,0.627,0.651,1.403,0.651,2.332c0,0.908-0.266,1.764-0.795,2.564c-0.53,0.803-1.295,1.424-2.293,1.863
		c-1,0.438-2.13,0.658-3.391,0.658c-2.09,0-3.682-0.434-4.776-1.303C761.874,80.063,761.175,78.775,760.872,77.07z"/>
	<path fill="#1D4056" d="M787.997,81.869v-2.361c-1.251,1.816-2.951,2.725-5.101,2.725c-0.948,0-1.834-0.182-2.656-0.545
		c-0.823-0.363-1.434-0.82-1.832-1.371c-0.398-0.549-0.679-1.223-0.84-2.02c-0.111-0.535-0.167-1.383-0.167-2.543v-9.961h2.725
		v8.916c0,1.423,0.056,2.382,0.167,2.876c0.172,0.717,0.535,1.278,1.09,1.688c0.555,0.408,1.241,0.612,2.059,0.612
		s1.584-0.21,2.301-0.628c0.717-0.419,1.224-0.989,1.521-1.711c0.297-0.721,0.446-1.768,0.446-3.141v-8.613h2.725v16.076H787.997z"
		/>
	<path fill="#1D4056" d="M794.674,81.869V65.793h2.451v2.438c0.626-1.141,1.204-1.893,1.733-2.256
		c0.53-0.363,1.112-0.545,1.749-0.545c0.918,0,1.852,0.293,2.8,0.879l-0.938,2.527c-0.666-0.394-1.332-0.59-1.998-0.59
		c-0.596,0-1.13,0.179-1.604,0.537c-0.475,0.357-0.813,0.855-1.015,1.49c-0.303,0.969-0.453,2.029-0.453,3.18v8.416H794.674z"/>
	<path fill="#1D4056" d="M804.526,83.201l2.649,0.393c0.11,0.818,0.418,1.413,0.923,1.787c0.676,0.504,1.6,0.756,2.771,0.756
		c1.261,0,2.234-0.252,2.921-0.756c0.687-0.506,1.15-1.211,1.393-2.119c0.142-0.556,0.207-1.721,0.196-3.497
		c-1.19,1.403-2.674,2.104-4.449,2.104c-2.211,0-3.921-0.797-5.132-2.393c-1.211-1.594-1.816-3.506-1.816-5.736
		c0-1.533,0.277-2.949,0.833-4.246c0.555-1.297,1.359-2.298,2.414-3.004c1.054-0.707,2.293-1.061,3.716-1.061
		c1.897,0,3.461,0.768,4.692,2.301v-1.938h2.513v13.896c0,2.502-0.255,4.275-0.765,5.32s-1.316,1.869-2.422,2.475
		c-1.104,0.605-2.465,0.908-4.079,0.908c-1.917,0-3.466-0.432-4.647-1.295C805.057,86.236,804.486,84.936,804.526,83.201z
		 M806.781,73.543c0,2.109,0.419,3.648,1.257,4.617s1.887,1.453,3.148,1.453c1.251,0,2.301-0.482,3.148-1.445
		c0.848-0.964,1.271-2.475,1.271-4.533c0-1.969-0.437-3.451-1.31-4.451c-0.873-0.998-1.925-1.498-3.156-1.498
		c-1.211,0-2.24,0.492-3.088,1.477C807.205,70.145,806.781,71.605,806.781,73.543z"/>
	<path fill="#1D4056" d="M833.271,76.691l2.815,0.349c-0.444,1.646-1.267,2.921-2.467,3.829c-1.201,0.908-2.735,1.363-4.602,1.363
		c-2.352,0-4.216-0.725-5.594-2.172c-1.377-1.449-2.066-3.479-2.066-6.094c0-2.703,0.697-4.803,2.09-6.297
		c1.393-1.492,3.198-2.24,5.418-2.24c2.15,0,3.906,0.732,5.268,2.195c1.363,1.463,2.044,3.521,2.044,6.176
		c0,0.162-0.005,0.404-0.015,0.727h-11.988c0.101,1.766,0.6,3.118,1.498,4.057s2.019,1.408,3.36,1.408
		c0.999,0,1.852-0.263,2.558-0.787C832.298,78.68,832.857,77.842,833.271,76.691z M824.325,72.287h8.977
		c-0.121-1.352-0.464-2.366-1.029-3.043c-0.868-1.049-1.993-1.574-3.375-1.574c-1.252,0-2.304,0.42-3.156,1.257
		C824.888,69.765,824.417,70.885,824.325,72.287z"/>
	<path fill="#1D4056" d="M839.479,81.869V65.793h2.451v2.438c0.626-1.141,1.204-1.893,1.733-2.256
		c0.53-0.363,1.112-0.545,1.749-0.545c0.918,0,1.852,0.293,2.8,0.879l-0.938,2.527c-0.666-0.394-1.332-0.59-1.998-0.59
		c-0.596,0-1.13,0.179-1.604,0.537c-0.475,0.357-0.813,0.855-1.015,1.49c-0.303,0.969-0.453,2.029-0.453,3.18v8.416H839.479z"/>
	<path fill="#1D4056" d="M849.709,88.06l-0.303-2.558c0.596,0.16,1.115,0.242,1.56,0.242c0.605,0,1.09-0.102,1.453-0.303
		c0.363-0.203,0.661-0.484,0.894-0.848c0.171-0.273,0.448-0.949,0.832-2.029c0.051-0.15,0.131-0.373,0.242-0.666l-6.1-16.105h2.936
		l3.346,9.31c0.434,1.181,0.822,2.422,1.166,3.724c0.313-1.251,0.686-2.473,1.119-3.663l3.437-9.37h2.725l-6.115,16.348
		c-0.656,1.766-1.165,2.982-1.528,3.648c-0.484,0.898-1.04,1.557-1.666,1.975c-0.625,0.42-1.372,0.629-2.24,0.629
		C850.94,88.393,850.355,88.281,849.709,88.06z"/>
	<path fill="#1D4056" d="M870.478,88.105l0.515-2.316c0.545,0.141,0.974,0.212,1.287,0.212c0.555,0,0.969-0.185,1.24-0.552
		c0.273-0.369,0.409-1.29,0.409-2.764V65.793h2.725v16.953c0,1.979-0.257,3.355-0.772,4.133c-0.655,1.009-1.745,1.514-3.27,1.514
		C871.875,88.393,871.164,88.297,870.478,88.105z M873.929,62.842v-3.164h2.725v3.164H873.929z"/>
	<path fill="#1D4056" d="M879.816,73.831c0-2.977,0.827-5.182,2.482-6.614c1.383-1.191,3.067-1.787,5.056-1.787
		c2.21,0,4.017,0.725,5.419,2.172c1.402,1.449,2.104,3.449,2.104,6.002c0,2.069-0.31,3.696-0.931,4.883
		c-0.62,1.186-1.523,2.105-2.709,2.762c-1.187,0.656-2.48,0.984-3.883,0.984c-2.25,0-4.069-0.722-5.457-2.165
		C880.51,78.625,879.816,76.546,879.816,73.831z M882.617,73.831c0,2.059,0.448,3.601,1.347,4.624
		c0.898,1.024,2.028,1.537,3.391,1.537c1.353,0,2.478-0.516,3.376-1.545c0.897-1.029,1.347-2.598,1.347-4.707
		c0-1.988-0.452-3.494-1.354-4.518c-0.903-1.025-2.026-1.537-3.368-1.537c-1.362,0-2.492,0.51-3.391,1.529
		S882.617,71.772,882.617,73.831z"/>
	<path fill="#1D4056" d="M908.606,81.869v-2.361c-1.251,1.816-2.951,2.725-5.101,2.725c-0.948,0-1.834-0.182-2.656-0.545
		c-0.823-0.363-1.434-0.82-1.832-1.371c-0.398-0.549-0.679-1.223-0.84-2.02c-0.111-0.535-0.167-1.383-0.167-2.543v-9.961h2.725
		v8.916c0,1.423,0.056,2.382,0.167,2.876c0.172,0.717,0.535,1.278,1.09,1.688c0.555,0.408,1.241,0.612,2.059,0.612
		s1.584-0.21,2.301-0.628c0.717-0.419,1.224-0.989,1.521-1.711c0.297-0.721,0.446-1.768,0.446-3.141v-8.613h2.725v16.076H908.606z"
		/>
	<path fill="#1D4056" d="M915.283,81.869V65.793h2.451v2.438c0.626-1.141,1.204-1.893,1.733-2.256
		c0.53-0.363,1.112-0.545,1.749-0.545c0.918,0,1.852,0.293,2.8,0.879l-0.938,2.527c-0.666-0.394-1.332-0.59-1.998-0.59
		c-0.596,0-1.13,0.179-1.604,0.537c-0.475,0.357-0.813,0.855-1.015,1.49c-0.303,0.969-0.453,2.029-0.453,3.18v8.416H915.283z"/>
	<path fill="#1D4056" d="M925.635,81.869V65.793h2.453v2.286c1.18-1.766,2.886-2.649,5.115-2.649c0.969,0,1.859,0.174,2.672,0.523
		c0.813,0.348,1.421,0.805,1.824,1.369c0.403,0.565,0.687,1.236,0.848,2.014c0.101,0.504,0.151,1.387,0.151,2.648v9.885h-2.725
		V72.09c0-1.109-0.106-1.939-0.317-2.49c-0.213-0.549-0.589-0.988-1.128-1.316c-0.54-0.328-1.173-0.492-1.899-0.492
		c-1.161,0-2.163,0.369-3.005,1.105c-0.843,0.736-1.265,2.135-1.265,4.193v8.779H925.635z"/>
	<path fill="#1D4056" d="M953.881,76.691l2.815,0.349c-0.444,1.646-1.267,2.921-2.467,3.829c-1.201,0.908-2.735,1.363-4.602,1.363
		c-2.352,0-4.216-0.725-5.594-2.172c-1.377-1.449-2.066-3.479-2.066-6.094c0-2.703,0.697-4.803,2.09-6.297
		c1.393-1.492,3.198-2.24,5.418-2.24c2.15,0,3.906,0.732,5.268,2.195c1.363,1.463,2.044,3.521,2.044,6.176
		c0,0.162-0.005,0.404-0.015,0.727h-11.988c0.101,1.766,0.6,3.118,1.498,4.057s2.019,1.408,3.36,1.408
		c0.999,0,1.852-0.263,2.558-0.787C952.907,78.68,953.467,77.842,953.881,76.691z M944.935,72.287h8.977
		c-0.121-1.352-0.464-2.366-1.029-3.043c-0.868-1.049-1.993-1.574-3.375-1.574c-1.252,0-2.304,0.42-3.156,1.257
		C945.497,69.765,945.026,70.885,944.935,72.287z"/>
	<path fill="#1D4056" d="M959.996,88.06l-0.303-2.558c0.596,0.16,1.115,0.242,1.56,0.242c0.605,0,1.09-0.102,1.453-0.303
		c0.363-0.203,0.661-0.484,0.894-0.848c0.171-0.273,0.448-0.949,0.832-2.029c0.051-0.15,0.131-0.373,0.242-0.666l-6.1-16.105h2.936
		l3.346,9.31c0.434,1.181,0.822,2.422,1.166,3.724c0.313-1.251,0.686-2.473,1.119-3.663l3.437-9.37h2.725l-6.115,16.348
		c-0.656,1.766-1.165,2.982-1.528,3.648c-0.484,0.898-1.04,1.557-1.666,1.975c-0.625,0.42-1.372,0.629-2.24,0.629
		C961.228,88.393,960.643,88.281,959.996,88.06z"/>
</g>
</svg>
