<svg xmlns="http://www.w3.org/2000/svg" width="88.4" height="89.212" viewBox="0 0 88.4 89.212">
    <defs>
        <linearGradient id="linear-gradient" x1=".5" x2=".5" y2="1" gradientUnits="objectBoundingBox">
            <stop offset="0" stop-color="#1778f2"/>
            <stop offset="1" stop-color="#f40009"/>
        </linearGradient>
        <style>
            .cls-7{isolation:isolate}.cls-2,.cls-3,.cls-4,.cls-6{fill:#fff}.cls-2{stroke:#707070;stroke-width:.7px}.cls-4,.cls-5,.cls-6,.cls-7,.cls-8{stroke-width:.7px;stroke:#2d2d2d;stroke-miterlimit:10}.cls-5{fill:none}.cls-5,.cls-6,.cls-8{stroke-linecap:round}.cls-7{fill:#ff8e93}.cls-8{fill:#86bcff}
        </style>
    </defs>
    <g id="Group_124934" transform="translate(-59 -2180)">
        <g id="Group_124193">
            <g id="Group_124188">
                <g id="Group_124180" transform="translate(-185.403 1331.698)">
                    <path id="Path_153243" d="M276.7 931.793a105.893 105.893 0 0 1-27.388-27.393 17.256 17.256 0 0 1-4.909-11.9 16.787 16.787 0 0 1 4.909-11.9 144.541 144.541 0 0 1 27.388-27.389 17.265 17.265 0 0 1 11.9-4.909 16.779 16.779 0 0 1 11.9 4.909 164.844 164.844 0 0 1 27.394 27.389 17.235 17.235 0 0 1 4.909 11.9 16.779 16.779 0 0 1-4.909 11.9 162.833 162.833 0 0 1-27.394 27.393 17.383 17.383 0 0 1-7.239 4.259 16.538 16.538 0 0 1-4.664.65 17.471 17.471 0 0 1-5.792-1.133 18.728 18.728 0 0 1-6.105-3.776z" style="isolation:isolate" fill="url(#linear-gradient)" opacity="0.05"/>
                </g>
                <g id="Group_124186" transform="translate(-700.226 1325.304)">
                    <path id="Path_229432" d="M801.225 890.155l5.2 4.595-12.325 1.01s-4.342-.909-4.14-1.061a10.461 10.461 0 0 1 11.265-4.544z" class="cls-2"/>
                    <path id="Path_229433" d="M811.252 905.087l-.311 6.012 4.014.939 3.144-6.159z" class="cls-2"/>
                    <path id="Path_229404" d="M780.975 907.217l-4.647 10.351 5.386 3.7c.047 1.828.024 3.814-.1 5.935-.132 2.158-.358 4.164-.634 6 8.561 9.529 23.29 14.537 33.774 7.176-.338-1.683-1.115-7.206-1.428-9.714a87.253 87.253 0 0 1-.66-9.611l.74-11.513-1.585-9.189-10.245 3.538-7.182 1.215z" class="cls-3"/>
                    <path id="Path_229407" d="M790.343 892.719c-.162.058-.324.124-.5.191a6.107 6.107 0 0 0 2.458-1.734 6.924 6.924 0 0 0 1.505-5.031 15.87 15.87 0 0 1-5.078-7.29 14.8 14.8 0 0 1-.686-5.65c.162-1.753.238-2.687.848-3.592 1.743-2.583 5.25-.639 9.3-3.478 2.782-1.963 3.211-3.793 4.85-3.7 2.982.172 4.707 6.375 4.859 6.966a16.484 16.484 0 0 1-.314 9.09 17.316 17.316 0 0 1-5.226 7.816 5.111 5.111 0 0 0 .4 3.763 5.323 5.323 0 0 0 2.934 2.259" class="cls-4"/>
                    <ellipse id="Ellipse_52056" cx="10.275" cy="13.793" class="cls-4" rx="10.275" ry="13.793" transform="translate(787.884 859.669)"/>
                    <path id="Path_229409" d="M777.833 941.595a39.626 39.626 0 0 0 3.894-13.722 38.431 38.431 0 0 0 .159-4.238" class="cls-5"/>
                    <path id="Path_229410" d="M815.524 941.595a73.214 73.214 0 0 1-2.018-10.534c-.179-1.537-.3-3.022-.38-4.45 0 0-.1-4.651 0-6.761" class="cls-5"/>
                    <path id="Path_229413" d="M807.721 878.281c2.664-1.253 3.672-3.608 3.035-4.906-.513-1.046-2.035-1.285-2.392-1.332a18.026 18.026 0 0 1-.643 6.238z" class="cls-6"/>
                    <path id="Path_229414" d="M788.116 877.773c-2.487-1.261-3.354-3.633-2.652-4.952a3.264 3.264 0 0 1 2.435-1.326 17.87 17.87 0 0 0-.179 2.634 18.075 18.075 0 0 0 .396 3.644z" class="cls-6"/>
                    <path id="Path_229416-2" d="M784.944 910.011c0 3.878 3.124 4.091 4.742 3.878 4.173-.549 7.965-2.081 9.576-2.331 2.085-.323 3.377 5.205 3.468 6.189s-1.074 1.507-1.074 1.507c-27.7 11.15-25.795-3.76-25.795-3.76.467-17.307 5.882-19.687 5.882-19.687 2.41-1.611 5.229-3.2 8.114-3.476a5.043 5.043 0 0 1 3.814.579c2.661 1.736 6.456 1.619 8.365.155a4.944 4.944 0 0 1 3.659-.734c.082.012.205.03.355.054a19.435 19.435 0 0 1 10.6 5.275c1.253 1.3 1.329 3.324 3.248 7.427" class="cls-6"/>
                    <path id="Path_229419" d="M808.128 902.214a41.529 41.529 0 0 0-2.067-9.827" class="cls-5"/>
                    <circle id="Ellipse_52057" cx="1.634" cy="1.634" r="1.634" class="cls-7" transform="translate(806.637 901.679)"/>
                    <path id="Path_229418" d="M789.748 910.424a2.89 2.89 0 0 1-2.636.448c-2.951-1.421-2.368-12.772 1.292-13.987 3.79-1.26 11.284 8.218 9.669 11.014-.327.565-1.075.946-2.438 1.029" class="cls-5"/>
                    <circle id="Ellipse_52058" cx="1.197" cy="1.197" r="1.197" class="cls-7" transform="translate(788.306 909.281)"/>
                    <circle id="Ellipse_52059" cx="1.197" cy="1.197" r="1.197" class="cls-7" transform="translate(793.613 907.994)"/>
                    <path id="Path_184964" d="M808.4 874.219c.014 2.234-.446 10.585-7.917 13.091a7.661 7.661 0 0 1-5.025-.041c-3.125-1.122-7.963-4.38-7.563-13.682.007-.091-.1-.132-.007-.125l.007.125a1.541 1.541 0 0 0 0 .84c1.086 1.379 5.023-.527 9.687-.527 4.844 0 9.435 1.742 10.766.734" class="cls-8"/>
                    <path id="Path_229434" d="M812.152 912.8a6.368 6.368 0 0 0-.9 4.586c.261 1.778 3.112 3.61 4.909 3.589a5.694 5.694 0 0 0 3.142-1.722c1.853-2.262.6-14.167.6-14.167" class="cls-6"/>
                    <path id="Path_229435" d="M812.816 914.5s.383 2.616 3.606 2.2 2.513-10.325 3.387-11.655 4.316-3.993 5.408-5.415 2.513-3.075 2.513-3.075 2.841-4.542 3.278-6.378c0 0 .164-1.147-.765-1.009 0 0-.546.046-.655.229 0 0-.055-1.055-.929-.918a1.557 1.557 0 0 0-1.038 1.606 10.176 10.176 0 0 1-.874 3.258s-.055-2.936-.765-4.129a.881.881 0 0 0-1.694.183c.055.413.492 3.533.438 4.176a1.8 1.8 0 0 1-.328.963s-.219-.183-.328-1.1-.382-2.753-1.366-2.524a.886.886 0 0 0-.786 1.056 35.64 35.64 0 0 0-2.6 4.084c-.874 1.743-3.059 5.047-3.387 5.919s-3.114 11.013-3.114 11.013a2.725 2.725 0 0 0-.001 1.516z" class="cls-8"/>
                    <g id="Group_124184">
                        <path id="Path_229436" d="M822.006 892.009a7.168 7.168 0 0 1 .318 2.519 10.919 10.919 0 0 0 .323 3.489" class="cls-8"/>
                        <path id="Path_229437" d="M824.486 894.579s-.172.278.494 2.191" class="cls-8"/>
                        <path id="Path_229438" d="M826.836 893.386v2.913" class="cls-8"/>
                        <path id="Path_229439" d="M822.327 894.3a9.933 9.933 0 0 0-.465 2" class="cls-8"/>
                        <path id="Path_229440" d="M829.568 889.424a27.15 27.15 0 0 1-.631 2.755" class="cls-8"/>
                    </g>
                    <path id="Path_229442" fill="none" stroke="#2d2d2d" stroke-linecap="round" stroke-linejoin="bevel" stroke-width="0.7px" d="M812.812 906.458s.179 2.288-.532 3.137"/>
                    <path id="Path_229443" fill="#fff" stroke="#2d2d2d" stroke-linecap="round" stroke-linejoin="bevel" stroke-width="0.7px" d="M811.556 914.056a15.991 15.991 0 0 0 1.554-4.774s-.218-1.553 1.991-.751 4 1.115 4.791.648 1.38.037 1.085.563a27.645 27.645 0 0 0-.706 5.216"/>
                    <path id="Path_229444" d="M819 913.751l-.687 4.338-6.759-1.215 1.1-3.407z" class="cls-3"/>
                    <g id="Group_124185">
                        <path id="Path_229445" d="M812.535 906.075a2.724 2.724 0 0 1 1.712 2.868c-.011 3.873-2.159 3.622-2.159 3.622-.4 1.12-2.919 1.582-2.919 1.582-.893 1.052-1.634.7-1.634.7a5.824 5.824 0 0 1-2.146.544 7.124 7.124 0 0 0-2.977 1.492 1.935 1.935 0 0 1-.734.5c-3.006-.222-3.553-2.787-3.61-4.308a1.175 1.175 0 0 1 .892-1.183c.851-.221 2.3-.959 4.132-3.282 0-.003 3.043-4.196 9.443-2.535z" class="cls-8"/>
                        <path id="Path_229446" d="M805.045 910.445a13.842 13.842 0 0 0 1.45 1.371c.563.423-.634 1.336-.664 1.629s-.255.851.387 1.26 1.636-.489 2.033-1.3a2.831 2.831 0 0 0 .064-2.909 13.493 13.493 0 0 0-1.451-1.635" class="cls-8"/>
                        <path id="Path_229447" d="M809.169 914.147a5.677 5.677 0 0 0 1.551-2.663 2.847 2.847 0 0 0-1.081-3.261" class="cls-8"/>
                        <path id="Path_229448" d="M811.966 912.8c1.214-1.53.79-3.17.707-4.663a2.3 2.3 0 0 0-.563-.917" class="cls-8"/>
                    </g>
                    <path id="Path_229449" fill="#fff" stroke="#2d2d2d" stroke-linecap="round" stroke-linejoin="round" stroke-width="0.7px" d="M794.528 912.867s3.03-.924 4.125-1.188 1.078-.092 1.078-.092c3.624 1.624 2.9 6.744 2.9 6.744a2.553 2.553 0 0 1-1.445 1.112c-.929.219-1.82.756-3.7 1.374"/>
                    <path id="Path_229450" fill="#474747" stroke="#2d2d2d" stroke-miterlimit="10" stroke-width="0.7px" d="M787.9 871.495s1.164-3.691 4.017-3.216 10.99 1.141 12.343-2.663c0 0-11.106-3.139-14.72-.856-.001 0-1.784 5.025-1.64 6.735z"/>
                    <path id="Path_229451" d="M788 869.882s1.426-3.96 10.187-3.747 9.713 3.265 9.713 3.265.389 2.17 1.432.481c0 0 2.118-2.506 1-4.664 0 0-.118-3.54-2.606-4.576 0 0-1.538-3.784-5.164-3.4 0 0-4.49-2.335-7.77-.027 0 0-4.921.236-5.871 3.171 0 0-2.325 1.295-1.983 4.921a4.287 4.287 0 0 0 1.062 4.576z" class="cls-8"/>
                    <path id="Path_229452" d="M788.4 896.885s-.206-3.516 1.453-4.554" class="cls-5"/>
                    <path id="Path_117844" d="M800.288 861.1l-.687.005a.217.217 0 0 1-.219-.214l-.007-.654a.7.7 0 0 0-1.39-.015l.008.678a.218.218 0 0 1-.22.215l-.729.007a.694.694 0 0 0-.707.681.692.692 0 0 0 .721.66l.73-.013a.218.218 0 0 1 .228.207l.008.659a.668.668 0 0 0 .54.649.7.7 0 0 0 .832-.531.706.706 0 0 0 .016-.123l-.007-.671a.217.217 0 0 1 .218-.216l.686-.012a.672.672 0 0 0 .672-.664.669.669 0 0 0-.685-.654z" class="cls-7"/>
                </g>
            </g>
        </g>
    </g>
</svg>
