<svg xmlns="http://www.w3.org/2000/svg" width="100" height="100" viewBox="0 0 100 100">
    <defs>
        <linearGradient id="8ul14wi4da" x1=".5" x2=".5" y2="1" gradientUnits="objectBoundingBox">
            <stop offset="0" stop-color="#1778f2"/>
            <stop offset="1" stop-color="#f40009"/>
        </linearGradient>
    </defs>
    <g data-name="Group 124992">
        <path data-name="Rectangle 10366" style="fill:none" d="M0 0h100v100H0z"/>
        <g data-name="Group 124192">
            <g data-name="Group 124142">
                <path data-name="Path 228174" d="M32.3 83.491a105.79 105.79 0 0 1-15.1-12.574A105.57 105.57 0 0 1 4.909 56.1 17.251 17.251 0 0 1 0 44.2a16.783 16.783 0 0 1 4.909-11.9A144.539 144.539 0 0 1 32.3 4.909 17.263 17.263 0 0 1 44.2 0a16.781 16.781 0 0 1 11.9 4.909 164.255 164.255 0 0 1 13.841 12.23A164.608 164.608 0 0 1 83.491 32.3 17.24 17.24 0 0 1 88.4 44.2a16.782 16.782 0 0 1-4.909 11.9 163.679 163.679 0 0 1-14.236 15.855A164.629 164.629 0 0 1 56.1 83.491a17.386 17.386 0 0 1-7.239 4.259 16.564 16.564 0 0 1-4.664.65 17.462 17.462 0 0 1-5.792-1.133 18.7 18.7 0 0 1-6.105-3.776z" transform="translate(5.375 6)" style="opacity:.05;fill:url(#8ul14wi4da)"/>
                <g data-name="Group 123877">
                    <g data-name="Group 124141" transform="translate(7.245 8)">
                        <path data-name="Path 228850" d="M1345.915 1892.74a29.411 29.411 0 0 1-.507-3.094 46.011 46.011 0 0 1-.164-9.364c.45-4.119-.094-4.113.49-6.7s1.015-6.285 1.015-6.285l6.526-1.236 33.73-.766-.288 4.379a59.209 59.209 0 0 1 1.175 11.666c-.19 5.054-1.013 13.721-1.013 13.721z" transform="translate(-1325.251 -1813.667)" style="fill:#fff"/>
                        <g data-name="Group 124134">
                            <path data-name="Path 452" d="m1342.752 1862.276-1.548 3.253a54.206 54.206 0 0 0 4.842 2.377 55.057 55.057 0 0 0 8.574 2.9q.649-4.129 1.3-8.248l-7.85-3.541z" transform="translate(-1326.225 -1815.243)" style="fill:#fff"/>
                        </g>
                        <path data-name="Path 228851" d="M1378.018 1866.119a75.27 75.27 0 0 1 1.366 9.394 76.072 76.072 0 0 1-.724 18.3" transform="translate(-1316.978 -1813.458)" style="stroke-width:.7px;stroke-linecap:round;stroke:#2d2d2d;stroke-miterlimit:10;fill:#fff"/>
                        <path data-name="Path 228854" d="M1346.682 1866.289a75.044 75.044 0 0 0-1.366 9.394 76.022 76.022 0 0 0 .724 18.3" transform="translate(-1325.255 -1813.416)" style="stroke-width:.7px;stroke-linecap:round;stroke:#2d2d2d;stroke-miterlimit:10;fill:#fff"/>
                        <g data-name="Group 124135">
                            <path data-name="Path 453" d="M1352.421 1840.528a2.688 2.688 0 0 0-3.643-.332 2.167 2.167 0 0 0-.25 2.322 3.125 3.125 0 0 0 1.513 1.329 10.838 10.838 0 0 1 3.5 3.253" transform="translate(-1324.442 -1820.111)" style="fill:#fff"/>
                            <path data-name="Path 454" d="M1353.341 1847.359a10.671 10.671 0 0 0-3.4-3.154l-.131-.073a3.2 3.2 0 0 1-1.521-1.405 2.5 2.5 0 0 1 .314-2.7 3.029 3.029 0 0 1 4.116.319l-.459.485a2.361 2.361 0 0 0-3.173-.345 1.845 1.845 0 0 0-.193 1.951 2.57 2.57 0 0 0 1.237 1.1l.136.075a11.32 11.32 0 0 1 3.616 3.349z" transform="translate(-1324.509 -1820.177)" style="fill:#2d2d2d"/>
                        </g>
                        <g data-name="Group 124126">
                            <path data-name="Path 455" d="M1357.836 1848.678a81.407 81.407 0 0 0-15.163 14.845 25.13 25.13 0 0 1 2.064 3.692c.567 1.251 1.959 2.934 2.252 3.968 2.33.238 3.673-.039 6.006.2a240.066 240.066 0 0 1-3.029 30.856l31.485 3.894c-.229-1.906 2.662-8.8 2.362-12.442-.229-2.773-.325-4.548-.556-8.177-.16-2.519-.4-6.191-.728-10.718a1.529 1.529 0 0 1 .515-1.568 13.461 13.461 0 0 0 8.573-3 12.18 12.18 0 0 0 2.342-2.66q-.655-.65-1.31-1.31-1.8-1.809-3.532-3.612-5.756-5.833-11.511-11.67z" transform="translate(-1325.856 -1817.84)" style="fill:#fff"/>
                        </g>
                        <g data-name="Group 124127">
                            <path data-name="Path 456" d="M1371.256 1839.906c1.715-1.359 3.567-1.535 4.325-.8.684.665.384 1.976.341 2.157-.273 1.126-1.061 1.68-2.112 2.689a22.612 22.612 0 0 0-2.793 3.253" transform="translate(-1318.736 -1820.351)" style="fill:#fff"/>
                            <path data-name="Path 457" d="m1371.344 1847.467-.546-.387a23.3 23.3 0 0 1 2.834-3.3c.178-.169.348-.326.509-.478a4.072 4.072 0 0 0 1.509-2.047c.032-.133.3-1.309-.25-1.839-.617-.6-2.277-.456-3.879.819l-.415-.524c1.72-1.361 3.812-1.7 4.766-.774a2.741 2.741 0 0 1 .432 2.475 4.7 4.7 0 0 1-1.7 2.377c-.159.146-.326.3-.5.469a22.539 22.539 0 0 0-2.76 3.209z" transform="translate(-1318.791 -1820.417)" style="fill:#2d2d2d"/>
                        </g>
                        <g data-name="Group 124132" transform="translate(27.93 5.75)">
                            <ellipse data-name="Ellipse 6724" cx="12.364" cy="15.433" rx="12.364" ry="15.433" transform="translate(.339 .331)" style="fill:#fff"/>
                            <path data-name="Path 458" d="M1364.253 1860.156c-7.007 0-12.7-7.073-12.7-15.765s5.7-15.765 12.7-15.765 12.7 7.072 12.7 15.765-5.693 15.765-12.7 15.765zm0-30.867c-6.631 0-12.03 6.774-12.03 15.1s5.4 15.1 12.03 15.1 12.03-6.772 12.03-15.1-5.391-15.1-12.03-15.1z" transform="translate(-1351.555 -1828.626)" style="fill:#2d2d2d"/>
                        </g>
                        <g data-name="Group 124128">
                            <g data-name="Group 7170">
                                <path data-name="Path 459" d="M1352.366 1844.478c1.465.522 2.29-.821 5-1.294 2.868-.5 3.471.731 6.4.265a12.3 12.3 0 0 0 4.768-1.99c3.885-2.4 4.755-5.063 6-4.746 1.763.453.985 6.115 2.35 6.372.993.188 2.894-2.51 3.167-5.41.523-5.562-5.137-9.783-5.927-10.355a17.315 17.315 0 0 0-12.772-2.753c-1.877.32-6.731 1.149-9.774 5.41a11.85 11.85 0 0 0-1.465 11.417c.47 1.047.929 2.614 2.253 3.084z" transform="translate(-1324.198 -1823.961)" style="fill:#474747"/>
                            </g>
                            <g data-name="Group 7171">
                                <path data-name="Path 460" d="M1353.093 1845a2.257 2.257 0 0 1-.772-.139 4.34 4.34 0 0 1-2.232-2.776c-.071-.172-.14-.335-.209-.488a12.137 12.137 0 0 1 1.5-11.749c3.128-4.379 8.113-5.225 9.992-5.544a17.506 17.506 0 0 1 13.024 2.813c1.1.8 6.589 5.067 6.063 10.657a8.409 8.409 0 0 1-2.534 5.38 1.33 1.33 0 0 1-1.029.333c-.876-.167-1.056-1.535-1.26-3.122-.176-1.369-.4-3.072-1.112-3.253-.394-.1-.827.34-1.626 1.2a18.617 18.617 0 0 1-4.113 3.5 12.687 12.687 0 0 1-4.891 2.037 8.072 8.072 0 0 1-3.337-.147 7.07 7.07 0 0 0-3.063-.125 10.1 10.1 0 0 0-2.649.886 4.247 4.247 0 0 1-1.752.537zm11.406-20.288a18.2 18.2 0 0 0-3.018.25c-1.8.308-6.6 1.126-9.559 5.275a11.462 11.462 0 0 0-1.433 11.087c.071.157.143.329.216.5.4.962.852 2.052 1.839 2.4.684.25 1.187.014 2.023-.375a10.678 10.678 0 0 1 2.813-.935 7.7 7.7 0 0 1 3.318.125 7.339 7.339 0 0 0 3.091.139 11.92 11.92 0 0 0 4.642-1.943 18.038 18.038 0 0 0 3.976-3.395c.891-.962 1.476-1.6 2.28-1.394 1.156.3 1.386 2.087 1.609 3.819.134 1.043.318 2.475.719 2.55.055.01.21.011.5-.21a7.8 7.8 0 0 0 2.27-4.9c.491-5.228-4.737-9.292-5.789-10.053a16.089 16.089 0 0 0-9.496-2.938z" transform="translate(-1324.266 -1824.031)" style="fill:#2d2d2d"/>
                            </g>
                        </g>
                        <g data-name="Group 124129">
                            <path data-name="Path 471" d="m1375.99 1873.655-.148-.652c9.1-2.062 11.092-4.064 11.163-5.38.048-.788-.591-1.36-2.166-2.692a54.053 54.053 0 0 1-5.325-5.055c-1.232-1.337-1.857-2.142-2.41-2.852a20.235 20.235 0 0 0-2.288-2.562 28.283 28.283 0 0 0-5.891-4.644l.324-.583a28.767 28.767 0 0 1 6.028 4.746 20.832 20.832 0 0 1 2.354 2.635 37.2 37.2 0 0 0 2.377 2.807 52.936 52.936 0 0 0 5.266 5c1.591 1.348 2.468 2.088 2.4 3.241-.124 2.275-3.946 4.236-11.684 5.991z" transform="translate(-1319.261 -1817.7)" style="fill:#2d2d2d"/>
                        </g>
                        <g data-name="Group 124133">
                            <path data-name="Path 472" d="M1353.219 1872.9c-8.655-2.036-12.88-4.119-12.913-6.365-.009-.932.668-1.52 1.9-2.587a43.721 43.721 0 0 0 3.829-3.688 27.658 27.658 0 0 0 2.479-3.051 21.026 21.026 0 0 1 1.821-2.273 25.389 25.389 0 0 1 7.362-5.766l.3.6a24.728 24.728 0 0 0-7.168 5.62 20.458 20.458 0 0 0-1.771 2.208 28.776 28.776 0 0 1-2.53 3.115 44.342 44.342 0 0 1-3.879 3.74c-1.147 1-1.672 1.454-1.667 2.074.02 1.284 2.187 3.321 12.4 5.722z" transform="translate(-1326.451 -1817.716)" style="fill:#2d2d2d"/>
                        </g>
                        <g data-name="Group 124136">
                            <path data-name="Path 473" d="M1348.5 1898.548h-.045a.333.333 0 0 1-.286-.375c.807-6 1.554-11.985 2.221-17.793a63.5 63.5 0 0 0 .543-8.895 58 58 0 0 0-.917-9.372.332.332 0 0 1 .268-.388.329.329 0 0 1 .387.257v.014a58.464 58.464 0 0 1 .927 9.479 64.368 64.368 0 0 1-.547 8.984 927.367 927.367 0 0 1-2.224 17.807.332.332 0 0 1-.327.282z" transform="translate(-1324.476 -1814.564)" style="fill:#2d2d2d"/>
                        </g>
                        <g data-name="Group 124130">
                            <path data-name="Path 474" d="M1377.376 1898.141a.331.331 0 0 1-.324-.26 107.617 107.617 0 0 1-2.407-15.557c-.181-2.3-.266-4.4-.4-7.573-.17-4.174-.278-8.29-.32-12.3a.334.334 0 0 1 .329-.337.335.335 0 0 1 .334.33c.044 4 .15 8.109.317 12.216.131 3.227.216 5.318.4 7.608a107.161 107.161 0 0 0 2.393 15.461.334.334 0 0 1-.249.4.245.245 0 0 1-.073.012z" transform="translate(-1318.005 -1814.464)" style="fill:#2d2d2d"/>
                        </g>
                        <g data-name="Group 124131">
                            <g data-name="Group 260">
                                <g data-name="Group 230">
                                    <path data-name="Rectangle 45" style="fill:none" d="M0 0h31.28v31.28H0z" transform="translate(25.934 38.27)"/>
                                    <path data-name="Path 196" d="M1358.692 1868.421c.507-.667 1.339-.315 2.127-1.05a3.616 3.616 0 0 0 .837-2.43c.269-2.18-.214-3.093-.125-5.309a14.183 14.183 0 0 1 .31-2.44 1.458 1.458 0 0 1 1.194-1.407 1.484 1.484 0 0 1 1.586 1.371v.089a13.76 13.76 0 0 1 .214 2.563c-.026 2.421-.683 3.134-.4 5a4.28 4.28 0 0 0 1.3 2.885c.948.751 1.843.4 2.2 1.057a2.282 2.282 0 0 1-1.446 2.794c-1.231.226-2.422-1.563-2.49-1.667-.458-.7-.524-1.3-.876-1.334s-.553.493-1 1.11c-.111.154-1.67 2.271-2.672 2.018-.873-.22-1.475-2.307-.759-3.25z" transform="translate(-1321.912 -1816.055)" style="stroke-width:.5px;stroke-linecap:round;stroke:#2d2d2d;stroke-miterlimit:10;fill:#fff"/>
                                    <path data-name="Path 197" d="M1362.006 1870.57c-1.041-1.965-1.735-1.979-1.858-3.2-.1-.966.352-1.266.278-2.761-.038-.77-.085-1.752-.582-1.987-.771-.363-2.228 1.251-2.658 1.727a17.351 17.351 0 0 0-3.941 8.307c-.786 4.135-1.479 7.789.444 9.238 2.64 1.992 9.134-.988 9.822-4.412a8.817 8.817 0 0 0-.223-3.165 13.053 13.053 0 0 0-1.282-3.747z" transform="translate(-1323.4 -1814.349)" style="fill:#ff8e93;stroke-width:.5px;stroke-linecap:round;stroke:#2d2d2d;stroke-miterlimit:10"/>
                                    <path data-name="Path 198" d="M1364.5 1870.629c1.115-1.924 1.809-1.91 1.979-3.128.134-.962-.3-1.279-.173-2.77.068-.767.153-1.752.658-1.963.783-.333 2.178 1.336 2.59 1.828a17.361 17.361 0 0 1 3.621 8.45c.626 4.163 1.179 7.839-.8 9.214-2.715 1.889-9.084-1.336-9.644-4.784a8.812 8.812 0 0 1 .343-3.154 13.008 13.008 0 0 1 1.426-3.693z" transform="translate(-1320.824 -1814.311)" style="fill:#ff8e93;stroke-width:.5px;stroke-linecap:round;stroke:#2d2d2d;stroke-miterlimit:10"/>
                                    <path data-name="Path 199" d="M1361.065 1857.677a3.04 3.04 0 0 0 2.964.036" transform="translate(-1321.236 -1815.579)" style="stroke-width:.5px;stroke-linecap:round;stroke:#2d2d2d;stroke-miterlimit:10;fill:none"/>
                                    <path data-name="Path 200" d="M1360.943 1859.593a4.234 4.234 0 0 0 3.156.079" transform="translate(-1321.267 -1815.098)" style="stroke-width:.5px;stroke-linecap:round;stroke:#2d2d2d;stroke-miterlimit:10;fill:#fff"/>
                                    <path data-name="Path 201" d="M1361.082 1861.565a3.143 3.143 0 0 0 2.661.051" transform="translate(-1321.232 -1814.602)" style="stroke-width:.5px;stroke-linecap:round;stroke:#2d2d2d;stroke-miterlimit:10;fill:#fff"/>
                                    <path data-name="Path 202" d="M1360.954 1863.612a3.283 3.283 0 0 0 2.821.055" transform="translate(-1321.264 -1814.088)" style="stroke-width:.5px;stroke-linecap:round;stroke:#2d2d2d;stroke-miterlimit:10;fill:#fff"/>
                                </g>
                            </g>
                        </g>
                        <path data-name="Path 228853" d="M1361.291 1878.392a5.15 5.15 0 0 1-.539 4.18c-1.546 2.127-4.712 1.752-5.13 1.7-2.347-.315-5.814-2.162-5.881-5.674a5.775 5.775 0 0 1 5.668-5.879h.006c3.619-.06 5.423 3.659 5.876 5.673z" transform="translate(-1323.292 -1823.437)" style="opacity:.4;isolation:isolate;fill:#ff8e93"/>
                        <path data-name="Path 228853" d="M1361.291 1878.392a5.15 5.15 0 0 1-.539 4.18c-1.546 2.127-4.712 1.752-5.13 1.7-2.347-.315-5.814-2.162-5.881-5.674a5.775 5.775 0 0 1 5.668-5.879h.006c3.619-.06 5.423 3.659 5.876 5.673z" transform="translate(-1304.553 -1816.079)" style="opacity:.4;isolation:isolate;fill:#ff8e93"/>
                        <path data-name="Path 228855" d="M1364.865 1868.378a3.687 3.687 0 0 1 1.538 2.974c-.085 1.874-.338 5.892 0 7.108" transform="translate(-1320.281 -1812.891)" style="stroke:#c76b70;stroke-linejoin:round;stroke-width:.4px;stroke-linecap:round;fill:none"/>
                        <path data-name="Path 228856" d="M1366.176 1873.707a6.216 6.216 0 0 1 .991 1.425 1.708 1.708 0 0 0 1.421 1.1" transform="translate(-1319.952 -1811.552)" style="stroke:#c76b70;stroke-linejoin:round;stroke-width:.4px;stroke-linecap:round;fill:none"/>
                        <path data-name="Path 228857" d="M1366.1 1871.207s-.037.821 1.057.548 2.228-.922 3.4-.246" transform="translate(-1319.972 -1812.18)" style="stroke:#c76b70;stroke-linejoin:round;stroke-width:.4px;stroke-linecap:round;fill:none"/>
                        <path data-name="Path 228858" d="M1367.347 1871.689a2.43 2.43 0 0 1 .9 1.281 2.269 2.269 0 0 0 1.564 1.244" transform="translate(-1319.658 -1812.059)" style="stroke:#c76b70;stroke-linejoin:round;stroke-width:.4px;stroke-linecap:round;fill:none"/>
                        <path data-name="Path 228859" d="M1365.365 1869.412s.618.543 1.087-.483.673-2.316 1.933-2.81" transform="translate(-1320.156 -1813.458)" style="stroke:#c76b70;stroke-linejoin:round;stroke-width:.4px;stroke-linecap:round;fill:none"/>
                        <path data-name="Path 228860" d="M1366.523 1868.076a1.788 1.788 0 0 0 1.573.46 2.835 2.835 0 0 1 1.729.279" transform="translate(-1319.865 -1812.967)" style="stroke:#c76b70;stroke-linejoin:round;stroke-width:.4px;stroke-linecap:round;fill:none"/>
                        <g data-name="Group 124137">
                            <path data-name="Path 228861" d="M1359.835 1868.549a3.684 3.684 0 0 0-1.538 2.973c.085 1.874.338 5.892 0 7.109" transform="translate(-1321.932 -1812.848)" style="stroke:#c76b70;stroke-linejoin:round;stroke-width:.4px;stroke-linecap:round;fill:none"/>
                            <path data-name="Path 228862" d="M1358.7 1873.877a6.248 6.248 0 0 0-.991 1.425 1.706 1.706 0 0 1-1.42 1.1" transform="translate(-1322.436 -1811.509)" style="stroke:#c76b70;stroke-linejoin:round;stroke-width:.4px;stroke-linecap:round;fill:none"/>
                            <path data-name="Path 228863" d="M1359.189 1871.378s.039.821-1.056.547-2.228-.921-3.4-.245" transform="translate(-1322.827 -1812.137)" style="stroke:#c76b70;stroke-linejoin:round;stroke-width:.4px;stroke-linecap:round;fill:none"/>
                            <path data-name="Path 228864" d="M1357.539 1871.86a2.42 2.42 0 0 0-.9 1.28 2.263 2.263 0 0 1-1.564 1.244" transform="translate(-1322.741 -1812.016)" style="stroke:#c76b70;stroke-linejoin:round;stroke-width:.4px;stroke-linecap:round;fill:none"/>
                            <path data-name="Path 228865" d="M1359.631 1869.583s-.617.542-1.087-.483-.672-2.316-1.932-2.81" transform="translate(-1322.355 -1813.415)" style="stroke:#c76b70;stroke-linejoin:round;stroke-width:.4px;stroke-linecap:round;fill:none"/>
                            <path data-name="Path 228866" d="M1358.571 1868.316a2.431 2.431 0 0 0-1.561.1 2.265 2.265 0 0 1-1.948-.444" transform="translate(-1322.744 -1812.993)" style="stroke:#c76b70;stroke-linejoin:round;stroke-width:.4px;stroke-linecap:round;fill:none"/>
                        </g>
                        <circle data-name="Ellipse 51304" cx=".821" cy=".821" r=".821" transform="translate(33.164 64.14)" style="fill:#ffd6d6"/>
                        <circle data-name="Ellipse 51305" cx=".626" cy=".626" r=".626" transform="translate(34.807 59.135)" style="fill:#c76b70"/>
                        <circle data-name="Ellipse 51310" cx=".626" cy=".626" r=".626" transform="translate(48.95 58.368)" style="fill:#ffd6d6"/>
                        <circle data-name="Ellipse 51311" cx=".626" cy=".626" r=".626" transform="translate(33.653 52.112)" style="fill:#ffd6d6"/>
                        <circle data-name="Ellipse 51307" cx=".783" cy=".783" r=".783" transform="translate(49.664 61.48)" style="fill:#ffd6d6"/>
                        <circle data-name="Ellipse 51308" cx=".38" cy=".38" r=".38" transform="translate(49.821 55.575)" style="fill:#ffd6d6"/>
                        <circle data-name="Ellipse 51309" cx=".626" cy=".626" r=".626" transform="translate(48.57 64.14)" style="fill:#ffd6d6"/>
                        <circle data-name="Ellipse 51306" cx=".767" cy=".767" r=".767" transform="translate(30.912 58.994)" style="fill:#ffd6d6"/>
                    </g>
                </g>
            </g>
        </g>
    </g>
</svg>
