<svg xmlns="http://www.w3.org/2000/svg" xmlns:xlink="http://www.w3.org/1999/xlink" width="88.401" height="92.783" viewBox="0 0 88.401 92.783">
  <defs>
    <style>
      .cls-1 {
        opacity: 0.05;
        fill: url(#linear-gradient);
      }

      .cls-2, .cls-7, .cls-9 {
        fill: #fff;
      }

      .cls-3 {
        fill: #a1bf64;
      }

      .cls-4 {
        fill: #2d2d2d;
      }

      .cls-5 {
        fill: none;
      }

      .cls-6 {
        fill: #211f20;
      }

      .cls-7, .cls-8, .cls-9 {
        stroke: #2d2d2d;
      }

      .cls-7, .cls-8 {
        stroke-linecap: round;
        stroke-linejoin: round;
        stroke-miterlimit: 10;
        stroke-width: 0.5px;
      }

      .cls-11, .cls-8 {
        fill: #ff8e93;
      }

      .cls-9 {
        stroke-width: 0.7px;
      }

      .cls-10 {
        fill: #474747;
      }

      .cls-11 {
        opacity: 0.5;
        mix-blend-mode: multiply;
        isolation: isolate;
      }
    </style>
    <linearGradient id="linear-gradient" x1="0.5" x2="0.5" y2="1" gradientUnits="objectBoundingBox">
      <stop offset="0" stop-color="#1778f2"/>
      <stop offset="1" stop-color="#f40009"/>
    </linearGradient>
  </defs>
  <g id="Group_124936" data-name="Group 124936" transform="translate(-221.375 -2368)">
    <g id="Group_124195" data-name="Group 124195">
      <g id="Group_124187" data-name="Group 124187">
        <g id="Group_124148" data-name="Group 124148" transform="translate(0 376)">
          <path id="Path_228174" data-name="Path 228174" class="cls-1" d="M32.3,83.491A105.79,105.79,0,0,1,17.2,70.917,105.57,105.57,0,0,1,4.909,56.1,17.251,17.251,0,0,1,0,44.2,16.783,16.783,0,0,1,4.909,32.3,144.539,144.539,0,0,1,32.3,4.909,17.263,17.263,0,0,1,44.2,0,16.781,16.781,0,0,1,56.1,4.909a164.255,164.255,0,0,1,13.841,12.23A164.608,164.608,0,0,1,83.491,32.3,17.24,17.24,0,0,1,88.4,44.2a16.782,16.782,0,0,1-4.909,11.9A163.679,163.679,0,0,1,69.255,71.955,164.629,164.629,0,0,1,56.1,83.491a17.386,17.386,0,0,1-7.239,4.259,16.564,16.564,0,0,1-4.664.65,17.462,17.462,0,0,1-5.792-1.133A18.7,18.7,0,0,1,32.3,83.491Z" transform="translate(221.375 1992)"/>
        </g>
        <g id="Group_15619" data-name="Group 15619" transform="translate(245.295 2431.946)">
          <path id="Path_74944" data-name="Path 74944" class="cls-2" d="M2513.294,107.975l-7.632,1.484-.477,7.314,6.413,2.438Z" transform="translate(-2505.185 -107.975)"/>
        </g>
        <g id="Group_15620" data-name="Group 15620" transform="translate(246.205 2436.215)">
          <path id="Path_74945" data-name="Path 74945" class="cls-2" d="M2506.137,127.771l5.536-15.331,17.175,2.524s1.239,13.282.682,13.617S2506.137,127.771,2506.137,127.771Z" transform="translate(-2506.137 -112.44)"/>
        </g>
        <g id="Group_15621" data-name="Group 15621" transform="translate(250.583 2383.67)">
          <path id="Path_74946" data-name="Path 74946" class="cls-3" d="M2510.715,57.49" transform="translate(-2510.715 -57.49)"/>
        </g>
        <g id="Group_15622" data-name="Group 15622" transform="translate(232.118 2417.484)">
          <path id="Path_74947" data-name="Path 74947" class="cls-2" d="M2516.792,91.562c-2.012,1.417-7.437,2.806-10.6,4.311a44.407,44.407,0,0,0-7.26,4.346,21.492,21.492,0,0,0-2.438,3.815c-1.237,2.481-1.479,4.186-2.279,6.784a41.987,41.987,0,0,1-2.826,6.439c.506-.865-6.879,6.835,3.453,7.354l-.354,6.739H2510.8l2.7-26.52,4.24-7.9Z" transform="translate(-2491.405 -92.852)"/>
        </g>
        <g id="Group_15623" data-name="Group 15623" transform="translate(248.271 2394.522)">
          <path id="Path_74948" data-name="Path 74948" class="cls-2" d="M2512.1,69.235c-.239.026-2.7.33-3.308,1.91-.641,1.661.815,4.606,4.24,5.865a19.735,19.735,0,0,1-.932-7.774Z" transform="translate(-2508.312 -68.856)"/>
          <path id="Path_74949" data-name="Path 74949" class="cls-4" d="M2513.556,77.545l-.652-.24a7.29,7.29,0,0,1-4.209-3.642,3.478,3.478,0,0,1-.227-2.657c.657-1.706,3.1-2.066,3.581-2.121l.4-.046-.034.405a19.519,19.519,0,0,0,.083,3.927,19.283,19.283,0,0,0,.834,3.715Zm-1.832-7.934c-.738.142-2.216.555-2.633,1.635a2.871,2.871,0,0,0,.213,2.14,6.392,6.392,0,0,0,3.183,3.022,19.986,19.986,0,0,1-.649-3.155A20.239,20.239,0,0,1,2511.724,69.612Z" transform="translate(-2508.297 -68.839)"/>
        </g>
        <g id="Group_15624" data-name="Group 15624" transform="translate(274.212 2393.14)">
          <path id="Path_74950" data-name="Path 74950" class="cls-2" d="M2536.076,67.742c.24,0,2.717.026,3.48,1.528.8,1.58-.35,4.672-3.631,6.307a19.761,19.761,0,0,0,.151-7.835Z" transform="translate(-2535.447 -67.408)"/>
          <path id="Path_74951" data-name="Path 74951" class="cls-4" d="M2535.425,76.174l.152-.686a19.431,19.431,0,0,0,.147-7.7l-.071-.393h.411c.347,0,2.927.055,3.767,1.711a3.46,3.46,0,0,1,.048,2.643,7.4,7.4,0,0,1-3.827,4.115Zm1.029-8.094a20.115,20.115,0,0,1-.078,6.84,6.5,6.5,0,0,0,2.869-3.382,2.86,2.86,0,0,0-.009-2.131C2538.714,68.382,2537.188,68.138,2536.454,68.08Z" transform="translate(-2535.425 -67.393)"/>
        </g>
        <g id="Group_15629" data-name="Group 15629" transform="translate(241.176 2411)">
          <path id="Path_74955" data-name="Path 74955" class="cls-2" d="M2517.608,86.423a23.518,23.518,0,0,1-.53,5.936c-2.467,11.132-12.48,16.37-14.681,17.454l-2.014,16.226,10.771,10.166h37.771l-.137-8.806,5.782-2.2-1.086-5.47-6.41-13.192-2.831-4.343c-2.6-2.609-12.639-8.12-15.241-10.728l-.384-4.057a8.387,8.387,0,0,1-5.883,1.613A8.694,8.694,0,0,1,2517.608,86.423Z" transform="translate(-2500.383 -86.423)"/>
        </g>
        <g id="Group_15630" data-name="Group 15630" transform="translate(229.636 2411)">
          <path id="Path_74956" data-name="Path 74956" class="cls-4" d="M2499.125,124.991a36.192,36.192,0,0,1-4.268-.251c-3.086-.366-4.872-.637-5.7-1.955-.862-1.367,0-3,1.427-5.7.536-1.014,1.141-2.161,1.786-3.526a38.916,38.916,0,0,0,2.7-7.271,17.011,17.011,0,0,1,.9-2.695c0-.008.117-.238.3-.582.015-.026.359-.653.755-1.256,3.227-4.927,11.561-7.729,11.914-7.846,1.331-.441,2.437-.721,3.326-.947,1.9-.482,2.948-.747,3.752-1.908a6.212,6.212,0,0,0,.753-4.594.334.334,0,0,1,.279-.382.326.326,0,0,1,.382.279,6.855,6.855,0,0,1-.863,5.079c-.947,1.366-2.149,1.671-4.139,2.175-.878.222-1.972.5-3.279.932-.085.028-8.466,2.847-11.564,7.576-.381.582-.724,1.207-.727,1.213-.179.327-.286.545-.287.548a16.281,16.281,0,0,0-.858,2.584,39.536,39.536,0,0,1-2.743,7.381c-.651,1.379-1.261,2.534-1.8,3.552-1.36,2.573-2.109,3.99-1.453,5.031.636,1.007,2.078,1.276,5.215,1.647a35.511,35.511,0,0,0,9.082-.091.335.335,0,0,1,.094.663A36.09,36.09,0,0,1,2499.125,124.991Z" transform="translate(-2488.809 -86.071)"/>
        </g>
        <g id="Group_15631" data-name="Group 15631" transform="translate(268.543 2411.89)">
          <path id="Path_74957" data-name="Path 74957" class="cls-5" d="M2542.216,123.032a31.527,31.527,0,0,0,8.109-.159c2.984-.447,4.708-.755,5.406-2.014.822-1.482-.322-3.33-2.544-7.314-4.5-8.063-4.98-9.929-6.1-11.366v0s-.474-.553-1-1.06c-2.282-2.192-9.618-5.962-9.618-5.962-4.236-2.176-10.469-2.724-11.163-4.3-.553-1.254,4.5-2.644,4.6-3.5" transform="translate(-2529.512 -87.017)"/>
          <path id="Path_74958" data-name="Path 74958" class="cls-4" d="M2545.638,123.54a31.933,31.933,0,0,1-3.474-.19.335.335,0,0,1,.073-.666,31.353,31.353,0,0,0,8.023-.157c2.883-.431,4.543-.73,5.163-1.846.681-1.227-.261-2.91-2.139-6.264l-.4-.724c-2.359-4.229-3.608-6.747-4.437-8.412a17.394,17.394,0,0,0-1.632-2.912l-.007-.009c-.118-.134-.525-.6-.965-1.018-2.221-2.132-9.467-5.867-9.542-5.9-4.178-2.147-5.535-2.908-6.287-4.616a6.6,6.6,0,0,1-.449-3.528.335.335,0,1,1,.665.083,5.92,5.92,0,0,0,.4,3.175c.633,1.437,1.626,2.052,5.981,4.29.3.155,7.406,3.817,9.7,6.018.534.513,1.006,1.061,1.026,1.085l.081.1a18.741,18.741,0,0,1,1.634,2.935c.825,1.659,2.072,4.167,4.423,8.382l.4.724c2,3.571,3,5.363,2.14,6.915-.771,1.392-2.558,1.72-5.649,2.183A31.889,31.889,0,0,1,2545.638,123.54Z" transform="translate(-2529.497 -87.001)"/>
        </g>
        <g id="Group_15632" data-name="Group 15632" transform="translate(243.919 2438.614)">
          <path id="Path_74959" data-name="Path 74959" class="cls-6" d="M2504.081,132.63a.445.445,0,0,1-.061,0,.338.338,0,0,1-.269-.391,46.7,46.7,0,0,0,0-16.891.335.335,0,0,1,.659-.121,47.45,47.45,0,0,1,0,17.134A.335.335,0,0,1,2504.081,132.63Z" transform="translate(-2503.746 -114.948)"/>
        </g>
        <g id="Group_15633" data-name="Group 15633" transform="translate(280.7 2438.613)">
          <path id="Path_74960" data-name="Path 74960" class="cls-6" d="M2543.32,132.63a.336.336,0,0,1-.33-.273,47.45,47.45,0,0,1,0-17.134.335.335,0,0,1,.66.121,46.7,46.7,0,0,0,0,16.891.338.338,0,0,1-.269.391A.445.445,0,0,1,2543.32,132.63Z" transform="translate(-2542.211 -114.948)"/>
        </g>
        <g id="Group_15634" data-name="Group 15634" transform="translate(234.91 2449.054)">
          <line id="Line_67" data-name="Line 67" class="cls-2" x1="0.159" y2="6.625" transform="translate(0.335 0.335)"/>
          <path id="Path_74961" data-name="Path 74961" class="cls-4" d="M2494.66,133.16h-.009a.334.334,0,0,1-.326-.342l.159-6.625a.322.322,0,0,1,.344-.326.334.334,0,0,1,.325.343l-.159,6.624A.332.332,0,0,1,2494.66,133.16Z" transform="translate(-2494.325 -125.867)"/>
        </g>
        <g id="Group_15635" data-name="Group 15635" transform="translate(288.649 2447.518)">
          <line id="Line_68" data-name="Line 68" class="cls-2" x2="0.106" y2="8.215" transform="translate(0.335 0.334)"/>
          <path id="Path_74962" data-name="Path 74962" class="cls-4" d="M2550.965,133.143a.334.334,0,0,1-.334-.33l-.107-8.215a.334.334,0,0,1,.33-.339h0a.334.334,0,0,1,.335.329l.106,8.215a.333.333,0,0,1-.33.339Z" transform="translate(-2550.524 -124.26)"/>
        </g>
        <path id="Path_229424" data-name="Path 229424" class="cls-7" d="M1009.539,693.1c-.522-.391-1.1-.187-1.614-.76a2.152,2.152,0,0,1-.427-1.692,2.113,2.113,0,0,1,1.633-1.78c1.089-.086,1.369,1.473,2.521,1.462.985-.009,1.264-1.153,2.817-1.353a1.814,1.814,0,0,1,1.094.111,1.923,1.923,0,0,1,0,3.4c-.562.326-.916.174-1.279.329-.446.189-1.019.885-.95,4.275.071,3.483.72,4.9-.219,5.846a2.147,2.147,0,0,1-1.425.621,2.235,2.235,0,0,1-1.534-.731c-.843-.929-.346-2.179-.073-6.285C1010.213,694.571,1010.183,693.581,1009.539,693.1Z" transform="translate(-748.326 1722.136)"/>
        <path id="Path_229425" data-name="Path 229425" class="cls-8" d="M1015.571,696.683c-.562,1.408-.964,2.226-1.624,2.387-.854.207-1.144-.98-2.234-.908-.96.063-1.258,1.02-2.071.836-.4-.092-.64-.4-1.115-1.02a5.24,5.24,0,0,1-1.192-2.857c-.032-.452-.091-1.281.337-1.658a.965.965,0,0,1,.855-.153c.49.11.685.474,1.114.89a3.11,3.11,0,0,0,2.28,1.045,2.649,2.649,0,0,0,1.246-.693c.693-.565.788-1,1.364-1.184a1.088,1.088,0,0,1,1.041.125,1.78,1.78,0,0,1,.44,1.259A4.332,4.332,0,0,1,1015.571,696.683Z" transform="translate(-748.344 1722.628)"/>
        <path id="Path_229426" data-name="Path 229426" class="cls-7" d="M1009.743,693.495a9.546,9.546,0,0,1,3.459.024" transform="translate(-748.073 1722.637)"/>
        <path id="Path_229427" data-name="Path 229427" class="cls-7" d="M1009.524,699.288a6.523,6.523,0,0,0,3.7,0" transform="translate(-748.098 1723.299)"/>
        <g id="Group_15625" data-name="Group 15625" transform="translate(250.938 2378.686)">
          <path id="Path_74952" data-name="Path 74952" class="cls-4" d="M2517.443,68.845a4.689,4.689,0,0,1-3.145-1.3,9.547,9.547,0,0,1-2.78-6.562c-.226-4.51,2.168-8.324,5.337-8.5a4.634,4.634,0,0,1,3.379,1.3,9.551,9.551,0,0,1,2.78,6.561c.226,4.511-2.168,8.325-5.337,8.5C2517.6,68.843,2517.52,68.845,2517.443,68.845Zm-.357-16.06c-.072,0-.143,0-.214.006-3,.168-5.257,3.835-5.04,8.173a9.234,9.234,0,0,0,2.676,6.344,4.354,4.354,0,0,0,3.151,1.217c3-.168,5.258-3.834,5.041-8.173a9.237,9.237,0,0,0-2.675-6.344A4.389,4.389,0,0,0,2517.086,52.785Z" transform="translate(-2504.598 -43.042)"/>
          <ellipse id="Ellipse_8511" data-name="Ellipse 8511" class="cls-9" cx="11.921" cy="17.105" rx="11.921" ry="17.105" transform="translate(0 1.056) rotate(-2.539)"/>
        </g>
        <g id="Group_15628" data-name="Group 15628" transform="translate(248.17 2371.107)">
          <g id="Group_15626" data-name="Group 15626" transform="translate(0.33 0.332)">
            <path id="Path_74953" data-name="Path 74953" class="cls-10" d="M2527.115,45.171a15.009,15.009,0,0,0-10.431,1.1c-1.089.554-6,3.041-7.613,8.691-1.768,6.2,1.281,12.855,2.712,12.76,1.278-.084.45-5.5,3.849-7.817,2.3-1.568,3.684.221,7.887-1.323,3.253-1.194,4.031-2.855,5.971-2.415,1.8.408,2.893,2.243,3.722,3.638,2.141,3.6,1.662,6.583,2.316,6.657,1.021.117,4.595-6.869,2.239-13.112C2535.423,47.141,2528.668,45.54,2527.115,45.171Z" transform="translate(-2508.536 -44.7)"/>
          </g>
          <g id="Group_15627" data-name="Group 15627">
            <path id="Path_74954" data-name="Path 74954" class="cls-4" d="M2511.739,68.045a1.685,1.685,0,0,1-1.2-.777c-1.656-2.052-3.206-7.506-1.806-12.41a14.5,14.5,0,0,1,7.771-8.893,15.193,15.193,0,0,1,10.671-1.135l-.078.325.079-.325c7.009,1.666,9.788,5.481,10.886,8.389a15.041,15.041,0,0,1-1.566,12.89c-.381.488-.714.71-1.024.673-.507-.058-.6-.629-.766-1.574a14.257,14.257,0,0,0-1.8-5.245c-.823-1.387-1.847-3.107-3.508-3.484-1-.228-1.634.169-2.686.826a15.641,15.641,0,0,1-3.1,1.578,10.823,10.823,0,0,1-4.825.67,4.17,4.17,0,0,0-2.989.615c-1.94,1.322-2.431,3.749-2.789,5.522-.27,1.337-.465,2.3-1.225,2.353Zm11.49-23.024a14.8,14.8,0,0,0-13.848,10.019c-1.449,5.076.382,10.194,1.683,11.808.323.4.571.555.684.528.251-.016.452-1.016.615-1.818.38-1.885.9-4.468,3.068-5.943a4.823,4.823,0,0,1,3.4-.73,10.11,10.11,0,0,0,4.56-.629,15.226,15.226,0,0,0,2.973-1.518c1.072-.672,1.924-1.2,3.188-.912,1.943.44,3.094,2.378,3.936,3.791a15.064,15.064,0,0,1,1.884,5.477,6.178,6.178,0,0,0,.217.994,3.621,3.621,0,0,0,.937-1.259,14.671,14.671,0,0,0,.915-11.374c-1.041-2.757-3.691-6.378-10.413-7.975l.074-.326-.077.326A16.44,16.44,0,0,0,2523.229,45.021Z" transform="translate(-2508.191 -44.352)"/>
          </g>
        </g>
        <path id="Path_229428" data-name="Path 229428" class="cls-11" d="M427.343,91.878c.228,1.022.84,3.77-.774,5.991-2.218,3.054-6.753,2.513-7.36,2.431-3.366-.452-8.334-3.1-8.422-8.134a8.279,8.279,0,0,1,8.134-8.422C424.107,83.653,426.7,88.991,427.343,91.878Z" transform="translate(-154.926 2333.225)"/>
      </g>
    </g>
  </g>
</svg>
