<svg xmlns="http://www.w3.org/2000/svg" width="100" height="100" viewBox="0 0 100 100">
    <defs>
        <linearGradient id="2o9gmgoeea" x1=".5" x2=".5" y2="1" gradientUnits="objectBoundingBox">
            <stop offset="0" stop-color="#1778f2"/>
            <stop offset="1" stop-color="#f40009"/>
        </linearGradient>
    </defs>
    <g data-name="Group 125008">
        <g data-name="Group 125006">
            <g data-name="Group 125005">
                <path data-name="Rectangle 10371" style="fill:none" d="M0 0h100v100H0z"/>
                <g data-name="Group 124198">
                    <g data-name="Group 124197">
                        <g data-name="Group 124191">
                            <g data-name="Group 124150">
                                <path data-name="Path 228174" d="M32.3 83.491a105.79 105.79 0 0 1-15.1-12.574A105.57 105.57 0 0 1 4.909 56.1 17.251 17.251 0 0 1 0 44.2a16.783 16.783 0 0 1 4.909-11.9A144.539 144.539 0 0 1 32.3 4.909 17.263 17.263 0 0 1 44.2 0a16.781 16.781 0 0 1 11.9 4.909 164.255 164.255 0 0 1 13.841 12.23A164.608 164.608 0 0 1 83.491 32.3 17.24 17.24 0 0 1 88.4 44.2a16.782 16.782 0 0 1-4.909 11.9 163.679 163.679 0 0 1-14.236 15.855A164.629 164.629 0 0 1 56.1 83.491a17.386 17.386 0 0 1-7.239 4.259 16.564 16.564 0 0 1-4.664.65 17.462 17.462 0 0 1-5.792-1.133 18.7 18.7 0 0 1-6.105-3.776z" transform="translate(8.375 6)" style="opacity:.05;fill:url(#2o9gmgoeea)"/>
                            </g>
                        </g>
                    </g>
                </g>
            </g>
            <g data-name="Group 125002">
                <g data-name="Group 125007" transform="translate(-1065.704 -199.56)">
                    <path data-name="Path 228403" d="m1113.183 253.123 8.3 15.347c1.087-.358 7.641-2.614 8.864-7.92a7.745 7.745 0 0 0 .193-1.976l-10.651-16.1z" style="fill:#fff"/>
                    <path data-name="Path 228404" d="M1121.822 244.253a57.643 57.643 0 0 0 3.812 7.449 51.875 51.875 0 0 0 3.662 5.272 63.848 63.848 0 0 0 5.908 6.491c.5.48.51.461.754.708h0c1.722 1.291 2.8 3.421 3.52 6.037" style="stroke:#2d2d2d;stroke-linecap:round;stroke-miterlimit:10;stroke-width:.7px;fill:none"/>
                    <path data-name="Path 228405" d="M1124.287 250.828c.17-.191.33-.381.5-.58.02-.03.05-.051.07-.081a25.221 25.221 0 0 0 6.08-14.189c.72-10.081-5.75-22.861-15.47-23.52-6.23-.42-11.86 4.27-15.2 9.11a16.605 16.605 0 0 0-3.15 7.46 10.875 10.875 0 0 1-.33 2.55c-1.24 4.519-5.37 6.26-4.72 7.98a3.089 3.089 0 0 0 1.61 1.329c.99.451 1.51.171 2.33.671a3.517 3.517 0 0 1 1.3 1.6 29.118 29.118 0 0 1 1.03 3.051v.01a26.941 26.941 0 0 0 2.158 4.486c1.95 3.243 4.391 7.3 8.037 7.785 2.981.393 4.363-1.922 6.492-.818.822.426 1.054 1 3.048 4.254a207.152 207.152 0 0 0 2.432 3.879" style="stroke:#2d2d2d;stroke-linecap:round;stroke-miterlimit:10;stroke-width:.7px;fill:#fff"/>
                    <g data-name="Group 123803">
                        <path data-name="Path 228406" d="M1098.921 214.19c-2.2 8.908 12.789 21.826 21.527 18.775 2.76-.963 4.809-3.489 6.291-2.558 1.466.92 1.572 4.714.029 7.2-1.463 2.357-3.394 2.007-4.484 3.915-1.774 3.1.332 9.266 3.472 10.154 4.24 1.2 11.129-7 13.719-14.887a24.736 24.736 0 0 0 .144-15.889c-3.957-11.558-15.272-15.161-16.269-15.444a26.171 26.171 0 0 0-17.727 1.608c-5.223 2.811-6.367 5.767-6.702 7.126z" style="fill:#474747"/>
                        <path data-name="Path 228407" d="M1098.921 214.19c-2.2 8.908 12.789 21.826 21.527 18.775 2.76-.963 4.809-3.489 6.291-2.558 1.466.92 1.572 4.714.029 7.2-1.463 2.357-3.394 2.007-4.484 3.915-1.774 3.1.332 9.266 3.472 10.154 4.24 1.2 11.129-7 13.719-14.887a24.736 24.736 0 0 0 .144-15.889c-3.957-11.558-15.272-15.161-16.269-15.444a26.171 26.171 0 0 0-17.727 1.608c-5.223 2.811-6.367 5.767-6.702 7.126z" style="stroke:#2d2d2d;stroke-linecap:round;stroke-miterlimit:10;stroke-width:.7px;fill:none"/>
                    </g>
                    <path data-name="Path 228409" d="M1118.03 267.717c-2.66 8.535.643 11.9-6.367 26.369 7.3.037 12.981-.69 20.279-.653l7.038-5.542-1.829-11.639-2.549-8.646c-.48-.382-6.48-5.017-12.581-2.661a10.615 10.615 0 0 0-3.991 2.772z" style="fill:#fff"/>
                    <path data-name="Path 228410" d="M1111.934 293.876a42.252 42.252 0 0 0 4.545-12.913c1.047-6.071.374-10.668 3.879-14.8a16.428 16.428 0 0 1 3.824-3.215 17.452 17.452 0 0 1 8.148-2.522 18.723 18.723 0 0 1 3.713 3.3 21.036 21.036 0 0 1 4.184 8.424c2.35 8.4 1.581 18.3 1.331 21.034" style="stroke:#2d2d2d;stroke-linecap:round;stroke-miterlimit:10;stroke-width:.7px;fill:#fff"/>
                    <g data-name="Group 123804">
                        <path data-name="Path 228411" d="M1123.647 260.162a1 1 0 0 1-.879-.522 1404.432 1404.432 0 0 1-8.528-15.89 11.18 11.18 0 0 0-2.594-3.7c-3.956-3.4-10.489-2.4-15.272-.964a1 1 0 0 1-.576-1.916c7.546-2.27 13.477-1.8 17.153 1.365a12.9 12.9 0 0 1 3.039 4.245c2.61 4.944 5.4 10.134 8.534 15.9a1 1 0 0 1-.4 1.355.987.987 0 0 1-.477.127z" style="fill:#ffa6ab"/>
                    </g>
                    <g data-name="Group 123805">
                        <path data-name="Path 228412" d="M1114.808 243.346a.989.989 0 0 1-.6-.2 1 1 0 0 1-.191-1.4 22.552 22.552 0 0 1 9.465-7.247 1 1 0 1 1 .754 1.851 20.545 20.545 0 0 0-8.627 6.607 1 1 0 0 1-.801.389z" style="fill:#ffa6ab"/>
                    </g>
                    <circle data-name="Ellipse 51228" cx="1.995" cy="1.995" r="1.995" transform="translate(1093.984 236.153)" style="fill:#ffa6ab"/>
                    <circle data-name="Ellipse 51229" cx="1.995" cy="1.995" r="1.995" transform="translate(1121.834 233.077)" style="fill:#ffa6ab"/>
                    <circle data-name="Ellipse 51230" cx="1.995" cy="1.995" r="1.995" transform="translate(1121.751 257.186)" style="fill:#ffa6ab"/>
                    <path data-name="Path 228413" d="M1103.124 241.552c.281 1.295 1.036 4.776-.954 7.589-2.735 3.868-8.329 3.182-9.078 3.079-4.151-.574-10.279-3.926-10.387-10.3a10.364 10.364 0 0 1 10.032-10.668c6.395-.117 9.595 6.648 10.387 10.3z" style="fill:#ff8e93;opacity:.5;mix-blend-mode:multiply;isolation:isolate"/>
                    <path data-name="Path 228414" d="M1131.5 230.689c.281 1.295 1.035 4.776-.954 7.589-2.735 3.868-8.329 3.182-9.078 3.079-4.151-.574-10.279-3.926-10.387-10.3a10.363 10.363 0 0 1 10.032-10.668c6.396-.117 9.596 6.644 10.387 10.3z" style="fill:#ff8e93;opacity:.5;mix-blend-mode:multiply;isolation:isolate"/>
                    <path data-name="Path 228415" d="M1136.378 265.273c.281 1.295 1.036 4.776-.954 7.59-2.734 3.868-8.329 3.181-9.078 3.078-4.15-.573-10.279-3.925-10.387-10.3a10.363 10.363 0 0 1 10.032-10.667c6.395-.118 9.595 6.643 10.387 10.299z" style="fill:#ff8e93;opacity:.5;mix-blend-mode:multiply;isolation:isolate"/>
                </g>
            </g>
        </g>
    </g>
</svg>
