<svg xmlns="http://www.w3.org/2000/svg" width="128.96" height="145.116" viewBox="0 0 128.96 145.116">
    <defs>
        <linearGradient id="linear-gradient" x1=".5" x2=".5" y2="1" gradientUnits="objectBoundingBox">
            <stop offset="0" stop-color="#1778f2"/>
            <stop offset="1" stop-color="#f40009"/>
        </linearGradient>
        <style>
            .cls-10,.cls-4{fill:none}.cls-11,.cls-3,.cls-6{fill:#fff}.cls-10,.cls-11,.cls-4,.cls-6{stroke:#2d2d2d;stroke-miterlimit:10;stroke-linecap:round}.cls-4,.cls-6{stroke-width:.7px}.cls-10{stroke-width:.65px}.cls-11{stroke-width:.705px}
        </style>
    </defs>
    <g id="Group_181925" transform="translate(-1356.026 -1170.704)">
        <g id="Group_128855" transform="translate(1356.026 1183.285)">
            <g id="Group_124269" transform="translate(0)">
                <g id="Group_124268">
                    <g id="Group_124247">
                        <g id="Group_124141">
                            <path id="Path_228849" fill="url(#linear-gradient)" d="M1376.347 1945.842a154.336 154.336 0 0 1-39.96-39.958 25.155 25.155 0 0 1-7.155-17.361 24.487 24.487 0 0 1 7.161-17.363 210.907 210.907 0 0 1 39.954-39.955 25.19 25.19 0 0 1 17.363-7.161 24.492 24.492 0 0 1 17.364 7.161 240.619 240.619 0 0 1 39.956 39.955 25.153 25.153 0 0 1 7.161 17.363 24.491 24.491 0 0 1-7.161 17.364 238.329 238.329 0 0 1-39.955 39.95 25.348 25.348 0 0 1-10.561 6.213 24.131 24.131 0 0 1-6.8.948 25.443 25.443 0 0 1-8.449-1.652 27.258 27.258 0 0 1-8.918-5.504z" transform="translate(-1329.232 -1824.043)" style="isolation:isolate" opacity="0.05"/>
                            <g id="Group_124131" transform="translate(40.612 59.905)">
                                <g id="Group_260">
                                    <g id="Group_230">
                                        <path id="Rectangle_45" fill="none" d="M0 0H48.983V48.983H0z"/>
                                    </g>
                                </g>
                            </g>
                        </g>
                    </g>
                </g>
            </g>
        </g>
        <g id="Group_75737" transform="translate(1380.056 1171.055)">
            <g id="Group_75607" transform="translate(0)">
                <path id="Path_130045" d="M2262.052 1457.144q-3.509 6.015-7.021 12.03l-6 10.288q-6.5-5.269-13-10.695l-1.706-1.426q3.216-4.157 6.449-8.713c4.214-5.953 7.954-11.775 11.273-17.372l10.005 15.888z" class="cls-3" transform="translate(-2220.309 -1374.668)"/>
                <path id="Path_130046" d="M2252.856 1442.93a85.82 85.82 0 0 1-5.687 11.11 77.527 77.527 0 0 1-5.461 7.865 95.5 95.5 0 0 1-8.813 9.682c-.751.716-.761.688-1.125 1.056-2.567 1.925-4.178 5.1-5.251 9" class="cls-4" transform="translate(-2224.148 -1373.845)"/>
                <path id="Path_130048" d="M2256.856 1468.885a54.69 54.69 0 0 1 1.923 6.943c.9 4.382.763 6.459 1.86 11.471.438 2.006.845 3.423 1.3 5.023a120.033 120.033 0 0 0 5.457 15.067l-29.883-.792q-5.25-4.132-10.5-8.268l2.728-17.36 3.8-12.9c6.075-5.346 13.6-6.892 18.767-3.97a11.808 11.808 0 0 1 4.548 4.786z" class="cls-3" transform="translate(-2223.902 -1364.152)"/>
                <path id="Path_130049" d="M2269.748 1507.34a62.922 62.922 0 0 1-6.779-19.261c-1.562-9.056-.561-15.913-5.788-22.076a24.53 24.53 0 0 0-5.7-4.794 25.987 25.987 0 0 0-12.152-3.762 27.892 27.892 0 0 0-5.541 4.92 29.43 29.43 0 0 0-6.53 12.386c-3.505 12.536-2.067 27.474-1.695 31.553" class="cls-6" transform="translate(-2224.951 -1366.708)"/>
                <path id="Path_130050" d="M2253.014 1456.418c-1.464 1.845-2.981 3.923-4.485 6.241a35.04 35.04 0 0 0-2.4 3.544" class="cls-6" transform="translate(-2214.226 -1367.214)"/>
                <ellipse id="Ellipse_12879" cx="30.329" cy="22.39" fill="#fff" stroke="#2d2d2d" stroke-miterlimit="10" stroke-width="0.7px" rx="30.329" ry="22.39" transform="translate(21.512 86.799) rotate(-62.608)"/>
                <path id="Path_130051" fill="#474747" stroke="#2d2d2d" stroke-miterlimit="10" stroke-width="0.7px" d="M2304.589 1446.67c-4.9 11.7-32.167 13.693-39.352 3.11-2.271-3.343-2.463-7.833-4.875-8.021-2.385-.185-5.628 3.936-5.963 7.967-.319 3.821 2.113 5.022 1.753 8.036-.588 4.906-8 10.012-12.214 8.411-5.7-2.161-6.586-16.938-2.966-27.821a34.188 34.188 0 0 1 12.928-17.752c13.907-9.569 29.433-4.25 30.772-3.743 11.077 4.184 16.615 13.241 18.351 16.383 3.477 7.424 2.313 11.647 1.566 13.43z" transform="translate(-2218.103 -1387.611)"/>
                <g id="Group_75606" transform="translate(34.265 32.824)">
                    <path id="Path_130052" fill="#ff8e93" d="M2282.7 1426.864a7.113 7.113 0 0 0-9.005-6.109 9.014 9.014 0 0 0-6.3-1.881 8.733 8.733 0 0 0-3.327.98 10.533 10.533 0 0 0-12.435 6.453 7.215 7.215 0 0 0-2.639 2.565 7.956 7.956 0 0 0 .192 6.764 7.531 7.531 0 0 0 3.459 3.2 3.676 3.676 0 0 0 .579 1.207 4.429 4.429 0 0 0 1.843 1.373c.567.269.867.425.978.771.188.6-.31 1.348-.795 2.074-.555.839-1.132 1.705-.627 2.5.286.456.837.6 2.065.924a12.71 12.71 0 0 0 1.462.333 2.694 2.694 0 0 0 .664.012c1.191-.132 1.8-1.07 2.451-2.057a11.072 11.072 0 0 1 1.039-1.414 7.889 7.889 0 0 1 4.567-2.257 7.386 7.386 0 0 0 1.246.38c.125.027.3.058.514.087a8.751 8.751 0 0 0 3.158-.179 8.46 8.46 0 0 0 3.125-1.365 10.335 10.335 0 0 0 8.808-.282 7.571 7.571 0 0 0 4.029-4.936c.738-3.356-1.336-7.094-5.051-9.143z" transform="translate(-2247.694 -1418.513)"/>
                    <g id="Group_75605">
                        <path id="Path_130053" d="M2266.334 1438.313c.533.249 4.983 2.244 9.167-.116a7.88 7.88 0 0 0 3.985-4.842c.719-3.272-1.347-7.072-5.219-9.134" class="cls-10" transform="translate(-2238.837 -1415.868)"/>
                        <path id="Path_130054" d="M2274.786 1429.791a7.09 7.09 0 0 0-10.934-8.437" class="cls-10" transform="translate(-2240.057 -1418.043)"/>
                        <path id="Path_130056" d="M2269.485 1420.67a8.9 8.9 0 0 0-12.324.926" class="cls-10" transform="translate(-2243.345 -1418.621)"/>
                        <path id="Path_130057" d="M2254.635 1431.757a3.225 3.225 0 0 0 .969 3.264 3.163 3.163 0 0 0 4.106-.076c1.174-1.135.736-2.947.591-3.541-.046-.193-.812-3.132-3.531-3.683a4.859 4.859 0 0 0-4.086 1.255" class="cls-10" transform="translate(-2245.547 -1414.188)"/>
                        <path id="Path_130058" d="M2264.578 1428.471a2.225 2.225 0 0 1 .319-1.788c.948-1.234 3.613-.854 5.242.246a6.231 6.231 0 0 1 2.418 4.193 6.852 6.852 0 0 1-.829 5.035 7.142 7.142 0 0 1-4.56 2.893 8.441 8.441 0 0 1-3.63.094 9.031 9.031 0 0 1-5.7-4.443" class="cls-10" transform="translate(-2243.012 -1415.034)"/>
                        <path id="Path_130059" d="M2262.892 1419.468a10.59 10.59 0 0 0-12.721 6.671" class="cls-10" transform="translate(-2246.783 -1418.376)"/>
                        <path id="Path_130060" d="M2258.485 1424.7c-.257-.177-3.413-2.282-6.773-.88a6.809 6.809 0 0 0-3.148 2.771 7.848 7.848 0 0 0 .183 6.649 7.433 7.433 0 0 0 3.548 3.206" class="cls-10" transform="translate(-2247.9 -1416.302)"/>
                        <path id="Path_130061" d="M2251.206 1429.845c-.392 1.388-.708 3.38.336 4.794s2.69 1.225 3.081 2.45c.55 1.73-2.26 3.628-1.573 4.72.179.284.728.428 1.824.717a6.019 6.019 0 0 0 2.047.352c1.5-.167 1.974-2 3.329-3.489a8.782 8.782 0 0 1 5.218-2.591" class="cls-10" transform="translate(-2246.456 -1413.103)"/>
                        <path id="Path_130062" d="M2270.375 1426.544a3.562 3.562 0 0 0-6.034-2.759" class="cls-10" transform="translate(-2239.817 -1416.572)"/>
                        <path id="Path_130063" d="M2275.139 1429.877a3.4 3.4 0 0 1-4.057.809 3.358 3.358 0 0 1-1.75-3.074" class="cls-10" transform="translate(-2237.364 -1414.201)"/>
                        <path id="Path_130064" d="M2264.091 1421.166a4.683 4.683 0 0 1-8.147 2.776" class="cls-10" transform="translate(-2243.946 -1417.369)"/>
                        <path id="Path_130065" d="M2258.809 1427.813a2.555 2.555 0 0 1-.961-2 2.5 2.5 0 0 1 .838-1.765" class="cls-10" transform="translate(-2243.009 -1415.952)"/>
                        <path id="Path_130066" d="M2262.314 1424.361a2.584 2.584 0 0 0 1.782 2.382" class="cls-10" transform="translate(-2240.813 -1415.799)"/>
                        <path id="Path_130067" d="M2267.03 1430.482a3.625 3.625 0 0 1-6.932-1.656" class="cls-10" transform="translate(-2241.904 -1413.603)"/>
                    </g>
                </g>
                <path id="Path_130068" d="M2229.513 1427c.749-3.734 1.838-4.918 2.837-5.147 1.731-.4 3.22 2.065 4.634 1.469 1.5-.634.7-3.786 2.318-4.554 1.452-.689 2.933 1.443 4.53.757 1.522-.655 1.043-2.958 2.585-3.911.841-.519 2.309-.655 5.063.806" class="cls-11" transform="translate(-2222.675 -1387.454)"/>
                <path id="Path_130069" d="M2271.154 1406.246c3.806.146 5.148 1.034 5.533 1.984.669 1.647-1.531 3.507-.717 4.809.865 1.384 3.849.088 4.865 1.566.91 1.325-.962 3.125-.031 4.594.887 1.4 3.086.56 4.273 1.934.644.747 1.011 2.175.005 5.125" class="cls-11" transform="translate(-2202.202 -1391.881)"/>
                <path id="Path_130070" d="M2288.556 1413.414c2.908 2.459 3.417 3.987 3.136 4.973-.488 1.709-3.365 1.82-3.526 3.346-.172 1.623 2.978 2.44 2.868 4.23-.1 1.6-2.684 1.869-2.854 3.6-.163 1.649 2.085 2.344 2.173 4.154.049.986-.543 2.337-3.153 4.043" class="cls-11" transform="translate(-2194.314 -1388.357)"/>
                <path id="Path_130071" d="M2260.52 1406.227c1.168-3.624 2.385-4.678 3.4-4.792 1.767-.2 2.965 2.42 4.438 1.987 1.566-.459 1.124-3.681 2.821-4.26 1.52-.519 2.75 1.769 4.415 1.268 1.586-.478 1.371-2.821 3.013-3.592.894-.419 2.37-.386 4.939 1.376" class="cls-11" transform="translate(-2207.43 -1396.615)"/>
                <path id="Path_130072" d="M2243.519 1405.065c3.328-1.849 4.938-1.787 5.759-1.176 1.427 1.061.514 3.792 1.886 4.482 1.456.735 3.334-1.923 4.97-1.185 1.465.659.8 3.17 2.357 3.941 1.485.736 2.93-1.121 4.654-.564.939.3 1.994 1.334 2.667 4.378" class="cls-11" transform="translate(-2215.788 -1393.228)"/>
                <path id="Path_130073" d="M2232.431 1478.259a121.736 121.736 0 0 0 .992 14.261c.378 2.925.843 5.7 1.365 8.308" class="cls-4" transform="translate(-2221.241 -1356.475)"/>
            </g>
        </g>
    </g>
</svg>
