<svg xmlns="http://www.w3.org/2000/svg" width="28.029" height="38.094" viewBox="0 0 28.029 38.094">
    <defs>
        <style>
            .cls-4{stroke:#2d2d2d;stroke-miterlimit:10;stroke-linecap:round;fill:none;stroke-width:.589px}
        </style>
    </defs>
    <g id="Group_78375" transform="translate(0.265 0.247)">
        <path id="Path_163538" fill="#fff" stroke="#2d2d2d" stroke-linecap="round" stroke-miterlimit="10" stroke-width="0.5px" d="M812.044 1129.184c.166 1.59.353 3.9.4 6.692a25.455 25.455 0 0 1-.4 7.089c-.725 2.679-1.882 3.627-4.283 7.238a66.351 66.351 0 0 0-4.551 8.023 3.025 3.025 0 0 0-.232 2.544 3.089 3.089 0 0 0 2.22 1.8c1.788.147 4.325.339 7.386.513.347.02 3.046.166 6.665.237a39.529 39.529 0 0 0 7.962-.75 3.853 3.853 0 0 0 2.728-1.387 3.757 3.757 0 0 0 .046-3.1c-1.809-5.6-7.168-8.775-8.925-15.031a24.972 24.972 0 0 1-.677-6.614 39.221 39.221 0 0 1 .631-7.675z" transform="translate(-802.8 -1125.727)"/>
        <path id="Path_163539" fill="#ff8e93" stroke="#2d2d2d" stroke-linecap="round" stroke-miterlimit="10" stroke-width="0.5px" d="M807.449 1127.7a2.194 2.194 0 0 0 .051 2.219c.392.626 1.171 1.032 5.975 1.026 4.776 0 5.544-.407 5.914-1.026a2.16 2.16 0 0 0-.01-2.153c-.576-.905-1.758-.807-6.126-.827-4.108-.01-5.253-.103-5.804.761z" transform="translate(-799.934 -1126.931)"/>
        <path id="Path_163540" fill="#86bcff" stroke="#2d2d2d" stroke-miterlimit="10" stroke-width="0.5px" d="M804.874 1151.4c.77 1.86 4.379 1.879 11.324 1.844 8.751-.045 9.637-1.2 9.905-1.8.52-1.149-.217-2.509-1.536-4.94a10.251 10.251 0 0 0-4.611-5.142 14.18 14.18 0 0 0-8.369-.083c-2.438 1-3.642 3.074-4.917 5.248-1.487 2.545-2.225 3.82-1.796 4.873z" transform="translate(-801.52 -1117.913)"/>
        <path id="Line_461" d="M0 0L4.078 0" class="cls-4" transform="translate(11.948 10.528)"/>
        <path id="Line_462" d="M0 0L4.078 0" class="cls-4" transform="translate(11.948 12.94)"/>
        <path id="Line_463" d="M0 0L4.078 0" class="cls-4" transform="translate(11.948 15.634)"/>
        <path id="Line_464" d="M0 0L4.078 0" class="cls-4" transform="translate(11.948 18.329)"/>
    </g>
</svg>
