<?xml version="1.0" encoding="utf-8"?>
<!-- Generator: Adobe Illustrator 16.0.0, SVG Export Plug-In . SVG Version: 6.00 Build 0)  -->
<!DOCTYPE svg PUBLIC "-//W3C//DTD SVG 1.1//EN" "http://www.w3.org/Graphics/SVG/1.1/DTD/svg11.dtd">
<svg version="1.1" id="Layer_1" xmlns="http://www.w3.org/2000/svg" xmlns:xlink="http://www.w3.org/1999/xlink" x="0px" y="0px"
	 width="627.985px" height="846.156px" viewBox="0 0 627.985 846.156" enable-background="new 0 0 627.985 846.156"
	 xml:space="preserve">
<g>
	<path fill="#4DC0B0" d="M139.784,7.24c0,0-114.326,16.735-137.329,149.169c-22.281,128.287,109.266,385.62,306.711,383.525
		c109.338-1.159,309.986-50.011,318.212-167.046c14.058-199.944-220.001-210.031-257.05-264.146
		C333.279,54.631,224.318-24.389,139.784,7.24z"/>
</g>
<g>
	<g>
		<g>
			<g>
				<path fill="#FFFFFF" d="M431.461,846.156l-5.281-356.146c-34.887-10.839-74.888-15.127-110.565-16.344
					c-54.908-1.877-100.011,9.931-100.011,9.931l-20.548,362.559H431.461z"/>
				<path opacity="0.3" fill="#47666D" d="M193.811,801.833c51.125,2.162,150.317,3.145,191.398-18.681L197.114,753.59
					L193.811,801.833z"/>
				<path opacity="0.4" fill="#70C9E3" d="M412.302,846.156h19.367l-3.112-223.706c0.664,52.64-31.671,27.464-19.024,131.583
					C413.555,787.15,414.146,817.869,412.302,846.156z"/>
				<path opacity="0.4" fill="#37446F" d="M378.86,483.598l13.727,93.646h-21.25l7.523,16.268c0,0-61.076,43.333-91.99,43.313
					l-35.802-37.68l14.903-22.515l-23.42,2.188l1.865-31.742l42.453,34.339l54.751-1.669L378.86,483.598z"/>
				<path fill="#63BFD7" d="M265.972,472.071c0.587,3.378,16.589,121.657,36.807,151.12c0,0,54.871-101.578,66.817-145.992
					c0,0-0.388-0.234-1.055-0.617C330.262,470.021,293.258,470.237,265.972,472.071z"/>
				<path fill="#3AA0BE" d="M368.541,476.582c-38.279-6.562-75.283-6.345-102.569-4.511c0.362,2.1,6.685,38.081,16.271,72.093
					c3.154-7.372,20.261-46.916,29.843-60.606c0,0,14.007,48.784,22.472,65.146c14.394-23.253,29.437-50.675,35.039-71.504
					C369.596,477.199,369.208,476.965,368.541,476.582z"/>
				<g>
					<path fill="#727476" d="M302.778,623.191c0.549,16.418,0.687,32.822,0.763,49.227c0.084,16.404-0.168,32.799-0.235,49.199
						l-1.104,49.181c-0.525,16.392-1.111,32.783-2.116,49.167c-0.555-16.41-0.692-32.816-0.771-49.221l0.244-49.204
						c0.381-16.396,0.576-32.796,1.109-49.188C301.193,655.959,301.78,639.569,302.778,623.191z"/>
				</g>
				<g>
					<path fill="#243046" d="M399.799,640.146l-3.591-0.111l-0.345-0.683c-1.976-3.93-10.264-7.056-20.528-8.219
						c-12.913-0.418-24.589,2.351-27.491,6.847l-0.385,0.606l-3.957-0.12c0.479-1.44,0.901-2.89,1.304-4.363
						c4.94-2.933,14.175-4.621,24.171-4.366c0.188-0.009,0.359-0.021,0.554-0.03c11.346-0.443,22.335,1.659,28.333,5.047
						C398.201,636.632,398.897,638.434,399.799,640.146z"/>
					<path fill="#939598" d="M347.484,637.614l0.393-0.603c2.895-4.5,14.573-7.267,27.483-6.844
						c10.265,1.158,18.554,4.287,20.536,8.211l0.344,0.692l3.083,0.088c0.146,0.324,0.312,0.659,0.476,0.987l-3.591-0.111
						l-0.345-0.683c-1.976-3.93-10.264-7.056-20.528-8.219c-12.913-0.418-24.589,2.351-27.491,6.847l-0.385,0.606l-3.957-0.12
						c0.105-0.317,0.201-0.644,0.3-0.959L347.484,637.614z"/>
					<path fill="#989A9B" d="M388.149,717.724c-2.026,0.334-4.031,0.407-5.991,0.255c13.859-2.255,23.324-15.059,21.133-28.604
						l-9.389-57.854c-1.601-9.913-7.637-18.399-21.488-17.965c-11.737-0.433-19.301,5.211-22.151,16.813l-14.039,56.902
						c-3.287,13.324,5.104,26.855,18.74,30.226c-1.964-0.013-3.954-0.249-5.947-0.734c-13.639-3.364-21.976-17.162-18.616-30.806
						l14.373-58.274c2.898-11.744,13.525-19.558,25.13-19.349c0.166-0.027,0.327-0.069,0.495-0.095
						c13.878-2.248,26.952,7.173,29.195,21.049l9.608,59.243C411.444,702.406,402.02,715.479,388.149,717.724z"/>
					<path fill="#243046" d="M396.886,649.914l-2.983-18.394c-1.601-9.913-7.637-18.399-21.488-17.965
						c-11.737-0.433-19.301,5.211-22.151,16.813l-4.453,18.021l-6.098-0.187l5.062-20.521c6.853-20.459,25.457-19.418,25.625-19.443
						c13.397-1.895,26.952,7.173,29.195,21.049l3.368,20.805L396.886,649.914z"/>
					<g>
						<path fill="#D1D3D4" d="M354.971,717.502c-1.242-0.015-2.492-0.118-3.749-0.308c-13.147-3.703-21.154-16.954-17.93-30.005
							l14.039-56.911c2.851-11.597,10.418-17.245,22.151-16.812c1.172-0.034,2.279-0.003,3.335,0.081
							c-0.136,0.005-0.265,0.005-0.403,0.008c-11.737-0.433-19.301,5.212-22.151,16.813l-14.039,56.902
							C332.937,700.598,341.328,714.126,354.971,717.502z"/>
						<path fill="#D1D3D4" d="M388.149,717.724c-2.026,0.334-4.031,0.407-5.991,0.261c0.092-0.017,0.188-0.037,0.289-0.054
							c0.924-0.044,1.843-0.135,2.771-0.289c13.878-2.248,23.299-15.325,21.049-29.197l-9.604-59.24
							c-1.898-11.721-11.518-20.267-22.815-21.281c12.529-0.32,23.684,8.646,25.747,21.364l9.604,59.249
							C411.444,702.406,402.02,715.479,388.149,717.724z"/>
					</g>
					<path fill="#243046" d="M354.63,719.231c1.125-1.953,0.458-4.452-1.498-5.579l-5.376-3.11
						c-1.953-1.129-4.456-0.466-5.584,1.487l0,0c-1.133,1.953-0.455,4.452,1.491,5.583l5.383,3.117
						C351.003,721.851,353.498,721.187,354.63,719.231L354.63,719.231z"/>
					<path fill="#243046" d="M379.292,721.643c-1.007-2.015-0.197-4.467,1.825-5.481l5.556-2.783
						c2.016-1.01,4.475-0.188,5.481,1.819l0,0c1.008,2.016,0.198,4.473-1.824,5.482l-5.556,2.788
						C382.759,724.476,380.308,723.66,379.292,721.643L379.292,721.643z"/>
					<g>
						<path fill="#BCBEC0" d="M354.623,719.23c-0.854,1.482-2.517,2.231-4.126,1.999c1.286-0.116,2.491-0.828,3.191-2.031
							c1.125-1.951,0.458-4.452-1.499-5.573l-5.372-3.123c-0.469-0.263-0.963-0.424-1.462-0.493
							c0.811-0.071,1.642,0.095,2.404,0.527l5.372,3.116C355.088,714.779,355.759,717.273,354.623,719.23z"/>
						<path fill="#BCBEC0" d="M354.63,719.227c-0.384,0.654-0.908,1.15-1.513,1.503c-0.99-1.436-2.664-2.521-4.255-3.368
							c-1.77-0.926-4.804-2.2-4.661-4.64c0.059-1.095,0.407-1.973,0.967-2.697c0.865-0.111,1.774,0.041,2.592,0.512l5.376,3.11
							C355.088,714.774,355.759,717.273,354.63,719.227z"/>
						<path fill="#BCBEC0" d="M354.63,719.231c-0.535,0.924-1.37,1.551-2.312,1.842c-1.286-3.63-4.127-6.455-7.381-8.616
							c-0.666-0.44-1.37-0.88-2.11-1.274c1.275-1.272,3.29-1.586,4.933-0.646l5.372,3.116
							C355.088,714.779,355.755,717.278,354.63,719.231z"/>
					</g>
					<g>
						<path fill="#BCBEC0" d="M379.292,721.643c0.777,1.534,2.39,2.373,4.002,2.234c-1.271-0.186-2.44-0.966-3.057-2.206
							c-1.007-2.025-0.197-4.475,1.825-5.482l5.556-2.787c0.477-0.238,0.975-0.37,1.477-0.417c-0.803-0.115-1.646-0.008-2.422,0.394
							l-5.556,2.783C379.102,717.171,378.285,719.628,379.292,721.643z"/>
						<path fill="#BCBEC0" d="M379.297,721.636c0.337,0.669,0.835,1.204,1.418,1.595c1.072-1.371,2.807-2.366,4.451-3.11
							c1.814-0.824,4.922-1.91,4.918-4.36c0.004-1.087-0.281-1.99-0.802-2.738c-0.854-0.17-1.774-0.07-2.609,0.356l-5.556,2.783
							C379.102,717.171,378.285,719.628,379.297,721.636z"/>
						<path fill="#BCBEC0" d="M379.292,721.643c0.477,0.951,1.279,1.626,2.195,1.981c1.495-3.55,4.508-6.194,7.882-8.166
							c0.689-0.404,1.419-0.796,2.185-1.147c-1.202-1.342-3.195-1.783-4.881-0.933l-5.556,2.783
							C379.102,717.171,378.285,719.628,379.292,721.643z"/>
					</g>
				</g>
				<g>
					<path fill="#243046" d="M374.364,610.679l-5.428-1.491c12.419-45.148,26.975-116.531,16.168-128.147
						c-1.012-1.085-2.202-1.422-3.873-1.091l-2.448-3.91c3.599-0.711,7.058-2.367,10.443,1.168
						C405.875,494.595,377.61,598.874,374.364,610.679z"/>
				</g>
				<g>
					<path fill="#243046" d="M255.502,471.813c-0.34,0.646-33.772,65.463-4.672,161.252l-5.387,1.635
						c-29.814-98.137,4.738-164.865,5.09-165.527C250.533,469.172,253.527,465.497,255.502,471.813z"/>
				</g>
				<path fill="#C8D3DC" d="M302.434,626.379c0.051-0.034,0.08-0.055,0.113-0.079l0.231-7.299
					c-20.683-38.463-36.315-150.466-36.315-150.466l-13.445,1.958c-4.222,12.377-16.806,107.23-16.806,107.23
					c9.851-4.222,29.76-8.146,29.76-8.146c-3.078,5.456-14.28,23.625-14.28,23.625c11.257,13.76,29.847,30.813,41.02,40.679
					C295.42,630.727,298.916,628.799,302.434,626.379z"/>
				<path fill="#B8C6CC" d="M369.083,473.672c0,0-52.662,147.674-82.213,163.152c0,0,39.87-10.787,80.209-44.09l-8.443-28.613
					l21.577,2.814c0,0,5.628-63.634,3.283-89.745L369.083,473.672z"/>
				<circle fill="#BCBEC0" cx="254.613" cy="641.694" r="21.285"/>
				<circle fill="#D1D3D4" cx="254.615" cy="641.694" r="16.439"/>
				<circle fill="#E6E7E8" cx="254.614" cy="641.694" r="12.062"/>
			</g>
			<g>
				<g>
					<g>
						<g>
							<path fill="#ECB291" d="M189.039,316.512c5.043,18.492,18.857,30.834,30.852,27.563c11.998-3.269,17.638-20.916,12.592-39.41
								c-5.043-18.492-18.854-30.834-30.852-27.563C189.637,280.37,183.997,298.017,189.039,316.512z"/>
							<path opacity="0.6" fill="#CC8D78" d="M189.039,316.512c5.043,18.492,18.857,30.834,30.852,27.563
								c11.998-3.269,17.638-20.916,12.592-39.41c-5.043-18.492-18.854-30.834-30.852-27.563
								C189.637,280.37,183.997,298.017,189.039,316.512z"/>
						</g>
						<path fill="#F9B58F" d="M345.304,488.058v-68.014h-62.058v68.014C283.246,488.058,301.378,498.908,345.304,488.058z"/>
						<path fill="#CC8D78" d="M283.246,455.349c14.188,0.899,38.297,0.813,62.058-6.697v-28.607h-23.001l-39.057,10.109V455.349z"/>
						<path fill="#F9B58F" d="M410.539,244.462c-10.784-103.804-107.758-97.426-107.783-97.424
							c-0.022-0.002-85.625-6.693-96.409,97.11c0,0-24.75,168.633,80.051,204.509c4.119,1.41,12.038,1.075,16.886,0.456
							C303.283,449.113,424.887,442.403,410.539,244.462z"/>
						<path fill="#1E1111" d="M227,209.752c0,0-11.118,13.29-15.34,49.876l-5.771,64.276c0,0-14.596-67.307-2.089-118.218
							L227,209.752z"/>
						
							<ellipse transform="matrix(0.923 0.3847 -0.3847 0.923 151.8161 -136.1299)" fill="#F9B58F" cx="416.168" cy="311.403" rx="22.514" ry="34.709"/>
						<g>
							<path fill="#FFFFFF" d="M307.393,314.406c0,0,25.862-36.556,50.379-1.035C357.771,313.371,339.965,349.687,307.393,314.406z"
								/>
							<path fill="none" stroke="#2C1712" stroke-width="3.7524" stroke-linecap="round" stroke-miterlimit="10" d="
								M307.393,314.406c0,0,25.862-36.556,50.379-1.035"/>
							<circle fill="#150C11" cx="335.37" cy="314.973" r="13.661"/>
							<path fill="#FFFFFF" d="M344.564,311.403c0,2.538-2.06,4.597-4.6,4.597c-2.535,0-4.595-2.059-4.595-4.597
								c0-2.54,2.06-4.598,4.595-4.598C342.505,306.806,344.564,308.863,344.564,311.403z"/>
						</g>
						<g>
							<path fill="#FFFFFF" d="M217.751,314.406c0,0,25.864-36.556,50.379-1.035C268.13,313.371,250.324,349.687,217.751,314.406z"
								/>
							<path fill="none" stroke="#2C1712" stroke-width="3.7524" stroke-linecap="round" stroke-miterlimit="10" d="
								M217.751,314.406c0,0,25.864-36.556,50.379-1.035"/>
							<circle fill="#150C11" cx="245.729" cy="314.973" r="13.661"/>
							<path fill="#FFFFFF" d="M254.923,311.403c0,2.538-2.059,4.597-4.599,4.597c-2.535,0-4.596-2.059-4.596-4.597
								c0-2.54,2.061-4.598,4.596-4.598C252.864,306.806,254.923,308.863,254.923,311.403z"/>
						</g>
						<g>
							<path fill="#1E1111" d="M307.757,287.421c2.703-3.899,6.502-6.825,10.675-9.044c4.192-2.2,8.924-3.635,13.845-3.895
								c4.913-0.38,9.993,0.837,14.32,3.085c4.452,2.113,7.831,5.852,10.145,9.854c-4.451-1.715-8.204-3.602-12.253-4.39
								c-3.95-0.914-7.854-1.33-11.84-1.056C324.645,282.344,316.662,284.742,307.757,287.421z"/>
						</g>
						<g>
							<path fill="#1E1111" d="M224.018,287.421c2.274-3.764,5.628-6.637,9.384-8.865c3.77-2.208,8.108-3.729,12.71-4.063
								c4.593-0.437,9.412,0.8,13.357,3.088c4.084,2.176,6.917,5.947,8.662,9.84c-4.053-1.779-7.371-3.685-10.99-4.467
								c-3.522-0.885-6.966-1.275-10.531-0.975C239.445,282.451,232.236,284.889,224.018,287.421z"/>
						</g>
						<path fill="#CD8260" d="M268.434,358.51c0,0,8.425,24.479,30.97,6.373L268.434,358.51z"/>
						<path fill="#CD8260" d="M280.457,411.133c0,0,14.695,1.251,22.826,0C303.283,411.133,294.218,422.39,280.457,411.133z"/>
						<path fill="#FFFFFF" d="M270.556,382.166c0,0,8.813-1.552,28.848,0.512c7.706,0.793,20.117-0.58,28.847-4.264
							c0,0-9.355,22.337-50.607,17.084C277.643,395.498,275.356,381.344,270.556,382.166z"/>
						<path fill="#CC8D78" d="M431.493,306.806c0,0,2.836-13.569-8.132-16.063c0,0-14.383-1.565-18.135,26.578
							c0,0,10.63,6.677,0,11.313c0,0,0.311,13.701,10.941,6.668"/>
						<g>
							<path fill="#6F4D40" d="M431.493,306.806c0.417-3.305,0.16-6.75-1.128-9.732c-0.692-1.462-1.64-2.773-2.877-3.749
								c-1.197-1.047-2.766-1.507-4.276-1.923l0.076,0.013c-2.601,0.01-5.327,1.238-7.405,2.994
								c-2.099,1.795-3.838,4.065-5.07,6.613c-1.313,2.51-2.203,5.229-3,7.974c-0.771,2.762-1.274,5.594-1.743,8.438l-0.391-0.833
								c1.158,0.78,2.165,1.637,3.084,2.674c0.89,1.03,1.734,2.263,1.928,3.817c0.185,1.564-0.634,3.155-1.726,4.017
								c-1.059,0.956-2.281,1.539-3.494,2.083l0.365-0.57c0.112,2.667,0.652,5.692,2.61,7.505c0.996,0.848,2.449,1.149,3.811,0.798
								c1.382-0.262,2.662-0.924,3.912-1.623c-1.186,0.798-2.412,1.577-3.828,1.973c-1.375,0.484-3.069,0.328-4.332-0.577
								c-1.271-0.905-2.037-2.303-2.521-3.694c-0.489-1.413-0.766-2.846-0.871-4.354l-0.027-0.374l0.393-0.199
								c1.106-0.559,2.198-1.159,3.016-1.979c0.878-0.787,1.268-1.815,1.12-2.813c-0.335-2.077-2.413-3.944-4.346-5.24l-0.464-0.311
								l0.072-0.523c0.813-5.804,1.971-11.72,4.858-17.015c1.351-2.67,3.255-5.116,5.609-7.06c2.367-1.933,5.335-3.228,8.586-3.063
								l0.043,0.003l0.035,0.011c1.665,0.532,3.378,1.141,4.688,2.379c1.323,1.171,2.359,2.659,2.938,4.297
								C432.243,300.054,432.179,303.54,431.493,306.806z"/>
						</g>
						<path fill="#6F4D40" d="M422.123,308.258c-0.393-0.922-0.989-1.944-1.829-2.947c-0.894-0.95-2.085-1.819-3.503-2.282
							c-0.7-0.171-1.447-0.352-2.162-0.37c-0.703,0.038-1.462-0.058-2.104,0.119c-1.253,0.174-2.326,0.538-3.269,0.891
							c-0.381,1.465-0.927,2.896-1.546,4.314l0.252,0.372c0,0,0.242-0.18,0.664-0.494c0.429-0.288,1.008-0.833,1.773-1.265
							c1.495-0.965,3.701-1.986,5.966-1.741c1.117,0.154,2.191,0.647,3.111,1.319c0.872,0.728,1.604,1.562,2.129,2.361
							c1.052,1.603,1.443,2.868,1.443,2.868S422.9,310.099,422.123,308.258z"/>
					</g>
					<path fill="#2F1C19" d="M201.454,217.228c0,0-0.003-129.07,147.577-84.379c14.896,4.512,47.074,23.79,69.493,52.872
						c0,0,48.878-4.69,10.997,93.644c0,0-8.897-3.003-17.871,2.804c0,0-13.061,42.096-19.463,46.466l5.794-46.466
						c0,0-29.082,4.868-17.824-69.242c0,0-80.754,25.955-99.125,21.269C281.032,234.194,221.239,224.139,201.454,217.228z"/>
					<g>
						<path fill="#C6A076" d="M242.939,222.62c-2.856-7.04-4.693-14.445-6.08-21.927c-1.354-7.494-1.98-15.133-1.918-22.798
							c0.398-7.634,1.084-15.378,3.589-22.712c2.475-7.296,6.303-14.212,11.794-19.496c-4.282,6.292-7.197,13.143-9.021,20.295
							c-1.833,7.157-2.514,14.582-2.614,21.989c-0.372,7.425,0.292,14.878,1.015,22.319
							C240.479,207.734,241.576,215.171,242.939,222.62z"/>
					</g>
					<g>
						<path fill="#C6A076" d="M262.582,226.037c-3.055-8.038-5.252-16.373-6.994-24.804c-1.747-8.437-2.729-17.03-3.204-25.681
							c-0.094-8.643,0.225-17.451,2.7-25.91c1.264-4.196,2.98-8.313,5.501-11.945c2.595-3.552,5.976-6.611,9.971-8.264
							c-7.298,4.779-10.946,12.873-12.676,20.93c-1.785,8.151-2.132,16.635-1.75,25.061c0.152,8.455,1.17,16.896,2.291,25.327
							C259.556,209.188,261.022,217.597,262.582,226.037z"/>
					</g>
					<g>
						<path fill="#C6A076" d="M280.457,228.873c-3.438-8.993-5.859-18.354-7.667-27.834c-1.786-9.488-2.701-19.162-2.715-28.891
							c0.281-9.685,1.462-19.591,5.325-28.709c2-4.504,4.65-8.771,8.096-12.297c3.513-3.445,7.714-6.157,12.293-7.663
							c-8.625,4.438-14.617,12.264-17.706,21.026c-3.1,8.802-4.275,18.261-4.261,27.696c-0.296,9.454,0.65,18.94,1.806,28.391
							C276.825,210.049,278.51,219.464,280.457,228.873z"/>
					</g>
					<g>
						<path fill="#C6A076" d="M307.757,228.873c-3.805-8.111-6.725-16.609-9.146-25.25c-2.427-8.647-4.037-17.524-5.028-26.51
							c-0.588-8.988-0.698-18.229,1.795-27.111c1.267-4.4,3.12-8.702,5.887-12.393c2.836-3.618,6.526-6.576,10.726-8.176
							c-7.817,4.634-12.142,12.835-13.811,21.261c-1.787,8.487-1.725,17.353-0.863,26.085c0.657,8.779,2.286,17.487,4.087,26.164
							C303.216,211.624,305.411,220.245,307.757,228.873z"/>
					</g>
					<g>
						<path fill="#C6A076" d="M328.249,222.62c-2.893-7.968-4.936-16.208-6.571-24.535c-1.598-8.339-2.491-16.82-2.742-25.376
							c0.137-8.508,0.656-17.329,4.303-25.435c1.869-3.959,4.691-7.752,8.66-9.898c3.98-2.085,8.52-2.451,12.665-1.688
							c-4.219,0.075-8.444,0.882-11.701,3.256c-3.343,2.21-5.561,5.72-6.972,9.468c-2.8,7.584-3.373,15.994-3.208,24.261
							c-0.064,8.313,0.863,16.645,1.835,24.968C325.545,205.965,326.856,214.274,328.249,222.62z"/>
					</g>
					<g>
						<path fill="#C6A076" d="M349.031,218.241c-2.531-6.696-4.297-13.639-5.725-20.655c-1.398-7.028-2.158-14.184-2.452-21.406
							c0.112-7.188,0.401-14.634,3.372-21.566c1.515-3.386,3.774-6.684,7.066-8.682c3.359-1.877,7.244-2.214,10.729-1.488
							c-3.563,0.113-7.098,0.892-9.702,3.016c-2.649,2.022-4.34,5.03-5.406,8.212c-2.153,6.418-2.499,13.496-2.311,20.445
							c-0.024,6.997,0.771,14.005,1.543,21.023C346.966,204.159,348.002,211.172,349.031,218.241z"/>
					</g>
					<g>
						<path fill="#C6A076" d="M369.526,212.612c-3.772-11.675-5.68-23.985-5.019-36.453c0.543-6.149,1.5-12.715,5.573-18.113
							c2.015-2.659,5.211-4.571,8.495-4.851c3.283-0.239,6.377,0.605,9.145,1.909c-3.021-0.508-6.07-0.889-8.825-0.098
							c-2.759,0.677-4.954,2.453-6.446,4.762c-2.933,4.733-3.772,10.784-4.201,16.646c-0.424,5.931-0.238,11.953,0.031,17.987
							C368.629,200.433,369.017,206.502,369.526,212.612z"/>
					</g>
					<g>
						<path fill="#C6A076" d="M383.287,212.612c-1.687-8.865-1.36-18.168,1.695-27.024c1.633-4.295,4.434-8.838,9.125-10.928
							c4.746-2.152,9.762-0.582,13.604,1.516c-4.451-0.785-8.896-0.975-12.272,1.091c-3.325,2.046-5.507,5.705-6.949,9.65
							C385.608,194.914,384.536,203.718,383.287,212.612z"/>
					</g>
					<g>
						<path fill="#C6A076" d="M224.018,222.62c-6.532-6.771-11.179-15.29-13.829-24.449c-1.198-4.622-1.855-9.434-1.586-14.246
							c0.359-4.815,1.837-9.513,4.263-13.524c-1.077,4.6-1.458,9.083-1.336,13.557c0.334,4.475,1.09,8.882,2.276,13.223
							c1.148,4.354,2.771,8.593,4.479,12.826C220.072,214.204,221.912,218.433,224.018,222.62z"/>
					</g>
				</g>
				<g>
					<path fill="#140D14" d="M272.736,295.57c-2.8-3.068-6.71-4.76-11.012-4.76h-36.971c-4.303,0-8.212,1.691-11.017,4.76
						c-0.055,0.066-0.098,0.15-0.153,0.219h-7.897c-2.722,5.308-1.7,13.477-1.7,13.477l6.604,4.024v-0.003l1.125,12.181
						c0.796,8.67,8.527,15.721,17.238,15.721h28.576c8.703,0,16.438-7.051,17.233-15.721l1.704-18.498
						C276.858,302.689,275.536,298.644,272.736,295.57z M269.984,325.029c-0.579,6.263-6.164,11.362-12.455,11.362h-28.576
						c-6.3,0-11.884-5.1-12.459-11.362l-1.705-18.494c-0.27-2.924,0.616-5.669,2.5-7.73c1.88-2.06,4.532-3.195,7.465-3.195h36.971
						c2.936,0,5.588,1.136,7.468,3.195c1.88,2.062,2.767,4.807,2.492,7.729L269.984,325.029z"/>
					<path fill="#140D14" d="M296.863,306.97l1.704,18.498c0.795,8.67,8.527,15.721,17.234,15.721h28.571
						c8.711,0,16.443-7.051,17.238-15.721l1.125-12.181v0.003l6.607-4.024c0,0,1.019-8.169-1.701-13.477h-7.896
						c-0.059-0.068-0.1-0.152-0.158-0.219c-2.803-3.068-6.713-4.76-11.015-4.76h-36.972c-4.298,0-8.208,1.691-11.008,4.76
						C297.794,298.644,296.471,302.689,296.863,306.97z M301.642,306.533c-0.271-2.922,0.616-5.667,2.496-7.729
						c1.88-2.06,4.533-3.195,7.464-3.195h36.972c2.936,0,5.588,1.136,7.468,3.195c1.88,2.062,2.771,4.807,2.499,7.73l-1.704,18.494
						c-0.574,6.263-6.166,11.362-12.463,11.362h-28.571c-6.292,0-11.881-5.1-12.46-11.362L301.642,306.533z"/>
					<path fill="none" stroke="#140D14" stroke-width="7.4397" stroke-miterlimit="10" d="M273.271,302.457
						c0,0,12.66-7.813,27.282,0"/>
				</g>
				<g>
					<polygon fill="#150C11" points="363.538,297.489 410.281,275.534 413.128,280.878 368.83,307.424 					"/>
				</g>
			</g>
		</g>
		<g>
			<path fill="#70C9E3" d="M428.207,603.061L428.207,603.061c0.004,0.146,0.006,0.287,0.008,0.435L428.207,603.061z"/>
		</g>
		<path fill="#FFFFFF" d="M215.604,483.598c0,0-15.102-2.482-33.333,6.413c0,0-15.728,8.897-8.223,26.408
			c0,0-10.312,8.754-2.03,16.259c0,0-89.277,161.051-59.258,217.641c0,0,44.756,51.434,235.641,35.098L201.454,690.2
			L215.604,483.598z"/>
		<path opacity="0.4" fill="#70C9E3" d="M317.479,765.379l-41.581-11.789c-90.772,27.663-138.124-22.034-151.257-35.166
			c-8.387-8.385-4.152-51.054,0.005-80.829c-15.211,42.722-25.094,87.83-11.887,112.724c0,0,44.756,51.434,235.641,35.098
			L317.479,765.379z"/>
		<path opacity="0.4" fill="#70C9E3" d="M218.268,490.011c0,0-44.845,158.993-43.906,189.013h35.393L218.268,490.011z"/>
		<path fill="#F9B58F" d="M229.915,731.592l-19.827-7.942c0,0-6.797,16.884-47.526-2.834c0,0-9.005-4.073-13.659-7.034
			c0,0-6.344-8.458,0-13.533c0,0-2.961-10.577,5.075-14.805c0,0-3.808-11.418,2.961-14.379c0,0,1.69-10.574,8.881-13.112
			c0,0,5.343-6.717,23.608,4.255c0,0,4.306,0.397,6.845-8.485c0,0,5.499-6.765,10.995-3.382c0,0,6.443,19.029,8.931,24.953
			c0,0,3.335,4.232,3.335,12.267l18.643,2.932L229.915,731.592z"/>
		<path fill="#FFFFFF" d="M426.18,490.011c0,0,33.369,5.117,49.628,9.319c0,0,77.239,210.659,30.645,269.442
			c-33.139,41.805-145.721,32.203-284.247-22.207c0,0-3.703-49.718,15.971-60.976c0,0,137.879,31.918,200.732,24.402
			c0,0,1.2-67.531-10.701-106.932C428.207,603.061,417.646,527.674,426.18,490.011z"/>
		<path opacity="0.4" fill="#70C9E3" d="M510.275,763.129c0.756-1.279,1.448-2.635,2.125-4.009
			c12.003-24.948,10.598-65.67,3.885-107.561c-0.544,56.712-12.336,116.779-59.551,118.759
			c-84.269,3.525-203.975-38.447-233.648-52.257c-0.117,0.906-0.224,1.81-0.32,2.706c-0.006,0.062-0.014,0.123-0.019,0.185
			c-0.09,0.84-0.171,1.673-0.24,2.496c-0.007,0.08-0.015,0.16-0.02,0.241c-0.068,0.799-0.13,1.593-0.184,2.373
			c-0.007,0.101-0.013,0.202-0.021,0.305c-0.051,0.757-0.095,1.506-0.132,2.24c-0.007,0.108-0.011,0.215-0.016,0.321
			c-0.037,0.728-0.068,1.441-0.095,2.142c-0.003,0.101-0.007,0.203-0.01,0.304c-0.022,0.687-0.043,1.361-0.057,2.021
			c-0.003,0.109-0.006,0.223-0.008,0.337c-0.013,0.646-0.021,1.274-0.027,1.883c-0.002,0.1-0.004,0.198-0.004,0.294
			c-0.004,0.623-0.006,1.221-0.004,1.796c0,0.076,0,0.153,0,0.227c0.002,0.564,0.008,1.106,0.015,1.627
			c0,0.096,0.002,0.19,0.004,0.278c0.008,0.521,0.019,1.019,0.029,1.488c0,0.051,0.001,0.103,0.004,0.153
			c0.011,0.484,0.025,0.938,0.04,1.36c0,0.036,0.002,0.077,0.003,0.117c0.015,0.406,0.029,0.772,0.044,1.117
			c0,0.048,0.004,0.103,0.006,0.146c0.016,0.337,0.029,0.635,0.042,0.901c0.002,0.03,0.004,0.066,0.006,0.096
			c0.046,0.872,0.081,1.349,0.081,1.349c138.526,54.41,251.108,64.012,284.247,22.207c1.108-1.4,2.122-2.917,3.099-4.482
			C509.792,763.902,510.043,763.524,510.275,763.129z"/>
		<path fill="#F9B58F" d="M438.908,709.992c0,0,26.58,0.971,39.088,5.64c0,0,12.241-22.985-16.573-30.666c0,0,12.983-0.313,19.156,0
			c0,0,5.234-2.817,5.234-8.132c0,0-26.267-1.877-34.71-5.315c-8.443-3.439-19.387,3.128-25.954,7.505
			c0,0-30.334,14.696-33.46,14.071c0,0-18.979,13.513-19.964,15.356C371.726,708.451,422.021,713.442,438.908,709.992z"/>
	</g>
	<g>
		<path fill="#FFFFFF" d="M390.159,382.578l-14.512-30.332l-69.197-9.484c-13.888-3.854-32.078-3.646-32.078-3.646
			c-18.763,2.818-58.64,7.291-58.64,7.291l-5.533,11.034c9.755,39.538,30.914,77.969,74.891,93.022
			c4.119,1.411,12.039,1.076,16.887,0.457C301.977,450.92,358.775,447.767,390.159,382.578z"/>
		<path fill="#B0AFAD" d="M374.119,358.605l-94.694-14.055l-0.264-0.039l-57.401,7.846l-9.9,11.318
			c0.396,1.425,0.828,2.844,1.257,4.262l10.543-12.051l55.479-7.586l92.488,13.728l14.223,28.774
			c0.739-1.322,1.469-2.667,2.187-4.047L374.119,358.605z"/>
		<path fill="#FFFFFF" d="M372.873,355.061c0,0,36.771-70.433,40.96-72.543l4.518-2.237c0,0-6.793-5.154-10.941,0l-42.531,70.488
			L372.873,355.061z"/>
	</g>
</g>
<ellipse fill="#FFFFFF" stroke="#2B84C6" stroke-width="2" stroke-miterlimit="10" cx="539.583" cy="160.088" rx="70.52" ry="72.576"/>
<circle fill="#FFFFFF" cx="460.953" cy="271.357" r="9.042"/>
<circle fill="#FFFFFF" cx="485.814" cy="240.963" r="12.09"/>
<text transform="matrix(1 0 0 1 497.9043 193.1211)" fill="#2B84C6" stroke="#2B84C6" stroke-width="5" stroke-miterlimit="10" font-family="'MVBoli'" font-size="103">?</text>
</svg>
