<?xml version="1.0" encoding="utf-8"?>
<!-- Generator: Adobe Illustrator 16.0.0, SVG Export Plug-In . SVG Version: 6.00 Build 0)  -->
<!DOCTYPE svg PUBLIC "-//W3C//DTD SVG 1.1//EN" "http://www.w3.org/Graphics/SVG/1.1/DTD/svg11.dtd">
<svg version="1.1" id="Layer_1" xmlns="http://www.w3.org/2000/svg" xmlns:xlink="http://www.w3.org/1999/xlink" x="0px" y="0px"
	 width="273px" height="109.902px" viewBox="0 0 273 109.902" enable-background="new 0 0 273 109.902" xml:space="preserve">
<path id="Path_180665" opacity="0.5" fill="#0F7ED0" d="M162.295,8.693C117.082,5.076,75.918,23.363,15.158,0h-2.421
	C7.547,0.001,2.728,2.689,0,7.105c11.715,6.022,24.123,10.59,36.947,13.6C91.003,33.971,126.36,17.958,162.295,8.693L162.295,8.693z
	"/>
<path id="Path_180666" opacity="0.5" fill="#0F7ED0" d="M162.559,8.693c14.504,1.09,28.706,4.703,41.967,10.679
	c53.933,24.133,65.91,73.544,68.475,90.53V27.584c-11.885-9.368-25.528-16.258-40.122-20.262
	C206.357-0.064,184.352,3.074,162.559,8.693z"/>
<path id="Path_180667" d="M162.445,8.693c21.815-5.619,43.845-8.757,70.392-1.371C247.443,11.325,261.1,18.215,273,27.584V15
	c-0.004-8.288-6.727-15.004-15.016-15H15.158C75.98,23.363,117.186,5.076,162.445,8.693z"/>
<path id="Path_180668" opacity="0.5" fill="#0F7ED0" d="M162.445,8.693c21.815-5.619,43.845-8.757,70.392-1.371
	C247.443,11.325,261.1,18.215,273,27.584V15c-0.004-8.288-6.727-15.004-15.016-15H15.158C75.98,23.363,117.186,5.076,162.445,8.693z
	"/>
</svg>
